<svg xmlns="http://www.w3.org/2000/svg" xmlns:xlink="http://www.w3.org/1999/xlink" version="1.1" id="Layer_1" x="0px" y="0px" style="enable-background:new 0 0 1440 768;" xml:space="preserve" viewBox="632.42 352.73 174.98 62.29"><style type="text/css">	.st0{fill:#FFFFFF;}	.st1{fill-rule:evenodd;clip-rule:evenodd;}	.st2{fill-rule:evenodd;clip-rule:evenodd;fill:#FFFFFF;stroke:#000000;}	.st3{fill:#0F0F10;}</style><path class="st0" d="M805.86,391.58c0,0-0.05,0.05-0.19,0.14c-0.62-1.14-1.49-2.23-1.52-2.28c-0.45-0.7-1.92-1.11-2.31-1.01  c0,0-0.03,0.02-0.11,0.07c-0.22-0.04-0.5-0.08-0.86-0.11c-14.76-1.17-29.3-2.19-34.98-3.84c-6.91-2.02-10.69-4.55-12.73-5.52  c0,0.03-0.01,0.05-0.02,0.07l-38.61-24c0.09-0.13,0.18-0.26,0.26-0.37c-1.28-1.17-2.34-1.48-2.34-1.48s-2.93,3.77-3.83,7.69  c0,0.02-0.01,0.03-0.01,0.05c-0.04,0.03-0.07,0.05-0.11,0.08c-4.44,3.53-9.42,10-17.52,12.7c-8.12,2.71-21.73-0.41-30.04-2.15  c-8.3-1.74-17.65-5.74-18.85-5.87c-0.75-0.09-1.23,0.75-1.9,1.9c-1.54,2.65-4.92,11.02-5.47,15.83c-0.36,3.21-0.21,7.31,0.01,10.97  c-0.05,0-0.1,0-0.14,0c-0.46-0.01-1.1,3.82-1.09,3.95c0,0.05-0.02,0.87,0.02,1.32c0,0.02,0,0.05,0,0.07  c-0.01-0.01-0.02-0.02-0.03-0.04l-0.04-0.18c-0.34,0.27-0.35,0.54-0.33,0.65c0.86,4.29,1.97,10.57,2.09,11.3  c0.12,0.74,2.06,1.04,3.2,1.04c1.03,0,67.01,1.11,99.81,1.65c-0.03,0.1-0.07,0.2-0.09,0.31c0,0,12.91-0.19,13.45-0.18  c28.31,0.45,48.77-5.72,51.41-6.66c1.18-0.42,1.94-0.79,1.93-1.61c-0.03-4.4,1.79-9.37,2-10.49  C807.12,394.35,805.98,391.56,805.86,391.58z"></path><g>	<path class="st1" d="M745.29,379.83c0.08-0.13,0.63-0.25,1.57,0.3c0.95,0.55,1.12,1.09,1.05,1.22c-0.07,0.13-0.62,0.27-1.58-0.29   C745.37,380.51,745.21,379.96,745.29,379.83z M745.98,381.69c-1.33-0.77-2.11-1.88-1.76-2.47c0.35-0.58,1.68-0.44,2.97,0.31   c1.29,0.75,2.09,1.83,1.77,2.44C748.65,382.57,747.31,382.46,745.98,381.69z"></path>	<path class="st1" d="M714.01,364c0.12-0.22,0.8-0.57,1.82-0.04c1.02,0.53,1.1,1.27,0.98,1.49c-0.12,0.22-0.8,0.57-1.82,0.04   C713.97,364.96,713.89,364.21,714.01,364z M714.46,366.45c-1.37-0.71-2.05-2.05-1.53-3.01c0.52-0.96,2.06-1.16,3.42-0.45   c1.37,0.71,2.05,2.05,1.53,3.01C717.36,366.95,715.83,367.16,714.46,366.45z"></path>	<path class="st1" d="M721.58,368.1c0.12-0.23,0.84-0.59,1.9-0.04c1.06,0.55,1.15,1.32,1.03,1.55c-0.12,0.23-0.83,0.59-1.9,0.04   C721.54,369.11,721.45,368.33,721.58,368.1z M722.09,370.59c-1.37-0.71-2.05-2.05-1.53-3.01c0.52-0.96,2.06-1.16,3.43-0.45   c1.37,0.7,2.05,2.05,1.53,3.01C724.99,371.09,723.46,371.29,722.09,370.59z"></path>	<path class="st1" d="M729.57,372.05c0.11-0.18,0.73-0.41,1.66,0.12c0.93,0.54,1.01,1.18,0.91,1.36c-0.11,0.18-0.73,0.42-1.67-0.12   C729.53,372.87,729.46,372.23,729.57,372.05z M729.94,374.28c-1.33-0.77-2-2.05-1.48-2.87c0.51-0.81,1.98-0.84,3.3-0.09   c1.31,0.76,1.98,2.03,1.5,2.84C732.76,374.99,731.27,375.04,729.94,374.28z"></path>	<path class="st1" d="M737.43,375.84c0.1-0.13,0.7-0.24,1.59,0.29c0.9,0.53,0.99,1.06,0.89,1.19c-0.1,0.13-0.69,0.26-1.6-0.29   C737.41,376.49,737.33,375.97,737.43,375.84z M737.79,377.69c-1.31-0.79-1.97-1.91-1.47-2.51c0.49-0.59,1.92-0.45,3.2,0.32   c1.29,0.77,1.97,1.88,1.51,2.5C740.57,378.61,739.11,378.48,737.79,377.69z"></path></g><g>	<g>		<path class="st2" d="M750.95,377.21c0.28,0.42-2.39,3.61-3.31,3.92c-0.21,0.07-0.43,0.1-0.64,0.1c-0.34,0-1.29-0.66-1.33-0.94    c-0.1-0.71,1.71-4.61,2.63-4.61C749.22,375.68,750.75,376.9,750.95,377.21z"></path>		<path class="st2" d="M745.6,373.67c0.52,0.39-1.52,0.13-2.19,0.37c-1.73,0.61-3.15,2.81-3.45,3.01c-0.1,0.07-0.45,0.34-1.03,0.08    c-0.24-0.11-1.16-0.82-1.29-1.01c-0.41-0.61,1.89-2.91,2.3-3.2c0.79-0.55,2.24-0.92,2.75-0.92    C743.2,372.01,745.19,373.37,745.6,373.67z"></path>		<path class="st2" d="M739.14,369.74c0.52,0.39-1.44,0.52-2.15,0.52c-0.35,0-1.37,0.27-2.52,0.9c-1.19,0.65-2.28,2.2-2.45,2.29    c-1.53,0.78-2.31-0.78-2.23-1.07c0.26-1,1.86-2.73,2.21-2.93c2.62-1.51,3.67-1.35,4.18-1.38    C737.55,367.99,738.73,369.44,739.14,369.74z"></path>		<path class="st2" d="M731.99,365.14c0.52,0.39-1.54,0.44-2.25,0.44c-0.35,0-2.02,0.36-3.17,0.98c-1.22,0.66-1.78,2.57-2.05,2.83    c-1.4,1.32-3.08-0.36-2.7-1.26c0.47-1.12,1.89-2.96,2.22-3.17c2.93-1.89,4.49-1.43,5-1.43    C729.54,363.54,731.59,364.84,731.99,365.14z"></path>	</g></g><path d="M664.91,395.12c-0.16,0-0.32-0.08-0.4-0.23l-0.23-0.4c-0.13-0.22-0.05-0.51,0.17-0.64c0.22-0.13,0.51-0.05,0.64,0.17  l0.23,0.41c0.13,0.22,0.05,0.51-0.17,0.64C665.07,395.1,664.99,395.12,664.91,395.12z M662.72,391.55c-0.15,0-0.3-0.07-0.39-0.21  l-0.26-0.39c-0.14-0.21-0.08-0.5,0.13-0.65c0.21-0.14,0.5-0.08,0.65,0.13l0.26,0.39c0.14,0.22,0.08,0.5-0.13,0.64  C662.9,391.53,662.81,391.55,662.72,391.55z M660.33,388.11c-0.14,0-0.28-0.07-0.37-0.19l-0.28-0.37c-0.16-0.21-0.11-0.5,0.09-0.65  c0.2-0.16,0.5-0.12,0.65,0.09l0.28,0.38c0.15,0.21,0.11,0.5-0.1,0.65C660.52,388.08,660.42,388.11,660.33,388.11z M657.73,384.83  c-0.13,0-0.26-0.06-0.35-0.16l-0.29-0.33c-0.17-0.19-0.16-0.49,0.03-0.66c0.19-0.17,0.47-0.16,0.65,0.02l0.31,0.37  c0.17,0.2,0.14,0.49-0.05,0.66C657.94,384.79,657.83,384.83,657.73,384.83z M654.85,381.79c-0.11,0-0.23-0.04-0.32-0.13l-0.34-0.31  c-0.19-0.17-0.2-0.47-0.03-0.66c0.17-0.19,0.47-0.2,0.66-0.03l0.35,0.32c0.19,0.18,0.2,0.47,0.02,0.66  C655.09,381.74,654.97,381.79,654.85,381.79z M651.61,379.13c-0.09,0-0.19-0.03-0.27-0.09l-0.37-0.26  c-0.21-0.15-0.26-0.44-0.12-0.65c0.15-0.21,0.44-0.26,0.65-0.12l0.39,0.27c0.21,0.15,0.26,0.44,0.11,0.65  C651.9,379.06,651.76,379.13,651.61,379.13z M648.05,376.93c-0.07,0-0.15-0.02-0.22-0.05l-0.41-0.21c-0.23-0.12-0.32-0.4-0.2-0.63  c0.12-0.23,0.4-0.32,0.63-0.2l0.42,0.22c0.23,0.12,0.32,0.4,0.2,0.63C648.38,376.84,648.22,376.93,648.05,376.93z M644.23,375.23  c-0.05,0-0.11-0.01-0.16-0.03l-0.43-0.16c-0.24-0.08-0.37-0.35-0.29-0.59c0.09-0.24,0.35-0.37,0.59-0.29l0.45,0.16  c0.24,0.09,0.36,0.36,0.28,0.6C644.59,375.11,644.42,375.23,644.23,375.23z M640.22,374.02c-0.04,0-0.07,0-0.11-0.01l-0.45-0.11  c-0.25-0.06-0.41-0.31-0.35-0.56c0.06-0.25,0.31-0.41,0.56-0.35l0.46,0.11c0.25,0.06,0.4,0.31,0.34,0.56  C640.62,373.88,640.43,374.02,640.22,374.02z"></path><path d="M661.33,395.15c-0.16,0-0.32-0.08-0.4-0.23l-0.24-0.4c-0.13-0.22-0.06-0.51,0.16-0.64c0.22-0.13,0.51-0.06,0.64,0.16  l0.24,0.4c0.13,0.22,0.06,0.51-0.17,0.64C661.49,395.13,661.41,395.15,661.33,395.15z M659.05,391.63c-0.15,0-0.29-0.07-0.38-0.2  l-0.27-0.38c-0.15-0.21-0.1-0.5,0.11-0.65c0.21-0.15,0.5-0.1,0.65,0.11l0.27,0.38c0.15,0.21,0.1,0.5-0.11,0.65  C659.24,391.6,659.15,391.63,659.05,391.63z M656.53,388.29c-0.14,0-0.27-0.06-0.36-0.17l-0.29-0.36c-0.16-0.2-0.13-0.49,0.07-0.66  c0.2-0.16,0.49-0.13,0.66,0.07l0.3,0.37c0.16,0.2,0.13,0.49-0.07,0.65C656.73,388.26,656.63,388.29,656.53,388.29z M653.8,385.11  c-0.12,0-0.25-0.05-0.34-0.15l-0.32-0.33c-0.18-0.18-0.18-0.48,0.01-0.66c0.18-0.18,0.48-0.18,0.66,0.01l0.33,0.34  c0.18,0.19,0.17,0.48-0.02,0.66C654.03,385.07,653.92,385.11,653.8,385.11z M650.69,382.31c-0.1,0-0.2-0.03-0.28-0.1  c-0.12-0.09-0.24-0.18-0.36-0.27c-0.21-0.15-0.25-0.44-0.1-0.65s0.44-0.26,0.65-0.1c0.13,0.09,0.25,0.19,0.38,0.28  c0.2,0.16,0.24,0.45,0.09,0.65C650.97,382.25,650.83,382.31,650.69,382.31z M647.16,380.07c-0.07,0-0.15-0.02-0.22-0.05l-0.41-0.21  c-0.23-0.12-0.32-0.4-0.21-0.62c0.11-0.23,0.39-0.32,0.62-0.21l0.42,0.22c0.23,0.12,0.32,0.4,0.2,0.63  C647.49,379.98,647.32,380.07,647.16,380.07z M643.31,378.43c-0.05,0-0.1-0.01-0.15-0.03l-0.43-0.15c-0.24-0.08-0.38-0.34-0.3-0.59  c0.08-0.24,0.34-0.38,0.59-0.3l0.45,0.15c0.24,0.08,0.37,0.35,0.29,0.59C643.68,378.3,643.5,378.43,643.31,378.43z M639.28,377.28  c-0.04,0-0.07,0-0.11-0.01l-0.45-0.11c-0.25-0.06-0.41-0.31-0.35-0.56c0.06-0.25,0.31-0.41,0.56-0.35l0.46,0.11  c0.25,0.06,0.41,0.31,0.35,0.56C639.68,377.14,639.49,377.28,639.28,377.28z"></path><g>	<path class="st1" d="M745.29,379.83c0.08-0.13,0.63-0.25,1.57,0.3c0.95,0.55,1.12,1.09,1.05,1.22c-0.07,0.13-0.62,0.27-1.58-0.29   C745.37,380.51,745.21,379.96,745.29,379.83z M745.98,381.69c-1.33-0.77-2.11-1.88-1.76-2.47c0.35-0.58,1.68-0.44,2.97,0.31   c1.29,0.75,2.09,1.83,1.77,2.44C748.65,382.57,747.31,382.46,745.98,381.69z"></path>	<path class="st1" d="M714.01,364c0.12-0.22,0.8-0.57,1.82-0.04c1.02,0.53,1.1,1.27,0.98,1.49c-0.12,0.22-0.8,0.57-1.82,0.04   C713.97,364.96,713.89,364.21,714.01,364z M714.46,366.45c-1.37-0.71-2.05-2.05-1.53-3.01c0.52-0.96,2.06-1.16,3.42-0.45   c1.37,0.71,2.05,2.05,1.53,3.01C717.36,366.95,715.83,367.16,714.46,366.45z"></path>	<path class="st1" d="M721.58,368.1c0.12-0.23,0.84-0.59,1.9-0.04c1.06,0.55,1.15,1.32,1.03,1.55c-0.12,0.23-0.83,0.59-1.9,0.04   C721.54,369.11,721.45,368.33,721.58,368.1z M722.09,370.59c-1.37-0.71-2.05-2.05-1.53-3.01c0.52-0.96,2.06-1.16,3.43-0.45   c1.37,0.7,2.05,2.05,1.53,3.01C724.99,371.09,723.46,371.29,722.09,370.59z"></path>	<path class="st1" d="M729.57,372.05c0.11-0.18,0.73-0.41,1.66,0.12c0.93,0.54,1.01,1.18,0.91,1.36c-0.11,0.18-0.73,0.42-1.67-0.12   C729.53,372.87,729.46,372.23,729.57,372.05z M729.94,374.28c-1.33-0.77-2-2.05-1.48-2.87c0.51-0.81,1.98-0.84,3.3-0.09   c1.31,0.76,1.98,2.03,1.5,2.84C732.76,374.99,731.27,375.04,729.94,374.28z"></path>	<path class="st1" d="M737.43,375.84c0.1-0.13,0.7-0.24,1.59,0.29c0.9,0.53,0.99,1.06,0.89,1.19c-0.1,0.13-0.69,0.26-1.6-0.29   C737.41,376.49,737.33,375.97,737.43,375.84z M737.79,377.69c-1.31-0.79-1.97-1.91-1.47-2.51c0.49-0.59,1.92-0.45,3.2,0.32   c1.29,0.77,1.97,1.88,1.51,2.5C740.57,378.61,739.11,378.48,737.79,377.69z"></path></g><g>	<path d="M713.26,393.41c-0.14,0-0.28-0.06-0.37-0.18c-0.16-0.2-0.12-0.5,0.09-0.65c0.13-0.1,0.25-0.19,0.38-0.28   c0.21-0.15,0.5-0.1,0.65,0.11c0.15,0.21,0.1,0.5-0.11,0.65c-0.12,0.09-0.25,0.18-0.37,0.27   C713.46,393.38,713.36,393.41,713.26,393.41z M716.83,391.24c-0.17,0-0.34-0.1-0.42-0.27c-0.11-0.23-0.01-0.51,0.22-0.62   c0.14-0.07,0.29-0.14,0.43-0.2c0.24-0.11,0.51,0,0.61,0.24c0.11,0.24,0,0.51-0.24,0.61c-0.14,0.06-0.28,0.13-0.41,0.19   C716.97,391.22,716.9,391.24,716.83,391.24z M720.77,389.84c-0.21,0-0.4-0.14-0.45-0.36c-0.06-0.25,0.09-0.5,0.34-0.56   c0.15-0.04,0.31-0.07,0.46-0.11c0.25-0.06,0.5,0.1,0.56,0.35c0.06,0.25-0.1,0.5-0.35,0.56c-0.15,0.03-0.3,0.07-0.44,0.1   C720.85,389.83,720.81,389.84,720.77,389.84z M746.29,389.83c-0.01,0-0.01,0-0.01,0c-0.16-0.01-0.32-0.01-0.48-0.02   c-0.26-0.01-0.45-0.23-0.44-0.49c0.01-0.26,0.23-0.46,0.49-0.44c0.15,0.01,0.31,0.01,0.45,0.02c0.26,0.01,0.46,0.22,0.45,0.48   C746.75,389.63,746.54,389.83,746.29,389.83z M742.11,389.6c-0.01,0-0.02,0-0.02,0l-0.46-0.02c-0.26-0.01-0.45-0.23-0.44-0.49   c0.01-0.26,0.24-0.46,0.49-0.44l0.47,0.02c0.26,0.01,0.45,0.23,0.44,0.49C742.56,389.41,742.36,389.6,742.11,389.6z M749.99,389.57   c-0.22,0-0.41-0.15-0.46-0.38c-0.05-0.25,0.12-0.5,0.37-0.55c0.15-0.03,0.3-0.06,0.44-0.09c0.25-0.06,0.5,0.1,0.56,0.35   c0.06,0.25-0.1,0.5-0.35,0.56c-0.15,0.04-0.31,0.07-0.47,0.1C750.05,389.57,750.02,389.57,749.99,389.57z M737.93,389.41   c-0.01,0-0.01,0-0.02,0l-0.09,0l-0.37-0.01c-0.26-0.01-0.46-0.22-0.45-0.48c0.01-0.26,0.23-0.47,0.48-0.45l0.37,0.01   c0.26,0.01,0.5,0.23,0.49,0.48C738.34,389.21,738.18,389.41,737.93,389.41z M729.56,389.23   C729.56,389.23,729.56,389.23,729.56,389.23l-0.47,0c-0.26,0-0.46-0.21-0.46-0.47c0-0.26,0.21-0.44,0.47-0.46l0.47,0.01   c0.26,0,0.46,0.21,0.46,0.47C730.02,389.03,729.82,389.23,729.56,389.23z M724.91,389.23c-0.24,0-0.45-0.19-0.46-0.44   c-0.02-0.26,0.18-0.48,0.44-0.49c0.16-0.01,0.32-0.02,0.48-0.02c0.26-0.02,0.47,0.19,0.48,0.45c0.01,0.26-0.19,0.47-0.45,0.48   c-0.15,0.01-0.3,0.01-0.45,0.02C724.93,389.23,724.92,389.23,724.91,389.23z M753.84,388.01c-0.15,0-0.29-0.07-0.38-0.2   c-0.15-0.21-0.1-0.5,0.11-0.65c0.12-0.09,0.24-0.17,0.35-0.26c0.2-0.16,0.49-0.13,0.66,0.07c0.16,0.2,0.13,0.49-0.07,0.66   c-0.12,0.1-0.26,0.2-0.39,0.3C754.03,387.98,753.94,388.01,753.84,388.01z M756.32,384.72c-0.04,0-0.09-0.01-0.13-0.02   c-0.25-0.07-0.39-0.33-0.31-0.58c0.05-0.16,0.08-0.29,0.09-0.38c0.03-0.25,0.26-0.44,0.52-0.4c0.25,0.03,0.43,0.27,0.4,0.52   c-0.02,0.13-0.05,0.31-0.12,0.53C756.7,384.58,756.52,384.72,756.32,384.72z"></path>	<g>		<path d="M708.53,393.96c-0.11,0-0.22-0.04-0.31-0.12c-0.19-0.17-0.21-0.47-0.04-0.66c0.1-0.12,0.21-0.23,0.32-0.35    c0.18-0.19,0.47-0.2,0.66-0.02c0.19,0.18,0.2,0.47,0.02,0.66c-0.11,0.11-0.21,0.23-0.31,0.34    C708.79,393.9,708.66,393.96,708.53,393.96z M711.61,391.12c-0.14,0-0.28-0.06-0.37-0.18c-0.16-0.2-0.12-0.5,0.09-0.65    c0.13-0.1,0.25-0.19,0.38-0.28c0.21-0.15,0.5-0.1,0.65,0.11c0.15,0.21,0.1,0.5-0.11,0.65c-0.12,0.09-0.25,0.18-0.37,0.27    C711.8,391.09,711.7,391.12,711.61,391.12z M715.18,388.94c-0.17,0-0.34-0.1-0.42-0.27c-0.11-0.23-0.01-0.51,0.22-0.62    c0.14-0.07,0.29-0.14,0.43-0.2c0.24-0.11,0.51,0,0.61,0.24c0.1,0.24,0,0.51-0.24,0.61c-0.14,0.06-0.28,0.13-0.41,0.19    C715.32,388.93,715.25,388.94,715.18,388.94z M719.12,387.55c-0.21,0-0.4-0.14-0.45-0.36c-0.06-0.25,0.09-0.5,0.34-0.56    c0.15-0.04,0.31-0.07,0.46-0.11c0.25-0.05,0.5,0.1,0.56,0.35c0.06,0.25-0.1,0.5-0.35,0.56c-0.15,0.03-0.3,0.07-0.44,0.1    C719.19,387.54,719.16,387.55,719.12,387.55z M744.64,387.54c-0.01,0-0.01,0-0.01,0c-0.16-0.01-0.32-0.01-0.48-0.02    c-0.26-0.01-0.45-0.23-0.44-0.49c0.01-0.26,0.24-0.46,0.49-0.44c0.15,0.01,0.31,0.01,0.45,0.02c0.26,0.01,0.46,0.22,0.45,0.48    C745.09,387.34,744.89,387.54,744.64,387.54z M740.46,387.31c-0.01,0-0.02,0-0.02,0l-0.46-0.02c-0.26-0.01-0.45-0.23-0.44-0.49    c0.01-0.26,0.24-0.46,0.49-0.44l0.47,0.02c0.26,0.01,0.45,0.23,0.44,0.49C740.91,387.12,740.7,387.31,740.46,387.31z     M748.34,387.28c-0.22,0-0.41-0.15-0.46-0.38c-0.05-0.25,0.12-0.5,0.37-0.55c0.15-0.03,0.3-0.06,0.44-0.09    c0.25-0.06,0.5,0.1,0.56,0.35c0.06,0.25-0.1,0.5-0.35,0.56c-0.15,0.04-0.31,0.07-0.47,0.1    C748.4,387.27,748.37,387.28,748.34,387.28z M736.27,387.12c-0.01,0-0.01,0-0.02,0l-0.09,0l-0.37-0.01    c-0.26-0.01-0.46-0.22-0.45-0.48c0.01-0.26,0.22-0.47,0.48-0.45l0.37,0.01c0.26,0.01,0.5,0.23,0.49,0.48    C736.68,386.92,736.52,387.12,736.27,387.12z M727.91,386.94C727.91,386.94,727.91,386.94,727.91,386.94l-0.47-0.01    c-0.26,0-0.46-0.21-0.46-0.47c0-0.26,0.24-0.46,0.47-0.46l0.47,0.01c0.26,0,0.46,0.21,0.46,0.47    C728.37,386.74,728.16,386.94,727.91,386.94z M723.26,386.94c-0.25,0-0.45-0.19-0.46-0.44c-0.01-0.26,0.18-0.48,0.44-0.49    c0.16-0.01,0.32-0.02,0.47-0.02c0.26-0.02,0.47,0.19,0.48,0.45s-0.19,0.47-0.45,0.48c-0.15,0.01-0.3,0.01-0.46,0.02    C723.28,386.94,723.27,386.94,723.26,386.94z M752.19,385.71c-0.15,0-0.29-0.07-0.38-0.2c-0.15-0.21-0.1-0.5,0.11-0.65    c0.12-0.09,0.24-0.17,0.35-0.26c0.2-0.16,0.49-0.13,0.66,0.07c0.16,0.2,0.13,0.49-0.07,0.66c-0.12,0.1-0.26,0.2-0.39,0.3    C752.38,385.69,752.28,385.71,752.19,385.71z M754.66,382.42c-0.04,0-0.09-0.01-0.13-0.02c-0.25-0.07-0.39-0.33-0.31-0.58    c0.05-0.16,0.08-0.29,0.09-0.38c0.03-0.25,0.26-0.43,0.52-0.4c0.25,0.03,0.43,0.27,0.4,0.52c-0.02,0.13-0.05,0.31-0.12,0.53    C755.05,382.29,754.86,382.42,754.66,382.42z"></path>		<path d="M732.14,386.99l-0.09,0l-0.37-0.01c-0.26,0-0.46-0.21-0.46-0.47c0-0.26,0.21-0.48,0.47-0.46l0.37,0    c0.26,0,0.51,0.22,0.5,0.47c0,0.25-0.16,0.45-0.41,0.46C732.15,386.99,732.15,386.99,732.14,386.99"></path>		<path d="M733.81,389.27l-0.09,0l-0.37,0c-0.26,0-0.47-0.2-0.47-0.46c0-0.26,0.19-0.48,0.46-0.47l0.37,0c0.26,0,0.51,0.2,0.52,0.46    c0,0.25-0.15,0.46-0.4,0.47C733.82,389.27,733.82,389.27,733.81,389.27"></path>	</g></g><g>	<path d="M682.42,378.36h-0.15c-0.26,0-0.47-0.21-0.47-0.47s0.21-0.47,0.47-0.47l0.46,0c0.3,0.01,0.47,0.21,0.47,0.46   c0,0.26-0.2,0.47-0.46,0.47L682.42,378.36z M679.48,378.28c-0.01,0-0.02,0-0.03,0l-0.47-0.03c-0.26-0.02-0.45-0.24-0.43-0.49   c0.02-0.26,0.22-0.44,0.49-0.43l0.46,0.03c0.26,0.01,0.45,0.24,0.44,0.49C679.93,378.09,679.72,378.28,679.48,378.28z    M685.53,378.24c-0.24,0-0.44-0.18-0.46-0.43c-0.02-0.26,0.17-0.48,0.43-0.5l0.46-0.04c0.25-0.04,0.48,0.16,0.51,0.42   c0.02,0.26-0.16,0.48-0.42,0.51l-0.47,0.04C685.55,378.24,685.54,378.24,685.53,378.24z M676.23,378c-0.02,0-0.03,0-0.05,0   l-0.46-0.05c-0.26-0.03-0.44-0.26-0.41-0.51c0.03-0.26,0.26-0.44,0.51-0.41l0.46,0.05c0.26,0.03,0.44,0.26,0.41,0.51   C676.66,377.83,676.46,378,676.23,378z M688.75,377.8c-0.22,0-0.41-0.15-0.46-0.37c-0.05-0.25,0.11-0.5,0.36-0.55   c0.15-0.03,0.3-0.06,0.45-0.1c0.25-0.06,0.5,0.1,0.56,0.35c0.06,0.25-0.1,0.5-0.35,0.56c-0.15,0.04-0.31,0.07-0.47,0.1   C688.82,377.8,688.78,377.8,688.75,377.8z M673,377.59c-0.02,0-0.05,0-0.07-0.01l-0.46-0.07c-0.25-0.04-0.43-0.28-0.39-0.53   c0.04-0.25,0.27-0.43,0.53-0.39l0.46,0.07c0.25,0.04,0.43,0.27,0.39,0.53C673.42,377.43,673.22,377.59,673,377.59z M669.78,377.07   c-0.03,0-0.05,0-0.08-0.01l-0.46-0.08c-0.25-0.05-0.42-0.29-0.37-0.54c0.05-0.25,0.29-0.42,0.54-0.37l0.46,0.08   c0.25,0.05,0.42,0.29,0.38,0.54C670.2,376.91,670,377.07,669.78,377.07z M691.88,376.9c-0.19,0-0.37-0.11-0.44-0.3   c-0.09-0.24,0.03-0.51,0.27-0.6c0.14-0.05,0.28-0.11,0.42-0.17c0.24-0.1,0.51,0.02,0.61,0.26c0.1,0.24-0.02,0.51-0.26,0.61   c-0.15,0.06-0.29,0.12-0.44,0.17C691.99,376.89,691.94,376.9,691.88,376.9z M666.57,376.46c-0.03,0-0.06,0-0.09-0.01l-0.46-0.09   c-0.25-0.05-0.41-0.3-0.36-0.55c0.05-0.25,0.3-0.41,0.55-0.36l0.46,0.09c0.25,0.05,0.42,0.3,0.36,0.55   C666.99,376.3,666.79,376.46,666.57,376.46z M663.38,375.78c-0.03,0-0.07,0-0.1-0.01l-0.46-0.1c-0.25-0.06-0.41-0.3-0.36-0.55   c0.05-0.25,0.3-0.41,0.55-0.36l0.45,0.1c0.25,0.05,0.41,0.3,0.36,0.55C663.79,375.64,663.6,375.78,663.38,375.78z M694.84,375.54   c-0.17,0-0.33-0.09-0.41-0.25c-0.12-0.23-0.04-0.51,0.19-0.63l0.4-0.22c0.23-0.13,0.51-0.05,0.63,0.18   c0.13,0.22,0.05,0.51-0.18,0.63l-0.42,0.23C694.99,375.53,694.92,375.54,694.84,375.54z M657.02,374.36c-0.04,0-0.08,0-0.11-0.01   l-0.45-0.12c-0.25-0.06-0.4-0.32-0.34-0.57c0.06-0.25,0.32-0.4,0.57-0.34l0.45,0.11c0.25,0.06,0.4,0.32,0.34,0.57   C657.42,374.22,657.23,374.36,657.02,374.36z M697.62,373.84c-0.15,0-0.29-0.07-0.38-0.2c-0.15-0.21-0.09-0.5,0.12-0.65l0.38-0.26   c0.21-0.15,0.5-0.1,0.65,0.11c0.15,0.21,0.1,0.5-0.11,0.65l-0.39,0.27C697.8,373.81,697.71,373.84,697.62,373.84z M653.87,373.51   c-0.04,0-0.09-0.01-0.13-0.02l-0.45-0.13c-0.25-0.07-0.39-0.33-0.32-0.58c0.07-0.25,0.33-0.39,0.58-0.32l0.45,0.13   c0.25,0.07,0.39,0.33,0.32,0.58C654.26,373.38,654.07,373.51,653.87,373.51z M650.75,372.57c-0.05,0-0.09-0.01-0.14-0.02   l-0.45-0.14c-0.24-0.08-0.38-0.34-0.3-0.59c0.08-0.24,0.34-0.38,0.59-0.3l0.44,0.14c0.25,0.08,0.38,0.34,0.3,0.58   C651.13,372.44,650.95,372.57,650.75,372.57z M700.22,371.88c-0.14,0-0.27-0.06-0.36-0.17c-0.16-0.2-0.13-0.49,0.07-0.66l0.36-0.29   c0.2-0.17,0.49-0.14,0.66,0.06c0.16,0.2,0.14,0.49-0.06,0.66l-0.36,0.3C700.43,371.85,700.32,371.88,700.22,371.88z M647.66,371.54   c-0.05,0-0.1-0.01-0.15-0.03l-0.44-0.16c-0.24-0.09-0.37-0.35-0.28-0.59c0.09-0.24,0.35-0.37,0.59-0.28l0.44,0.15   c0.24,0.08,0.37,0.35,0.29,0.59C648.03,371.42,647.85,371.54,647.66,371.54z M644.6,370.42c-0.06,0-0.11-0.01-0.17-0.03l-0.44-0.17   c-0.24-0.09-0.36-0.36-0.26-0.6c0.09-0.24,0.36-0.36,0.6-0.26l0.43,0.17c0.24,0.09,0.36,0.36,0.26,0.6   C644.96,370.31,644.78,370.42,644.6,370.42z M702.69,369.76c-0.13,0-0.26-0.05-0.35-0.16c-0.17-0.19-0.16-0.49,0.04-0.66l0.34-0.31   c0.19-0.17,0.48-0.16,0.66,0.03c0.17,0.19,0.16,0.48-0.03,0.66l-0.35,0.32C702.92,369.72,702.8,369.76,702.69,369.76z    M641.55,369.23c-0.05,0-0.1-0.01-0.16-0.03l-0.43-0.15c-0.24-0.08-0.38-0.35-0.29-0.59c0.08-0.24,0.35-0.37,0.59-0.29l0.45,0.15   c0.24,0.09,0.37,0.35,0.28,0.59C641.92,369.12,641.74,369.23,641.55,369.23z M705.11,367.56c-0.13,0-0.25-0.05-0.35-0.15   c-0.17-0.19-0.16-0.48,0.03-0.66l0.35-0.31c0.19-0.17,0.48-0.16,0.66,0.04c0.17,0.19,0.16,0.49-0.04,0.66l-0.34,0.31   C705.33,367.52,705.22,367.56,705.11,367.56z M707.58,365.44c-0.14,0-0.27-0.06-0.36-0.17c-0.16-0.2-0.13-0.49,0.07-0.65l0.36-0.29   c0.2-0.16,0.49-0.13,0.65,0.07c0.16,0.2,0.13,0.49-0.07,0.65l-0.36,0.29C707.78,365.4,707.68,365.44,707.58,365.44z M710.14,363.43   c-0.15,0-0.3-0.07-0.39-0.2c-0.15-0.21-0.09-0.5,0.12-0.65c0.14-0.09,0.27-0.18,0.4-0.26c0.22-0.14,0.51-0.07,0.64,0.14   c0.14,0.22,0.07,0.5-0.14,0.64c-0.12,0.08-0.25,0.16-0.38,0.25C710.32,363.4,710.23,363.43,710.14,363.43z M716.68,362.34   c-0.07,0-0.13-0.01-0.2-0.04c-0.13-0.06-0.26-0.12-0.4-0.17c-0.24-0.09-0.36-0.36-0.27-0.6c0.09-0.24,0.36-0.36,0.6-0.27   c0.16,0.06,0.31,0.12,0.46,0.19c0.23,0.11,0.33,0.39,0.23,0.62C717.03,362.24,716.86,362.34,716.68,362.34z M713.05,362.01   c-0.21,0-0.39-0.14-0.45-0.35c-0.07-0.25,0.08-0.5,0.33-0.57c0.17-0.04,0.33-0.08,0.49-0.11c0.25-0.05,0.5,0.12,0.54,0.37   c0.05,0.25-0.12,0.5-0.37,0.54c-0.14,0.02-0.28,0.06-0.42,0.09C713.13,362,713.09,362.01,713.05,362.01z"></path>	<path d="M660.18,375.09c-0.03,0-0.07,0-0.1-0.01l-0.46-0.1c-0.25-0.06-0.41-0.3-0.36-0.55c0.05-0.25,0.3-0.41,0.55-0.36l0.45,0.1   c0.25,0.05,0.41,0.3,0.36,0.55C660.59,374.95,660.4,375.09,660.18,375.09z"></path></g><path class="st3" d="M806.2,391.26l-0.19-0.18l-0.16,0.03c-0.4-0.67-0.87-1.34-1.33-1.94c-0.58-0.88-2.23-1.34-2.81-1.19l-0.09,0.01  l-0.03,0.03c-0.2-0.03-0.43-0.06-0.71-0.08l-4-0.31c-13.25-1.04-25.77-2.02-30.88-3.51c-5.35-1.56-8.77-3.42-11.04-4.65  c-0.63-0.34-1.17-0.63-1.62-0.85l-0.55-0.26l-37.62-23.38l0.21-0.3l-0.3-0.27c-1.34-1.23-2.47-1.57-2.52-1.59l-0.3-0.09l-0.19,0.25  c-0.12,0.16-2.95,3.83-3.89,7.76c-1.19,0.95-2.42,2.1-3.72,3.33c-3.66,3.44-7.8,7.34-13.65,9.29c-7.58,2.53-20.15-0.13-28.47-1.89  l-1.32-0.28c-5.56-1.17-11.67-3.38-15.32-4.7c-2.11-0.76-3.14-1.13-3.57-1.18c-1.05-0.12-1.62,0.86-2.35,2.13  c-1.62,2.78-4.99,11.26-5.53,16.02c-0.36,3.13-0.22,7.13-0.01,10.69c-0.03,0.02-0.06,0.03-0.09,0.06c-0.6,0.63-1.13,4.1-1.12,4.24  l0,0.1c0,0.17,0,0.51,0,0.82c-0.44,0.42-0.4,0.86-0.37,0.99c0.06,0.32,0.13,0.66,0.2,1c-0.05,0.03-0.09,0.05-0.14,0.08l-0.3,0.18  l0.55,2c0.6,2.55,1.09,5.76,1.11,5.85c0.06,0.22,0.2,0.38,0.37,0.46c0.16,0.88,0.27,1.51,0.3,1.71c0.23,1.41,3.52,1.43,3.66,1.43  c0.6,0,24.34,0.4,49.48,0.81c17.58,0.29,36.31,0.6,49.72,0.82l-0.08,0.32l0.6-0.01c0.13,0,12.9-0.21,13.43-0.18  c30.48,0.48,51.37-6.62,51.58-6.69c0.95-0.34,2.25-0.8,2.24-2.06c-0.02-3.33,1.05-7.04,1.63-9.03c0.18-0.63,0.31-1.09,0.36-1.37  l0-0.01C807.59,394.35,806.53,391.58,806.2,391.26z M753.34,379.91c0.01-0.04,0.02-0.07,0.03-0.11c0.01-0.04,0.03-0.09,0.04-0.12  c0.33,0.17,0.7,0.37,1.12,0.6c0.72,0.39,1.58,0.85,2.56,1.34c2.14,1.07,4.93,2.29,8.66,3.38c5.2,1.52,17.77,2.5,31.07,3.55  l2.89,0.23c-0.3,0.1-0.63,0.2-1.04,0.32l-0.83,0.24c-6.52,1.89-19.4,5.62-42.7,6.12c-0.32,0.01-0.65,0.01-0.97,0.02  c-2.26,0.04-4.62,0.05-7.08,0.03c-13.66-0.34-28.28-0.6-42.33-0.8c0.16-0.25,0.32-0.49,0.48-0.75c2.34-3.59,7.82-9.58,18.08-9.44  c1.27,0.02,2.37,0.03,3.41,0.04c3.54,0.04,6.27,0.07,11.85,0.36c0.64,0.03,1.31,0.07,2.03,0.11c0.53,0.03,1.08,0.06,1.66,0.1  c6.65,0.39,9.38-2.14,10.49-3.97C753.06,380.66,753.23,380.23,753.34,379.91z M752.55,379.29c-0.01,0.03-0.01,0.06-0.02,0.1  c-4.26-2.46-28.88-16.68-33.83-19.46c-1.69-0.95-3.49-1.76-5.62-1.5c0.52-1.04,1.11-1.99,1.59-2.7L752.55,379.29z M712.6,353.81  c0.3,0.14,0.82,0.42,1.43,0.9c0.04,0.04,0.09,0.06,0.13,0.1c-0.6,0.88-1.52,2.29-2.22,3.86c-0.8,0.23-1.64,0.61-2.55,1.19  C710.3,357.11,712.01,354.62,712.6,353.81z M635.17,383.53c0.53-4.64,3.83-12.93,5.42-15.68c0.61-1.05,1.01-1.69,1.43-1.65  c0.34,0.04,1.74,0.55,3.36,1.13c3.67,1.33,9.83,3.56,15.45,4.74l1.32,0.28c8.42,1.78,21.14,4.47,28.96,1.86  c6.04-2.01,10.45-6.16,13.99-9.49c0.98-0.92,1.92-1.8,2.82-2.58c0.29-0.25,0.57-0.48,0.85-0.7c0.08-0.07,0.16-0.12,0.25-0.18  c0.88-0.67,1.7-1.13,2.47-1.44c0.39-0.16,0.76-0.27,1.12-0.35c2.14-0.46,3.9,0.32,5.63,1.29c5,2.8,30.08,17.29,33.95,19.53  c-0.77,1.57-3.08,4.31-9.86,3.91c-1.31-0.08-2.47-0.14-3.55-0.2c-0.71-0.04-1.37-0.07-2-0.1c-4.4-0.21-6.9-0.23-10.04-0.27  c-1.04-0.01-2.14-0.02-3.41-0.04c-11.17-0.16-16.91,6.84-18.88,9.86c-0.27,0.42-0.54,0.83-0.8,1.24  c-21.47-0.3-41.54-0.46-54.78-0.57c-6.17-0.05-10.9-0.09-13.72-0.12C634.96,390.48,634.83,386.57,635.17,383.53z M634.37,396.22  c0.13-0.56,0.27-1.08,0.39-1.31c0.14,0,0.31,0,0.46,0.01c2.83,0.04,7.53,0.07,13.65,0.12c13.12,0.11,32.95,0.27,54.2,0.56  c0.36,0.01,0.73,0.01,1.1,0.02c14.23,0.2,29.06,0.46,42.91,0.81c2.32,0.02,4.55,0.01,6.7-0.02c0.34-0.01,0.7-0.01,1.04-0.02  c23.65-0.48,36.69-4.26,43.29-6.17l0.83-0.24c1.64-0.47,2.45-0.79,2.85-0.99c0.09-0.04,0.16-0.08,0.21-0.11  c0.31,0,1.23,0.27,1.64,0.68c-0.28,0.15-0.58,0.3-0.88,0.45c-16.4,7.97-57.42,8.23-57.84,8.24l-41.98-0.69l-1.09-0.02l-67.52-1.11  C634.34,396.35,634.36,396.29,634.37,396.22z M633.96,398.51v-0.1c0.01-0.16,0.08-0.58,0.18-1.08l67.13,1.11l1.09,0.02l42.56,0.7  c1.75-0.01,42.37-0.27,58.67-8.54c0.21-0.11,0.42-0.22,0.63-0.33c0.33,0.46,0.6,0.87,0.82,1.24c-0.05,0.03-0.12,0.06-0.19,0.09  c-0.85,0.42-2.65,1.16-6.36,2.2c-0.47,0.13-0.97,0.28-1.51,0.43c-6.59,1.91-18.86,5.46-44.16,6.25c-1.34,0.04-2.68,0.37-3.98,0.91  c-15.18-0.23-31.86-0.5-47.77-0.75c-0.31,0-0.62-0.01-0.93-0.01c-20.45-0.32-39.54-0.63-52.39-0.83  c-8.36-0.13-12.76-0.23-13.78-0.39C633.95,399.11,633.95,398.71,633.96,398.51z M737.87,413.75c-13.43-0.22-32.28-0.53-49.97-0.83  c-26.23-0.44-48.88-0.81-49.49-0.81c-1.4,0-2.66-0.39-2.74-0.65c-0.03-0.17-0.12-0.68-0.24-1.39c0.25,0.04,0.47,0.08,0.47,0.08  l0.29,0.07l0.04-0.03l0.32,0.04l-0.04-0.25l0.26-0.2l-0.06-0.28c-0.04-0.22-1.06-5.41-1.78-7.88l-0.09-0.31l-0.32-0.02  c-0.32-0.02-0.55-0.06-0.72-0.08c-0.01,0-0.01,0-0.02,0c-0.06-0.3-0.12-0.59-0.17-0.87c0.11,0.02,0.25,0.04,0.4,0.07  c1.35,0.17,4.76,0.24,13.72,0.38c12.86,0.21,31.96,0.51,52.42,0.83c0.31,0,0.62,0.01,0.93,0.01c15.27,0.24,31.26,0.49,45.93,0.72  c-3.09,1.79-5.82,4.69-7.58,7.81c-0.17,0.31-0.34,0.62-0.5,0.93C738.49,411.96,738.14,412.86,737.87,413.75z M806.46,395.5  c-0.04,0.24-0.18,0.69-0.34,1.27c-0.59,2.04-1.68,5.84-1.66,9.3c0,0.46-0.38,0.73-1.62,1.17c-0.2,0.07-20.93,7.12-51.25,6.64  c-0.22,0-2.46,0.03-5.06,0.06c-2.97,0.04-6.4,0.09-7.79,0.11c0.03-0.1,0.07-0.19,0.1-0.29c0.29-0.89,0.67-1.79,1.14-2.68  c0.16-0.31,0.34-0.62,0.52-0.93c1.99-3.33,5.1-6.34,8.5-7.79c0.87-0.37,1.75-0.65,2.64-0.79c0.4-0.07,0.81-0.11,1.21-0.12  c25.41-0.79,37.76-4.36,44.39-6.28c0.54-0.16,1.04-0.3,1.5-0.43c3.5-0.99,5.38-1.73,6.38-2.2c0.13-0.06,0.25-0.12,0.35-0.18  c0.08-0.04,0.16-0.08,0.22-0.12c0.1,0.22,0.21,0.53,0.32,0.86c0.15,0.44,0.29,0.94,0.38,1.4  C806.46,394.89,806.5,395.25,806.46,395.5z"></path><g>	<g>		<path class="st2" d="M750.95,377.21c0.28,0.42-2.39,3.61-3.31,3.92c-0.21,0.07-0.43,0.1-0.64,0.1c-0.34,0-1.29-0.66-1.33-0.94    c-0.1-0.71,1.71-4.61,2.63-4.61C749.22,375.68,750.75,376.9,750.95,377.21z"></path>		<path class="st2" d="M745.6,373.67c0.52,0.39-1.52,0.13-2.19,0.37c-1.73,0.61-3.15,2.81-3.45,3.01c-0.1,0.07-0.45,0.34-1.03,0.08    c-0.24-0.11-1.16-0.82-1.29-1.01c-0.41-0.61,1.89-2.91,2.3-3.2c0.79-0.55,2.24-0.92,2.75-0.92    C743.2,372.01,745.19,373.37,745.6,373.67z"></path>		<path class="st2" d="M739.14,369.74c0.52,0.39-1.44,0.52-2.15,0.52c-0.35,0-1.37,0.27-2.52,0.9c-1.19,0.65-2.28,2.2-2.45,2.29    c-1.53,0.78-2.31-0.78-2.23-1.07c0.26-1,1.86-2.73,2.21-2.93c2.62-1.51,3.67-1.35,4.18-1.38    C737.55,367.99,738.73,369.44,739.14,369.74z"></path>		<path class="st2" d="M731.99,365.14c0.52,0.39-1.54,0.44-2.25,0.44c-0.35,0-2.02,0.36-3.17,0.98c-1.22,0.66-1.78,2.57-2.05,2.83    c-1.4,1.32-3.08-0.36-2.7-1.26c0.47-1.12,1.89-2.96,2.22-3.17c2.93-1.89,4.49-1.43,5-1.43    C729.54,363.54,731.59,364.84,731.99,365.14z"></path>	</g></g></svg>
