<svg xmlns="http://www.w3.org/2000/svg" xmlns:xlink="http://www.w3.org/1999/xlink" version="1.1" id="Layer_1" x="0px" y="0px" style="enable-background:new 0 0 1440 768;" xml:space="preserve" viewBox="625.87 352.91 188.03 63.19"><style type="text/css">	.st0{fill-rule:evenodd;clip-rule:evenodd;fill:#FFFFFF;}	.st1{fill:#FFFFFF;}	.st2{fill:#0F0F10;}	.st3{fill:#0F0F10;stroke:#343232;}	.st4{fill:none;}</style><path class="st0" d="M739.19,382.84l0.04-4.17l-13.7,0.4l0.01,4.19C730.11,383.3,734.89,383.11,739.19,382.84z"></path><g>	<path class="st1" d="M812.25,390.98c0,0-0.06,0.05-0.21,0.15c-0.67-1.23-1.6-2.4-1.64-2.45c-0.49-0.75-2.06-1.19-2.49-1.08   c0,0-0.05,0.04-0.21,0.12c-2.49-0.53-16.14-2.61-28.01-4.78c-8.76-1.6-14.89-3.38-17.74-4.29c-0.37-0.16-0.65-0.24-0.65-0.24   s-0.11-0.02-0.49-0.14c-0.4-0.13-0.64-0.22-0.67-0.23c-0.01,0-0.02,0-0.03-0.01c-0.44-0.15-1.03-0.36-1.81-0.66l-35.16-17.9   c0,0-8.25-3.92-10.02-4.56c0.05-0.03,0.1-0.07,0.14-0.11c0.06-0.04,0-0.18,0-0.18l-2.4-1.14c-3.96,3.37-5.18,6.21-5.55,9.6   c-0.2,0.2-0.39,0.4-0.59,0.62c-5.09,5.51-10.53,9.92-18.46,11.65c-7.27,1.59-16.38,0.37-26.9-3.2c-9.11-3.09-13.67-4.79-19.69-8.33   c-2.15-1.26-3.04-1.1-3.66-0.8c-1.21,0.57-2.35,3.03-3.56,5.61c-1.01,2.16-4.84,8.73-4.04,25.42c-0.04,0-0.09,0-0.13,0   c-0.5-0.01-1.18,4.1-1.17,4.25c0,0.05-0.02,0.93,0.03,1.42c0,0.03,0,0.05,0,0.08c-0.02-0.01-0.03-0.03-0.03-0.04l-0.05-0.19   c-0.36,0.29-0.38,0.58-0.35,0.7c0.93,4.61,2.12,11.35,2.25,12.14c0.13,0.79,2.21,1.11,3.44,1.11c1.11,0,71.97,1.19,107.2,1.77   c-0.03,0.11-0.07,0.22-0.1,0.33c0,0,13.87-0.2,14.44-0.19c30.41,0.48,52.38-6.15,55.22-7.16c1.27-0.45,2.08-0.85,2.08-1.73   c-0.03-4.73,1.93-10.07,2.15-11.26C813.6,393.95,812.38,390.96,812.25,390.98z"></path></g><g>	<g>		<path d="M761.84,378.08c-0.01,0-0.1-0.02-0.3-0.08c0.26,0.08,0.54,0.17,0.84,0.27C762.13,378.16,761.92,378.1,761.84,378.08z"></path>		<path d="M760.24,378.62C760.24,378.62,760.23,378.62,760.24,378.62c0.19,0.07,0.35,0.12,0.48,0.16    C760.54,378.72,760.38,378.67,760.24,378.62z"></path>		<path d="M761.17,378.9c-0.01,0-0.12-0.02-0.45-0.12c0.3,0.1,0.65,0.21,1.03,0.33C761.51,379.01,761.3,378.94,761.17,378.9z"></path>		<path d="M760.45,377.64c-0.1-0.04-0.17-0.06-0.18-0.06c0,0,0,0-0.01,0c0.63,0.22,1.04,0.35,1.27,0.42    C761.11,377.86,760.75,377.74,760.45,377.64z"></path>		<path class="st2" d="M812.62,390.64l-0.21-0.19l-0.17,0.03c-0.43-0.72-0.93-1.44-1.43-2.08c-0.62-0.94-2.39-1.44-3.02-1.28    l-0.09,0.01l-0.08,0.07c-1.15-0.23-3.8-0.67-8.08-1.37c-5.46-0.9-12.94-2.13-19.76-3.37c-8.2-1.5-14.13-3.16-17.41-4.19    c-0.3-0.09-0.58-0.18-0.84-0.27c-0.24-0.07-0.64-0.2-1.27-0.42c-0.47-0.17-1.08-0.39-1.84-0.68l-35.07-17.86    c-0.33-0.15-7.14-3.39-9.58-4.39c-0.01-0.06-0.02-0.12-0.05-0.19l-0.07-0.19l-2.88-1.36l-0.25,0.21c-3.93,3.34-5.28,6.2-5.7,9.76    c-0.16,0.17-0.32,0.32-0.48,0.5c-4.3,4.66-9.83,9.67-18.2,11.5c-6.97,1.52-15.93,0.45-26.64-3.19c-9.03-3.06-13.61-4.77-19.6-8.29    c-2.3-1.35-3.34-1.19-4.12-0.83c-1.36,0.64-2.47,3.01-3.75,5.75l-0.27,0.57c-1.33,2.71-4.58,9.37-3.88,24.81    c-0.03,0.02-0.05,0.03-0.08,0.05c-0.65,0.67-1.21,4.4-1.21,4.55l0,0.1c0,0.19-0.01,0.55,0,0.89c-0.47,0.45-0.43,0.92-0.4,1.06    c0.07,0.34,0.14,0.69,0.21,1.05c-0.06,0.03-0.11,0.06-0.19,0.1l-0.34,0.14l0.02,0.06l0,0l0.59,2.15c0.65,2.74,1.18,6.19,1.2,6.29    c0.07,0.25,0.24,0.43,0.44,0.5c0.17,0.94,0.28,1.61,0.32,1.83c0.07,0.43,0.4,0.73,0.85,0.95c0.04,0.02,0.08,0.04,0.13,0.06    c1.13,0.51,2.85,0.51,2.96,0.51c0.65,0,26.05,0.42,52.95,0.87c18.94,0.32,39.14,0.65,53.6,0.89l-0.09,0.35l0.65-0.01    c0.14,0,13.85-0.2,14.43-0.19c32.73,0.52,55.18-7.11,55.4-7.19c1.02-0.36,2.42-0.86,2.41-2.21c-0.02-3.57,1.13-7.56,1.75-9.7    c0.2-0.68,0.34-1.17,0.39-1.47l0-0.01C814.11,393.96,812.97,390.98,812.62,390.64z M760.23,378.62    C760.23,378.62,760.24,378.62,760.23,378.62c0.15,0.04,0.31,0.1,0.48,0.16c0.34,0.1,0.45,0.12,0.45,0.12    c0.13,0.04,0.35,0.11,0.58,0.21c0.67,0.21,1.45,0.45,2.36,0.72c3.49,1.02,8.73,2.37,15.49,3.6c6.82,1.25,14.31,2.48,19.78,3.38    c2.63,0.43,4.94,0.81,6.49,1.08c-0.37,0.12-0.81,0.26-1.35,0.41l-0.89,0.26c-7.77,2.26-23.95,6.95-54.51,6.63    c-12.4-0.31-25.52-0.55-38.4-0.75c-0.33-0.01-0.65-0.01-0.98-0.02c0.21-0.35,0.43-0.71,0.66-1.08c1.26-2,2.79-4.13,4.22-5.28    l0.37-0.3c3.03-2.44,5.03-4.05,13.54-4.13c8.8-0.08,21-0.88,24.96-1.19C756.82,382.2,759.51,380.35,760.23,378.62z M726.03,379.55    l12.69-0.37l-0.03,3.15c-3.47,0.16-7.03,0.28-10.17,0.31c-0.9,0.01-1.72,0.04-2.49,0.08L726.03,379.55z M722.91,359.93    l23.81,12.12c-0.78-0.34-1.59-0.69-2.45-1.06c-3.36-1.46-9.95-4.61-15.77-7.38c-5.88-2.8-9.52-4.53-10.14-4.73    c-3.11-1-5.65-1.29-8.42,0.02c0.03-0.06,0.07-0.12,0.1-0.17c0.6-0.82,1.97-2.31,3.16-3.24    C714.91,356.17,720.14,358.62,722.91,359.93z M710.94,354.09l1.31,0.62l0.2,0.1c-1.27,1.02-2.62,2.53-3.21,3.34    c-0.28,0.38-0.52,0.94-0.73,1.58c-0.59,0.39-1.2,0.85-1.82,1.39c-0.22,0.19-0.43,0.38-0.65,0.59    C706.58,359.01,707.89,356.73,710.94,354.09z M630.88,373.71c0.28-0.88,0.57-1.63,0.84-2.28c0.36-0.88,0.7-1.57,0.96-2.1    l0.28-0.58c1.1-2.35,2.24-4.78,3.27-5.27c0.36-0.17,1.03-0.48,3.19,0.78c6.07,3.56,10.69,5.29,19.78,8.37    c10.88,3.69,20.03,4.78,27.17,3.22c8.39-1.83,13.98-6.73,18.34-11.39c0.13-0.14,0.26-0.27,0.38-0.41c0.24-0.26,0.47-0.5,0.7-0.73    c0.09-0.09,0.17-0.18,0.26-0.27c0.5-0.5,0.99-0.94,1.46-1.34c0.21-0.18,0.42-0.34,0.62-0.5c0.42-0.33,0.84-0.62,1.24-0.87    c2.91-1.78,5.42-1.57,8.68-0.51c0.59,0.19,5.17,2.37,10.02,4.68c5.83,2.77,12.43,5.92,15.8,7.39c6.39,2.79,10.45,4.46,13.02,5.47    c1,0.39,1.78,0.69,2.38,0.9c-0.56,1.27-2.83,2.94-5.85,3.17c-2.4,0.18-7.85,0.55-13.72,0.83l0.03-4.14l-14.71,0.43l0.01,4.21    c-6.02,0.48-8.04,2.09-10.66,4.2l-0.37,0.3c-1.95,1.56-4,4.7-5.41,7.12c-17.56-0.26-34.55-0.44-48.48-0.56    c-0.36,0-0.72-0.01-1.08-0.01c-3.94-0.04-7.61-0.07-10.98-0.09c-0.37,0-0.72-0.01-1.08-0.01c-1.15-0.01-2.28-0.02-3.35-0.03    c-6.64-0.05-11.73-0.1-14.75-0.13C628.45,383.72,629.64,377.55,630.88,373.71z M628.03,396.08c0.15-0.65,0.31-1.26,0.45-1.53    c0.14,0,0.31,0,0.46,0.01c3.03,0.04,8.1,0.08,14.69,0.13c1.19,0.01,2.45,0.02,3.74,0.03c0.36,0,0.71,0.01,1.07,0.01    c3.37,0.03,7.06,0.06,11,0.09c0.35,0,0.71,0.01,1.07,0.01c13.71,0.12,30.33,0.3,47.53,0.55c0.1,0,0.2,0,0.3,0    c0.28,0,0.56,0.01,0.84,0.01c0.19,0,0.37,0.01,0.56,0.01c13.19,0.2,26.67,0.45,39.38,0.77c5.23,0.05,10.03-0.04,14.45-0.24    c11.08-0.5,19.73-1.69,26.39-2.98c6.29-1.22,10.82-2.53,13.97-3.44l0.89-0.26c1.64-0.47,2.51-0.8,2.97-1.02    c0.14-0.07,0.25-0.12,0.32-0.17c0.21,0,0.67,0.11,1.09,0.3c0.33,0.15,0.65,0.34,0.8,0.57l0.08,0.1c0.47,0.61,0.84,1.15,1.14,1.63    c-28.7,9.04-60.98,7.69-61.31,7.68l-5.33-0.07l-37.22-0.5l-1.4-0.02l-0.39-0.01l-44.23-0.59l-1.06-0.01l-11.18-0.15l-1.03-0.01    l-18.98-0.25l-1-0.01l-0.19,0C627.93,396.52,627.98,396.3,628.03,396.08z M627.61,398.43v-0.1c0.01-0.1,0.04-0.32,0.09-0.59    l0.46,0.01l1,0.01l19.13,0.26l1.03,0.01l10.01,0.13l0.37,0l1.94,0.03l45.78,0.61l42.43,0.57c0.08,0,1.9,0.08,5.02,0.08    c8.31,0,25.79-0.55,43.9-4.46c-7.76,2.09-20.71,4.89-43.5,5.6c-1.44,0.04-2.87,0.4-4.27,0.97c-31.93-0.49-70.08-1.1-96.01-1.51    c-1.45-0.02-2.86-0.05-4.24-0.07c-0.74-0.01-1.46-0.02-2.17-0.03c-2.17-0.03-4.24-0.07-6.17-0.1c-0.55-0.01-1.08-0.02-1.6-0.03    c-5.66-0.09-9.43-0.17-11.5-0.27c-0.4-0.02-0.74-0.04-1.01-0.06c-0.3-0.02-0.54-0.04-0.69-0.07    C627.6,399.07,627.6,398.62,627.61,398.43z M739.22,414.79c-14.47-0.24-34.81-0.58-53.86-0.89c-15-0.25-28.91-0.48-38.71-0.64    c-8.53-0.14-13.96-0.23-14.26-0.23c-1.51,0-2.86-0.42-2.95-0.69c-0.03-0.19-0.12-0.72-0.26-1.49c0.25,0.04,0.46,0.08,0.46,0.08    l0.19,0.03l0.12,0.04l0.02-0.02l0.39,0.07l-0.06-0.32l0.27-0.21l-0.06-0.3c-0.05-0.24-1.14-5.81-1.91-8.47l-0.1-0.33l-0.35-0.03    c-0.34-0.03-0.57-0.06-0.75-0.09c-0.06-0.32-0.13-0.64-0.19-0.94c0.11,0.02,0.26,0.05,0.43,0.07c0.2,0.03,0.45,0.05,0.75,0.07    c1.72,0.13,5.23,0.2,12.49,0.32c0.49,0.01,0.98,0.02,1.5,0.02c24.31,0.39,69.4,1.11,106.65,1.68c-3.08,1.78-5.82,4.6-7.71,7.67    c-0.2,0.33-0.4,0.67-0.59,1C740.1,412.39,739.58,413.6,739.22,414.79z M812.89,395.19c-0.05,0.25-0.19,0.75-0.37,1.37    c-0.63,2.19-1.81,6.27-1.79,9.98c0,0.49-0.4,0.79-1.74,1.26c-0.22,0.08-22.49,7.64-55.05,7.13c-0.25,0-2.65,0.03-5.43,0.07    c-3.19,0.04-6.87,0.09-8.36,0.11c0.03-0.1,0.07-0.21,0.1-0.31c0.39-1.21,0.94-2.43,1.63-3.62c0.2-0.34,0.4-0.67,0.62-1    c2.14-3.27,5.27-6.17,8.67-7.62c0.93-0.4,1.88-0.69,2.83-0.85c0.43-0.07,0.87-0.12,1.3-0.13c27.3-0.85,40.56-4.69,47.68-6.75    c0.58-0.17,1.11-0.32,1.61-0.46c4.26-1.2,6.29-2.06,7.23-2.55c0.09-0.05,0.17-0.09,0.24-0.13c0.24,0.56,0.59,1.57,0.75,2.43    C812.9,394.54,812.94,394.92,812.89,395.19z"></path>	</g></g><path d="M712.42,395.32c-0.07,0-0.14-0.02-0.2-0.06c-0.17-0.11-0.23-0.34-0.11-0.52l0.27-0.42c0.11-0.17,0.34-0.22,0.52-0.11  c0.17,0.11,0.22,0.35,0.11,0.52l-0.27,0.42C712.67,395.25,712.54,395.32,712.42,395.32z M714.8,395.02c-0.07,0-0.14-0.02-0.2-0.06  c-0.18-0.11-0.23-0.34-0.12-0.52l0.27-0.43c0.11-0.17,0.35-0.22,0.52-0.11c0.17,0.11,0.22,0.34,0.11,0.52l-0.27,0.42  C715.05,394.96,714.92,395.02,714.8,395.02z M715.1,391.71c-0.09,0-0.18-0.03-0.26-0.1c-0.15-0.14-0.16-0.38-0.02-0.53  c0.12-0.12,0.24-0.25,0.36-0.37c0.15-0.15,0.38-0.15,0.53,0s0.15,0.38,0,0.53c-0.11,0.11-0.23,0.23-0.34,0.35  C715.3,391.67,715.2,391.71,715.1,391.71z M717.76,391.68c-0.11,0-0.23-0.05-0.3-0.15c-0.12-0.17-0.09-0.4,0.08-0.52  c0.13-0.1,0.27-0.2,0.42-0.3c0.17-0.12,0.4-0.07,0.52,0.1c0.12,0.17,0.07,0.4-0.1,0.52c-0.14,0.1-0.27,0.19-0.39,0.28  C717.92,391.66,717.84,391.68,717.76,391.68z M721.72,389.57c-0.15,0-0.3-0.09-0.35-0.25c-0.07-0.19,0.03-0.41,0.22-0.48  c0.16-0.06,0.32-0.11,0.48-0.17c0.19-0.06,0.41,0.04,0.47,0.24s-0.04,0.41-0.24,0.47c-0.16,0.05-0.31,0.1-0.46,0.16  C721.8,389.56,721.76,389.57,721.72,389.57z M718.63,388.95c-0.13,0-0.26-0.07-0.33-0.19c-0.1-0.18-0.03-0.41,0.15-0.51  c0.15-0.08,0.3-0.16,0.45-0.24c0.19-0.1,0.41-0.02,0.5,0.16c0.09,0.18,0.02,0.41-0.16,0.5c-0.14,0.07-0.29,0.15-0.43,0.23  C718.75,388.93,718.69,388.95,718.63,388.95z M726.1,388.63c-0.19,0-0.36-0.15-0.37-0.35c-0.02-0.21,0.14-0.39,0.34-0.4  c0.17-0.01,0.34-0.02,0.51-0.03c0.2-0.02,0.38,0.15,0.39,0.36c0.01,0.21-0.15,0.38-0.36,0.39c-0.17,0.01-0.33,0.02-0.49,0.03  C726.12,388.63,726.11,388.63,726.1,388.63z M730.64,388.44c-0.2,0-0.39-0.16-0.39-0.36c-0.01-0.21,0.13-0.38,0.34-0.39l0.04,0  l0.46-0.02c0.2-0.02,0.38,0.15,0.39,0.36c0.01,0.21-0.15,0.38-0.36,0.39l-0.46,0.02C730.65,388.44,730.65,388.44,730.64,388.44z   M735.1,388.23c-0.2,0-0.36-0.16-0.37-0.36c-0.01-0.21,0.15-0.38,0.35-0.39l0.5-0.03c0.25-0.01,0.38,0.15,0.39,0.35  c0.01,0.21-0.15,0.38-0.35,0.39l-0.5,0.03C735.11,388.23,735.1,388.23,735.1,388.23z M739.6,387.98c-0.2,0-0.36-0.15-0.37-0.35  c-0.01-0.21,0.15-0.38,0.35-0.4l0.5-0.03c0.23-0.02,0.38,0.15,0.4,0.35c0.01,0.21-0.15,0.38-0.35,0.4l-0.5,0.03  C739.61,387.98,739.6,387.98,739.6,387.98z M744.09,387.71c-0.2,0-0.36-0.15-0.37-0.35c-0.01-0.21,0.14-0.38,0.35-0.4l0.5-0.03  c0.23-0.02,0.38,0.15,0.4,0.35c0.01,0.21-0.14,0.38-0.35,0.4l-0.5,0.03C744.1,387.71,744.1,387.71,744.09,387.71z M748.58,387.43  c-0.2,0-0.36-0.15-0.37-0.35c-0.01-0.21,0.14-0.38,0.35-0.4l0.5-0.03c0.23-0.02,0.39,0.14,0.4,0.35c0.01,0.21-0.14,0.39-0.35,0.4  l-0.5,0.03C748.6,387.43,748.59,387.43,748.58,387.43z M722.82,387.35c-0.17,0-0.32-0.12-0.37-0.29c-0.05-0.2,0.08-0.4,0.28-0.45  c0.17-0.04,0.33-0.08,0.49-0.11c0.21-0.04,0.4,0.09,0.45,0.29c0.04,0.2-0.09,0.4-0.29,0.45c-0.16,0.03-0.32,0.07-0.48,0.11  C722.88,387.35,722.85,387.35,722.82,387.35z M753.06,387.07c-0.19,0-0.35-0.14-0.37-0.34c-0.02-0.21,0.13-0.39,0.33-0.41l0.5-0.05  c0.21-0.02,0.39,0.13,0.41,0.33c0.02,0.21-0.13,0.39-0.33,0.41l-0.5,0.05C753.09,387.07,753.08,387.07,753.06,387.07z   M727.27,386.72c-0.2,0-0.36-0.15-0.37-0.35c-0.01-0.21,0.14-0.39,0.35-0.4l0.5-0.03c0.21-0.01,0.38,0.15,0.39,0.35  c0.01,0.21-0.15,0.38-0.35,0.39l-0.49,0.03C727.28,386.72,727.27,386.72,727.27,386.72z M731.76,386.59c-0.21,0-0.37-0.17-0.38-0.37  c0-0.21,0.16-0.38,0.37-0.38l0.5-0.01c0,0,0,0,0.01,0c0.2,0,0.37,0.16,0.38,0.37c0,0.21-0.16,0.38-0.37,0.38L731.76,386.59  C731.77,386.59,731.77,386.59,731.76,386.59z M757.52,386.47c-0.17,0-0.32-0.12-0.36-0.29c-0.05-0.2,0.08-0.4,0.28-0.45  c0.15-0.04,0.3-0.08,0.46-0.13c0.2-0.06,0.41,0.05,0.47,0.25c0.06,0.2-0.05,0.41-0.25,0.47c-0.17,0.05-0.34,0.1-0.51,0.14  C757.58,386.47,757.55,386.47,757.52,386.47z M736.27,386.46c-0.2,0-0.37-0.16-0.38-0.36c-0.01-0.21,0.15-0.38,0.36-0.39l0.5-0.02  c0.21-0.03,0.38,0.15,0.39,0.36s-0.15,0.38-0.36,0.39l-0.5,0.02C736.28,386.46,736.27,386.46,736.27,386.46z M740.76,386.27  c-0.2,0-0.36-0.16-0.38-0.36c-0.01-0.21,0.15-0.38,0.36-0.39l0.5-0.03c0.25,0,0.38,0.15,0.39,0.35c0.01,0.21-0.15,0.38-0.35,0.39  l-0.5,0.03C740.78,386.27,740.77,386.27,740.76,386.27z M745.26,386c-0.2,0-0.36-0.15-0.37-0.35c-0.01-0.21,0.14-0.39,0.35-0.4  l0.5-0.03c0.22-0.02,0.38,0.14,0.4,0.35c0.01,0.21-0.14,0.39-0.35,0.4l-0.5,0.03C745.27,386,745.27,386,745.26,386z M749.75,385.66  c-0.19,0-0.36-0.15-0.37-0.34c-0.02-0.21,0.13-0.39,0.34-0.41l0.5-0.05c0.23-0.01,0.39,0.13,0.41,0.34  c0.02,0.21-0.13,0.39-0.34,0.41l-0.5,0.05C749.77,385.66,749.76,385.66,749.75,385.66z M754.22,385.18c-0.19,0-0.35-0.14-0.37-0.33  c-0.03-0.21,0.12-0.39,0.32-0.42l0.49-0.06c0.2-0.03,0.39,0.12,0.42,0.32c0.03,0.21-0.12,0.39-0.32,0.42l-0.5,0.07  C754.25,385.18,754.24,385.18,754.22,385.18z M761.41,384.31c-0.1,0-0.2-0.04-0.27-0.12c-0.14-0.15-0.13-0.39,0.02-0.53  c0.12-0.11,0.23-0.22,0.34-0.34c0.14-0.15,0.38-0.15,0.53-0.01c0.15,0.14,0.15,0.38,0.01,0.53c-0.12,0.12-0.24,0.25-0.37,0.36  C761.59,384.27,761.5,384.31,761.41,384.31z M758.58,384.15c-0.14,0-0.28-0.08-0.34-0.22c-0.08-0.19,0-0.41,0.19-0.49  c0.15-0.07,0.29-0.13,0.43-0.2c0.18-0.1,0.41-0.02,0.5,0.16c0.1,0.18,0.02,0.41-0.16,0.51c-0.15,0.08-0.31,0.15-0.47,0.23  C758.69,384.14,758.64,384.15,758.58,384.15z M761.6,381.02c-0.03,0-0.06,0-0.1-0.01c-0.2-0.05-0.32-0.26-0.27-0.46  c0.04-0.16,0.07-0.31,0.09-0.44c0.03-0.2,0.22-0.35,0.42-0.32c0.21,0.03,0.35,0.22,0.32,0.42c-0.02,0.17-0.06,0.35-0.11,0.54  C761.92,380.91,761.76,381.02,761.6,381.02z"></path><path d="M658.39,393.7c-0.15,0-0.28-0.09-0.34-0.23l-0.2-0.45c-0.08-0.19,0-0.41,0.19-0.5c0.19-0.09,0.41,0,0.5,0.19l0.2,0.46  c0.08,0.19-0.01,0.41-0.2,0.49C658.49,393.69,658.44,393.7,658.39,393.7z M656.37,389.69c-0.13,0-0.25-0.07-0.32-0.19l-0.25-0.42  c-0.11-0.18-0.05-0.41,0.12-0.52c0.18-0.11,0.41-0.05,0.52,0.12l0.26,0.43c0.1,0.18,0.05,0.41-0.13,0.51  C656.5,389.67,656.44,389.69,656.37,389.69z M653.79,386.02c-0.11,0-0.21-0.04-0.29-0.13l-0.32-0.37c-0.14-0.16-0.12-0.39,0.03-0.53  c0.16-0.14,0.39-0.12,0.53,0.03l0.33,0.38c0.13,0.16,0.11,0.39-0.04,0.53C653.96,385.99,653.87,386.02,653.79,386.02z M650.6,382.86  c-0.08,0-0.17-0.03-0.24-0.09l-0.38-0.31c-0.16-0.13-0.19-0.36-0.06-0.53c0.13-0.16,0.37-0.19,0.53-0.06  c0.13,0.11,0.26,0.21,0.39,0.32c0.16,0.13,0.18,0.37,0.05,0.53C650.81,382.82,650.71,382.86,650.6,382.86z M646.93,380.27  c-0.07,0-0.13-0.02-0.19-0.05l-0.42-0.25c-0.18-0.11-0.24-0.34-0.13-0.51c0.11-0.18,0.33-0.24,0.51-0.13l0.43,0.26  c0.18,0.11,0.23,0.34,0.12,0.52C647.18,380.21,647.06,380.27,646.93,380.27z M642.98,378.13c-0.06,0-0.11-0.01-0.17-0.04l-0.45-0.22  c-0.19-0.09-0.26-0.31-0.17-0.5c0.09-0.19,0.31-0.27,0.5-0.17l0.45,0.22c0.19,0.09,0.26,0.32,0.17,0.5  C643.25,378.05,643.12,378.13,642.98,378.13z M634.76,374.49c-0.05,0-0.1-0.01-0.15-0.03l-0.46-0.19c-0.19-0.08-0.28-0.3-0.2-0.49  c0.08-0.19,0.3-0.28,0.49-0.2l0.46,0.19c0.19,0.08,0.28,0.3,0.2,0.49C635.04,374.4,634.9,374.49,634.76,374.49z"></path><path d="M638.91,376.25c-0.06,0-0.11-0.01-0.17-0.03l-0.45-0.2c-0.19-0.08-0.27-0.31-0.19-0.5c0.08-0.19,0.3-0.27,0.5-0.19  l0.46,0.21c0.19,0.09,0.27,0.31,0.18,0.5C639.18,376.17,639.05,376.25,638.91,376.25z"></path><g>	<g>		<path d="M677.04,387.05c-0.21,0-0.38-0.17-0.38-0.38s0.17-0.38,0.38-0.38l0.5,0c0,0,0,0,0,0c0.21,0,0.37,0.17,0.38,0.37    c0,0.21-0.16,0.38-0.37,0.38L677.04,387.05z M673.04,386.92c-0.01,0-0.02,0-0.02,0l-0.5-0.03c-0.21-0.01-0.36-0.19-0.35-0.4    s0.2-0.36,0.4-0.35l0.5,0.03c0.21,0.01,0.36,0.19,0.35,0.4C673.41,386.77,673.24,386.92,673.04,386.92z M681.54,386.87    c-0.19,0-0.36-0.15-0.37-0.35c-0.02-0.21,0.14-0.39,0.35-0.4l0.5-0.04c0.21-0.02,0.39,0.14,0.41,0.34    c0.02,0.21-0.14,0.39-0.34,0.41l-0.5,0.04C681.55,386.87,681.55,386.87,681.54,386.87z M668.57,386.46c-0.02,0-0.03,0-0.05,0    l-0.5-0.07c-0.21-0.03-0.35-0.22-0.32-0.42c0.03-0.2,0.23-0.34,0.42-0.32l0.49,0.07c0.21,0.03,0.35,0.22,0.32,0.42    C668.91,386.33,668.75,386.46,668.57,386.46z M686.01,386.36c-0.18,0-0.34-0.13-0.37-0.32c-0.03-0.2,0.11-0.4,0.31-0.43l0.49-0.08    c0.21-0.03,0.4,0.11,0.43,0.31c0.03,0.2-0.1,0.4-0.31,0.43l-0.5,0.08C686.04,386.36,686.03,386.36,686.01,386.36z M664.14,385.69    c-0.03,0-0.05,0-0.08-0.01l-0.49-0.11c-0.2-0.04-0.33-0.24-0.29-0.45s0.25-0.33,0.45-0.29l0.49,0.1c0.2,0.04,0.33,0.24,0.29,0.44    C664.47,385.57,664.31,385.69,664.14,385.69z M690.42,385.5c-0.17,0-0.32-0.12-0.36-0.29c-0.05-0.2,0.08-0.4,0.28-0.45l0.48-0.12    c0.2-0.05,0.4,0.07,0.45,0.27c0.05,0.2-0.07,0.4-0.27,0.45l-0.49,0.12C690.48,385.5,690.45,385.5,690.42,385.5z M659.77,384.61    c-0.03,0-0.07,0-0.1-0.01l-0.41-0.12c-0.2-0.06-0.35-0.28-0.29-0.47c0.06-0.2,0.23-0.32,0.43-0.27l0.48,0.14    c0.2,0.06,0.31,0.26,0.26,0.46C660.08,384.5,659.93,384.61,659.77,384.61z M694.76,384.29c-0.16,0-0.3-0.1-0.36-0.26    c-0.06-0.2,0.04-0.41,0.24-0.47l0.47-0.16c0.2-0.06,0.41,0.04,0.48,0.24s-0.04,0.41-0.24,0.48l-0.48,0.16    C694.83,384.28,694.79,384.29,694.76,384.29z M655.48,383.21c-0.04,0-0.09-0.01-0.13-0.02l-0.43-0.16    c-0.19-0.07-0.32-0.3-0.25-0.49c0.07-0.19,0.26-0.3,0.46-0.23l0.47,0.17c0.19,0.07,0.29,0.29,0.22,0.48    C655.78,383.11,655.64,383.21,655.48,383.21z M698.97,382.7c-0.15,0-0.28-0.08-0.34-0.23c-0.08-0.19,0.01-0.41,0.2-0.49l0.45-0.2    c0.19-0.08,0.41,0,0.5,0.19c0.08,0.19,0,0.41-0.19,0.5l-0.46,0.2C699.07,382.69,699.02,382.7,698.97,382.7z M748.69,382.08    c-0.04,0-0.08-0.01-0.12-0.02l-0.48-0.16c-0.2-0.07-0.3-0.28-0.24-0.47c0.07-0.2,0.27-0.3,0.47-0.24l0.47,0.16    c0.2,0.07,0.3,0.28,0.24,0.47C748.99,381.98,748.84,382.08,748.69,382.08z M651.25,381.65c-0.04,0-0.09-0.01-0.13-0.02l-0.47-0.17    c-0.19-0.07-0.29-0.29-0.22-0.48c0.07-0.19,0.29-0.29,0.48-0.22l0.47,0.17c0.19,0.07,0.29,0.29,0.22,0.48    C651.54,381.56,651.4,381.65,651.25,381.65z M702.99,380.69c-0.13,0-0.25-0.07-0.32-0.19c-0.1-0.18-0.04-0.41,0.13-0.51l0.42-0.25    c0.18-0.11,0.41-0.05,0.52,0.12c0.11,0.18,0.05,0.41-0.12,0.52l-0.44,0.26C703.12,380.67,703.06,380.69,702.99,380.69z     M744.4,380.66c-0.04,0-0.08-0.01-0.12-0.02l-0.47-0.16c-0.2-0.06-0.3-0.28-0.24-0.47s0.28-0.3,0.47-0.24l0.48,0.16    c0.2,0.06,0.3,0.28,0.24,0.47C744.71,380.56,744.56,380.66,744.4,380.66z M647.02,380.08c-0.04,0-0.09-0.01-0.13-0.02l-0.47-0.17    c-0.19-0.07-0.29-0.29-0.22-0.48c0.07-0.19,0.29-0.29,0.48-0.22l0.47,0.17c0.19,0.07,0.29,0.29,0.22,0.48    C647.31,379.99,647.17,380.08,647.02,380.08z M740.12,379.25c-0.04,0-0.08-0.01-0.12-0.02l-0.48-0.16    c-0.2-0.06-0.3-0.28-0.24-0.47c0.06-0.2,0.27-0.31,0.47-0.24l0.48,0.16c0.2,0.06,0.3,0.28,0.24,0.47    C740.43,379.15,740.28,379.25,740.12,379.25z M735.84,377.86c-0.04,0-0.08-0.01-0.12-0.02l-0.47-0.15    c-0.2-0.06-0.31-0.27-0.24-0.47s0.28-0.31,0.47-0.24l0.48,0.16c0.2,0.06,0.3,0.28,0.24,0.47    C736.14,377.75,735.99,377.86,735.84,377.86z M731.55,376.46c-0.04,0-0.08-0.01-0.12-0.02l-0.48-0.15    c-0.2-0.06-0.31-0.28-0.24-0.47c0.06-0.2,0.28-0.3,0.47-0.24l0.48,0.15c0.2,0.06,0.31,0.27,0.24,0.47    C731.85,376.36,731.71,376.46,731.55,376.46z M727.26,375.08c-0.04,0-0.08-0.01-0.11-0.02l-0.48-0.15    c-0.2-0.06-0.31-0.27-0.24-0.47c0.06-0.2,0.28-0.31,0.47-0.24l0.48,0.15c0.2,0.06,0.31,0.27,0.24,0.47    C727.56,374.98,727.42,375.08,727.26,375.08z M709.97,375.03c-0.11,0-0.22-0.05-0.29-0.14c-0.13-0.16-0.11-0.4,0.05-0.53    c0.13-0.11,0.26-0.21,0.4-0.32c0.16-0.13,0.4-0.1,0.53,0.06c0.13,0.16,0.1,0.4-0.06,0.53l-0.39,0.31    C710.14,375.01,710.05,375.03,709.97,375.03z M722.96,373.72c-0.04,0-0.08-0.01-0.11-0.02l-0.48-0.15    c-0.2-0.06-0.31-0.27-0.25-0.47c0.06-0.2,0.27-0.31,0.47-0.25l0.48,0.15c0.2,0.06,0.31,0.27,0.24,0.47    C723.27,373.61,723.12,373.72,722.96,373.72z M713.76,372.64c-0.15,0-0.29-0.09-0.35-0.23c-0.08-0.19,0.01-0.41,0.21-0.49    c0.16-0.07,0.32-0.13,0.49-0.18c0.2-0.07,0.41,0.04,0.48,0.23c0.07,0.2-0.04,0.41-0.23,0.48c-0.15,0.05-0.3,0.11-0.45,0.17    C713.85,372.63,713.8,372.64,713.76,372.64z M718.65,372.39c-0.03,0-0.07,0-0.1-0.01c-0.19-0.06-0.35-0.1-0.48-0.13    c-0.2-0.05-0.32-0.26-0.27-0.46s0.25-0.32,0.46-0.27c0.13,0.03,0.29,0.08,0.49,0.14c0.2,0.06,0.31,0.26,0.26,0.46    C718.96,372.29,718.81,372.39,718.65,372.39z"></path>	</g>	<path d="M706.67,378.01c-0.13,0.03-0.26-0.01-0.35-0.12c-0.14-0.15-0.12-0.39,0.03-0.53l0.37-0.33c0.15-0.14,0.39-0.13,0.53,0.02   c0.14,0.15,0.13,0.39-0.02,0.53l-0.38,0.34C706.79,377.97,706.73,378,706.67,378.01z"></path></g><g>	<path class="st3" d="M750.58,378.23c-0.19,0.54,0.51,1.27,1.56,1.64c1.05,0.37,2.05,0.23,2.24-0.31c0.19-0.54-0.51-1.27-1.56-1.64   C751.77,377.55,750.77,377.69,750.58,378.23z"></path>	<path class="st3" d="M741.62,374.9c-0.19,0.54,0.51,1.27,1.56,1.64c1.05,0.37,2.05,0.23,2.24-0.31c0.19-0.54-0.51-1.27-1.56-1.64   C742.81,374.23,741.81,374.36,741.62,374.9z"></path>	<path class="st3" d="M732.84,371.81c-0.19,0.54,0.51,1.27,1.56,1.64c1.05,0.37,2.05,0.23,2.24-0.31c0.19-0.54-0.51-1.27-1.56-1.64   C734.03,371.13,733.02,371.27,732.84,371.81z"></path>	<path class="st3" d="M723.91,368.59c-0.19,0.54,0.51,1.27,1.56,1.64c1.05,0.37,2.05,0.23,2.24-0.31c0.19-0.54-0.51-1.27-1.56-1.64   C725.1,367.91,724.1,368.05,723.91,368.59z"></path></g><g>	<path class="st0" d="M750.99,378.32c0.07-0.15,0.64-0.35,1.73,0.13c1.08,0.47,1.34,1.03,1.27,1.19c-0.06,0.15-0.63,0.36-1.73-0.12   C751.17,379.04,750.93,378.47,750.99,378.32z M751.96,380.23c-1.52-0.66-2.49-1.76-2.18-2.44c0.31-0.67,1.75-0.68,3.23-0.03   c1.48,0.65,2.37,1.44,2.19,2.15C754.93,381.06,753.48,380.89,751.96,380.23z"></path>	<g>		<path class="st0" d="M715.51,365.1c0.1-0.25,0.79-0.71,1.95-0.26c1.16,0.44,1.34,1.23,1.23,1.48c-0.1,0.25-0.79,0.71-1.95,0.26    C715.58,366.14,715.41,365.35,715.51,365.1z M716.29,367.68c-1.55-0.59-2.45-1.96-2-3.04c0.45-1.09,2.07-1.49,3.62-0.9    c1.55,0.59,2.45,1.96,2,3.05C719.47,367.87,717.84,368.27,716.29,367.68z"></path>		<path d="M717.72,368.38c-0.51,0-1.05-0.1-1.58-0.3l0,0c-1.02-0.39-1.84-1.11-2.19-1.94c-0.25-0.57-0.27-1.15-0.05-1.67    c0.54-1.32,2.37-1.82,4.17-1.14c1.03,0.39,1.83,1.1,2.19,1.94c0.25,0.57,0.27,1.15,0.05,1.67    C719.93,367.85,718.9,368.38,717.72,368.38z M716.47,363.89c-0.84,0-1.56,0.33-1.79,0.91c-0.16,0.38-0.06,0.76,0.05,1    c0.27,0.62,0.91,1.17,1.72,1.48h0c1.31,0.5,2.72,0.2,3.08-0.66c0.16-0.38,0.06-0.76-0.05-1.01c-0.27-0.62-0.91-1.17-1.72-1.48    C717.33,363.97,716.88,363.89,716.47,363.89z M717.65,367.19c-0.31,0-0.67-0.06-1.06-0.21c-0.93-0.36-1.29-0.91-1.42-1.21    c-0.13-0.3-0.15-0.6-0.06-0.83l0,0c0.18-0.44,1.1-1.03,2.49-0.5c0.93,0.35,1.29,0.91,1.42,1.2c0.13,0.3,0.15,0.6,0.06,0.83    C718.96,366.79,718.45,367.19,717.65,367.19z M715.91,365.26c0.01,0.14,0.17,0.61,0.98,0.92c0.89,0.34,1.36,0.03,1.41-0.05    c-0.01-0.04-0.12-0.56-1-0.9C716.48,364.92,716.02,365.17,715.91,365.26z"></path>	</g>	<path class="st0" d="M724.22,368.63c0.1-0.25,0.78-0.7,1.92-0.26c1.14,0.44,1.32,1.21,1.22,1.46c-0.1,0.25-0.78,0.69-1.92,0.26   C724.29,369.65,724.12,368.88,724.22,368.63z M724.98,371.2c-1.55-0.59-2.45-1.96-2-3.04c0.45-1.09,2.07-1.49,3.62-0.9   c1.55,0.59,2.45,1.95,2,3.04C728.15,371.39,726.53,371.8,724.98,371.2z"></path>	<path class="st0" d="M733.18,371.87c0.1-0.2,0.74-0.53,1.8-0.07c1.07,0.46,1.23,1.14,1.14,1.35c-0.09,0.2-0.73,0.54-1.8,0.08   C733.24,372.75,733.08,372.07,733.18,371.87z M733.85,374.21c-1.52-0.66-2.39-1.96-1.94-2.9c0.45-0.93,2.03-1.14,3.53-0.49   c1.5,0.65,2.37,1.93,1.95,2.87C736.96,374.64,735.37,374.88,733.85,374.21z"></path>	<path class="st0" d="M742.08,374.98c0.1-0.15,0.72-0.35,1.74,0.12c1.03,0.47,1.19,1.02,1.1,1.17c-0.09,0.15-0.71,0.36-1.76-0.12   C742.13,375.69,741.98,375.13,742.08,374.98z M742.69,376.93c-1.5-0.69-2.34-1.82-1.88-2.52c0.46-0.69,2.01-0.71,3.48-0.04   c1.48,0.67,2.34,1.78,1.92,2.5C745.78,377.58,744.2,377.61,742.69,376.93z"></path></g><g>	<g>		<g>			<path class="st0" d="M756.07,375.17c0.35,0.42-1.83,3.7-2.76,4.14c-0.23,0.11-0.45,0.17-0.65,0.19c-0.28,0.03-0.4-0.28-0.72-0.14     c-0.1,0.04-0.17-0.13-0.24-0.21c-0.1-0.13-0.38-0.53-0.36-0.71c0.08-0.94,0.79-4.58,1.76-4.7     C754.06,373.63,755.82,374.87,756.07,375.17z"></path>			<g>				<path class="st4" d="M754.38,379.79c-0.04,0.11-0.14,0.25-0.38,0.35c-0.23,0.09-0.53,0.12-0.86,0.07      c0.59,0.16,1.07,0.17,1.35,0.03c0.16-0.08,0.26-0.21,0.31-0.42c0.05-0.19-0.09-0.45-0.42-0.75c-0.03,0.04-0.06,0.06-0.1,0.1      C754.41,379.39,754.45,379.61,754.38,379.79z"></path>				<path class="st4" d="M754.1,377.86c0.67-0.85,1.38-1.99,1.49-2.45c-0.42-0.36-1.8-1.25-2.45-1.17      c-0.33,0.14-0.79,1.51-1.07,2.78c0.36,0.08,0.72,0.2,1.1,0.37C753.52,377.53,753.83,377.69,754.1,377.86z"></path>				<path class="st4" d="M750.16,377.97c-0.04,0.09-0.01,0.21,0.02,0.29c0.1,0.26,0.37,0.6,0.81,0.93      c-0.23-0.23-0.33-0.42-0.37-0.52c-0.09-0.24-0.06-0.41-0.01-0.51c0.05-0.12,0.15-0.22,0.29-0.29c0.01-0.05,0.02-0.11,0.03-0.16      C750.51,377.71,750.23,377.81,750.16,377.97z"></path>				<path class="st4" d="M751.93,378.62c0.05,0.07,0.1,0.15,0.14,0.2c0.01,0,0.01,0,0.02,0c0.23,0,0.4,0.1,0.5,0.15      c0.07,0.01,0.14,0,0.21-0.02c-0.08-0.04-0.16-0.08-0.26-0.13C752.31,378.73,752.11,378.66,751.93,378.62z"></path>				<path d="M756.46,374.85L756.46,374.85c-0.26-0.31-2.15-1.75-3.42-1.61c-1.04,0.12-1.64,2.16-1.95,3.64      c-0.82-0.02-1.45,0.23-1.68,0.74c-0.13,0.28-0.13,0.6,0,0.93c0.29,0.75,1.2,1.54,2.39,2.06c0.64,0.28,1.46,0.56,2.18,0.56      c0.32,0,0.62-0.05,0.88-0.18c0.38-0.19,0.64-0.53,0.75-0.97c0.13-0.53-0.12-1.07-0.69-1.58c0.78-0.98,1.52-2.22,1.67-2.87      C756.65,375.27,756.6,375.03,756.46,374.85z M750.18,378.26c-0.03-0.08-0.06-0.2-0.02-0.29c0.07-0.16,0.36-0.26,0.78-0.27      c-0.01,0.06-0.02,0.11-0.03,0.16c-0.14,0.07-0.24,0.17-0.29,0.29c-0.05,0.1-0.08,0.27,0.01,0.51c0.04,0.11,0.14,0.3,0.37,0.52      C750.55,378.86,750.28,378.52,750.18,378.26z M754.8,379.82c-0.05,0.21-0.15,0.34-0.31,0.42c-0.28,0.14-0.76,0.12-1.35-0.03      c0.34,0.05,0.63,0.02,0.86-0.07c0.24-0.1,0.33-0.24,0.38-0.35c0.07-0.18,0.03-0.4-0.1-0.63c0.03-0.03,0.06-0.06,0.1-0.1      C754.71,379.36,754.84,379.63,754.8,379.82z M754.1,377.86c-0.39,0.49-0.76,0.89-1,1c-0.1,0.05-0.2,0.08-0.29,0.1      c-0.07,0.02-0.14,0.03-0.21,0.02c-0.1-0.06-0.27-0.15-0.5-0.15c-0.01,0-0.01,0-0.02,0c-0.04-0.05-0.1-0.13-0.14-0.2      c-0.05-0.08-0.09-0.14-0.1-0.15c0.03-0.4,0.12-0.92,0.24-1.46c0.28-1.27,0.74-2.64,1.07-2.78c0.65-0.08,2.03,0.81,2.45,1.17      C755.48,375.87,754.77,377.01,754.1,377.86z"></path>			</g>		</g>		<g>			<path class="st0" d="M749.71,371.48c0.33,0.19,0.57,0.7,0.12,0.61c-0.47-0.09-1.21,0.21-1.53,0.36     c-1.76,0.86-3.42,3.31-3.72,3.56c-0.07,0.06-0.18,0.11-0.31,0.13c-0.22,0.04-0.89,0.16-0.77-0.11c0.13-0.28-0.31-0.48-0.54-0.4     c-0.13,0.04-0.21-0.17-0.4-0.37c-0.58-0.61,1.24-3.44,1.59-3.7c0.95-0.7,2.26-1.24,2.8-1.3     C747.51,370.2,749.25,371.21,749.71,371.48z"></path>			<g>				<path class="st4" d="M745.3,375.96c0.06,0.19,0.04,0.38-0.04,0.52c-0.14,0.23-0.46,0.37-0.92,0.37c-0.37,0-0.83-0.1-1.34-0.33      c-0.96-0.44-1.23-0.94-1.31-1.2c-0.06-0.21-0.04-0.4,0.05-0.54c0.06-0.09,0.15-0.16,0.26-0.22c0.02-0.09,0.03-0.18,0.06-0.28      c-0.45,0.02-0.79,0.14-0.93,0.35c-0.07,0.1-0.08,0.23-0.03,0.39c0.12,0.4,0.64,1.05,1.75,1.56c1.38,0.63,2.73,0.57,3.01,0.09      c0.06-0.11,0.07-0.23,0.02-0.39c-0.06-0.18-0.2-0.38-0.37-0.57c-0.04,0.05-0.09,0.11-0.13,0.16      C745.35,375.89,745.33,375.92,745.3,375.96z"></path>				<path class="st4" d="M743.08,374.37c-0.01,0.03-0.02,0.05-0.03,0.08c0.28,0.05,0.6,0.13,0.94,0.29c0.29,0.13,0.51,0.27,0.69,0.4      c0.02-0.03,0.05-0.06,0.07-0.09c-0.19-0.12-0.4-0.23-0.62-0.33C743.76,374.56,743.41,374.45,743.08,374.37z"></path>				<path class="st4" d="M743.99,375.69c0.02,0,0.04-0.01,0.06-0.01c-0.04-0.02-0.07-0.05-0.11-0.07      C743.96,375.64,743.98,375.66,743.99,375.69z"></path>				<path class="st4" d="M745.25,374.44c0.74-0.86,1.75-1.91,2.84-2.44c0.19-0.09,0.54-0.25,0.93-0.34c-1.56-0.88-1.96-0.9-2-0.9h0      c-0.42,0.05-1.66,0.56-2.56,1.21c-0.21,0.19-0.7,0.95-1.06,1.67c0.34,0.09,0.69,0.2,1.04,0.36      C744.74,374.13,745.01,374.28,745.25,374.44z"></path>				<polygon points="742.36,375.26 742.36,375.26 742.36,375.26     "></polygon>				<path d="M749.97,371.05c-2.34-1.37-2.84-1.31-3.05-1.29c-0.65,0.07-2.02,0.65-3.04,1.4c-0.29,0.21-1.03,1.3-1.5,2.32      c-0.86-0.03-1.57,0.2-1.9,0.7c-0.2,0.3-0.24,0.66-0.13,1.04c0.22,0.76,1.04,1.53,2.18,2.06h0c0.79,0.36,1.58,0.54,2.25,0.54      c0.82,0,1.47-0.26,1.77-0.76c0.18-0.3,0.21-0.66,0.09-1.04c-0.1-0.32-0.33-0.63-0.62-0.94c0.67-0.78,1.59-1.74,2.5-2.18      c0.47-0.23,1-0.36,1.21-0.32c0.46,0.09,0.72-0.15,0.81-0.38C750.72,371.74,750.31,371.25,749.97,371.05z M742.36,375.26      L742.36,375.26L742.36,375.26C742.36,375.26,742.36,375.26,742.36,375.26z M745.86,376.66c-0.28,0.48-1.62,0.54-3.01-0.09      c-1.1-0.51-1.63-1.15-1.75-1.56c-0.04-0.16-0.03-0.28,0.03-0.39c0.13-0.2,0.48-0.33,0.93-0.35c-0.03,0.1-0.04,0.18-0.06,0.28      c-0.11,0.06-0.21,0.13-0.26,0.22c-0.09,0.15-0.11,0.34-0.05,0.54c0.08,0.26,0.35,0.77,1.31,1.2c0.51,0.23,0.97,0.33,1.34,0.33      c0.46,0,0.78-0.15,0.92-0.37c0.08-0.14,0.09-0.33,0.04-0.52c0.03-0.03,0.05-0.06,0.08-0.1c0.04-0.05,0.08-0.1,0.13-0.16      c0.17,0.19,0.31,0.38,0.37,0.57C745.93,376.42,745.92,376.55,745.86,376.66z M748.09,372c-1.09,0.53-2.1,1.58-2.84,2.44      c-0.19,0.22-0.36,0.43-0.51,0.61c-0.02,0.03-0.05,0.06-0.07,0.09c-0.02,0.03-0.05,0.06-0.07,0.08c-0.16,0.2-0.28,0.35-0.41,0.43      c-0.05,0.01-0.1,0.02-0.14,0.02c-0.02,0-0.04,0.01-0.06,0.01c-0.01-0.03-0.03-0.05-0.05-0.08c-0.03-0.06-0.06-0.12-0.11-0.17      c-0.18-0.2-0.46-0.32-0.73-0.32c-0.05-0.06-0.1-0.12-0.14-0.16c-0.03-0.1,0.01-0.29,0.09-0.51c0.01-0.03,0.01-0.05,0.03-0.08      c0.08-0.22,0.2-0.47,0.33-0.73c0.36-0.72,0.84-1.48,1.06-1.67c0.9-0.65,2.14-1.16,2.56-1.21h0c0.03,0,0.43,0.02,2,0.9      C748.63,371.76,748.28,371.91,748.09,372z"></path>			</g>		</g>		<g>			<path class="st0" d="M742.7,368.22c0.6,0.35-1.46,0.73-2.22,0.81c-0.37,0.04-1.59,0.37-2.74,1.17c-1.05,0.73-1.79,2.4-2.08,2.75     c-0.02,0.02-0.03,0.04-0.04,0.05c-0.12,0.1-0.42,0.3-0.64,0.33c-0.16,0.02-0.72-0.15-0.68-0.33c0.08-0.33-0.29-0.25-0.5-0.36     c-1.08-0.56,0.76-3.8,1.19-4.13c1.81-1.41,3.54-1.63,4.08-1.69C739.61,366.75,742.24,367.95,742.7,368.22z"></path>			<g>				<path class="st4" d="M734.21,370.89c-0.04,0.09-0.07,0.19-0.1,0.28c0.31,0.02,0.65,0.09,1.03,0.26      c0.27,0.12,0.47,0.24,0.65,0.38c0.05-0.08,0.09-0.16,0.15-0.24c-0.2-0.14-0.42-0.26-0.66-0.37      C734.92,371.04,734.56,370.94,734.21,370.89z"></path>				<path class="st4" d="M733.97,371.97c0,0.03-0.01,0.06,0,0.08c0.01,0.05,0.02,0.13,0.06,0.15c0.25,0.05,0.51,0.1,0.68,0.35      c0.04,0.06,0.08,0.14,0.09,0.25c0.06,0.02,0.12,0.04,0.16,0.04c0.04-0.01,0.24-0.12,0.34-0.21c0.02-0.03,0.05-0.08,0.08-0.13      c-0.14-0.11-0.31-0.22-0.56-0.33C734.46,372.01,734.18,371.97,733.97,371.97z"></path>				<path class="st4" d="M736.39,370.89c0.31-0.41,0.66-0.81,1.07-1.09c1.28-0.9,2.61-1.22,2.97-1.26c0.43-0.05,0.92-0.14,1.32-0.23      c-0.91-0.42-2.33-1.01-2.64-0.99c-1.38,0.16-2.67,0.69-3.82,1.59c-0.15,0.13-0.46,0.64-0.75,1.23c0.35,0.07,0.7,0.17,1.06,0.32      C735.89,370.57,736.15,370.72,736.39,370.89z"></path>				<path class="st4" d="M736.47,372.63c0.1,0.25,0.1,0.5,0.02,0.68c-0.13,0.28-0.54,0.54-1.16,0.54c-0.08,0-0.18-0.02-0.27-0.03      c-0.01,0-0.02,0.01-0.03,0.01c-0.02,0-0.04,0-0.07,0c-0.23,0-0.58-0.1-0.83-0.26c-0.88-0.39-1.19-0.91-1.3-1.19      c-0.1-0.26-0.1-0.5-0.01-0.69c0.04-0.08,0.11-0.16,0.2-0.23c0.03-0.18,0.07-0.36,0.13-0.54c-0.41,0.09-0.73,0.28-0.87,0.58      c-0.11,0.22-0.11,0.48,0,0.77c0.23,0.61,0.89,1.22,1.73,1.59c1.3,0.57,2.68,0.42,3.01-0.32c0.1-0.22,0.1-0.48-0.01-0.77      c-0.07-0.18-0.18-0.35-0.31-0.52C736.61,372.38,736.53,372.5,736.47,372.63C736.47,372.62,736.47,372.63,736.47,372.63z"></path>				<path d="M734.12,373.57c0.25,0.17,0.61,0.26,0.83,0.26c0.02,0,0.04,0,0.07,0c0.01,0,0.02-0.01,0.03-0.01      c-0.27-0.03-0.57-0.09-0.9-0.24C734.14,373.58,734.14,373.58,734.12,373.57z"></path>				<polygon points="733.52,372.08 733.52,372.08 733.52,372.08     "></polygon>				<path d="M742.96,367.79L742.96,367.79c-0.29-0.17-3.14-1.58-3.95-1.47c-1.97,0.22-3.44,1.1-4.33,1.8      c-0.25,0.2-0.79,1.03-1.2,1.95c-0.88,0.06-1.61,0.43-1.93,1.08c-0.2,0.42-0.21,0.9-0.03,1.4c0.3,0.82,1.12,1.59,2.17,2.05      c0.64,0.28,1.29,0.41,1.88,0.41c1.01,0,1.85-0.4,2.19-1.14c0.19-0.42,0.19-0.9,0-1.39c-0.12-0.32-0.34-0.63-0.61-0.92      c0.26-0.36,0.56-0.71,0.88-0.93c1.12-0.78,2.28-1.06,2.51-1.08c2.59-0.29,2.71-0.87,2.75-1.06      C743.32,368.38,743.36,368.03,742.96,367.79z M733.52,372.08L733.52,372.08C733.52,372.08,733.52,372.08,733.52,372.08      L733.52,372.08z M737.01,372.76c0.11,0.29,0.12,0.54,0.01,0.77c-0.33,0.73-1.71,0.88-3.01,0.32c-0.84-0.37-1.51-0.98-1.73-1.59      c-0.11-0.29-0.11-0.55,0-0.77c0.14-0.29,0.46-0.48,0.87-0.58c-0.06,0.19-0.1,0.37-0.13,0.54c-0.09,0.07-0.16,0.15-0.2,0.23      c-0.09,0.19-0.09,0.43,0.01,0.69c0.1,0.28,0.42,0.8,1.3,1.19c0.01,0.01,0.02,0.01,0.03,0.02c0.33,0.14,0.63,0.21,0.9,0.24      c0.09,0.01,0.19,0.03,0.27,0.03c0.62,0,1.04-0.26,1.16-0.54c0.09-0.19,0.08-0.43-0.02-0.68c0,0,0-0.01,0-0.01      c0.07-0.12,0.14-0.24,0.23-0.38C736.83,372.41,736.94,372.58,737.01,372.76z M740.43,368.54c-0.36,0.04-1.69,0.36-2.97,1.26      c-0.41,0.29-0.76,0.68-1.07,1.09c-0.17,0.22-0.32,0.45-0.46,0.67c-0.05,0.09-0.1,0.16-0.15,0.24c-0.08,0.13-0.16,0.27-0.23,0.38      c-0.07,0.13-0.13,0.23-0.18,0.31c-0.03,0.05-0.06,0.11-0.08,0.13c-0.11,0.09-0.3,0.2-0.34,0.21c-0.03,0-0.1-0.02-0.16-0.04      c-0.02-0.1-0.06-0.19-0.09-0.25c-0.16-0.25-0.43-0.31-0.68-0.35c-0.04-0.02-0.05-0.1-0.06-0.15c0-0.02,0-0.06,0-0.08      c-0.01-0.22,0.04-0.49,0.14-0.8c0.03-0.09,0.06-0.18,0.1-0.28c0.1-0.26,0.21-0.51,0.33-0.76c0.29-0.59,0.61-1.1,0.75-1.23      c1.15-0.9,2.44-1.43,3.82-1.59c0.31-0.01,1.73,0.57,2.64,0.99C741.36,368.4,740.87,368.49,740.43,368.54z"></path>			</g>		</g>		<g>			<path class="st0" d="M734.82,364.3c0.6,0.35-1.58,0.65-2.33,0.73c-0.37,0.04-2.09,0.62-3.24,1.42c-1.21,0.85-2.25,3.15-2.55,3.41     c-0.05,0.04-0.12,0.08-0.21,0.11c-0.15,0.06-0.34,0.09-0.55,0.08c-0.17,0-0.06-0.38-0.22-0.44c-0.19-0.07-0.61,0.1-0.8,0     c-1.39-0.8,1.02-4.2,1.45-4.54c1.81-1.41,4.58-2.05,5.12-2.12C732.02,362.9,734.35,364.02,734.82,364.3z"></path>			<g>				<path class="st4" d="M725.01,368.63c-0.01,0.08-0.02,0.16-0.02,0.23c0.02,0.21,0.09,0.28,0.17,0.32      c-0.04-0.03,0.05-0.04,0.12-0.05c0.1-0.01,0.2-0.03,0.31-0.03c0.1,0,0.2,0.01,0.29,0.05c0.21,0.08,0.32,0.23,0.37,0.37      c0.02,0,0.04-0.01,0.05-0.02c0.07-0.06,0.18-0.22,0.29-0.39c-0.14-0.12-0.34-0.24-0.61-0.35      C725.56,368.6,725.24,368.59,725.01,368.63z"></path>				<path class="st4" d="M727.7,367.38c0.37-0.52,0.8-1.01,1.26-1.34c1.19-0.83,2.99-1.46,3.47-1.51c0.54-0.06,1-0.13,1.36-0.2      c-0.84-0.4-1.97-0.87-2.26-0.87c0,0,0,0,0,0c-0.58,0.07-3.19,0.72-4.85,2.01c-0.13,0.11-0.49,0.58-0.84,1.17      c0.3,0.05,0.61,0.12,0.91,0.23C727.1,367,727.41,367.18,727.7,367.38z"></path>				<path class="st4" d="M725.39,367.43c-0.06,0.12-0.1,0.23-0.15,0.35c0.31,0,0.66,0.05,1.05,0.2c0.32,0.12,0.55,0.27,0.74,0.42      c0.06-0.1,0.13-0.21,0.2-0.32c-0.24-0.17-0.49-0.32-0.78-0.43C726.09,367.52,725.74,367.45,725.39,367.43z"></path>				<path class="st4" d="M727.74,369.99c-0.15,0.36-0.67,0.7-1.41,0.7c-0.31,0-0.67-0.06-1.05-0.21c-0.92-0.35-1.27-0.9-1.4-1.19      c-0.13-0.3-0.15-0.59-0.05-0.81c0.04-0.1,0.13-0.21,0.25-0.31c0.04-0.19,0.1-0.39,0.17-0.59c-0.42,0.15-0.75,0.39-0.89,0.75      c-0.16,0.38-0.06,0.76,0.05,1.01c0.27,0.62,0.91,1.18,1.72,1.49c1.32,0.5,2.73,0.2,3.08-0.67c0.16-0.38,0.06-0.76-0.05-1.01      c-0.05-0.12-0.13-0.23-0.2-0.34c-0.09,0.15-0.18,0.3-0.26,0.44C727.81,369.5,727.83,369.78,727.74,369.99z"></path>				<polygon class="st4" points="734.57,364.73 734.82,364.3 734.56,364.73     "></polygon>				<polygon points="724.6,368.81 724.6,368.81 724.6,368.81     "></polygon>				<path d="M735.07,363.86c-0.05-0.03-2.78-1.49-3.64-1.4c-0.46,0.05-3.4,0.69-5.37,2.22c-0.24,0.19-0.86,0.99-1.36,1.93      c-0.98,0.12-1.79,0.61-2.11,1.39c-0.21,0.52-0.19,1.09,0.05,1.66c0.36,0.82,1.18,1.55,2.19,1.94c0.54,0.21,1.09,0.31,1.6,0.31      c1.18,0,2.18-0.52,2.56-1.44c0.21-0.52,0.19-1.1-0.06-1.67c-0.12-0.27-0.29-0.51-0.49-0.75c0.34-0.48,0.71-0.92,1.09-1.19      c1.08-0.75,2.73-1.3,3.01-1.34c2.72-0.31,2.8-0.69,2.86-0.99C735.43,364.44,735.47,364.1,735.07,363.86z M724.6,368.81      L724.6,368.81C724.6,368.81,724.6,368.81,724.6,368.81L724.6,368.81z M728.17,369.13c0.11,0.25,0.21,0.63,0.05,1.01      c-0.36,0.86-1.77,1.17-3.08,0.67c-0.81-0.31-1.45-0.86-1.72-1.49c-0.11-0.25-0.2-0.63-0.05-1.01c0.14-0.35,0.48-0.6,0.89-0.75      c-0.07,0.2-0.13,0.4-0.17,0.59c-0.12,0.1-0.2,0.21-0.25,0.31c-0.09,0.22-0.07,0.52,0.05,0.81c0.13,0.3,0.48,0.84,1.4,1.19      c0.38,0.14,0.73,0.21,1.05,0.21c0.74,0,1.26-0.34,1.41-0.7c0.09-0.21,0.06-0.48-0.04-0.76c0.08-0.14,0.17-0.28,0.26-0.44      C728.04,368.9,728.11,369.01,728.17,369.13z M732.43,364.53c-0.48,0.05-2.29,0.68-3.47,1.51c-0.46,0.32-0.89,0.82-1.26,1.34      c-0.17,0.23-0.32,0.47-0.47,0.7c-0.07,0.11-0.13,0.22-0.2,0.32c-0.1,0.16-0.19,0.32-0.28,0.46c-0.05,0.08-0.1,0.17-0.15,0.26      c-0.11,0.18-0.22,0.34-0.29,0.39c-0.02,0.01-0.04,0.01-0.05,0.02c-0.05-0.14-0.16-0.3-0.37-0.37c-0.1-0.04-0.2-0.05-0.29-0.05      c-0.11,0-0.21,0.01-0.31,0.03c-0.06,0.01-0.16,0.02-0.12,0.05c-0.08-0.05-0.16-0.12-0.17-0.32c-0.01-0.07,0.01-0.15,0.02-0.23      c0.02-0.25,0.1-0.54,0.23-0.85c0.05-0.12,0.1-0.23,0.15-0.35c0.13-0.27,0.28-0.54,0.44-0.8c0.36-0.58,0.72-1.06,0.84-1.17      c1.66-1.3,4.27-1.94,4.85-2.01c0,0,0,0,0,0c0.29,0,1.42,0.47,2.26,0.87C733.44,364.4,732.97,364.47,732.43,364.53z"></path>			</g>		</g>	</g></g></svg>
