<svg xmlns="http://www.w3.org/2000/svg" xmlns:xlink="http://www.w3.org/1999/xlink" version="1.1" id="Layer_1" x="0px" y="0px" style="enable-background:new 0 0 1440 768;" xml:space="preserve" viewBox="625.5 345.05 188.86 77.93"><style type="text/css">	.st0{fill:none;}	.st1{fill:#0F0F10;}	.st2{fill:#FFFFFF;}	.st3{fill:none;stroke:#000000;stroke-width:0.9866;}	.st4{fill:#FFFFFF;stroke:#0F0F10;}</style><g>	<path class="st0" d="M745.33,390.11c-4.01,0.06-20.98-6.07-32.19-10.14c-3.68-1.34-6.59-2.39-7.95-2.83l-0.72-0.21   c-1.95-0.57-3.2-0.83-4.31-0.88l-0.11,0c-2.21-0.07-3.84,0.18-9.37,2.66c-13.45,6.05-27.99,8.05-42.35,5.9   c1.66,1.93,3.29,4.03,4.83,6.21c14.39,0.91,27.46-1.38,38.94-6.87c3.56-1.7,5.23-1.97,7.13-1.97c0.4,0,0.82,0.01,1.26,0.03   l0.24,0.01c1.6,0.07,3.12,0.46,4.91,1.01c0.8,0.25,2.73,0.92,5.4,1.84c9.45,3.28,29.1,10.1,33.94,10.18l0.18,0   c4.13,0.11,6.46-0.72,9.01-3.56c-1.93-0.7-3.89-1.45-5.87-2.24C747.58,389.79,746.66,390.14,745.33,390.11z"></path>	<path class="st0" d="M805.15,394.87c-0.39-0.02-0.8-0.03-1.25-0.05c-1.42-0.06-3.13-0.13-5.21-0.24   c-9.07-0.47-18.81-2.57-26.61-4.67c-3.57-0.96-6.72-1.92-9.22-2.72c0,0.02,0,0.05,0,0.07c0.01,0.11,0.01,0.22,0.02,0.34   c0.06,1.09,0.15,2.74-0.19,4.94c-0.1,0.64-0.23,1.32-0.41,2.05c-0.02,0.06-0.03,0.12-0.04,0.19c-0.59,2.33-1.34,4.71-2.08,7.03   c23.76-0.71,37.04-4.58,43.87-6.56C804.01,395.26,804.51,395.09,805.15,394.87z"></path>	<path class="st1" d="M693.32,360.1l-0.52,0.86c0.02,0.01,0.13,0.08,0.32,0.19c0.26-0.24,0.52-0.47,0.78-0.7   C693.55,360.23,693.35,360.11,693.32,360.1z"></path>	<g>		<path class="st0" d="M693.93,354.02c-0.66,1.79-0.99,3.69-0.61,5.55l0.02-0.02C693.17,357.73,693.37,355.87,693.93,354.02z"></path>		<path class="st0" d="M693.53,360.77l-0.12,0.12C693.45,360.85,693.49,360.81,693.53,360.77    C693.53,360.77,693.53,360.77,693.53,360.77z"></path>		<path class="st0" d="M695.84,357.3c0.14-0.13,0.29-0.27,0.43-0.4c1.33-1.23,2.47-2.29,3.55-3.23c1.08-0.94,2.34-0.72,3.7,0.08l0,0    c0,0,8.93,5.51,20.27,12.09c-0.46-0.41-0.92-0.82-1.39-1.22c-4.54-3.9-17.2-14.02-21.6-17.19c-1.46,1.82-4.31,6.42-4.66,7.73    C695.9,356.04,695.84,356.78,695.84,357.3z"></path>		<path class="st0" d="M658.06,400.54c-1.53-2.87-3.39-5.87-5.42-8.76c-0.25-0.35-0.5-0.7-0.75-1.05c-1.63-2.25-3.34-4.4-5.08-6.36    c-0.37-0.42-0.75-0.83-1.12-1.22c-0.95-1.01-1.9-1.97-2.84-2.82c-0.05-0.05-0.11-0.09-0.16-0.14c-0.41-0.36-0.86-0.74-1.36-1.12    c-2.99-2.33-7.3-4.93-9.8-6.33c-0.02-0.01-0.04-0.02-0.06-0.03c-0.27,0.64-0.77,2-1.31,4.27c-0.98,4.17-2.08,11.41-2.04,22.98    c0,0.11,0.02,0.22,0.05,0.33C631.2,400.32,652.57,400.5,658.06,400.54z"></path>		<path class="st0" d="M761.42,393.88c-0.87-0.26-1.76-0.54-2.66-0.83c0.83,0.44,1.69,0.85,2.55,1.26    C761.34,394.21,761.38,394.06,761.42,393.88z"></path>		<path d="M754.17,391.48c-0.08-0.03-0.16-0.06-0.24-0.09c0.07,0.04,0.14,0.08,0.21,0.13C754.15,391.5,754.16,391.49,754.17,391.48z    "></path>		<g>			<path class="st0" d="M702.78,354.47c-0.91-0.48-1.69-0.58-2.31-0.04c-1.06,0.93-2.2,1.98-3.52,3.21     c-0.82,0.76-1.69,1.56-2.6,2.39c-0.15,0.14-0.3,0.27-0.45,0.41c0.16,0.1,0.37,0.22,0.6,0.36c5.65,3.35,30.88,18.08,53.6,27.28     c0.33,0.13,0.65,0.26,0.98,0.39c0.34,0.13,0.67,0.26,1,0.39c1.36,0.54,2.71,1.05,4.05,1.54c0.24,0.09,0.49,0.18,0.73,0.27     c0.33,0.12,0.66,0.24,0.99,0.35c1.96,0.69,3.89,1.32,5.75,1.88c0.19-1.19,0.37-2.98,0.26-5.24c-0.02-0.31-0.03-0.56-0.03-0.78     c-7.86-3.08-19.64-9.36-30.58-15.55c-1.26-0.72-2.52-1.43-3.75-2.14c-7.36-4.22-14.05-8.22-18.52-10.93     C706.28,356.63,703.06,354.61,702.78,354.47z"></path>			<path class="st0" d="M643.53,379.59c0.26,0.24,0.53,0.5,0.79,0.75c0.99,0.95,1.98,1.98,2.98,3.09     c14.55,2.41,29.32,0.49,42.97-5.64c5.46-2.45,7.35-2.81,9.77-2.75l0.16,0.01c1.2,0.06,2.52,0.32,4.55,0.92l0.73,0.21     c1.4,0.45,4.31,1.51,8,2.85c2.23,0.81,4.77,1.73,7.44,2.69c7.83,2.8,16.69,5.85,21.52,6.96c1.25,0.29,2.23,0.44,2.85,0.43     c0.78,0.02,1.38-0.09,1.89-0.34c-21.6-8.81-45.26-22.44-52.29-26.58c-0.49-0.29-0.9-0.53-1.22-0.72     c-0.21-0.13-0.4-0.24-0.53-0.32c0,0-0.01-0.01-0.01-0.01c-0.1,0.09-0.2,0.18-0.3,0.26c-1.22,1.09-2.52,2.23-3.96,3.42     c-5.18,4.31-14.27,9.35-22.85,9.39c-0.08,0-0.16,0-0.25,0c-16.24,0-25.56-7.47-27.27-8.97c-0.88-0.77-1.27-0.79-1.7-0.64     c-2.24,2.72-3.87,5.16-4.84,7.21c2.84,1.59,8.16,4.8,11.18,7.42C643.27,379.36,643.41,379.48,643.53,379.59z"></path>			<path class="st0" d="M693.35,359.54l0.88-0.86l0.64-0.63c-0.06-0.5-0.11-1.65,0.29-3.15c0.41-1.53,3.3-6.12,4.79-8.02     c-0.14-0.09-0.26-0.17-0.38-0.25c-0.24-0.16-0.46-0.3-0.61-0.39c-1.09,1.16-3.72,4.23-5.04,7.78c-0.66,1.79-0.99,3.69-0.61,5.55     L693.35,359.54z"></path>			<path class="st0" d="M761.43,397.65c-0.41,1.39-0.85,2.79-1.28,4.17c3.64-0.11,7.02-0.29,10.18-0.53     c0.76-0.06,1.51-0.12,2.25-0.18c1.73-0.15,3.38-0.32,4.96-0.5c1.04-0.12,2.04-0.24,3.01-0.37c11.48-1.5,18.9-3.66,23.46-4.98     c0,0,0.5-0.17,1.13-0.38c-0.39-0.02-0.8-0.03-1.25-0.05c-1.42-0.06-3.13-0.13-5.21-0.24c-9.07-0.47-18.81-2.57-26.61-4.67     c-3.57-0.96-6.72-1.92-9.22-2.72c0,0.02,0,0.05,0,0.07c0.01,0.11,0.01,0.22,0.02,0.34c0.06,1.09,0.15,2.74-0.19,4.94     c-0.1,0.64-0.23,1.32-0.41,2.05c-0.01,0.05-0.02,0.09-0.03,0.14c0,0.02-0.01,0.03-0.01,0.05c-0.08,0.29-0.16,0.59-0.24,0.89     c-0.09,0.34-0.18,0.67-0.27,1.01C761.62,397,761.52,397.33,761.43,397.65z"></path>			<path class="st0" d="M695.84,357.3c0.14-0.13,0.29-0.27,0.43-0.4c1.33-1.23,2.47-2.29,3.55-3.23c1.08-0.94,2.34-0.72,3.7,0.08     l0,0c0,0,8.93,5.51,20.27,12.09c-0.46-0.41-0.92-0.82-1.39-1.22c-4.54-3.9-17.2-14.02-21.6-17.19c-1.46,1.82-4.31,6.42-4.66,7.73     C695.9,356.04,695.84,356.78,695.84,357.3z"></path>			<path class="st2" d="M812.66,397.69c0,0-0.06,0.05-0.21,0.15c-0.67-1.23-1.61-2.41-1.65-2.46c-0.49-0.75-2.07-1.2-2.5-1.09     c0,0-0.09,0.08-0.44,0.24c-1.74-0.14-4.54-0.2-9.16-0.45c-15.19-0.79-32.16-6.21-36.35-7.57c0,0.01,0,0.03,0,0.04     c-8.75-3.37-22.51-10.84-34.52-17.73c-1.67-1.54-3.36-3.07-5.1-4.57c-4.63-3.98-20.49-16.69-22.98-18.11     c-0.41-0.27-0.77-0.48-0.87-0.52c-3.08,3.19-7.56,9.51-5.81,14.91c-1.37,1.24-2.86,2.55-4.52,3.92     c-4.61,3.83-13.73,9.23-22.54,9.27c-14.75,0.07-24.13-6.16-27.18-8.84c-0.99-0.87-1.56-0.99-2.33-0.69     c-2.16,2.62-4.11,5.41-5.18,7.85c-0.01-0.01-0.03-0.02-0.04-0.02c-0.46,0.8-3.68,8.29-3.62,27.95c0,0.28,0.09,0.55,0.24,0.82     c-0.02,0-0.03,0-0.05,0c-0.5-0.01-1.19,4.12-1.18,4.27c0,0.05-0.02,0.94,0.03,1.43c0.02,0.19-0.05,0.41-0.04,0.46     c0.91,4.46,2.65,12.91,2.65,12.91l2.81,0.12c0,0,72.39,1.49,107.58,2.14c-0.03,0.12-0.08,0.24-0.1,0.35c0,0,6.8-0.1,11.09-0.15     c1.29,0.02,2.44,0.04,3.44,0.06c4.19,0.07,8.14-0.04,11.87-0.26c24.27-1.05,41.13-6.15,43.59-7.02c1.27-0.45,2.09-0.85,2.09-1.74     c-0.03-4.75,1.93-10.11,2.16-11.32C814.02,400.68,812.79,397.67,812.66,397.69z"></path>			<path class="st1" d="M813.03,397.35l-0.21-0.19l-0.17,0.03c-0.43-0.72-0.94-1.45-1.43-2.1c-0.63-0.95-2.41-1.44-3.03-1.29     l-0.09,0.01L808,393.9c0,0-0.13,0.05-0.33,0.11c-0.95-0.07-2.16-0.12-3.74-0.19c-1.41-0.06-3.13-0.13-5.2-0.24     c-13.46-0.7-28.48-5.03-36.22-7.55l-0.53-0.17c-8.52-3.39-22.1-10.78-34.03-17.62c-1.6-1.48-3.23-2.95-4.9-4.38     c-3.88-3.33-19.66-16.08-22.93-18.08c-0.44-0.29-0.92-0.59-1.1-0.64l-0.29-0.09l-0.21,0.22c-1.34,1.39-7.84,8.54-6,15.09     c-1.31,1.17-2.72,2.41-4.29,3.71c-5.05,4.2-13.9,9.12-22.22,9.16c-0.08,0-0.16,0-0.24,0c-15.88,0-24.95-7.26-26.61-8.72     c-1.08-0.95-1.85-1.16-2.84-0.78l-0.12,0.05l-0.08,0.1c-1.59,1.92-3.72,4.75-5.02,7.47l-0.01-0.01l-0.24,0.43     c-0.04,0.07-3.75,7.13-3.69,28.2c0,0.22,0.05,0.43,0.14,0.65c-0.61,0.89-1.13,4.31-1.12,4.45l0,0.1c0,0.19-0.01,0.55,0,0.89     c-0.47,0.45-0.43,0.92-0.4,1.07c0.07,0.35,0.14,0.71,0.21,1.08c-0.05,0.03-0.09,0.05-0.15,0.09l-0.34,0.14l0.02,0.06l0,0     l0.6,2.16c0.65,2.75,1.18,6.22,1.2,6.32c0.07,0.23,0.22,0.41,0.4,0.49c0.17,0.95,0.29,1.62,0.32,1.85     c0.07,0.43,0.41,0.73,0.85,0.96c0.04,0.02,0.08,0.04,0.13,0.06c1.14,0.51,2.87,0.52,2.97,0.52c0.65,0,26.28,0.43,53.41,0.88     c18.97,0.32,39.17,0.65,53.65,0.89l-0.09,0.35l0.65-0.01c0.1,0,6.8-0.1,11.06-0.15c1.87-0.02,3.27-0.04,3.44-0.04     c3.95,0.06,7.75,0.01,11.38-0.14c26.59-1.07,44.09-7.01,44.28-7.08c1.02-0.36,2.43-0.86,2.42-2.22     c-0.02-3.59,1.13-7.59,1.75-9.74c0.2-0.68,0.34-1.18,0.4-1.48l0-0.01C814.53,400.68,813.38,397.69,813.03,397.35z M761.98,395.67     c0.08-0.3,0.16-0.59,0.24-0.89c0-0.02,0.01-0.03,0.01-0.05c0.01-0.05,0.02-0.09,0.03-0.14c0.18-0.73,0.32-1.42,0.41-2.05     c0.34-2.2,0.25-3.85,0.19-4.94c-0.01-0.12-0.01-0.23-0.02-0.34c0-0.02,0-0.05,0-0.07c2.5,0.8,5.66,1.76,9.22,2.72     c7.8,2.1,17.54,4.2,26.61,4.67c2.08,0.11,3.8,0.18,5.21,0.24c0.45,0.02,0.86,0.04,1.25,0.05c-0.64,0.22-1.13,0.38-1.13,0.38     c-4.55,1.32-11.98,3.48-23.46,4.98c-0.98,0.13-1.98,0.25-3.01,0.37c-1.58,0.18-3.24,0.35-4.96,0.5     c-0.74,0.06-1.49,0.12-2.25,0.18c-3.16,0.24-6.55,0.42-10.18,0.53c0.44-1.38,0.87-2.78,1.28-4.17c0.09-0.32,0.19-0.64,0.28-0.97     C761.8,396.34,761.89,396.01,761.98,395.67z M692.54,384.85c4.1-1.96,5.46-1.92,7.95-1.85l0.2,0.01     c1.49,0.07,2.94,0.43,4.66,0.96c0.79,0.24,2.7,0.91,5.36,1.83c10.22,3.55,29.25,10.15,34.25,10.23l0.17,0     c0.22,0,0.43,0.01,0.64,0.01c2.97,0,5.09-0.55,7.04-1.99c0.29-0.22,0.59-0.46,0.88-0.72c0.43-0.39,0.86-0.82,1.3-1.3     c0.06-0.07,0.12-0.12,0.18-0.2c1.21,0.43,2.41,0.83,3.58,1.21c0.9,0.29,1.78,0.57,2.66,0.83c-0.04,0.18-0.08,0.32-0.1,0.43     c-0.03,0.13-0.06,0.21-0.06,0.23c-0.06,0.24-0.13,0.48-0.19,0.71c-0.09,0.35-0.18,0.69-0.28,1.04c-0.09,0.32-0.19,0.64-0.28,0.97     c-0.45,1.53-0.93,3.07-1.41,4.58c-3.11,0.08-6.38,0.11-9.84,0.07c-30.42-0.76-65.21-1.14-90.05-1.36     c-1.49-2.83-3.3-5.81-5.29-8.69C668.14,392.65,681.11,390.31,692.54,384.85z M653.17,390.81c-1.54-2.17-3.18-4.28-4.83-6.21     c14.36,2.15,28.89,0.15,42.35-5.9c5.53-2.48,7.16-2.73,9.37-2.66l0.11,0c1.11,0.05,2.36,0.31,4.31,0.88l0.72,0.21     c1.37,0.44,4.27,1.49,7.95,2.83c9.21,3.35,22.3,8.08,28.9,9.63c1.44,0.34,2.57,0.53,3.29,0.52c0.2,0,0.37-0.02,0.56-0.03     c1.03-0.07,1.81-0.38,2.42-0.85c1.9,0.76,3.77,1.48,5.62,2.15c0.08,0.03,0.16,0.06,0.24,0.09c-0.01,0.01-0.02,0.02-0.04,0.04     c-0.49,0.54-0.97,1-1.46,1.4c-0.31,0.26-0.63,0.49-0.94,0.69c-1.78,1.14-3.75,1.52-6.57,1.44l-0.18,0     c-4.84-0.08-24.5-6.9-33.94-10.18c-2.67-0.93-4.59-1.59-5.4-1.84c-1.79-0.55-3.31-0.93-4.91-1.01L700.5,382     c-0.45-0.01-0.86-0.03-1.26-0.03c-1.9,0-3.56,0.27-7.13,1.97C680.63,389.44,667.56,391.73,653.17,390.81z M731.26,371.33     c10.94,6.19,22.72,12.47,30.58,15.55c0,0.22,0.01,0.47,0.03,0.78c0.12,2.26-0.06,4.05-0.26,5.24c-1.87-0.56-3.79-1.19-5.75-1.88     c-0.33-0.12-0.66-0.23-0.99-0.35c-0.24-0.09-0.49-0.18-0.73-0.27c-1.33-0.49-2.69-1-4.05-1.54c-0.33-0.13-0.66-0.26-1-0.39     c-0.33-0.13-0.65-0.26-0.98-0.39c-22.73-9.2-47.96-23.92-53.6-27.28c-0.23-0.14-0.43-0.26-0.6-0.36c0.16-0.14,0.3-0.27,0.45-0.41     c0.91-0.83,1.78-1.63,2.6-2.39c1.32-1.22,2.46-2.28,3.52-3.21c0.62-0.54,1.4-0.44,2.31,0.04c0.28,0.15,3.5,2.16,6.21,3.8     c4.47,2.71,11.17,6.71,18.52,10.93C728.74,369.9,730,370.62,731.26,371.33z M700.8,347.43c4.4,3.17,17.06,13.29,21.6,17.19     c0.47,0.4,0.93,0.81,1.39,1.22c-11.34-6.58-20.27-12.09-20.27-12.09l0,0c-1.36-0.79-2.61-1.02-3.7-0.08     c-1.08,0.94-2.22,2-3.55,3.23c-0.14,0.13-0.29,0.27-0.43,0.4c0-0.52,0.06-1.26,0.3-2.14     C696.49,353.85,699.34,349.25,700.8,347.43z M693.93,354.02c1.31-3.55,3.95-6.62,5.04-7.78c0.15,0.09,0.37,0.23,0.61,0.39     c0.12,0.08,0.24,0.16,0.38,0.25c-1.5,1.9-4.38,6.49-4.79,8.02c-0.4,1.49-0.35,2.64-0.29,3.15l-0.64,0.63l-0.88,0.86l-0.02,0.02     C692.94,357.71,693.27,355.8,693.93,354.02z M636.79,364.61c0.43-0.14,0.83-0.13,1.7,0.64c1.71,1.5,11.03,8.97,27.27,8.97     c0.08,0,0.16,0,0.25,0c8.58-0.04,17.67-5.08,22.85-9.39c1.44-1.2,2.75-2.34,3.96-3.42c0.1-0.09,0.2-0.18,0.3-0.26     c0,0,0.01,0.01,0.01,0.01c0.13,0.08,0.32,0.19,0.53,0.32c0.32,0.19,0.73,0.43,1.22,0.72c7.03,4.14,30.68,17.77,52.29,26.58     c-0.5,0.25-1.11,0.36-1.89,0.34c-0.62,0.01-1.6-0.15-2.85-0.43c-4.83-1.11-13.69-4.16-21.52-6.96c-2.66-0.95-5.21-1.88-7.44-2.69     c-3.69-1.34-6.6-2.4-8-2.85l-0.73-0.21c-2.04-0.6-3.35-0.86-4.55-0.92l-0.16-0.01c-2.41-0.07-4.31,0.29-9.77,2.75     c-13.65,6.13-28.42,8.05-42.97,5.64c-0.99-1.11-1.99-2.14-2.98-3.09c-0.27-0.25-0.53-0.51-0.79-0.75     c-0.13-0.12-0.27-0.24-0.41-0.36c-3.02-2.62-8.34-5.83-11.18-7.42C632.92,369.77,634.55,367.32,636.79,364.61z M630.18,376.98     c0.54-2.27,1.04-3.63,1.31-4.27c0.02,0.01,0.04,0.02,0.06,0.03c2.49,1.4,6.8,4,9.8,6.33c0.49,0.38,0.95,0.76,1.36,1.12     c0.05,0.05,0.11,0.09,0.16,0.14c0.94,0.86,1.89,1.81,2.84,2.82c0.19,0.2,0.37,0.41,0.56,0.62c0.19,0.2,0.37,0.4,0.56,0.61     c1.73,1.95,3.45,4.11,5.08,6.36c0.12,0.17,0.25,0.35,0.37,0.52c0.13,0.18,0.25,0.35,0.38,0.53c2.03,2.89,3.89,5.89,5.42,8.76     c-5.49-0.05-26.86-0.22-29.87-0.26c-0.03-0.11-0.05-0.22-0.05-0.33C628.1,388.38,629.2,381.14,630.18,376.98z M627.91,401.57     c0.04-0.11,0.08-0.22,0.11-0.29c0.28,0,0.6,0.01,0.93,0.01c3.09,0.04,90.07,0.87,120.28,1.62c3.35,0.04,6.52,0.01,9.54-0.07     c0.35-0.01,0.71-0.02,1.06-0.03c4.57-0.13,8.76-0.38,12.59-0.71c0.76-0.06,1.5-0.13,2.23-0.2c1.98-0.19,3.86-0.41,5.64-0.63     c0.49-0.06,0.98-0.13,1.45-0.19c10.95-1.5,18.11-3.58,22.54-4.86c0,0,2.36-0.77,3.55-1.19c0.33-0.12,0.58-0.21,0.64-0.25     c0,0,0,0,0,0c0.37,0,1.56,0.35,1.9,0.88l0.08,0.1c0.38,0.49,0.68,0.93,0.95,1.34c-0.22,0.08-0.45,0.15-0.68,0.23     c-8.15,2.78-17.69,4.53-26.73,5.64c-0.44,0.05-0.89,0.11-1.33,0.16c-1.24,0.14-2.48,0.28-3.69,0.4     c-0.79,0.08-1.57,0.15-2.34,0.22c-6.76,0.61-12.88,0.88-17.43,1c-0.36,0.01-0.71,0.02-1.06,0.03c-4.24,0.09-6.88,0.05-6.98,0.05     l-123.71-1.57C627.62,402.61,627.77,401.98,627.91,401.57z M627.15,405.07c0.01-0.13,0.06-0.45,0.13-0.83l123.89,1.58     c0.05,0,0.7,0.01,1.85,0.01c1.15,0,2.8-0.01,4.83-0.05c0.34-0.01,0.69-0.02,1.05-0.02c5.06-0.13,12.16-0.44,19.96-1.21     c0.81-0.08,1.64-0.17,2.47-0.26c0.77-0.08,1.54-0.17,2.31-0.27c0.4-0.05,0.79-0.09,1.19-0.14c6.17-0.78,12.56-1.85,18.57-3.35     c-0.11,0.03-0.21,0.06-0.32,0.09c-3.79,1.1-9.34,2.7-17.82,4.08c-1.27,0.21-2.6,0.41-4,0.6c-6.15,0.85-13.63,1.57-22.8,1.95     c-0.35,0.01-0.7,0.03-1.06,0.04c-0.65,0.02-1.31,0.05-1.98,0.07c-1.44,0.04-2.89,0.4-4.29,0.98     c-29.18-0.45-122.92-1.98-123.97-2.14c-0.02-0.36-0.01-0.82-0.01-1.01L627.15,405.07z M739.3,421.59c0,0.01-0.01,0.02-0.01,0.02     c-14.49-0.24-34.83-0.58-53.91-0.89c-28.31-0.47-52.76-0.88-53.42-0.88c-1.52,0-2.88-0.42-2.96-0.7     c-0.13-0.81-1.3-7.39-2.23-12.02c0.11,0.03,0.26,0.05,0.43,0.07c1.45,0.19,22.58,0.54,24.78,0.58c2.94,0.05,6.07,0.1,9.33,0.15     c0.35,0.01,0.71,0.01,1.06,0.02c24.98,0.4,58.19,0.92,86.8,1.36C744.58,411.95,740.71,416.92,739.3,421.59z M813.31,401.92     c-0.05,0.25-0.19,0.75-0.37,1.38c-0.63,2.2-1.81,6.29-1.79,10.03c0,0.49-0.41,0.79-1.75,1.27c-0.12,0.04-7.27,2.47-19.34,4.49     c-6.78,1.14-15.12,2.14-24.63,2.52c-4.12,0.23-7.94,0.29-11.32,0.24c-0.95-0.02-2.06-0.03-3.28-0.05     c-0.68,0.01-1.42,0.02-2.19,0.03c-3.2,0.04-6.9,0.09-8.4,0.11c0.03-0.1,0.07-0.21,0.11-0.31c0-0.01,0.01-0.02,0.01-0.02     c1.59-4.94,5.98-10.16,10.96-12.28c0.93-0.4,1.89-0.7,2.85-0.85c0.44-0.07,0.87-0.12,1.31-0.13c0.56-0.02,1.11-0.04,1.66-0.06     c0.35-0.01,0.7-0.02,1.05-0.04c25.6-1.02,38.27-4.68,45.19-6.68c0.58-0.17,1.12-0.32,1.62-0.46c3.05-0.86,4.95-1.54,6.14-2.04     c0.39-0.16,0.7-0.31,0.94-0.43c0.06-0.03,0.13-0.07,0.19-0.09c0.09-0.05,0.17-0.09,0.24-0.13c0.24,0.56,0.59,1.57,0.75,2.44     C813.31,401.26,813.35,401.64,813.31,401.92z"></path>		</g>	</g></g><g>	<path class="st0" d="M723.87,380.77l-0.02-0.01l0.57-0.96l0.11,0.04l-0.14,1.07l-0.01,0.05l-0.02-0.01l0,0L723.87,380.77   L723.87,380.77z"></path></g><path class="st1" d="M659.33,386.55C659.33,386.55,659.33,386.55,659.33,386.55l-0.51-0.01c-0.21,0-0.37-0.17-0.37-0.38  c0-0.21,0.17-0.37,0.38-0.37c0,0,0,0,0.01,0l0.5,0.01c0.21,0,0.37,0.17,0.37,0.38C659.7,386.39,659.54,386.55,659.33,386.55z   M663.33,386.49c-0.2,0-0.37-0.16-0.37-0.36c-0.01-0.21,0.15-0.38,0.36-0.39l0.5-0.02c0.2-0.02,0.38,0.15,0.39,0.36  c0.01,0.21-0.15,0.38-0.36,0.39l-0.5,0.02C663.34,386.49,663.34,386.49,663.33,386.49z M654.83,386.38c-0.01,0-0.02,0-0.03,0  l-0.5-0.03c-0.21-0.01-0.36-0.19-0.35-0.4c0.01-0.21,0.19-0.36,0.4-0.35l0.5,0.03c0.21,0.01,0.36,0.19,0.35,0.4  C655.19,386.23,655.03,386.38,654.83,386.38z M667.82,386.17c-0.19,0-0.35-0.14-0.37-0.34c-0.02-0.21,0.13-0.39,0.33-0.41l0.49-0.05  c0.2-0.02,0.39,0.12,0.41,0.33c0.02,0.21-0.12,0.39-0.33,0.41l-0.5,0.05C667.85,386.17,667.83,386.17,667.82,386.17z M650.35,385.96  c-0.02,0-0.03,0-0.05,0l-0.5-0.06c-0.21-0.03-0.35-0.22-0.32-0.42c0.03-0.21,0.22-0.35,0.42-0.32l0.49,0.06  c0.21,0.02,0.35,0.21,0.33,0.42C650.7,385.82,650.54,385.96,650.35,385.96z M672.27,385.54c-0.18,0-0.34-0.13-0.37-0.31  c-0.04-0.2,0.1-0.4,0.3-0.44l0.49-0.09c0.2-0.04,0.4,0.1,0.44,0.3c0.04,0.2-0.1,0.4-0.3,0.44l-0.49,0.09  C672.32,385.54,672.3,385.54,672.27,385.54z M676.66,384.56c-0.17,0-0.32-0.11-0.36-0.28c-0.05-0.2,0.07-0.41,0.27-0.46l0.48-0.13  c0.2-0.06,0.41,0.06,0.46,0.26s-0.06,0.41-0.26,0.46l-0.48,0.13C676.73,384.56,676.7,384.56,676.66,384.56z M680.94,383.19  c-0.15,0-0.29-0.09-0.35-0.24c-0.07-0.19,0.02-0.41,0.22-0.48l0.46-0.18c0.19-0.08,0.41,0.02,0.49,0.21  c0.08,0.19-0.02,0.41-0.21,0.49l-0.47,0.18C681.03,383.18,680.99,383.19,680.94,383.19z M685.07,381.39c-0.14,0-0.28-0.08-0.34-0.22  c-0.09-0.19,0-0.41,0.18-0.5l0.45-0.21c0.19-0.09,0.41-0.01,0.5,0.18c0.09,0.19,0,0.41-0.18,0.5l-0.45,0.21  C685.17,381.38,685.12,381.39,685.07,381.39z M689.14,379.48c-0.14,0-0.27-0.08-0.34-0.21c-0.09-0.19-0.01-0.41,0.17-0.5l0.45-0.22  c0.18-0.09,0.41-0.01,0.5,0.17c0.09,0.19,0.01,0.41-0.17,0.5l-0.45,0.22C689.25,379.47,689.19,379.48,689.14,379.48z M693.14,377.44  c-0.13,0-0.26-0.07-0.33-0.2c-0.1-0.18-0.03-0.41,0.15-0.51l0.43-0.24c0.18-0.1,0.41-0.03,0.51,0.15c0.1,0.18,0.03,0.41-0.15,0.51  l-0.44,0.24C693.26,377.42,693.2,377.44,693.14,377.44z M697.02,375.16c-0.12,0-0.25-0.06-0.32-0.17c-0.11-0.17-0.06-0.41,0.12-0.52  l0.42-0.27c0.17-0.11,0.41-0.06,0.52,0.11c0.11,0.17,0.06,0.41-0.11,0.52l-0.42,0.27C697.16,375.14,697.09,375.16,697.02,375.16z   M700.72,372.61c-0.11,0-0.23-0.05-0.3-0.15c-0.12-0.17-0.09-0.4,0.08-0.52l0.4-0.3c0.17-0.12,0.4-0.09,0.52,0.08  c0.12,0.17,0.09,0.4-0.08,0.52l-0.4,0.3C700.88,372.58,700.8,372.61,700.72,372.61z M704.26,369.84c-0.11,0-0.22-0.05-0.29-0.14  c-0.13-0.16-0.11-0.4,0.05-0.53l0.38-0.32c0.16-0.13,0.39-0.11,0.53,0.05c0.13,0.16,0.11,0.4-0.05,0.53l-0.39,0.32  C704.43,369.81,704.34,369.84,704.26,369.84z"></path><path class="st3" d="M694.26,363.13"></path><g>	<g>		<path class="st1" d="M757.78,388.48c-0.24,0.44-0.94,0.53-1.56,0.19c-0.62-0.34-0.92-0.97-0.67-1.41    c0.24-0.44,0.87-0.46,1.48-0.11C757.65,387.48,758.03,388.03,757.78,388.48z"></path>		<path d="M757,389.38c-0.33,0-0.67-0.09-1.01-0.27c-0.87-0.48-1.25-1.4-0.87-2.09c0.15-0.28,0.4-0.47,0.71-0.56    c0.43-0.12,0.95-0.03,1.45,0.25c0.92,0.52,1.31,1.34,0.94,2.01l0,0C757.99,389.15,757.52,389.38,757,389.38z M756.22,387.4    c-0.05,0-0.09,0.01-0.12,0.01c-0.07,0.02-0.09,0.05-0.11,0.08c-0.08,0.15,0.06,0.51,0.48,0.74c0.42,0.22,0.79,0.15,0.88,0.01l0,0    c0.06-0.11-0.13-0.42-0.56-0.66C756.56,387.45,756.36,387.4,756.22,387.4z"></path>	</g>	<g>		<path class="st1" d="M741.83,380.95c-0.24,0.44-0.94,0.53-1.55,0.19c-0.62-0.34-0.92-0.97-0.67-1.41    c0.24-0.44,0.94-0.53,1.55-0.19C741.78,379.87,742.08,380.5,741.83,380.95z"></path>		<path d="M741.04,381.85c-0.34,0-0.69-0.09-1.01-0.27c-0.39-0.21-0.7-0.53-0.87-0.89c-0.2-0.41-0.2-0.85,0-1.2    c0.38-0.7,1.36-0.87,2.23-0.39c0.48,0.26,0.83,0.67,0.96,1.13c0.1,0.34,0.07,0.68-0.09,0.97v0c-0.19,0.35-0.56,0.59-1.02,0.64    C741.19,381.84,741.12,381.85,741.04,381.85z M740.4,379.83c-0.18,0-0.31,0.06-0.36,0.14c-0.05,0.1,0,0.23,0.03,0.29    c0.08,0.17,0.25,0.33,0.45,0.44c0.2,0.11,0.43,0.16,0.62,0.14c0.06-0.01,0.21-0.04,0.26-0.13l0,0c0.04-0.07,0.02-0.15,0.01-0.21    c-0.05-0.15-0.2-0.37-0.48-0.53C740.73,379.87,740.55,379.83,740.4,379.83z"></path>	</g>	<g>		<path class="st1" d="M749.65,384.84c-0.24,0.44-0.94,0.53-1.55,0.19c-0.62-0.34-0.92-0.97-0.67-1.41    c0.24-0.44,0.94-0.53,1.55-0.19C749.59,383.76,749.89,384.39,749.65,384.84z"></path>		<path d="M748.86,385.74c-0.34,0-0.69-0.09-1.01-0.27c-0.87-0.48-1.25-1.4-0.87-2.09c0.38-0.7,1.36-0.87,2.23-0.39    c0.48,0.26,0.83,0.67,0.96,1.13c0.1,0.34,0.07,0.68-0.09,0.97l0,0c-0.19,0.35-0.56,0.59-1.02,0.64    C749,385.73,748.93,385.74,748.86,385.74z M748.21,383.72c-0.18,0-0.31,0.06-0.36,0.14c-0.08,0.15,0.06,0.51,0.48,0.73    c0.2,0.11,0.43,0.16,0.62,0.14c0.06-0.01,0.21-0.03,0.26-0.13l0,0c0.04-0.07,0.02-0.15,0.01-0.21c-0.05-0.15-0.2-0.37-0.48-0.53    C748.54,383.76,748.36,383.72,748.21,383.72z"></path>	</g>	<g>		<path class="st1" d="M733.72,377.39c-0.24,0.44-0.94,0.53-1.55,0.19c-0.62-0.34-0.92-0.97-0.68-1.41    c0.24-0.44,0.94-0.53,1.56-0.19C733.67,376.32,733.97,376.95,733.72,377.39z"></path>		<path d="M732.93,378.29c-0.33,0-0.68-0.09-1.01-0.27c-0.39-0.21-0.7-0.53-0.87-0.89c-0.2-0.41-0.2-0.85,0-1.2    c0.19-0.35,0.56-0.59,1.02-0.65c0.4-0.05,0.83,0.04,1.22,0.25c0.48,0.26,0.83,0.67,0.96,1.13c0.1,0.34,0.07,0.68-0.09,0.97    c-0.16,0.28-0.43,0.49-0.77,0.59C733.25,378.27,733.09,378.29,732.93,378.29z M732.29,376.27c-0.03,0-0.06,0-0.09,0.01    c-0.06,0.01-0.21,0.04-0.26,0.13c-0.05,0.1,0,0.24,0.03,0.29c0.08,0.17,0.24,0.33,0.45,0.44c0.29,0.16,0.55,0.17,0.71,0.12    c0.06-0.02,0.13-0.05,0.17-0.11v0c0.04-0.06,0.02-0.15,0.01-0.2c-0.04-0.15-0.2-0.37-0.48-0.53    C732.64,376.32,732.45,376.27,732.29,376.27z"></path>	</g>	<g>		<path class="st1" d="M726.51,373.32c-0.24,0.44-0.94,0.53-1.55,0.19c-0.62-0.34-0.92-0.97-0.68-1.41    c0.24-0.44,0.94-0.53,1.56-0.19C726.45,372.24,726.76,372.88,726.51,373.32z"></path>		<path d="M725.72,374.22c-0.33,0-0.68-0.09-1-0.27c-0.87-0.48-1.25-1.39-0.87-2.09c0.2-0.36,0.57-0.59,1.02-0.65    c0.39-0.05,0.83,0.04,1.22,0.26c0.48,0.26,0.83,0.67,0.96,1.13c0.1,0.34,0.07,0.68-0.09,0.97c-0.16,0.28-0.43,0.49-0.77,0.59    C726.04,374.2,725.88,374.22,725.72,374.22z M725.07,372.2c-0.03,0-0.06,0-0.09,0.01c-0.06,0.01-0.21,0.04-0.26,0.13    c-0.08,0.15,0.07,0.51,0.48,0.73c0.29,0.16,0.55,0.17,0.71,0.12c0.06-0.02,0.13-0.05,0.17-0.11l0,0c0.04-0.06,0.02-0.15,0.01-0.2    c-0.04-0.15-0.19-0.37-0.48-0.53C725.43,372.25,725.24,372.2,725.07,372.2z"></path>	</g>	<g>		<path class="st2" d="M718.51,369.23c-0.24,0.45-0.94,0.53-1.55,0.19c-0.62-0.34-0.92-0.97-0.67-1.41    c0.24-0.45,0.94-0.53,1.56-0.19C718.46,368.15,718.76,368.79,718.51,369.23z"></path>		<path d="M717.73,370.13c-0.33,0-0.68-0.09-1.01-0.27c-0.39-0.21-0.7-0.53-0.87-0.89c-0.2-0.41-0.2-0.85,0-1.2    c0.16-0.29,0.43-0.5,0.77-0.59c0.45-0.13,0.99-0.06,1.47,0.21c0.48,0.26,0.83,0.67,0.96,1.13c0.1,0.34,0.07,0.68-0.09,0.96    c-0.19,0.35-0.56,0.59-1.02,0.64C717.87,370.12,717.8,370.13,717.73,370.13z M717.08,368.11c-0.07,0-0.13,0.01-0.18,0.02    c-0.06,0.02-0.13,0.05-0.17,0.12c-0.05,0.1,0,0.24,0.03,0.29c0.08,0.17,0.25,0.33,0.45,0.44c0.2,0.11,0.43,0.16,0.62,0.14    c0.06-0.01,0.21-0.03,0.26-0.13l0,0c0.04-0.06,0.02-0.14,0.01-0.2c-0.04-0.15-0.19-0.37-0.48-0.53    C717.41,368.15,717.22,368.11,717.08,368.11z"></path>	</g>	<g>		<path class="st2" d="M701.96,360.66c-0.03,0.6,0.44,1.1,1.03,1.13c0.6,0.03,1.1-0.43,1.13-1.03c0.03-0.6-0.43-1.1-1.03-1.13    C702.49,359.6,701.98,360.07,701.96,360.66z"></path>		<path d="M703.04,362.3c-0.02,0-0.05,0-0.07,0c-0.87-0.04-1.55-0.78-1.51-1.65v0c0.04-0.87,0.78-1.54,1.66-1.51    c0.87,0.04,1.55,0.78,1.51,1.65C704.58,361.63,703.88,362.3,703.04,362.3z M702.46,360.69c-0.01,0.32,0.24,0.59,0.56,0.61    c0.32,0.03,0.6-0.23,0.61-0.56c0.01-0.32-0.23-0.59-0.56-0.61C702.74,360.12,702.47,360.37,702.46,360.69L702.46,360.69z"></path>	</g>	<g>		<path class="st2" d="M709.41,364.28c-0.03,0.6,0.44,1.1,1.03,1.13c0.6,0.03,1.1-0.44,1.13-1.03c0.03-0.6-0.43-1.1-1.03-1.13    C709.94,363.22,709.44,363.68,709.41,364.28z"></path>		<path d="M710.49,365.91c-0.02,0-0.05,0-0.07,0c-0.87-0.04-1.55-0.78-1.51-1.65v0c0.04-0.87,0.8-1.54,1.66-1.51    c0.87,0.04,1.55,0.78,1.51,1.65C712.03,365.25,711.33,365.91,710.49,365.91z M709.91,364.3L709.91,364.3    c-0.01,0.32,0.24,0.6,0.56,0.61c0.34,0.02,0.6-0.23,0.61-0.56c0.01-0.32-0.24-0.6-0.56-0.61    C710.22,363.73,709.92,363.98,709.91,364.3z"></path>	</g></g><g>	<path class="st4" d="M726.04,365.84c0,0,0.34,0.18,0.69,0.39c0.35,0.21,0.52,0.45,0.62,0.97c0.1,0.52-0.07,1.35-0.07,1.35   l-2.88-1.63l0.03-0.76L726.04,365.84z"></path>	<path class="st4" d="M732.19,370.31c0.19-0.04,0.85,0.7,0.85,0.7c0.17,0.14,0.55,0.55,0.55,0.55l0.03,0.45l-2.29-1.35   C731.34,370.66,731.2,370.5,732.19,370.31z"></path></g><g>	<g>		<path class="st2" d="M760.89,385.42c0,0-0.81,0.1-1.27,0.8c-0.92,1.41-1.54,2.11-1.9,2.15c-0.14,0.01-0.56,0.04-0.76,0.05    c-0.18,0.01-0.12-0.38-0.3-0.42c-0.18-0.05-0.62,0.25-0.76,0.1c-0.18-0.2-0.48-1.51-0.48-2c0-1.61,0.63-1.5,0.96-1.85    C757.16,383.39,760.51,384.02,760.89,385.42z"></path>		<path class="st1" d="M756.95,388.92c-0.18,0-0.4-0.07-0.54-0.36c-0.24,0.08-0.61,0.16-0.88-0.13c-0.33-0.36-0.61-1.88-0.61-2.33    c0-1.39,0.46-1.79,0.93-2.08c0.07-0.04,0.13-0.08,0.16-0.11c0.61-0.67,1.97-0.63,2.95-0.4c1.3,0.31,2.2,0.98,2.41,1.78l0.15,0.56    l-0.57,0.07c-0.02,0-0.6,0.09-0.91,0.58c-1.25,1.91-1.79,2.32-2.27,2.37c-0.14,0.02-0.58,0.04-0.79,0.05    C756.97,388.92,756.96,388.92,756.95,388.92z M756.63,388.49L756.63,388.49L756.63,388.49z M756.61,387.49    c0.06,0,0.11,0.01,0.17,0.02c0.25,0.06,0.38,0.24,0.44,0.39c0.17-0.01,0.36-0.02,0.44-0.03c0.04-0.02,0.42-0.22,1.54-1.93    c0.26-0.41,0.62-0.65,0.93-0.8c-0.3-0.27-0.8-0.52-1.41-0.66c-0.96-0.23-1.77-0.13-1.98,0.1c-0.13,0.14-0.27,0.22-0.38,0.29    c-0.24,0.15-0.45,0.27-0.45,1.22c0,0.33,0.16,1.08,0.29,1.48C756.33,387.54,756.47,387.49,756.61,387.49z"></path>	</g>	<g>		<path class="st2" d="M753.61,381.43c0,0,0.09,0.61-0.47,0.75c-0.32,0.08-0.65-0.03-1.28,0.5c-0.44,0.37-1.41,1.57-1.97,2.08    c-0.4,0.37-1.04,0.05-1.25-0.1c-0.09-0.07-0.12-0.68-0.2-0.77c-0.11-0.11-0.42,0.49-0.51,0.36c-0.22-0.32-0.5-0.82-0.5-1.13    c0-0.75,0.54-2.01,0.86-2.44c0.32-0.43,0.76-0.75,1.83-0.75C751.21,379.92,752.21,380.57,753.61,381.43z"></path>		<path class="st1" d="M749.42,385.43c-0.41,0-0.82-0.18-1.08-0.37c-0.11-0.08-0.17-0.19-0.21-0.31c-0.06,0.02-0.12,0.03-0.19,0.02    l-0.25-0.01l-0.17-0.22c-0.22-0.32-0.59-0.93-0.59-1.42c0-0.88,0.58-2.23,0.96-2.74c0.5-0.67,1.17-0.95,2.23-0.95    c1.18,0,2.24,0.65,3.58,1.48l0.36,0.22l0.04,0.23c0.07,0.43-0.1,1.13-0.84,1.31c-0.1,0.03-0.2,0.04-0.31,0.05    c-0.22,0.02-0.41,0.04-0.78,0.35c-0.2,0.17-0.56,0.57-0.91,0.96c-0.37,0.41-0.75,0.84-1.05,1.11    C749.98,385.35,749.7,385.43,749.42,385.43z M749.05,384.32c0.17,0.08,0.4,0.15,0.5,0.07c0.26-0.24,0.62-0.65,0.98-1.04    c0.39-0.43,0.75-0.84,1.01-1.05c0.6-0.5,1.03-0.55,1.32-0.58c0.06-0.01,0.11-0.01,0.17-0.02c0.01,0,0.03-0.01,0.04-0.02    c-1.19-0.73-2.06-1.25-2.93-1.25c-0.94,0-1.21,0.26-1.43,0.55c-0.29,0.38-0.76,1.54-0.76,2.14c0,0.06,0.04,0.19,0.13,0.37    c0.09-0.06,0.2-0.11,0.33-0.11l0.22-0.01l0.19,0.17c0.15,0.16,0.19,0.36,0.23,0.64C749.04,384.23,749.04,384.28,749.05,384.32z"></path>	</g>	<g>		<path class="st2" d="M746.17,377.79c0,0,0.07,0.61-0.5,0.73c-0.33,0.07-0.92,0-1.58,0.51c-0.46,0.35-1.47,1.5-2.06,1.99    c-0.42,0.35-1.04,0.01-1.24-0.15c-0.09-0.07,0.07-0.38-0.01-0.47c-0.1-0.11-0.6,0.16-0.68,0.03c-0.21-0.33-0.46-0.84-0.45-1.15    c0.03-0.75,0.83-1.75,1.17-2.17c0.34-0.42,0.58-0.95,1.66-0.91C743.57,376.25,744.81,376.87,746.17,377.79z"></path>		<path class="st1" d="M741.6,381.67c-0.43,0-0.86-0.2-1.12-0.42c-0.11-0.09-0.16-0.19-0.19-0.3c-0.2,0.02-0.45-0.01-0.61-0.26    c-0.2-0.33-0.54-0.95-0.52-1.44c0.04-0.85,0.75-1.81,1.29-2.46l0.12-0.15c0.32-0.42,0.78-0.99,1.95-0.94    c1.07,0.05,2.32,0.58,3.94,1.67l0.19,0.13l0.03,0.23c0.05,0.43-0.15,1.12-0.9,1.27c-0.08,0.02-0.18,0.03-0.3,0.04    c-0.32,0.03-0.67,0.07-1.07,0.38c-0.21,0.16-0.59,0.55-0.96,0.92c-0.38,0.39-0.78,0.8-1.08,1.05    C742.13,381.59,741.86,381.67,741.6,381.67z M741.3,380.59c0.15,0.07,0.33,0.11,0.41,0.05c0.27-0.22,0.65-0.61,1.01-0.99    c0.41-0.42,0.8-0.82,1.06-1.02c0.63-0.48,1.23-0.54,1.58-0.58c0.08-0.01,0.14-0.01,0.2-0.02c0.01,0,0.02-0.01,0.04-0.01    c-1.3-0.85-2.33-1.28-3.14-1.31c-0.69-0.02-0.85,0.2-1.11,0.54l-0.14,0.18c-0.85,1.04-1.05,1.59-1.06,1.87    c0,0.08,0.07,0.31,0.23,0.62c0.22-0.05,0.54-0.11,0.77,0.15C741.31,380.23,741.32,380.43,741.3,380.59z M741.11,380.47    C741.11,380.47,741.11,380.48,741.11,380.47C741.11,380.48,741.11,380.47,741.11,380.47z M740.53,380.16    C740.53,380.16,740.53,380.16,740.53,380.16C740.53,380.16,740.53,380.16,740.53,380.16z"></path>	</g>	<g>		<path class="st2" d="M738.62,373.97c0,0,0.52,0.59-0.05,0.7c-0.33,0.07-1.22,0.2-1.88,0.7c-0.46,0.35-2.25,1.59-2.84,2.08    c-0.42,0.35-1.04,0.01-1.24-0.15c-0.09-0.07,0.07-0.38-0.01-0.47c-0.1-0.11-0.6,0.16-0.68,0.03c-0.21-0.33-0.46-0.84-0.45-1.15    c0.03-0.75,1.91-2.03,2.25-2.45c0.34-0.42,1.09-0.75,2.16-0.7C736.97,372.61,737.26,373.05,738.62,373.97z"></path>		<path class="st1" d="M733.43,378.11c-0.43,0-0.86-0.21-1.12-0.42c-0.11-0.09-0.16-0.19-0.19-0.3c-0.21,0.02-0.45-0.02-0.6-0.26    c-0.21-0.33-0.55-0.95-0.53-1.44c0.03-0.69,0.8-1.4,1.81-2.25c0.23-0.19,0.48-0.41,0.55-0.5c0.5-0.6,1.46-0.93,2.57-0.89    c0.97,0.04,1.43,0.38,2.18,0.93c0.22,0.16,0.48,0.35,0.8,0.57l0.09,0.08c0.11,0.12,0.46,0.56,0.31,1.02    c-0.05,0.15-0.2,0.42-0.63,0.51l-0.11,0.02c-0.34,0.07-1.06,0.2-1.56,0.59c-0.17,0.13-0.54,0.39-0.96,0.69    c-0.67,0.48-1.51,1.08-1.86,1.37C733.95,378.03,733.69,378.11,733.43,378.11z M733.13,377.03c0.15,0.07,0.33,0.11,0.41,0.05    c0.38-0.32,1.2-0.9,1.93-1.42c0.41-0.29,0.76-0.54,0.93-0.67c0.58-0.45,1.29-0.64,1.75-0.73c-0.24-0.17-0.45-0.32-0.63-0.45    c-0.7-0.51-0.97-0.71-1.64-0.74c-0.94-0.04-1.52,0.24-1.75,0.52c-0.13,0.16-0.36,0.35-0.68,0.62c-0.39,0.33-1.43,1.2-1.46,1.53    c0,0.08,0.07,0.31,0.23,0.62c0.22-0.06,0.54-0.11,0.77,0.15C733.14,376.67,733.15,376.87,733.13,377.03z M732.94,376.91    C732.94,376.91,732.94,376.91,732.94,376.91C732.94,376.91,732.94,376.91,732.94,376.91z"></path>	</g>	<g>		<path class="st2" d="M732.24,369.6c0,0,0.52,0.59-0.05,0.7c-0.33,0.07-1.22,0.2-1.88,0.7c-0.46,0.35-2.96,1.92-3.54,2.41    c-0.42,0.35-1.04,0.01-1.24-0.15c-0.09-0.07-0.16-0.38-0.24-0.47c-0.1-0.11-0.36,0.16-0.44,0.03c-0.21-0.33-0.46-0.84-0.45-1.15    c0.03-0.75,2.62-2.36,2.96-2.78c0.34-0.42,1.09-0.75,2.16-0.7C730.59,368.24,730.88,368.68,732.24,369.6z"></path>		<path class="st1" d="M726.34,374.07c-0.43,0-0.86-0.2-1.12-0.42c-0.1-0.08-0.17-0.19-0.22-0.31c-0.35,0.04-0.51-0.15-0.58-0.25    c-0.2-0.33-0.54-0.95-0.52-1.44c0.03-0.69,0.97-1.46,2.3-2.46c0.31-0.23,0.69-0.52,0.77-0.61c0.5-0.6,1.45-0.93,2.57-0.89    c0.97,0.04,1.43,0.38,2.18,0.93c0.22,0.16,0.48,0.35,0.8,0.57l0.09,0.08c0.11,0.12,0.46,0.56,0.31,1.02    c-0.05,0.15-0.2,0.42-0.63,0.51l-0.11,0.02c-0.34,0.07-1.06,0.2-1.56,0.59c-0.19,0.15-0.74,0.51-1.36,0.92    c-0.82,0.54-1.85,1.21-2.17,1.48C726.86,373.99,726.6,374.07,726.34,374.07z M725.89,372.91c0.16,0.11,0.45,0.22,0.55,0.12    c0.37-0.31,1.37-0.97,2.26-1.55c0.59-0.39,1.11-0.73,1.3-0.87c0.58-0.45,1.29-0.64,1.75-0.73c-0.24-0.17-0.45-0.32-0.63-0.45    c-0.71-0.51-0.97-0.71-1.64-0.74c-0.95-0.03-1.52,0.24-1.75,0.52c-0.14,0.17-0.42,0.38-0.94,0.78c-0.54,0.41-1.82,1.37-1.91,1.73    c0,0.06,0.07,0.28,0.22,0.57c0.23-0.04,0.41,0.02,0.55,0.18c0.1,0.11,0.15,0.24,0.2,0.36    C725.87,372.85,725.88,372.88,725.89,372.91z M725.27,372.56C725.27,372.56,725.27,372.56,725.27,372.56    C725.27,372.56,725.27,372.56,725.27,372.56z"></path>	</g>	<g>		<path class="st2" d="M726.09,365.13c0,0,0.52,0.59-0.05,0.7c-0.33,0.07-2.3,0.11-2.96,0.61c-0.46,0.35-3.9,2.44-4.48,2.92    c-0.42,0.35-1.04,0.01-1.24-0.15c-0.09-0.07-0.16-0.38-0.24-0.47c-0.1-0.11-0.36,0.16-0.44,0.03c-0.21-0.33-0.46-0.84-0.45-1.15    c0.03-0.75,4.03-2.88,4.37-3.29c0.34-0.42,1.7-0.66,2.77-0.61C724.44,363.77,724.73,364.21,726.09,365.13z"></path>		<path class="st1" d="M718.17,370.02c-0.43,0-0.86-0.2-1.12-0.42c-0.1-0.08-0.17-0.19-0.22-0.31c-0.35,0.04-0.51-0.15-0.58-0.26    c-0.2-0.33-0.55-0.95-0.52-1.44c0.03-0.64,0.88-1.29,3.26-2.78c0.5-0.31,1.12-0.7,1.23-0.82c0.53-0.65,2.19-0.82,3.17-0.78    c0.97,0.04,1.43,0.38,2.18,0.93c0.22,0.16,0.48,0.35,0.8,0.57l0.09,0.08c0.11,0.12,0.46,0.56,0.31,1.02    c-0.05,0.15-0.2,0.42-0.63,0.51c-0.08,0.02-0.26,0.03-0.5,0.05c-0.56,0.05-1.87,0.16-2.26,0.46c-0.2,0.16-0.8,0.54-1.77,1.15    c-1.06,0.67-2.38,1.5-2.69,1.77C718.7,369.95,718.43,370.02,718.17,370.02z M717.73,368.86c0.16,0.11,0.45,0.22,0.55,0.12    c0.34-0.28,1.37-0.94,2.8-1.84c0.75-0.47,1.52-0.96,1.69-1.09c0.58-0.44,1.74-0.58,2.78-0.67c0,0,0.01,0,0.01,0    c-0.22-0.16-0.42-0.3-0.59-0.42c-0.71-0.51-0.97-0.71-1.64-0.74c-1.1-0.05-2.19,0.23-2.36,0.43c-0.16,0.19-0.5,0.42-1.46,1.02    c-0.85,0.54-2.63,1.65-2.81,2.05c0.01,0.03,0.08,0.24,0.23,0.52c0.23-0.04,0.41,0.02,0.55,0.17c0.1,0.11,0.15,0.24,0.2,0.36    C717.7,368.81,717.72,368.84,717.73,368.86z M717.1,368.51C717.1,368.51,717.1,368.51,717.1,368.51    C717.1,368.51,717.1,368.51,717.1,368.51z"></path>	</g></g><g>	<path class="st1" d="M764.39,399.57c-0.04,0-0.07-0.01-0.11-0.02c-0.2-0.06-0.31-0.27-0.25-0.47l0.15-0.48   c0.06-0.2,0.27-0.31,0.47-0.25c0.2,0.06,0.31,0.27,0.25,0.47l-0.15,0.48C764.69,399.46,764.55,399.57,764.39,399.57z    M765.66,395.25c-0.03,0-0.07,0-0.1-0.01c-0.2-0.05-0.32-0.26-0.26-0.46l0.13-0.48c0.05-0.2,0.26-0.32,0.46-0.27   c0.2,0.05,0.32,0.26,0.27,0.46l-0.13,0.48C765.98,395.14,765.83,395.25,765.66,395.25z M766.51,390.84c-0.01,0-0.02,0-0.03,0   c-0.21-0.02-0.36-0.2-0.34-0.4c0.01-0.17,0.02-0.33,0.03-0.49c0.01-0.21,0.19-0.37,0.39-0.36c0.21,0.01,0.37,0.19,0.36,0.39   c-0.01,0.17-0.02,0.34-0.03,0.51C766.87,390.69,766.71,390.84,766.51,390.84z"></path>	<path class="st1" d="M766.58,400.25c-0.04,0-0.07-0.01-0.11-0.02c-0.2-0.06-0.31-0.27-0.25-0.47l0.15-0.48   c0.06-0.2,0.27-0.31,0.47-0.25c0.2,0.06,0.31,0.27,0.25,0.47l-0.15,0.48C766.89,400.14,766.74,400.25,766.58,400.25z    M767.86,395.93c-0.03,0-0.07,0-0.1-0.01c-0.2-0.05-0.32-0.26-0.26-0.46l0.13-0.48c0.05-0.2,0.26-0.32,0.46-0.27   c0.2,0.05,0.32,0.26,0.27,0.46l-0.13,0.48C768.17,395.82,768.02,395.93,767.86,395.93z M768.71,391.52c-0.01,0-0.02,0-0.03,0   c-0.21-0.02-0.36-0.2-0.34-0.4c0.01-0.17,0.02-0.33,0.03-0.49c0.01-0.21,0.19-0.37,0.39-0.36c0.21,0.01,0.37,0.19,0.36,0.39   c-0.01,0.17-0.02,0.34-0.03,0.51C769.06,391.37,768.9,391.52,768.71,391.52z"></path></g><g>	<g>		<path d="M712.2,399.97c-0.14,0-0.27-0.07-0.33-0.2c-0.09-0.18-0.02-0.41,0.16-0.5l0.45-0.23c0.19-0.09,0.41-0.01,0.5,0.17    c0.09,0.19,0.02,0.41-0.17,0.5l-0.44,0.22C712.32,399.96,712.26,399.97,712.2,399.97z M747.94,398.61c-0.01,0-0.03,0-0.04,0    c-0.16-0.02-0.33-0.04-0.5-0.06c-0.21-0.03-0.35-0.22-0.32-0.42c0.03-0.21,0.22-0.35,0.42-0.32c0.17,0.02,0.33,0.04,0.49,0.06    c0.21,0.02,0.35,0.21,0.33,0.41C748.29,398.46,748.13,398.61,747.94,398.61z M716.33,398.21c-0.16,0-0.3-0.1-0.35-0.25    c-0.07-0.2,0.04-0.41,0.23-0.48l0.48-0.16c0.2-0.07,0.41,0.04,0.47,0.24c0.06,0.2-0.04,0.41-0.24,0.47l-0.47,0.16    C716.42,398.2,716.37,398.21,716.33,398.21z M743.5,397.86c-0.02,0-0.05,0-0.07-0.01l-0.49-0.1c-0.2-0.04-0.34-0.24-0.3-0.44    s0.24-0.34,0.44-0.3l0.49,0.1c0.2,0.04,0.34,0.24,0.3,0.44C743.83,397.74,743.67,397.86,743.5,397.86z M751.71,397.64    c-0.14,0-0.28-0.08-0.34-0.22c-0.09-0.19,0-0.41,0.18-0.5l0.46-0.21c0.19-0.08,0.41,0,0.5,0.19c0.08,0.19,0,0.41-0.19,0.5    l-0.45,0.21C751.82,397.63,751.77,397.64,751.71,397.64z M720.67,397.02c-0.17,0-0.33-0.12-0.37-0.3c-0.04-0.2,0.09-0.4,0.29-0.44    l0.5-0.1c0.2-0.04,0.4,0.09,0.44,0.3s-0.09,0.4-0.3,0.44l-0.49,0.1C720.72,397.02,720.69,397.02,720.67,397.02z M739.07,397.01    c-0.02,0-0.05,0-0.07-0.01l-0.49-0.09c-0.2-0.03-0.34-0.23-0.31-0.43c0.03-0.2,0.23-0.34,0.43-0.31l0.5,0.09    c0.2,0.04,0.34,0.23,0.3,0.44C739.41,396.88,739.25,397.01,739.07,397.01z M734.61,396.43c-0.01,0-0.02,0-0.03,0l-0.5-0.04    c-0.21-0.02-0.36-0.2-0.34-0.4c0.02-0.21,0.2-0.36,0.4-0.34l0.5,0.04c0.21,0.02,0.36,0.2,0.34,0.41    C734.96,396.29,734.8,396.43,734.61,396.43z M725.12,396.37c-0.19,0-0.36-0.15-0.37-0.34c-0.02-0.21,0.13-0.39,0.34-0.41l0.5-0.04    c0.22,0,0.39,0.14,0.4,0.34c0.02,0.21-0.14,0.39-0.34,0.4l-0.49,0.04C725.14,396.37,725.13,396.37,725.12,396.37z M730.11,396.19    C730.11,396.19,730.11,396.19,730.11,396.19l-0.5,0c-0.21,0-0.37-0.17-0.37-0.38s0.17-0.37,0.38-0.37c0,0,0,0,0,0l0.5,0    c0.21,0,0.37,0.17,0.37,0.38C730.49,396.03,730.32,396.19,730.11,396.19z M755.86,395.9c-0.15,0-0.29-0.09-0.35-0.24    c-0.07-0.19,0.02-0.41,0.22-0.48l0.47-0.18c0.2-0.07,0.41,0.03,0.48,0.22c0.07,0.19-0.03,0.41-0.22,0.48l-0.46,0.17    C755.95,395.89,755.9,395.9,755.86,395.9z M760.13,394.49c-0.17,0-0.32-0.11-0.36-0.28c-0.05-0.2,0.07-0.4,0.27-0.46    c0.33-0.09,0.5-0.12,0.5-0.12c0.21-0.04,0.4,0.09,0.44,0.29c0.04,0.2-0.09,0.4-0.29,0.44c-0.01,0-0.16,0.03-0.47,0.11    C760.19,394.48,760.16,394.49,760.13,394.49z"></path>	</g>	<g>		<path d="M747.76,401.16c-0.02,0-0.03,0-0.05,0l-0.5-0.07c-0.21-0.03-0.35-0.22-0.32-0.42c0.03-0.21,0.22-0.35,0.42-0.32l0.49,0.06    c0.21,0.02,0.35,0.21,0.33,0.42C748.11,401.02,747.95,401.16,747.76,401.16z M716.16,400.87c-0.15,0-0.3-0.1-0.35-0.25    c-0.07-0.2,0.03-0.41,0.23-0.48l0.48-0.17c0.2-0.06,0.41,0.04,0.48,0.24c0.07,0.2-0.04,0.41-0.24,0.48l-0.47,0.16    C716.25,400.86,716.2,400.87,716.16,400.87z M743.32,400.4c-0.02,0-0.05,0-0.07-0.01l-0.49-0.1c-0.2-0.04-0.34-0.24-0.3-0.44    c0.04-0.2,0.24-0.33,0.44-0.3l0.49,0.1c0.2,0.04,0.34,0.24,0.3,0.44C743.65,400.28,743.49,400.4,743.32,400.4z M751.55,400.32    c-0.14,0-0.28-0.08-0.34-0.22c-0.09-0.19-0.01-0.41,0.18-0.5l0.46-0.21c0.19-0.09,0.41,0,0.5,0.18c0.09,0.19,0,0.41-0.18,0.5    l-0.45,0.21C751.66,400.31,751.61,400.32,751.55,400.32z M720.49,399.65c-0.17,0-0.33-0.12-0.37-0.3c-0.04-0.2,0.09-0.4,0.29-0.44    l0.5-0.1c0.2-0.04,0.4,0.09,0.44,0.29c0.04,0.2-0.09,0.4-0.29,0.44l-0.49,0.1C720.54,399.65,720.52,399.65,720.49,399.65z     M738.89,399.55c-0.02,0-0.04,0-0.07-0.01l-0.49-0.08c-0.2-0.03-0.34-0.23-0.31-0.43c0.03-0.2,0.23-0.34,0.43-0.31l0.5,0.09    c0.2,0.04,0.34,0.23,0.3,0.44C739.23,399.42,739.07,399.55,738.89,399.55z M734.43,398.99c-0.01,0-0.02,0-0.03,0l-0.5-0.04    c-0.21-0.02-0.36-0.2-0.34-0.4c0.02-0.21,0.2-0.35,0.4-0.34l0.5,0.04c0.21,0.02,0.36,0.2,0.34,0.41    C734.78,398.85,734.62,398.99,734.43,398.99z M724.94,398.97c-0.19,0-0.35-0.15-0.37-0.34c-0.02-0.21,0.13-0.39,0.34-0.41    l0.5-0.05c0.21-0.02,0.39,0.14,0.41,0.34c0.02,0.21-0.14,0.39-0.34,0.41l-0.49,0.04C724.96,398.97,724.95,398.97,724.94,398.97z     M729.93,398.77C729.93,398.77,729.93,398.77,729.93,398.77l-0.5,0c-0.21,0-0.38-0.17-0.38-0.38s0.17-0.38,0.38-0.38l0.5,0    c0.21,0,0.37,0.17,0.37,0.38C730.31,398.6,730.14,398.77,729.93,398.77z M755.68,398.54c-0.15,0-0.29-0.09-0.35-0.24    c-0.08-0.19,0.02-0.41,0.21-0.49l0.47-0.18c0.19-0.07,0.41,0.02,0.48,0.22s-0.02,0.41-0.22,0.48l-0.46,0.18    C755.78,398.53,755.73,398.54,755.68,398.54z M759.94,397.08c-0.17,0-0.32-0.11-0.36-0.28c-0.05-0.2,0.06-0.41,0.26-0.46    c0.33-0.09,0.5-0.13,0.5-0.13c0.2-0.04,0.4,0.08,0.45,0.29c0.04,0.2-0.08,0.4-0.29,0.45c-0.01,0-0.16,0.04-0.47,0.12    C760.01,397.08,759.97,397.08,759.94,397.08z"></path>	</g></g><g>	<g>		<path class="st1" d="M650.81,394.9c-0.12,0-0.24-0.06-0.31-0.17l-0.28-0.41c-0.12-0.17-0.07-0.4,0.1-0.52    c0.17-0.11,0.41-0.07,0.52,0.1l0.28,0.42c0.11,0.17,0.07,0.41-0.11,0.52C650.96,394.88,650.89,394.9,650.81,394.9z M648.23,391.2    c-0.12,0-0.23-0.05-0.3-0.15l-0.3-0.4c-0.12-0.17-0.09-0.4,0.08-0.52c0.17-0.12,0.4-0.09,0.52,0.08l0.3,0.4    c0.12,0.17,0.09,0.4-0.08,0.52C648.39,391.18,648.31,391.2,648.23,391.2z M645.47,387.65c-0.11,0-0.22-0.05-0.29-0.14l-0.32-0.38    c-0.13-0.16-0.11-0.4,0.05-0.53c0.16-0.13,0.4-0.11,0.53,0.05l0.32,0.39c0.13,0.16,0.11,0.4-0.05,0.53    C645.64,387.62,645.56,387.65,645.47,387.65z M642.52,384.25c-0.1,0-0.2-0.04-0.27-0.12l-0.34-0.36    c-0.14-0.15-0.14-0.39,0.02-0.53c0.15-0.14,0.39-0.14,0.53,0.02l0.34,0.37c0.14,0.15,0.13,0.39-0.02,0.53    C642.7,384.22,642.61,384.25,642.52,384.25z M639.32,381.08c-0.09,0-0.18-0.03-0.25-0.1c-0.12-0.11-0.24-0.21-0.37-0.32    c-0.16-0.13-0.18-0.37-0.04-0.53c0.14-0.16,0.37-0.18,0.53-0.04c0.13,0.11,0.26,0.22,0.38,0.33c0.15,0.14,0.17,0.37,0.03,0.53    C639.53,381.04,639.42,381.08,639.32,381.08z M635.76,378.32c-0.07,0-0.15-0.02-0.22-0.07l-0.41-0.29    c-0.17-0.12-0.21-0.35-0.09-0.52c0.12-0.17,0.35-0.21,0.52-0.09l0.41,0.29c0.17,0.12,0.21,0.35,0.09,0.52    C636,378.27,635.88,378.32,635.76,378.32z M632.03,375.8c-0.07,0-0.14-0.02-0.21-0.06l-0.42-0.27c-0.17-0.11-0.22-0.35-0.11-0.52    c0.11-0.17,0.35-0.22,0.52-0.11l0.42,0.27c0.17,0.11,0.22,0.35,0.11,0.52C632.28,375.74,632.16,375.8,632.03,375.8z"></path>		<path class="st1" d="M647.58,396.48c-0.12,0-0.24-0.06-0.31-0.17l-0.28-0.41c-0.12-0.17-0.07-0.4,0.1-0.52    c0.17-0.11,0.41-0.07,0.52,0.1l0.28,0.42c0.11,0.17,0.07,0.41-0.11,0.52C647.72,396.46,647.65,396.48,647.58,396.48z M645,392.79    c-0.12,0-0.23-0.05-0.3-0.15l-0.3-0.4c-0.12-0.17-0.09-0.4,0.08-0.52c0.17-0.12,0.4-0.09,0.52,0.08l0.3,0.4    c0.12,0.17,0.09,0.4-0.08,0.52C645.16,392.77,645.08,392.79,645,392.79z M642.24,389.23c-0.11,0-0.22-0.05-0.29-0.14l-0.32-0.38    c-0.13-0.16-0.11-0.4,0.05-0.53c0.16-0.13,0.39-0.11,0.53,0.05l0.32,0.39c0.13,0.16,0.11,0.4-0.05,0.53    C642.41,389.21,642.32,389.23,642.24,389.23z M639.28,385.84c-0.1,0-0.2-0.04-0.27-0.12l-0.34-0.36    c-0.14-0.15-0.14-0.39,0.02-0.53c0.15-0.14,0.39-0.13,0.53,0.02l0.34,0.37c0.14,0.15,0.13,0.39-0.02,0.53    C639.47,385.8,639.38,385.84,639.28,385.84z M636.09,382.67c-0.09,0-0.18-0.03-0.25-0.1c-0.12-0.11-0.24-0.22-0.37-0.32    c-0.16-0.13-0.18-0.37-0.04-0.53c0.14-0.16,0.37-0.18,0.53-0.04c0.13,0.11,0.26,0.22,0.38,0.33c0.15,0.14,0.17,0.38,0.03,0.53    C636.29,382.63,636.19,382.67,636.09,382.67z M632.54,379.91c-0.07,0-0.15-0.02-0.21-0.07l-0.41-0.28    c-0.17-0.12-0.21-0.35-0.1-0.52c0.12-0.17,0.35-0.21,0.52-0.1l0.41,0.29c0.17,0.12,0.21,0.35,0.09,0.52    C632.77,379.85,632.65,379.91,632.54,379.91z"></path>	</g>	<path d="M649.61,399.85c-0.14,0.01-0.27-0.06-0.35-0.19l-0.25-0.43c-0.11-0.18-0.05-0.41,0.13-0.51c0.18-0.11,0.41-0.05,0.51,0.13   l0.26,0.43c0.1,0.18,0.04,0.41-0.13,0.51C649.73,399.83,649.67,399.84,649.61,399.85z"></path>	<path class="st1" d="M653.23,398.71c-0.14,0.01-0.27-0.06-0.35-0.18l-0.26-0.43c-0.11-0.18-0.05-0.41,0.12-0.52   c0.18-0.11,0.41-0.05,0.52,0.12l0.26,0.43c0.11,0.18,0.05,0.41-0.13,0.51C653.35,398.69,653.29,398.71,653.23,398.71z"></path></g></svg>
