<svg xmlns="http://www.w3.org/2000/svg" xmlns:xlink="http://www.w3.org/1999/xlink" version="1.1" id="Layer_1" x="0px" y="0px" style="enable-background:new 0 0 1440 768;" xml:space="preserve" viewBox="625.88 336.29 188.13 95.06"><style type="text/css">	.st0{fill:#020202;}	.st1{fill:#BFC3C1;stroke:#231F20;}	.st2{fill:#FFFFFF;}	.st3{fill:none;}	.st4{stroke:#0F0F10;}	.st5{fill:#0F0F10;}	.st6{fill-rule:evenodd;clip-rule:evenodd;fill:#FFFFFF;}	.st7{fill-rule:evenodd;clip-rule:evenodd;fill:#0F0F10;stroke:#0F0F10;}</style><path class="st0" d="M629.06,414.52c0,0-0.33-0.19-0.44,0.22c-0.11,0.41,0.02,1,0.25,1.28c0.22,0.27,0.36,1.23,0.31,1.68  c-0.05,0.45-0.14,0.63-0.14,0.63s0.51,1.46-0.41-0.18c-0.76-1.37-1.07-2.73-0.71-3.23C628.29,414.42,628.29,414.11,629.06,414.52z"></path><path class="st1" d="M628.92,414.98c-0.02-0.17-0.04-0.34-0.06-0.52C628.88,414.6,628.9,414.78,628.92,414.98z M628.85,414.34  c-0.01-0.11-0.02-0.23-0.04-0.34C628.82,414.07,628.83,414.18,628.85,414.34z"></path><g>	<path class="st2" d="M812.36,406.24c0,0-0.06,0.05-0.21,0.15c-0.67-1.23-1.6-2.4-1.64-2.45c-0.49-0.75-2.06-1.19-2.49-1.08   c0,0-0.11,0.1-0.62,0.31c-2.51-0.52-21.66-2.12-32.65-3.13c-1.83-1.85-3.99-3.19-6.51-3.64c-1.99-0.35-12.98-1.79-20.64-3.77   c-6.66-2.27-12.89-4.62-15.51-6.23c-12.85-7.93-20.57-18.27-25.53-29.14c-4.72-10.33-10.34-20.38-10.34-20.38s-1.46,0.31-4.06,1.49   c-2.14,0.97-7.35,3.24-10.44,5.99c-12.16-0.13-35.98-0.15-44.02-0.02c-0.82,0.01-1.32,0.22-1.63,0.62   c-0.58,0.56-1.68,1.88-2.11,4.16c-0.91,4.85-0.26,6.18-0.26,6.18s-0.53,0.3-0.99,4.97c-0.51,5.22,0.08,5.91,0.08,5.91   s-0.96,1.15-0.88,5.45c0.1,5.25,0.54,5.6,0.54,5.6s-4.94,11.52-3.89,32.08c-0.06,0-0.13,0-0.2,0c-0.5-0.01-1.18,4.1-1.17,4.25   c0,0.05-0.02,0.93,0.03,1.42c0,0.03,0,0.05,0,0.08c-0.01-0.01-0.03-0.03-0.03-0.04l-0.05-0.19c-0.36,0.29-0.38,0.58-0.35,0.7   c0.93,4.61,2.12,11.35,2.25,12.14c0.13,0.79,2.21,1.11,3.44,1.11c1.11,0,71.98,1.19,107.21,1.77c-0.03,0.11-0.07,0.22-0.1,0.33   c0,0,13.87-0.2,14.45-0.19c30.41,0.48,52.39-6.15,55.23-7.16c1.27-0.45,2.08-0.85,2.08-1.73c-0.03-4.73,1.93-10.07,2.15-11.27   C813.72,409.21,812.49,406.21,812.36,406.24z"></path>	<g>		<path class="st3" d="M749.16,417.99c-37.25-0.58-82.34-1.29-106.66-1.68c-10.77-0.17-14.08-0.24-15.18-0.48    c0.92,4.56,2.08,11.14,2.21,11.96c0.08,0.27,1.44,0.69,2.95,0.69c0.65,0,24.65,0.4,52.44,0.86c19.21,0.32,39.79,0.66,54.4,0.9    C740.73,425.6,744.58,420.64,749.16,417.99z"></path>		<path class="st3" d="M751.11,417.02c1.4-0.58,2.84-0.93,4.27-0.97c27.17-0.85,40.35-4.66,47.43-6.71    c0.58-0.17,1.12-0.32,1.62-0.47c4.27-1.2,6.21-2.04,7.03-2.47c-0.32-0.54-0.74-1.17-1.3-1.89l-0.08-0.1    c-0.34-0.52-1.52-0.87-1.89-0.87c0,0,0,0,0,0c-0.31,0.19-1.14,0.56-3.29,1.18l-0.88,0.26c-7.82,2.27-24.09,6.99-54.81,6.67    c-37.55-0.94-81.78-1.3-105.54-1.49c-6.9-0.06-12.15-0.1-15.11-0.14c-0.33,0.65-0.82,3.27-0.87,3.76c0,0.01,0,0.06,0,0.12    c0,0.21-0.01,0.64,0.01,0.99c1.1,0.17,5.83,0.27,14.81,0.42C667.26,415.71,713.5,416.44,751.11,417.02z"></path>	</g></g><g>	<g>		<g>			<path class="st4" d="M626.38,417.6c0,0,0.33-0.2,0.41-0.2c0.27,0,0.55,0.09,1.23,0.14c0.77,2.66,1.89,8.41,1.89,8.41l-0.16,0.12     l-1.14-0.39L626.38,417.6z"></path>			<path class="st4" d="M626.39,417.6c0.08-0.03,0.57,0.19,1.39,0.24c0.77,2.66,1.84,8.23,1.84,8.23s-1.29-0.22-1.4-0.23     c-0.11,0-0.16-0.18-0.16-0.18S627.25,420.35,626.39,417.6z"></path>		</g>	</g></g><g>	<path class="st3" d="M627.83,412.99c-0.07,0.36-0.11,0.66-0.12,0.79c0,0.01,0,0.06,0,0.12c0,0.21-0.01,0.64,0.01,0.99   c0.18,0.03,0.45,0.05,0.81,0.08c-0.09-0.56-0.16-1.21-0.22-1.97L627.83,412.99z"></path>	<path class="st3" d="M628.19,411.27c-0.06,0.24-0.11,0.48-0.17,0.72l0.21,0l0-0.01C628.22,411.74,628.2,411.51,628.19,411.27z"></path>	<path class="st3" d="M642.52,415.31c24.74,0.4,70.98,1.13,108.59,1.71c1.4-0.58,2.84-0.93,4.27-0.97c21.3-0.67,34-3.15,41.91-5.18   c-21.49,3.91-48.59,4.02-48.94,4.02l-119.04-1.88c0.06,0.81,0.12,1.47,0.23,2.01C631.83,415.12,636.08,415.21,642.52,415.31z"></path>	<path class="st3" d="M812.19,407.15c-0.07,0.04-0.15,0.08-0.24,0.13c-0.94,0.49-2.97,1.35-7.23,2.55c-0.5,0.14-1.04,0.3-1.62,0.46   c-7.12,2.06-20.39,5.9-47.68,6.75c-0.43,0.01-0.87,0.06-1.3,0.13c-0.95,0.15-1.9,0.45-2.83,0.85c-3.66,1.56-6.99,4.8-9.13,8.36   c-0.2,0.33-0.39,0.66-0.56,1c-0.5,0.96-0.92,1.93-1.23,2.88c-0.03,0.1-0.07,0.21-0.1,0.31c1.49-0.02,5.18-0.07,8.37-0.11   c2.78-0.04,5.19-0.07,5.43-0.07c32.55,0.51,54.84-7.05,55.05-7.13c1.34-0.47,1.75-0.77,1.74-1.26c-0.02-3.71,1.15-7.79,1.78-9.98   c0.18-0.62,0.32-1.12,0.37-1.37c0.04-0.28,0.01-0.66-0.07-1.07C812.77,408.72,812.43,407.71,812.19,407.15z"></path>	<g>		<path class="st3" d="M765.42,414.17c-1.28,0.31-2.76,0.81-4.36,1.41c6.01-0.3,11.26-0.75,15.85-1.28c-1.46-0.26-3.41-0.52-5.5-0.6    c-1.86,0.13-3.66,0.25-5.38,0.35C765.83,414.09,765.62,414.13,765.42,414.17z"></path>		<path class="st3" d="M797.29,410.64c-5.66,1.03-11.7,1.79-17.54,2.36c0.08,0.31,0.15,0.61,0.23,0.92    C787.49,412.93,793.08,411.72,797.29,410.64z"></path>		<path class="st3" d="M811.38,406.04c-0.31-0.51-0.7-1.09-1.21-1.76l-0.08-0.1c-0.34-0.52-1.52-0.87-1.89-0.87c0,0,0,0,0,0    c-0.31,0.19-1.14,0.56-3.29,1.18l-0.88,0.26c-4.77,1.39-12.71,3.69-25.15,5.19c0.22,0.67,0.43,1.36,0.63,2.08    C790.81,410.93,802.88,409.1,811.38,406.04z"></path>		<path class="st3" d="M778.9,413.67c-0.05-0.2-0.1-0.38-0.15-0.57c-0.64,0.06-1.28,0.12-1.91,0.17    C777.69,413.42,778.4,413.56,778.9,413.67z"></path>		<g>			<path class="st3" d="M811.02,406.17c0.12-0.04,0.24-0.08,0.36-0.12c-0.31-0.51-0.7-1.09-1.21-1.76l-0.08-0.1     c-0.14-0.21-0.42-0.4-0.73-0.54C810.13,404.34,810.66,405.29,811.02,406.17z"></path>			<path class="st3" d="M701.27,352.85l0.75,1.18c3.29,5.17,13.29,20.89,17.15,24.47c3.71,3.44,7.54,5.63,10.94,7.22     c-10.65-7-18.52-16.25-23.99-28.25c-4.17-9.15-9.13-18.17-10.14-20.01c-0.57,0.16-1.81,0.55-3.6,1.36l-0.43,0.19     c-1.94,0.88-5.7,2.58-8.53,4.63c0.95,0.01,1.81,0.03,2.55,0.04C692.9,343.61,695.81,344.33,701.27,352.85z"></path>			<path class="st3" d="M768.32,397.68c1.23,0.32,2.37,0.86,3.45,1.57c0.49,0.05,1.02,0.1,1.57,0.15c-1.49-1.25-3.2-2.17-5.17-2.52     c-0.4-0.07-1.17-0.19-2.21-0.34c-1.34-0.2-3.11-0.47-5.12-0.79c1.44,0.37,2.81,0.72,4.04,1.04     C766.21,397.13,767.37,397.43,768.32,397.68z"></path>			<path class="st3" d="M767.33,400c0.15-0.05,0.3-0.11,0.44-0.15c-0.21-0.03-0.39-0.05-0.52-0.07     C767.26,399.83,767.3,399.92,767.33,400z"></path>			<path class="st5" d="M714.36,387.98c-2.7-2.17-5.62-5.56-8.59-9.54c-1.09-0.95-2.2-1.91-3.3-2.87     c3.87,5.53,7.74,10.36,11.26,13.2c3.53,2.84,7.26,4.8,12.76,7.22c-0.97-0.79-1.96-1.61-2.96-2.44     C719.83,391.78,717.07,390.16,714.36,387.98z"></path>			<path class="st5" d="M703.21,374.89c-1.02-0.89-2.02-1.77-3-2.63c0.75,1.12,1.5,2.22,2.25,3.3c1.1,0.96,2.21,1.92,3.3,2.87     C704.92,377.3,704.07,376.11,703.21,374.89z"></path>			<g>				<path class="st3" d="M736.56,402.65c-0.49-1.68-1.63-2.93-2.95-3.63c-3.27,2.85-6.4,3.6-12.2,0.26      c-8.16-4.69-12.93-7.9-21.57-13.73l-0.14-0.09c-9.27-6.25-14.24-5.69-27.18-2.32c-9.81,2.55-24.22,3.22-34.63,2.48      c0.49,2.07,1.13,4.21,1.87,6.37c10.76,0.56,24.45-0.22,34.68-2.92c5.33-1.41,8.84-2.21,11.76-2.21c3.48,0,6.12,1.14,10.02,3.77      l0.13,0.09c8.77,5.91,13.59,9.16,21.95,13.97c3.44,1.98,6.67,3,9.59,3.03c3.55,0.02,6.42-1.37,8.9-3.3c0-0.12,0.01-0.24,0-0.36      C736.77,403.56,736.69,403.09,736.56,402.65z"></path>			</g>		</g>	</g>	<g>		<path class="st3" d="M639.03,392.95c-0.12-0.34-0.23-0.68-0.35-1.03c-0.72-2.16-1.36-4.32-1.84-6.39    c-0.08-0.34-0.15-0.68-0.22-1.02c-0.03-0.14-0.07-0.29-0.09-0.43c-3.16-15.84-0.63-33.89,0.27-39.3    c-0.02,0.01-0.05,0.01-0.07,0.03c-0.12,0.07-0.22,0.16-0.29,0.28c-0.34,0.33-0.9,0.98-1.36,1.98c-0.25,0.54-0.47,1.17-0.61,1.91    c-0.85,4.51-0.3,5.86-0.3,5.88l0.18,0.41l-0.29,0.18c-0.09,0.18-0.48,1.09-0.83,4.64c-0.46,4.65-0.02,5.55,0,5.59l0.28,0.32    l-0.31,0.27c0,0-0.84,1.15-0.76,5.12c0.08,4.02,0.36,5.08,0.44,5.29l0.21,0.17l-0.15,0.35c-0.05,0.12-4.83,11.57-3.87,31.6    c3.03,0.04,8.07,0.08,14.63,0.13c0.69,0.01,1.41,0.01,2.14,0.02c-0.29-0.6-0.58-1.2-0.87-1.79    C643.07,403.18,640.82,398.08,639.03,392.95z"></path>		<path class="st5" d="M812.73,405.87l-0.21-0.19l-0.17,0.03c-0.43-0.72-0.94-1.44-1.43-2.09c-0.63-0.94-2.4-1.44-3.02-1.28    l-0.09,0.01l-0.09,0.08c-0.01,0.01-0.11,0.07-0.41,0.2c-2.38-0.42-13.01-1.36-23.32-2.28c-3.21-0.28-6.34-0.56-9.02-0.81    c-1.83-1.82-4.02-3.19-6.64-3.65c-0.41-0.07-1.19-0.19-2.24-0.35c-4.07-0.61-12.23-1.84-18.31-3.4    c-6.64-2.26-12.85-4.6-15.43-6.19c-11.37-7.01-19.65-16.47-25.33-28.92c-4.67-10.23-10.31-20.31-10.36-20.42l-0.18-0.32    l-0.36,0.08c-0.06,0.01-1.54,0.33-4.16,1.52l-0.43,0.19c-2.21,1-6.71,3.04-9.71,5.53c-12.23-0.13-36.29-0.15-44.12-0.02    c-0.68,0.01-1.18,0.15-1.55,0.4l0,0c0,0-0.01,0.01-0.01,0.01c-0.16,0.11-0.31,0.22-0.42,0.37c-0.63,0.62-1.8,2.02-2.25,4.42    c-0.72,3.83-0.49,5.56-0.32,6.19c-0.26,0.5-0.61,1.75-0.93,5c-0.37,3.74-0.19,5.28,0.02,5.92c-0.31,0.57-0.88,2.1-0.82,5.5    c0.07,3.68,0.31,5.06,0.5,5.61c-0.65,1.66-4.77,13.05-3.86,31.88c-0.05,0.03-0.1,0.05-0.15,0.1c-0.65,0.67-1.21,4.4-1.21,4.55    l0,0.11c0,0.19,0,0.54,0,0.87c-0.47,0.45-0.43,0.92-0.4,1.07c0.92,4.58,2.11,11.29,2.25,12.12c0.25,1.52,3.78,1.53,3.93,1.53    c0.64,0,25.8,0.42,52.43,0.86c19.09,0.32,39.54,0.66,54.13,0.9l-0.09,0.35l0.65-0.01c0.14,0,13.85-0.22,14.43-0.19    c32.73,0.52,55.19-7.11,55.4-7.19c1.02-0.36,2.42-0.86,2.41-2.21c-0.02-3.57,1.13-7.56,1.75-9.7c0.2-0.68,0.34-1.17,0.39-1.47    l0-0.01C814.22,409.19,813.08,406.21,812.73,405.87z M760.83,395.75c2,0.32,3.78,0.59,5.12,0.79c1.04,0.16,1.81,0.27,2.21,0.34    c1.97,0.35,3.68,1.27,5.17,2.52c-0.55-0.05-1.08-0.1-1.57-0.15c-0.87-0.08-1.64-0.16-2.29-0.23c-1.55-0.46-6.86-2.05-13.06-4.03    C757.95,395.28,759.44,395.53,760.83,395.75z M691.95,339.02l0.43-0.19c1.79-0.81,3.03-1.2,3.6-1.36    c1.01,1.83,5.97,10.86,10.14,20.01c5.47,11.99,13.34,21.25,23.99,28.25c-3.4-1.59-7.23-3.78-10.94-7.22    c-3.86-3.58-13.86-19.3-17.15-24.47l-0.75-1.18c-5.46-8.52-8.38-9.24-15.31-9.16c-0.74-0.01-1.6-0.03-2.55-0.04    C686.24,341.6,690.01,339.9,691.95,339.02z M637.81,344.61c8.11-0.13,46.77,0.06,47.73,0.07c0.22,1.21,1.15,4.96,4.63,11.4    c0.18,0.33,2,3.54,2.87,4.95c2.3,3.71,4.72,7.56,7.17,11.22c0.98,0.86,1.98,1.74,3,2.63c-3.17-4.55-6.35-9.58-9.33-14.38    c-0.75-1.21-2.4-4.09-2.58-4.41c-3.42-6.24-4.46-10.04-4.75-11.39c0-0.01,0-0.02,0-0.02c1.79-0.02,3.28,0.03,4.65,0.32    c3.12,0.67,5.56,2.68,9.21,8.38c0,0,14.11,22.18,18.06,25.84c5.65,5.24,11.54,7.63,15.84,9.38c0.71,0.29,1.38,0.56,2,0.83    c2.27,0.97,5.58,2.07,9.27,3.17c0.33,0.1,0.66,0.2,1,0.29c0.59,0.17,1.18,0.34,1.78,0.52c6.81,2.3,13.89,4.48,17.94,5.7    c0.73,0.22,2.75,0.86,3.72,0.96c0.42,0.04,0.89,0.09,1.38,0.13c0.57,0.05,1.17,0.11,1.83,0.17c0.41,0.04,0.85,0.08,1.29,0.12    c0.47,0.04,0.96,0.09,1.47,0.13c2.38,0.22,5.08,0.46,7.91,0.71c8.14,0.72,17.14,1.52,21.31,2.01c-0.19,0.06-0.37,0.11-0.58,0.17    l-0.89,0.26c-4.49,1.3-11.8,3.43-23.06,4.92c-0.33,0.04-0.68,0.09-1.02,0.13c-0.37,0.05-0.74,0.1-1.12,0.14    c-0.34,0.04-0.67,0.08-1.02,0.12c-7.67,0.88-17,1.44-28.29,1.31c-4.16-0.1-8.41-0.2-12.69-0.29c0.47-1.55,0.89-2.98,1.1-4.05    c0.08-0.4,0.12-0.79,0.14-1.17c0-0.04,0.01-0.09,0.01-0.13c0.02-0.39-0.01-0.77-0.05-1.14c0-0.04,0-0.07,0-0.11    c-0.3-2.39-1.71-4.21-3.36-5.21c-0.28-0.17-0.57-0.33-0.86-0.45c-0.02-0.01-0.05-0.02-0.07-0.03c-2.41-1.01-4.52-1.89-6.41-2.71    c-1.27-0.55-2.43-1.08-3.51-1.59c1,0.83,1.99,1.65,2.96,2.44c1.06,0.47,2.19,0.95,3.39,1.46c0.87,0.37,1.78,0.75,2.73,1.15    c-2.92,2.4-5.63,2.76-10.71-0.16c-8.13-4.67-12.88-7.87-21.51-13.69l-0.14-0.09c-10.03-6.76-15.5-5.71-27.99-2.46    c-9.54,2.48-24.21,3.17-34.61,2.41c-0.05-0.24-0.11-0.48-0.15-0.71c-3.16-15.83-0.57-33.92,0.3-39.09    C637.82,344.73,637.82,344.67,637.81,344.61z M674.7,390.04c11.5-3.04,14.1-3.21,20.97,1.42l0.13,0.09    c8.78,5.92,13.62,9.18,22.01,14c3.64,2.09,6.94,3.13,10.07,3.16c0.05,0,0.1,0,0.15,0c3.4,0,6.22-1.23,8.64-2.96    c-0.01,0.04-0.01,0.09-0.02,0.13c-0.22,1.09-0.66,2.6-1.16,4.22c-32.42-0.67-67.23-0.98-88.56-1.15    c-0.37-0.75-0.73-1.49-1.08-2.23c-1.83-3.85-4-8.76-5.75-13.72C650.91,393.53,664.5,392.73,674.7,390.04z M639.76,391.99    c-0.73-2.15-1.38-4.3-1.87-6.37c10.41,0.74,24.83,0.08,34.63-2.48c12.94-3.37,17.9-3.93,27.18,2.32l0.14,0.09    c8.65,5.83,13.41,9.04,21.57,13.73c5.81,3.34,8.94,2.59,12.2-0.26c1.31,0.7,2.46,1.95,2.95,3.63c0.13,0.44,0.21,0.91,0.24,1.41    c0.01,0.12,0,0.24,0,0.36c-2.48,1.93-5.36,3.32-8.9,3.3c-2.92-0.03-6.14-1.05-9.59-3.03c-8.36-4.8-13.19-8.06-21.95-13.97    l-0.13-0.09c-3.9-2.63-6.54-3.77-10.02-3.77c-2.92,0-6.43,0.8-11.76,2.21C664.21,391.77,650.53,392.56,639.76,391.99z     M632.93,377.2l0.15-0.35l-0.21-0.17c-0.08-0.21-0.36-1.27-0.44-5.29c-0.08-3.96,0.76-5.11,0.76-5.12l0.31-0.27l-0.28-0.32    c-0.02-0.04-0.46-0.94,0-5.59c0.35-3.55,0.73-4.46,0.83-4.64l0.29-0.18l-0.18-0.41c-0.01-0.01-0.55-1.37,0.3-5.88    c0.14-0.75,0.36-1.38,0.61-1.91c0.46-1,1.02-1.65,1.36-1.98c0.08-0.12,0.18-0.21,0.29-0.28c0.02-0.01,0.05-0.01,0.07-0.03    c-0.9,5.41-3.43,23.45-0.27,39.3c0.03,0.14,0.06,0.29,0.09,0.43c0.07,0.34,0.14,0.68,0.22,1.02c0.48,2.07,1.12,4.23,1.84,6.39    c0.11,0.34,0.23,0.68,0.35,1.03c1.79,5.13,4.03,10.23,5.93,14.2c0.28,0.59,0.57,1.19,0.87,1.79c-0.73-0.01-1.44-0.01-2.14-0.02    c-6.56-0.05-11.6-0.09-14.63-0.13C628.1,388.77,632.88,377.32,632.93,377.2z M628.19,411.04c0.13-0.54,0.27-1.02,0.38-1.25    c0.16,0,74.55,0.65,106.63,1.31c0.35,0.01,9.76,0.21,14.02,0.32c11.45,0.12,20.9-0.46,28.65-1.35c0.34-0.04,0.67-0.08,1.01-0.12    c0.4-0.05,0.78-0.1,1.17-0.15c0.34-0.04,0.69-0.09,1.02-0.13c11.2-1.5,18.48-3.61,22.97-4.91l0.88-0.26    c1.2-0.35,1.98-0.62,2.5-0.82c0.41-0.16,0.65-0.28,0.79-0.36c0,0,0,0,0,0c0.22,0,0.72,0.12,1.16,0.33    c0.31,0.14,0.59,0.33,0.73,0.54l0.08,0.1c0.51,0.67,0.9,1.25,1.21,1.76c-0.12,0.04-0.24,0.08-0.36,0.12    c-0.31,0.11-0.63,0.22-0.95,0.32c-7.8,2.59-18.22,4.25-28.27,5.3c-0.34,0.04-0.68,0.07-1.02,0.1c-0.43,0.04-0.86,0.09-1.29,0.13    c-0.34,0.03-0.67,0.07-1.01,0.1c-2.39,0.22-4.73,0.41-7,0.58c-1.95,0.14-3.84,0.26-5.65,0.36c-9.99,0.57-17.32,0.6-17.49,0.6    l-120.13-1.9v0l-0.21,0C628.08,411.52,628.13,411.27,628.19,411.04z M627.7,413.67c0-0.06,0-0.11,0-0.12    c0.01-0.13,0.06-0.43,0.12-0.79l0.45,0.01c0,0,0,0,0,0l1.04,0.02c0,0,0,0,0,0l104.9,1.66l1.04,0.02l13.11,0.21    c0.15,0,5.55-0.02,13.37-0.39c1.36-0.06,2.8-0.14,4.3-0.22c1.72-0.1,3.52-0.21,5.38-0.35c1.77-0.13,3.58-0.27,5.43-0.43    c0.63-0.06,1.27-0.11,1.91-0.17c0.33-0.03,0.67-0.06,1-0.1c0.77-0.08,1.55-0.16,2.32-0.24c5.11-0.54,10.31-1.22,15.22-2.12    c-4.21,1.08-9.8,2.29-17.31,3.29c-0.99,0.13-2.01,0.26-3.07,0.38c-4.59,0.53-9.84,0.98-15.85,1.28c-1,0.05-2.01,0.1-3.05,0.14    c-0.87,0.03-1.73,0.07-2.63,0.1c-1.44,0.04-2.87,0.4-4.27,0.97c-5.33-0.08-10.83-0.17-16.41-0.25c-0.34-0.01-0.69-0.01-1.03-0.02    c-29.8-0.46-89.12-1.41-91.15-1.44c-6.44-0.1-10.68-0.19-12.98-0.29c0,0,0,0,0,0c-0.4-0.02-0.73-0.04-1.01-0.05c0,0,0,0,0,0    c0,0,0,0,0,0c-0.36-0.02-0.64-0.05-0.81-0.08C627.7,414.31,627.7,413.88,627.7,413.67z M739.33,430.02    c-14.61-0.24-35.19-0.58-54.4-0.9c-27.79-0.46-51.79-0.86-52.44-0.86c-1.51,0-2.86-0.42-2.95-0.69c-0.08-0.47-0.49-2.8-0.99-5.56    c-0.39-2.1-0.83-4.44-1.22-6.41c0.11,0.02,0.26,0.05,0.43,0.07c0.26,0.03,0.59,0.06,1.01,0.09c0,0,0,0,0,0    c0.31,0.02,0.68,0.04,1.1,0.06c0,0,0,0,0,0c2.2,0.09,6,0.16,12.64,0.27c2.2,0.04,61.46,0.98,90.94,1.44    c0.34,0.01,0.68,0.01,1.02,0.02c4.99,0.08,9.91,0.15,14.7,0.23c-1.63,0.94-3.16,2.18-4.53,3.58c-0.49,0.5-0.94,1.03-1.38,1.57    c-0.84,1.03-1.6,2.12-2.23,3.23c-0.19,0.33-0.37,0.66-0.53,1C740.01,428.1,739.61,429.07,739.33,430.02z M813,410.43    c-0.05,0.25-0.19,0.75-0.37,1.37c-0.63,2.19-1.81,6.27-1.78,9.98c0,0.49-0.4,0.78-1.74,1.26c-0.22,0.08-22.51,7.64-55.05,7.13    c-0.24,0-2.65,0.03-5.43,0.07c-3.19,0.04-6.87,0.09-8.37,0.11c0.03-0.1,0.07-0.2,0.1-0.31c0.31-0.96,0.72-1.93,1.23-2.88    c0.18-0.33,0.36-0.67,0.56-1c0.83-1.39,1.85-2.72,2.99-3.93c0.63-0.67,1.3-1.29,2.01-1.87c1.29-1.06,2.69-1.95,4.14-2.57    c0.93-0.4,1.88-0.69,2.83-0.85c0.43-0.07,0.87-0.12,1.3-0.13c0,0,0.01,0,0.01,0c0.95-0.03,1.88-0.06,2.8-0.1    c8.61-0.35,15.74-0.99,21.69-1.77c0.1-0.01,0.2-0.03,0.3-0.04c11.42-1.52,18.38-3.53,22.89-4.84c0.58-0.17,1.11-0.32,1.62-0.46    c2.76-0.78,4.58-1.41,5.78-1.9c0.37-0.15,0.67-0.28,0.93-0.4c0.2-0.09,0.38-0.18,0.53-0.26c0.09-0.05,0.17-0.09,0.24-0.13    c0.24,0.56,0.59,1.57,0.75,2.43C813.01,409.77,813.05,410.15,813,410.43z"></path>	</g></g><g>	<g>		<path class="st6" d="M694.6,355.09c1.28,0,2.33-1.04,2.33-2.31c0-1.27-1.04-2.31-2.33-2.31c-1.28,0-2.33,1.04-2.33,2.31    C692.28,354.05,693.32,355.09,694.6,355.09z"></path>		<path class="st5" d="M694.6,355.59c-1.56,0-2.83-1.26-2.83-2.81s1.27-2.81,2.83-2.81s2.83,1.26,2.83,2.81    S696.16,355.59,694.6,355.59z M694.6,350.97c-1.01,0-1.83,0.81-1.83,1.81s0.82,1.81,1.83,1.81s1.83-0.81,1.83-1.81    S695.61,350.97,694.6,350.97z"></path>	</g>	<path class="st7" d="M699.94,364.36c1.28,0,2.33-1.04,2.33-2.31c0-1.27-1.04-2.31-2.33-2.31c-1.28,0-2.33,1.04-2.33,2.31   C697.61,363.32,698.66,364.36,699.94,364.36z"></path>	<path class="st7" d="M706.53,374.08c1.28,0,2.33-1.04,2.33-2.31c0-1.27-1.04-2.31-2.33-2.31c-1.28,0-2.33,1.04-2.33,2.31   C704.2,373.04,705.25,374.08,706.53,374.08z"></path>	<path class="st7" d="M713.52,383.32c1.28,0,2.33-1.04,2.33-2.31c0-1.27-1.04-2.31-2.33-2.31c-1.28,0-2.33,1.04-2.33,2.31   C711.2,382.28,712.24,383.32,713.52,383.32z"></path>	<path class="st7" d="M722.73,390.37c1.28,0,2.33-1.04,2.33-2.31s-1.04-2.31-2.33-2.31c-1.28,0-2.33,1.04-2.33,2.31   S721.45,390.37,722.73,390.37z"></path>	<path class="st7" d="M733.56,396.52c1.28,0,2.33-1.04,2.33-2.31c0-1.27-1.04-2.31-2.33-2.31c-1.28,0-2.33,1.04-2.33,2.31   C731.24,395.49,732.28,396.52,733.56,396.52z"></path>	<path class="st7" d="M745.08,399.99c1.28,0,2.33-1.04,2.33-2.31s-1.04-2.31-2.33-2.31c-1.28,0-2.33,1.04-2.33,2.31   S743.8,399.99,745.08,399.99z"></path>	<path class="st7" d="M758.08,403.44c1.28,0,2.33-1.04,2.33-2.31c0-1.27-1.04-2.31-2.33-2.31c-1.28,0-2.33,1.04-2.33,2.31   C755.76,402.4,756.8,403.44,758.08,403.44z"></path></g><g>	<path class="st2" d="M764.14,395.64c-1.87,1.14-2.75,3.63-3.56,5.66c-0.44,1.1-1.04,2.09-2.53,1.97c-1.38-0.11-2.38-1.08-2.23-2.37   c0.24-2.05,2.09-4.35,3.32-5.87c0.26-0.32,0.55-0.65,0.92-0.82c0.46-0.2,0.99-0.15,1.48-0.08c0.52,0.08,1.04,0.18,1.52,0.41   C763.52,394.77,763.94,395.14,764.14,395.64z"></path>	<path class="st5" d="M758.28,403.77c-0.09,0-0.18,0-0.28-0.01c-0.87-0.07-1.66-0.45-2.15-1.05c-0.43-0.52-0.62-1.19-0.54-1.88   c0.26-2.22,2.24-4.67,3.43-6.13c0.3-0.37,0.63-0.74,1.11-0.96c0.59-0.26,1.22-0.2,1.76-0.11c0.55,0.08,1.13,0.2,1.66,0.45   c0.63,0.31,1.1,0.79,1.33,1.37l0.15,0.39l-0.36,0.22c-1.59,0.98-2.44,3.1-3.19,4.98l-0.17,0.44   C760.58,402.62,759.89,403.77,758.28,403.77z M760.81,394.56c-0.2,0-0.39,0.03-0.56,0.1c-0.28,0.12-0.51,0.39-0.74,0.68   c-1.12,1.38-2.99,3.68-3.21,5.62c-0.05,0.42,0.06,0.81,0.32,1.13c0.32,0.39,0.85,0.64,1.45,0.69c1.11,0.1,1.58-0.54,2.03-1.66   l0.17-0.43c0.74-1.87,1.58-3.98,3.19-5.19c-0.16-0.2-0.37-0.37-0.64-0.49c-0.39-0.19-0.83-0.28-1.37-0.36   C761.24,394.59,761.02,394.56,760.81,394.56z"></path></g><g>	<path class="st2" d="M752.67,393.35c0,0,0.59,0.62-1.23,0.3c-1.82-0.32-2.19,0.49-2.82,1.02c-0.54,0.46-0.87,1.17-1.1,1.83   c-0.28,0.8-0.16,1.97-0.72,2.67c-0.27,0.34-0.7,0.52-1.13,0.56c-0.78,0.08-1.96-0.21-2.49-0.84c-1.26-1.5,0.81-4.82,1.78-6.12   c0.32-0.43,1.88-0.85,2.95-0.85C748.99,391.92,751.28,392.49,752.67,393.35z"></path>	<path class="st5" d="M745.41,400.25c-0.9,0-2.04-0.35-2.61-1.03c-1.66-1.97,1.18-5.96,1.77-6.75c0.48-0.64,2.31-1.05,3.35-1.05   c1.22,0,3.57,0.62,5.01,1.5l0.1,0.08c0.18,0.19,0.33,0.52,0.16,0.84c-0.25,0.47-0.91,0.46-1.83,0.3c-1.25-0.22-1.61,0.14-2.06,0.59   c-0.11,0.11-0.22,0.22-0.34,0.32c-0.49,0.41-0.78,1.12-0.96,1.62c-0.09,0.25-0.14,0.58-0.18,0.93c-0.09,0.63-0.19,1.35-0.62,1.89   c-0.33,0.42-0.87,0.69-1.48,0.75C745.62,400.25,745.52,400.25,745.41,400.25z M747.92,392.42c-1.08,0-2.37,0.44-2.55,0.66   c-1.22,1.62-2.7,4.43-1.8,5.5c0.4,0.47,1.4,0.73,2.05,0.67c0.34-0.03,0.63-0.17,0.79-0.38c0.26-0.32,0.33-0.87,0.41-1.4   c0.05-0.38,0.11-0.78,0.23-1.13c0.22-0.61,0.58-1.48,1.25-2.05c0.1-0.08,0.19-0.18,0.28-0.27c0.46-0.46,1.02-1.02,2.34-0.94   C749.79,392.67,748.56,392.42,747.92,392.42z"></path></g><g>	<path class="st2" d="M741.28,389.45c0.53,0.32,1.74,1.23,0.99,1.23c-0.75,0-1.42-0.37-2.49-0.37c-1.07,0-2.06-0.17-2.41,0.47   c-0.63,1.16-0.87,2.79-1.47,3.98c-0.43,0.85-1.14,1.7-2.24,1.62c-1.57-0.11-2.73-1.46-2.24-2.9c0.29-0.86,0.92-2.08,1.31-2.91   c0.41-0.88,0.84-1.93,1.71-2.47c0.96-0.59,2.55-0.64,3.59-0.27C739.53,388.35,741.28,389.45,741.28,389.45z"></path>	<path class="st5" d="M733.79,396.88c-0.06,0-0.11,0-0.17-0.01c-0.99-0.07-1.88-0.56-2.39-1.33c-0.45-0.67-0.55-1.47-0.29-2.23   c0.23-0.68,0.65-1.54,1.02-2.3l0.42-0.89c0.41-0.88,0.87-1.88,1.79-2.45c1.16-0.72,2.94-0.7,4.02-0.31   c1.51,0.54,3.22,1.6,3.34,1.67c0.75,0.45,1.61,1.11,1.45,1.69c-0.04,0.14-0.18,0.46-0.72,0.46c-0.4,0-0.76-0.08-1.14-0.17   c-0.41-0.1-0.83-0.2-1.35-0.2c-0.2,0-0.39-0.01-0.58-0.01c-0.65-0.02-1.25-0.04-1.39,0.22c-0.31,0.56-0.53,1.28-0.74,1.98   c-0.21,0.68-0.42,1.38-0.73,1.99C735.56,396.52,734.55,396.88,733.79,396.88z M736.54,388.08c-0.69,0-1.38,0.15-1.83,0.43   c-0.67,0.42-1.05,1.23-1.41,2.02l-0.43,0.91c-0.36,0.73-0.76,1.56-0.97,2.19c-0.16,0.47-0.1,0.95,0.17,1.36   c0.34,0.51,0.94,0.84,1.62,0.88c0.68,0.04,1.28-0.41,1.76-1.35c0.27-0.53,0.46-1.16,0.66-1.83c0.23-0.74,0.46-1.51,0.82-2.16   c0.43-0.79,1.38-0.77,2.3-0.74c0.18,0.01,0.37,0.01,0.55,0.01c0.56,0,1.01,0.09,1.42,0.18c-0.06-0.04-0.12-0.08-0.18-0.11l-0.01,0   c-0.02-0.01-1.72-1.07-3.15-1.58C737.47,388.15,737,388.08,736.54,388.08z"></path></g><g>	<path class="st2" d="M731.69,384.78c0.41,0.54,0.21,0.96-1.71,0.43c-1.11-0.31-2.16,0.41-2.96,1.1c-0.87,0.75-1.67,2.45-2.46,3.29   c-0.61,0.65-1.8,0.78-2.75,0.52c-0.99-0.27-1.65-1.77-1.29-2.74c0.68-1.81,2.74-3.47,4.4-4.46c0.54-0.32,1.72-0.7,3.54-0.06   C730.27,383.49,731.37,384.35,731.69,384.78z"></path>	<path class="st5" d="M722.78,390.74c-0.38,0-0.76-0.05-1.11-0.15c-0.57-0.16-1.09-0.62-1.42-1.27c-0.36-0.71-0.44-1.5-0.2-2.13   c0.85-2.27,3.51-4.05,4.61-4.71c0.47-0.28,1.81-0.87,3.96-0.11c1.78,0.63,3.03,1.51,3.47,2.1l0,0c0.41,0.55,0.27,0.93,0.15,1.11   c-0.31,0.46-1.01,0.49-2.4,0.1c-0.9-0.25-1.81,0.4-2.5,1c-0.43,0.37-0.88,1.06-1.31,1.73c-0.37,0.58-0.73,1.12-1.1,1.52   C724.39,390.51,723.58,390.74,722.78,390.74z M726.59,383c-0.73,0-1.2,0.21-1.41,0.34c-0.79,0.47-3.42,2.18-4.19,4.21   c-0.13,0.35-0.07,0.87,0.16,1.32c0.2,0.39,0.5,0.68,0.8,0.76c0.86,0.24,1.83,0.08,2.25-0.38c0.32-0.34,0.65-0.85,1-1.39   c0.47-0.73,0.96-1.48,1.5-1.94c0.81-0.7,2.05-1.58,3.42-1.2c0.51,0.14,0.85,0.2,1.06,0.22c-0.39-0.4-1.4-1.1-2.89-1.62   C727.61,383.08,727.05,383,726.59,383z"></path></g><g>	<path class="st2" d="M716.84,371.57c0.46,0.83,1.43,2.32,0.57,2.21c-1.15-0.14-1.82-1.3-2.85-1.72c-1.12-0.45-2.72,0.04-3.88,0.14   c-1.32,0.12-2.7,1.32-3.71,1.63c-1.1,0.34-1.8-0.22-2.25-0.81c-0.96-1.25,0.17-3.04,1.24-3.79c1.48-1.03,3.01-0.84,4.73-0.84   c0.96,0,2.1,0.1,3.6,0.85C715.79,369.99,716.37,370.75,716.84,371.57z"></path>	<path class="st5" d="M706.34,374.44c-0.63,0-1.36-0.25-2.01-1.1c-0.39-0.51-0.54-1.13-0.43-1.8c0.18-1.13,1.02-2.17,1.79-2.71   c1.41-0.98,2.83-0.96,4.34-0.94l0.68,0.01c1,0,2.24,0.11,3.82,0.9c1.54,0.77,2.22,1.57,2.75,2.53l0.18,0.31   c0.64,1.12,1.01,1.83,0.68,2.33c-0.09,0.14-0.32,0.36-0.78,0.31c-0.81-0.1-1.4-0.6-1.93-1.04c-0.35-0.29-0.68-0.57-1.04-0.72   c-0.69-0.28-1.71-0.11-2.61,0.03c-0.37,0.06-0.72,0.12-1.04,0.15c-0.69,0.06-1.48,0.51-2.17,0.91c-0.51,0.29-0.99,0.56-1.43,0.7   C706.89,374.39,706.62,374.44,706.34,374.44z M709.36,368.89c-1.13,0-2.14,0.09-3.11,0.77c-0.59,0.41-1.25,1.24-1.37,2.04   c-0.06,0.4,0.02,0.75,0.24,1.04c0.5,0.65,1.02,0.85,1.71,0.63c0.34-0.1,0.77-0.35,1.23-0.61c0.78-0.45,1.67-0.96,2.58-1.04   c0.3-0.03,0.63-0.08,0.97-0.14c1.03-0.17,2.2-0.36,3.15,0.03c0.51,0.21,0.91,0.55,1.31,0.87c0.36,0.3,0.71,0.59,1.1,0.73   c-0.15-0.34-0.42-0.81-0.57-1.07l-0.18-0.32c-0.38-0.68-0.87-1.4-2.33-2.13c-1.75-0.87-2.94-0.79-4.07-0.8   C709.78,368.89,709.57,368.89,709.36,368.89z"></path></g><g>	<path class="st2" d="M723.85,378.89c0.63,0.71,1.71,1.92,0.85,1.99c-1.15,0.1-2.19-0.52-3.3-0.71c-1.17-0.19-2.4,0.28-3.49,0.63   c-1.14,0.36-2.43,1.59-3.47,2.17c-2.28,1.27-4.4-1.98-2.58-3.57c1.35-1.18,3.97-1.85,5.68-2.22c0.94-0.2,1.98-0.1,3.6,0.31   C722.76,377.92,723.22,378.18,723.85,378.89z"></path>	<path class="st5" d="M713.38,383.77c-0.9,0-1.69-0.52-2.17-1.2c-0.69-0.98-0.88-2.5,0.31-3.54c1.44-1.25,4.06-1.93,5.91-2.33   c1.01-0.22,2.08-0.13,3.83,0.32c1.69,0.43,2.24,0.72,2.96,1.54l0,0c0,0,0,0,0,0l-0.38,0.33l0.4-0.3c0.86,0.97,1.45,1.71,1.21,2.31   c-0.06,0.16-0.24,0.44-0.72,0.48c-0.82,0.08-1.55-0.17-2.26-0.39c-0.4-0.13-0.78-0.25-1.16-0.32c-0.9-0.15-1.89,0.17-2.85,0.48   l-0.41,0.13c-0.63,0.2-1.35,0.72-2.05,1.24c-0.46,0.34-0.9,0.66-1.33,0.9C714.23,383.67,713.79,383.77,713.38,383.77z    M718.53,377.59c-0.32,0-0.61,0.03-0.88,0.09c-1,0.22-4.05,0.88-5.46,2.11c-0.73,0.63-0.59,1.59-0.15,2.21   c0.41,0.58,1.22,1.07,2.16,0.54c0.37-0.21,0.79-0.51,1.22-0.83c0.76-0.56,1.55-1.14,2.34-1.38l0.4-0.13   c1.02-0.33,2.18-0.7,3.32-0.51c0.46,0.08,0.89,0.22,1.31,0.35c0.56,0.18,1.09,0.35,1.63,0.36c-0.21-0.35-0.7-0.9-0.91-1.14   l-0.03-0.03c-0.54-0.61-0.91-0.83-2.46-1.23C719.95,377.72,719.18,377.59,718.53,377.59z"></path></g><g>	<path class="st2" d="M710.25,362.41c0.42,0.85,1.15,2.3,0.3,2.15c-0.88-0.16-1.68-0.85-2.45-1.28c-1.29-0.73-2.67-0.63-4.09-0.58   c-1.32,0.05-2.58,1.3-3.61,1.53c-2.04,0.47-3.07-1.64-2.56-3.14c0.53-1.54,1.52-1.94,2.8-2.32c2.33-0.68,5.29,0.42,7.35,1.59   C709.45,361.19,709.83,361.56,710.25,362.41z"></path>	<path class="st5" d="M710.66,365.07c-0.06,0-0.13-0.01-0.2-0.02c-0.73-0.13-1.39-0.56-1.97-0.94c-0.22-0.14-0.43-0.28-0.64-0.4   c-1.11-0.62-2.33-0.57-3.62-0.52l-0.21,0.01c-0.65,0.03-1.33,0.42-1.99,0.81c-0.53,0.31-1.03,0.6-1.52,0.71   c-0.99,0.23-1.9-0.04-2.53-0.75c-0.72-0.8-0.96-2.02-0.61-3.04c0.61-1.77,1.78-2.24,3.13-2.63c2.89-0.84,6.38,0.86,7.74,1.63   c1.5,0.85,1.98,1.29,2.46,2.26l0,0c0,0,0,0,0,0l-0.45,0.22l0.47-0.18c0.58,1.17,0.96,2.03,0.57,2.55   C711.2,364.89,711.01,365.07,710.66,365.07z M705.29,362.17c1.03,0,2.06,0.12,3.06,0.68c0.23,0.13,0.46,0.28,0.69,0.43   c0.45,0.29,0.91,0.59,1.36,0.73c-0.12-0.4-0.44-1.05-0.58-1.34l-0.02-0.04c-0.36-0.73-0.66-1.04-2.05-1.83   c-2.61-1.48-5.21-2.05-6.97-1.54c-1.19,0.35-2,0.67-2.46,2c-0.23,0.68-0.07,1.52,0.4,2.05c0.27,0.3,0.77,0.63,1.57,0.44   c0.35-0.08,0.78-0.33,1.24-0.6c0.73-0.43,1.56-0.91,2.45-0.94l0.2-0.01C704.56,362.18,704.93,362.17,705.29,362.17z"></path></g><path d="M682.97,409.62c-0.08,0-0.17-0.02-0.25-0.07c-0.24-0.14-0.32-0.44-0.19-0.68l0.25-0.44c0.14-0.24,0.44-0.32,0.68-0.18  c0.24,0.14,0.32,0.44,0.18,0.68l-0.25,0.43C683.31,409.53,683.14,409.62,682.97,409.62z M685.31,405.78c-0.09,0-0.19-0.03-0.27-0.08  c-0.23-0.15-0.3-0.46-0.15-0.69l0.28-0.42c0.15-0.23,0.46-0.29,0.69-0.14c0.23,0.15,0.29,0.46,0.14,0.69l-0.27,0.42  C685.64,405.7,685.48,405.78,685.31,405.78z M687.88,402.08c-0.1,0-0.21-0.03-0.3-0.1c-0.22-0.16-0.27-0.48-0.11-0.7l0.3-0.4  c0.17-0.22,0.48-0.27,0.7-0.1c0.22,0.17,0.27,0.48,0.1,0.7l-0.3,0.4C688.18,402.01,688.03,402.08,687.88,402.08z M690.64,398.52  c-0.11,0-0.22-0.04-0.32-0.11c-0.21-0.18-0.24-0.49-0.07-0.7l0.32-0.39c0.18-0.21,0.49-0.24,0.7-0.07c0.21,0.18,0.24,0.49,0.07,0.7  l-0.32,0.38C690.92,398.46,690.78,398.52,690.64,398.52z M693.58,395.12c-0.12,0-0.24-0.04-0.34-0.13c-0.2-0.19-0.22-0.5-0.03-0.71  l0.34-0.37c0.19-0.2,0.5-0.21,0.71-0.03c0.2,0.19,0.22,0.5,0.03,0.71l-0.34,0.37C693.86,395.06,693.72,395.12,693.58,395.12z   M703.44,385.9c-0.15,0-0.29-0.07-0.39-0.19c-0.17-0.22-0.13-0.53,0.08-0.7l0.4-0.31c0.22-0.17,0.53-0.13,0.7,0.09  s0.13,0.53-0.09,0.7l-0.39,0.31C703.66,385.86,703.55,385.9,703.44,385.9z M707.06,383.22c-0.16,0-0.32-0.08-0.42-0.22  c-0.15-0.23-0.09-0.54,0.14-0.69c0.28-0.19,0.43-0.28,0.43-0.28c0.24-0.15,0.54-0.08,0.69,0.16c0.15,0.23,0.08,0.54-0.16,0.69  c0,0-0.15,0.09-0.41,0.27C707.26,383.2,707.16,383.22,707.06,383.22z"></path><g>	<path d="M777.27,406.17c-0.26,0-0.48-0.2-0.5-0.46c-0.02-0.28,0.19-0.51,0.46-0.53l0.49-0.04c0.27-0.02,0.52,0.18,0.54,0.46   s-0.18,0.52-0.46,0.54l-0.5,0.04C777.3,406.17,777.28,406.17,777.27,406.17z M781.75,405.7c-0.25,0-0.46-0.18-0.5-0.43   c-0.04-0.27,0.15-0.53,0.43-0.56l0.49-0.07c0.27-0.04,0.53,0.15,0.57,0.42c0.04,0.27-0.15,0.53-0.42,0.57l-0.5,0.07   C781.79,405.7,781.77,405.7,781.75,405.7z M786.19,404.96c-0.23,0-0.44-0.16-0.49-0.4c-0.05-0.27,0.12-0.53,0.39-0.59l0.49-0.1   c0.27-0.06,0.53,0.12,0.59,0.39s-0.12,0.53-0.39,0.59l-0.49,0.1C786.25,404.95,786.22,404.96,786.19,404.96z M790.58,403.97   c-0.22,0-0.43-0.15-0.48-0.38c-0.07-0.27,0.09-0.54,0.36-0.61l0.48-0.12c0.27-0.07,0.54,0.09,0.61,0.36   c0.07,0.27-0.09,0.54-0.36,0.61l-0.49,0.12C790.66,403.96,790.62,403.97,790.58,403.97z M794.91,402.73   c-0.21,0-0.41-0.13-0.48-0.35c-0.09-0.26,0.06-0.54,0.32-0.63c0.3-0.1,0.46-0.15,0.47-0.16c0.26-0.09,0.55,0.05,0.64,0.31   c0.09,0.26-0.05,0.55-0.31,0.64c0,0-0.17,0.06-0.49,0.16C795.01,402.72,794.96,402.73,794.91,402.73z"></path>	<path d="M776.08,402.65c-0.26,0-0.48-0.2-0.5-0.46c-0.02-0.28,0.19-0.52,0.46-0.54l0.5-0.04c0.27-0.03,0.52,0.19,0.54,0.46   c0.02,0.28-0.19,0.52-0.46,0.54l-0.5,0.04C776.11,402.65,776.09,402.65,776.08,402.65z M780.57,402.27c-0.25,0-0.47-0.19-0.5-0.45   c-0.03-0.27,0.17-0.52,0.45-0.55l0.5-0.05c0.29-0.04,0.52,0.18,0.55,0.45c0.03,0.27-0.17,0.52-0.45,0.55l-0.5,0.05   C780.6,402.27,780.59,402.27,780.57,402.27z M785.05,401.81c-0.25,0-0.47-0.19-0.5-0.44c-0.03-0.27,0.17-0.52,0.44-0.55l0.5-0.06   c0.28-0.04,0.52,0.16,0.56,0.44c0.03,0.27-0.16,0.52-0.44,0.56l-0.5,0.06C785.09,401.81,785.07,401.81,785.05,401.81z"></path></g><g>	<path d="M663.23,378.08h-0.5c-0.28,0-0.5-0.22-0.5-0.5s0.22-0.5,0.5-0.5h0.5c0.28,0,0.5,0.22,0.5,0.5S663.51,378.08,663.23,378.08z    M658.73,378.08C658.73,378.08,658.73,378.08,658.73,378.08l-0.5,0c-0.28,0-0.5-0.23-0.5-0.5s0.22-0.51,0.5-0.5l0.5,0   c0.28,0,0.5,0.23,0.5,0.5C659.23,377.85,659,378.08,658.73,378.08z M667.23,378.08c-0.28,0-0.5-0.22-0.5-0.5   c0-0.28,0.22-0.5,0.5-0.5l0.5,0c0,0,0,0,0,0c0.28,0,0.5,0.22,0.5,0.5c0,0.28-0.22,0.5-0.5,0.5L667.23,378.08   C667.23,378.08,667.23,378.08,667.23,378.08z M654.23,378.06C654.23,378.06,654.23,378.06,654.23,378.06l-0.5,0   c-0.28,0-0.5-0.23-0.5-0.5c0-0.27,0.23-0.5,0.5-0.5c0,0,0,0,0,0l0.5,0c0.28,0,0.5,0.23,0.5,0.5   C654.73,377.84,654.51,378.06,654.23,378.06z M671.73,378.06c-0.27,0-0.5-0.22-0.5-0.5c0-0.28,0.22-0.5,0.5-0.5l0.5,0c0,0,0,0,0,0   c0.27,0,0.5,0.22,0.5,0.5c0,0.28-0.22,0.5-0.5,0.5L671.73,378.06C671.73,378.06,671.73,378.06,671.73,378.06z M649.73,378.03   C649.73,378.03,649.73,378.03,649.73,378.03l-0.5,0c-0.28,0-0.5-0.23-0.5-0.5c0-0.27,0.23-0.5,0.5-0.5c0,0,0,0,0,0l0.5,0   c0.28,0,0.5,0.23,0.5,0.5C650.23,377.8,650.01,378.03,649.73,378.03z M676.23,378.02c-0.27,0-0.5-0.22-0.5-0.5   c0-0.28,0.22-0.5,0.5-0.5l0.5,0c0,0,0,0,0,0c0.27,0,0.5,0.22,0.5,0.5c0,0.28-0.22,0.5-0.5,0.5L676.23,378.02   C676.24,378.02,676.24,378.02,676.23,378.02z M680.74,377.98c-0.27,0-0.5-0.22-0.5-0.5c0-0.28,0.22-0.5,0.5-0.5l0.5-0.01   c0.27-0.02,0.5,0.22,0.51,0.49s-0.22,0.5-0.49,0.51L680.74,377.98C680.74,377.98,680.74,377.98,680.74,377.98z M645.23,377.98   C645.23,377.98,645.23,377.98,645.23,377.98l-0.51-0.01c-0.28,0-0.5-0.23-0.49-0.51c0-0.28,0.22-0.52,0.51-0.49l0.5,0.01   c0.28,0,0.5,0.23,0.49,0.51C645.73,377.75,645.51,377.98,645.23,377.98z M685.24,377.93c-0.27,0-0.5-0.22-0.5-0.49   c0-0.28,0.22-0.5,0.49-0.51l0.5-0.01c0.24-0.01,0.5,0.22,0.51,0.49s-0.22,0.5-0.49,0.51L685.24,377.93   C685.24,377.93,685.24,377.93,685.24,377.93z M640.73,377.91C640.73,377.91,640.73,377.91,640.73,377.91l-0.51-0.01   c-0.28,0-0.5-0.23-0.49-0.51c0.01-0.28,0.26-0.5,0.51-0.49l0.5,0.01c0.28,0,0.5,0.23,0.49,0.51   C641.23,377.69,641.01,377.91,640.73,377.91z M689.74,377.86c-0.27,0-0.5-0.22-0.5-0.49c0-0.28,0.22-0.5,0.49-0.51l0.49-0.01   c0,0,0.01,0,0.01,0c0.27,0,0.5,0.22,0.51,0.49c0,0.28-0.21,0.5-0.49,0.51L689.74,377.86C689.75,377.86,689.74,377.86,689.74,377.86   z M636.53,377.82c0,0-0.01,0-0.01,0l-0.5-0.01c-0.28-0.01-0.5-0.23-0.49-0.51c0.01-0.28,0.23-0.47,0.51-0.49l0.5,0.01   c0.28,0.01,0.5,0.23,0.49,0.51C637.02,377.6,636.8,377.82,636.53,377.82z M694.24,377.78c-0.27,0-0.49-0.22-0.5-0.49   c-0.01-0.28,0.21-0.5,0.49-0.51l0.47-0.01c0.32,0.02,0.52,0.21,0.53,0.49c0,0.28-0.2,0.5-0.47,0.51l-0.5,0.01   C694.25,377.78,694.25,377.78,694.24,377.78z M698.74,377.69c-0.27,0-0.49-0.22-0.5-0.49c-0.01-0.28,0.21-0.5,0.49-0.51l0.41-0.01   c0.29,0.01,0.55,0.21,0.56,0.49c0.01,0.28-0.17,0.5-0.44,0.51c0,0-0.09,0-0.09,0l-0.41,0.01   C698.75,377.69,698.75,377.69,698.74,377.69z M703.25,377.59c-0.27,0-0.49-0.22-0.5-0.49c-0.01-0.28,0.21-0.51,0.49-0.51l0.5-0.01   c0.29,0,0.51,0.21,0.51,0.49c0.01,0.28-0.21,0.51-0.49,0.51l-0.5,0.01C703.26,377.59,703.25,377.59,703.25,377.59z"></path>	<path d="M662.71,356.1l-0.5,0c-0.28,0-0.5-0.23-0.5-0.5c0-0.28,0.22-0.5,0.5-0.5c0,0,0,0,0,0l0.5,0c0.28,0,0.5,0.22,0.5,0.5   S662.99,356.1,662.71,356.1z M666.71,356.09c-0.27,0-0.5-0.22-0.5-0.5c0-0.28,0.22-0.5,0.5-0.5l0.5,0c0,0,0,0,0,0   c0.28,0,0.5,0.22,0.5,0.5c0,0.28-0.22,0.5-0.5,0.5L666.71,356.09C666.71,356.09,666.71,356.09,666.71,356.09z M658.21,356.08   C658.21,356.08,658.21,356.08,658.21,356.08l-0.5,0c-0.28,0-0.5-0.23-0.5-0.5c0-0.27,0.23-0.5,0.5-0.5c0,0,0,0,0,0l0.5,0   c0.28,0,0.5,0.23,0.5,0.5C658.71,355.86,658.48,356.08,658.21,356.08z M671.21,356.07c-0.27,0-0.5-0.22-0.5-0.5   c0-0.28,0.22-0.5,0.5-0.5l0.5,0c0,0,0,0,0,0c0.27,0,0.5,0.22,0.5,0.5c0,0.28-0.22,0.5-0.5,0.5L671.21,356.07   C671.21,356.07,671.21,356.07,671.21,356.07z M653.71,356.04C653.71,356.04,653.71,356.04,653.71,356.04l-0.5-0.01   c-0.28,0-0.5-0.23-0.5-0.5c0-0.27,0.23-0.5,0.5-0.5c0,0,0,0,0,0l0.5,0.01c0.28,0,0.5,0.23,0.49,0.51   C654.21,355.82,653.98,356.04,653.71,356.04z M675.71,356.02c-0.27,0-0.5-0.22-0.5-0.49c0-0.28,0.22-0.5,0.49-0.51l0.49-0.01   c0.27-0.02,0.51,0.22,0.51,0.49c0,0.28-0.21,0.5-0.49,0.51L675.71,356.02C675.72,356.02,675.72,356.02,675.71,356.02z    M649.21,355.98C649.21,355.98,649.21,355.98,649.21,355.98l-0.51-0.01c-0.28,0-0.5-0.23-0.49-0.51c0-0.27,0.23-0.49,0.5-0.49   c0,0,0,0,0.01,0l0.5,0.01c0.28,0,0.5,0.23,0.49,0.51C649.71,355.76,649.48,355.98,649.21,355.98z M680.21,355.95   c-0.27,0-0.49-0.22-0.5-0.49c-0.01-0.28,0.21-0.5,0.49-0.51l0.47-0.01c0.29,0,0.52,0.21,0.52,0.49c0,0.28-0.2,0.5-0.48,0.51   l-0.5,0.01C680.22,355.95,680.22,355.95,680.21,355.95z M644.71,355.89c0,0-0.01,0-0.01,0l-0.5-0.01   c-0.28-0.01-0.49-0.24-0.49-0.51s0.21-0.48,0.51-0.49l0.5,0.01c0.28,0.01,0.49,0.24,0.49,0.51   C645.21,355.67,644.98,355.89,644.71,355.89z M684.71,355.86c-0.27,0-0.49-0.22-0.5-0.49c-0.01-0.28,0.21-0.51,0.49-0.51l0.42-0.01   c0.29,0.02,0.55,0.21,0.55,0.49c0.01,0.28-0.17,0.5-0.45,0.51c0,0-0.08,0-0.08,0l-0.42,0.01   C684.72,355.86,684.72,355.86,684.71,355.86z M640.21,355.77c-0.01,0-0.01,0-0.02,0l-0.5-0.02c-0.28-0.01-0.49-0.24-0.49-0.51   c0.01-0.28,0.26-0.48,0.51-0.49l0.5,0.02c0.28,0.01,0.49,0.24,0.49,0.51C640.71,355.55,640.48,355.77,640.21,355.77z    M689.22,355.72c-0.27,0-0.49-0.21-0.5-0.48c-0.01-0.28,0.2-0.51,0.48-0.52l0.49-0.02c0.28,0,0.51,0.19,0.53,0.47   c0.02,0.28-0.19,0.51-0.47,0.53l-0.51,0.03C689.23,355.72,689.22,355.72,689.22,355.72z"></path>	<path d="M696.3,366.94C696.3,366.94,696.3,366.94,696.3,366.94l-0.5,0c-0.28,0-0.5-0.23-0.5-0.5c0-0.28,0.22-0.5,0.5-0.5   c0,0,0,0,0,0l0.5,0c0.28,0,0.5,0.23,0.5,0.5C696.8,366.72,696.58,366.94,696.3,366.94z M691.8,366.92   C691.8,366.92,691.8,366.92,691.8,366.92l-0.5,0c-0.28,0-0.5-0.23-0.5-0.5c0-0.28,0.22-0.5,0.5-0.5c0,0,0,0,0,0l0.5,0   c0.28,0,0.5,0.23,0.5,0.5C692.3,366.7,692.08,366.92,691.8,366.92z M687.3,366.9C687.3,366.9,687.3,366.9,687.3,366.9l-0.5,0   c-0.28,0-0.5-0.23-0.5-0.5c0-0.28,0.23-0.5,0.5-0.5c0,0,0,0,0,0l0.5,0c0.28,0,0.5,0.23,0.5,0.5   C687.8,366.68,687.58,366.9,687.3,366.9z M682.8,366.88C682.8,366.88,682.8,366.88,682.8,366.88l-0.5,0c-0.28,0-0.5-0.23-0.5-0.5   c0-0.28,0.22-0.5,0.5-0.5c0,0,0,0,0,0l0.5,0c0.28,0,0.5,0.23,0.5,0.5C683.3,366.66,683.08,366.88,682.8,366.88z M678.3,366.86   C678.3,366.86,678.3,366.86,678.3,366.86l-0.5,0c-0.28,0-0.5-0.23-0.5-0.5c0-0.28,0.22-0.5,0.5-0.5c0,0,0,0,0,0l0.5,0   c0.28,0,0.5,0.23,0.5,0.5C678.8,366.64,678.58,366.86,678.3,366.86z M673.8,366.85C673.8,366.85,673.8,366.85,673.8,366.85l-0.5,0   c-0.28,0-0.5-0.23-0.5-0.5c0-0.28,0.22-0.5,0.5-0.5c0,0,0,0,0,0l0.5,0c0.28,0,0.5,0.23,0.5,0.5   C674.3,366.62,674.08,366.85,673.8,366.85z M669.3,366.83C669.3,366.83,669.3,366.83,669.3,366.83l-0.5,0c-0.28,0-0.5-0.23-0.5-0.5   c0-0.28,0.22-0.5,0.5-0.5c0,0,0,0,0,0l0.5,0c0.28,0,0.5,0.23,0.5,0.5C669.8,366.6,669.58,366.83,669.3,366.83z M664.8,366.81   C664.8,366.81,664.8,366.81,664.8,366.81l-0.5,0c-0.28,0-0.5-0.23-0.5-0.5c0-0.28,0.22-0.5,0.5-0.5c0,0,0,0,0,0l0.5,0   c0.28,0,0.5,0.23,0.5,0.5C665.3,366.59,665.08,366.81,664.8,366.81z M660.3,366.79C660.3,366.79,660.3,366.79,660.3,366.79l-0.5,0   c-0.28,0-0.5-0.23-0.5-0.5c0-0.28,0.22-0.5,0.5-0.5c0,0,0,0,0,0l0.5,0c0.28,0,0.5,0.23,0.5,0.5   C660.8,366.57,660.58,366.79,660.3,366.79z M655.8,366.77C655.8,366.77,655.8,366.77,655.8,366.77l-0.5,0c-0.28,0-0.5-0.23-0.5-0.5   c0-0.28,0.23-0.5,0.5-0.5c0,0,0,0,0,0l0.5,0c0.28,0,0.5,0.23,0.5,0.5C656.3,366.55,656.08,366.77,655.8,366.77z M651.3,366.75   C651.3,366.75,651.3,366.75,651.3,366.75l-0.5,0c-0.28,0-0.5-0.23-0.5-0.5c0-0.28,0.23-0.5,0.5-0.5c0,0,0,0,0,0l0.5,0   c0.28,0,0.5,0.23,0.5,0.5C651.8,366.53,651.58,366.75,651.3,366.75z M646.8,366.74C646.8,366.74,646.8,366.74,646.8,366.74l-0.5,0   c-0.28,0-0.5-0.23-0.5-0.5c0-0.28,0.22-0.5,0.5-0.5c0,0,0,0,0,0l0.5,0c0.28,0,0.5,0.23,0.5,0.5   C647.3,366.51,647.08,366.74,646.8,366.74z M642.3,366.72C642.3,366.72,642.3,366.72,642.3,366.72l-0.5,0c-0.28,0-0.5-0.23-0.5-0.5   c0-0.28,0.22-0.5,0.5-0.5c0,0,0,0,0,0l0.5,0c0.28,0,0.5,0.23,0.5,0.5C642.8,366.49,642.58,366.72,642.3,366.72z M637.8,366.7   C637.8,366.7,637.8,366.7,637.8,366.7l-0.5,0c-0.28,0-0.5-0.23-0.5-0.5c0-0.28,0.22-0.5,0.5-0.5c0,0,0,0,0,0l0.5,0   c0.28,0,0.5,0.23,0.5,0.5C638.3,366.48,638.08,366.7,637.8,366.7z"></path></g></svg>
