<svg xmlns="http://www.w3.org/2000/svg" xmlns:xlink="http://www.w3.org/1999/xlink" version="1.1" id="Layer_1" x="0px" y="0px" style="enable-background:new 0 0 1366 768;" xml:space="preserve" viewBox="588.73 340.11 188.99 88.43">
<style type="text/css">
	.st0{fill:#FFFFFF;}
	.st1{fill:#0F0F10;}
</style>
<g>
	<path class="st0" d="M776.06,403.24c0,0-0.06,0.05-0.21,0.15c-0.67-1.23-1.61-2.41-1.65-2.46c-0.49-0.76-2.07-1.2-2.5-1.09   c0,0-0.07,0.06-0.36,0.2c-3.94-1.06-18.32-1.96-36.26-5.6c-2.07-2.56-4.63-4.47-7.75-5.02c-1.83-0.32-11.26-1.57-18.74-3.3   c-0.63-0.21-1.27-0.41-1.89-0.62c-6.06-2.62-17.62-9.04-26.63-22.52c-5.78-8.64-13.21-20.8-14.71-22.18   c-1.09-1-8.58,1.88-12.22,5.57c-2.29,2.32-2.28,5.58-2.28,5.58s-0.06,0.92-0.08,2.28c-9.94,0.18-18.27,0.92-30.21,1.32   c-8.45,0.32-17.11,0.03-20.31-0.04c0,0,0-0.01,0-0.01c-0.15-0.01-0.4-0.01-0.7,0c-0.27,0-0.45,0-0.54,0.01c0,0,0,0-0.01,0   c-0.54,0.01-1.14,0.04-1.61,0.07c-0.28,0.02-0.44,0.24-0.49,0.4c-0.56,1.75-1.61,6.27-1.63,9.36c0,0.17-0.06,0.35-0.12,0.51   c-1.02,2.95-1.75,5.4-2.16,9.5c-0.02,0.21-0.08,0.41-0.13,0.61c-2.6,9.63-3.32,18.21-1.92,30.43c-0.49,0.5-1.08,4.07-1.07,4.21   c0,0.06-0.02,0.94,0.03,1.43c0.02,0.19-0.05,0.41-0.04,0.46c0.91,4.46,2.11,12.77,2.11,12.77l3.35,0.27c0,0,72.44,1.49,107.66,2.15   c-0.03,0.12-0.08,0.24-0.1,0.35c0,0,6.81-0.1,11.11-0.15c1.29,0.02,2.44,0.04,3.43,0.06c4.2,0.07,8.16-0.04,11.9-0.26   c24.28-1.05,41.14-6.15,43.61-7.03c1.27-0.45,2.09-0.85,2.09-1.74c-0.03-4.76,1.94-10.12,2.16-11.33   C777.43,406.23,776.2,403.22,776.06,403.24z"/>
</g>
<g>
	<g>
		<path d="M664.07,361.79c-0.76,0-1.38-0.61-1.38-1.37c0-0.75,0.62-1.37,1.38-1.37c0.76,0,1.38,0.61,1.38,1.37    C665.45,361.18,664.83,361.79,664.07,361.79z"/>
	</g>
</g>
<g>
	<g>
		<g>
			<g>
				<g>
					<g>
						<path d="M737.25,406.54c0-0.01-0.01-0.02-0.01-0.02c-0.03,0.01-0.06,0.02-0.08,0.03        C737.18,406.54,737.21,406.54,737.25,406.54z"/>
						<g>
							<path d="M668.3,374.88c-1.08-0.65-2.13-1.3-3.16-1.94c0.81,0.92,1.65,1.82,2.51,2.71c1.19,0.72,2.4,1.44,3.65,2.17         C670.27,376.87,669.27,375.88,668.3,374.88z"/>
						</g>
					</g>
				</g>
			</g>
		</g>
	</g>
</g>
<g>
	<g>
		<g>
			<path class="st0" d="M705.69,383.41c0.54,0.32,1.75,1.23,1,1.23c-0.75,0-1.42-0.37-2.5-0.37c-1.07,0-1.69,0.38-2.04,1.02     c-0.35,0.64-2.48,3.85-2.91,4.17c-0.17,0.13-1.26,0.22-1.76,0.13c-0.26-0.05,0.09-0.3-0.13-0.43c-0.14-0.08-0.37,0.16-0.46,0.03     c-0.17-0.22-0.49-0.91-0.5-1.29c-0.05-1.74,1.42-4.4,1.63-4.72c0.21-0.32,3.3-1.38,4.8-0.85     C704.33,382.87,705.69,383.41,705.69,383.41z"/>
		</g>
		<g>
			<path class="st0" d="M697.24,378.74c0.41,0.54,0.21,0.96-1.71,0.43c-1.93-0.54-5.03,2.79-6,3.43c-0.96,0.64-1.68,1.02-2.06,1.12     c-0.17,0.04-0.36,0.01-0.54-0.08c-0.21-0.11-0.12-0.47-0.29-0.71c-0.11-0.17-0.51-0.19-0.56-0.41c-0.12-0.44-0.35-1.11-0.09-1.64     c0.75-1.5,3.93-3.69,4.47-4.01c0.54-0.32,1.72-0.71,3.55-0.06C695.82,377.45,696.92,378.31,697.24,378.74z"/>
		</g>
		<g>
			<path class="st0" d="M689.23,372.01c0.74,0.6,2.01,1.61,1.17,1.83c-0.84,0.22-3.35-0.33-4.09-0.1c-0.73,0.23-2.77,0.99-3.83,1.53     c-1.18,0.6-2.25,1.23-3.1,1.86c-0.23,0.18-0.76-0.01-1.04-0.16c-0.17-0.09,0.09-0.47-0.06-0.64c-0.17-0.19-0.73-0.17-0.82-0.42     c-0.15-0.41,0-1.1,0.22-1.48c0.78-1.31,2.93-2.32,3.83-2.68c0.9-0.36,3.12-0.8,4.8-0.66     C687.99,371.23,688.49,371.41,689.23,372.01z"/>
		</g>
		<g>
			<path class="st0" d="M682.64,364.71c0.64,0.7,1.75,1.89,0.89,1.98c-0.86,0.09-3.27-0.82-4.03-0.7c-0.76,0.12-2.89,0.57-4.01,0.95     c-1.26,0.42-2.41,0.89-3.34,1.39c-0.26,0.14-0.75-0.13-1-0.31c-0.16-0.11,0.15-0.45,0.03-0.64c-0.14-0.21-0.69-0.28-0.75-0.53     c-0.09-0.43,0.16-1.09,0.44-1.43c0.97-1.19,3.24-1.86,4.18-2.09c0.94-0.22,3.21-0.34,4.84,0.05     C681.53,363.76,682,364.01,682.64,364.71z"/>
		</g>
	</g>
</g>
<g>
	<path class="st0" d="M717.24,387.4c0,0,0.78,0.72-1.04,0.4c-1.82-0.32-3.07,0.95-3.7,1.48c-0.44,0.37-1.73,3.04-2.29,3.55   c-0.4,0.36-1.03,0.05-1.24-0.1c-0.09-0.07-0.12-0.68-0.2-0.76c-0.11-0.11-0.42,0.48-0.5,0.36c-0.22-0.32-0.5-0.81-0.5-1.13   c0-0.75,0.87-3.49,1.19-3.92c0.32-0.43,1.88-1.24,2.95-1.24C712.98,386.04,715.85,386.54,717.24,387.4z"/>
</g>
<g>
	<path class="st0" d="M726.34,389.2c0,0-2.18,1.25-2.64,1.95c-0.92,1.4-2.33,4.41-2.69,4.45c-0.14,0.01-0.55,0.04-0.76,0.05   c-0.18,0.01-0.11-0.38-0.3-0.42c-0.18-0.05-0.62,0.25-0.76,0.1c-0.18-0.2-0.48-1.51-0.48-1.99c0-1.61,2.8-4.96,3.12-5.31   C722.62,387.17,725.97,387.8,726.34,389.2z"/>
	<path class="st1" d="M776.43,402.9l-0.21-0.19l-0.17,0.04c-0.43-0.72-0.94-1.45-1.43-2.1c-0.63-0.95-2.42-1.44-3.03-1.29   l-0.09,0.01l-0.09,0.08c0,0-0.04,0.03-0.11,0.06c-1.44-0.36-4.08-0.71-8.82-1.3c-6.73-0.84-16.26-2.03-27.12-4.22   c-2.06-2.5-4.66-4.48-7.93-5.05c-0.17-0.03-0.41-0.07-0.7-0.11c-0.32-0.68-1.16-1.24-2.3-1.52c-0.98-0.24-2.34-0.27-2.95,0.4   c-0.01,0.01-0.1,0.11-0.24,0.28c-1.06-0.17-2.2-0.35-3.39-0.55c-0.06-0.15-0.16-0.29-0.27-0.39l-0.08-0.06   c-1.5-0.92-4.48-1.43-5.59-1.43c-0.54,0-1.17,0.17-1.74,0.41c-0.52-0.11-1.04-0.23-1.55-0.35c-0.53-0.17-1.04-0.36-1.55-0.54   c0.22-0.1,0.31-0.28,0.34-0.38c0.16-0.59-0.7-1.25-1.46-1.7l-0.07-0.04c0,0-1.38-0.55-2.88-1.09c-0.61-0.22-1.48-0.21-2.35-0.08   c-1.01-0.6-2.05-1.25-3.14-1.99c0.12-0.06,0.22-0.14,0.29-0.25c0.12-0.18,0.26-0.56-0.15-1.11c-0.44-0.59-1.69-1.47-3.48-2.1   c-0.65-0.23-1.21-0.33-1.71-0.36c-0.64-0.53-1.28-1.08-1.92-1.66c0,0,0,0,0,0c0.46-0.12,0.6-0.42,0.63-0.59   c0.14-0.63-0.57-1.26-1.58-2.08l-0.03-0.03c0,0,0,0,0,0c-0.77-0.62-1.36-0.84-2.76-0.98c-1.02-1.1-2.04-2.26-3.03-3.5   c0.34-0.09,0.49-0.31,0.54-0.45c0.23-0.61-0.38-1.33-1.26-2.29l-0.03-0.03c-0.62-0.67-1.12-0.98-2.25-1.29   c-0.09-0.13-0.18-0.25-0.27-0.38c-2.2-3.29-4.59-7.02-6.91-10.62c-4.28-6.67-6.95-10.8-7.88-11.65c-1.53-1.4-9.37,2-12.91,5.59   c-2.4,2.44-2.42,5.79-2.42,5.9c-0.02,0.24-0.05,0.92-0.08,1.82c-5.28,0.1-10.16,0.36-15.31,0.64c-4.44,0.24-9.04,0.49-14.42,0.67   c-7.34,0.28-14.78,0.1-18.78,0c-0.48-0.01-0.88-0.02-1.23-0.03c-0.57-0.01-0.97-0.02-1.25-0.01c-0.03,0-0.05,0-0.08,0   c-0.13,0-0.23,0.01-0.31,0.02c0.08-0.01-0.99,0.02-1.53,0.06c-0.52,0.04-0.83,0.43-0.93,0.75c-0.51,1.6-1.63,6.21-1.66,9.51   c0,0.1-0.05,0.23-0.09,0.35c-0.98,2.83-1.76,5.33-2.19,9.61c-0.02,0.18-0.07,0.35-0.12,0.53c-2.71,10.05-3.28,18.74-1.95,30.44   c-0.58,1.04-1.06,4.21-1.05,4.34l0,0.11c0,0.19,0,0.54,0,0.88c-0.47,0.45-0.43,0.93-0.4,1.07c0.07,0.37,0.15,0.76,0.23,1.15   c-0.05,0.03-0.09,0.05-0.16,0.09l0,0l-0.34,0.14l0.02,0.06l0,0l0.6,2.16c0.64,2.74,1.18,6.19,1.19,6.29   c0.07,0.23,0.22,0.41,0.4,0.49c0.17,0.94,0.28,1.6,0.32,1.82c0.07,0.43,0.41,0.74,0.85,0.96c0.04,0.02,0.08,0.04,0.13,0.06   c1.14,0.51,2.87,0.52,2.97,0.52c0.65,0,26.3,0.43,53.46,0.88c18.98,0.32,39.2,0.65,53.67,0.89l-0.09,0.35l0.65-0.01   c0.1,0,7.26-0.09,11.49-0.15c1.13,0.02,2.15,0.04,3.04,0.05c0.81,0.01,1.64,0.02,2.5,0.02c2.73,0,5.71-0.08,8.86-0.25   c26.61-1.07,44.13-7.02,44.32-7.08c1.02-0.36,2.43-0.86,2.42-2.22c-0.02-3.59,1.13-7.6,1.75-9.75c0.2-0.69,0.34-1.18,0.4-1.48   l0-0.01C777.93,406.23,776.79,403.24,776.43,402.9z M736.28,395.18c10.43,2.06,19.57,3.2,26.08,4.01c2.81,0.35,5.4,0.67,7.2,0.97   c-0.35,0.11-0.75,0.24-1.25,0.38l-0.89,0.26c-5,1.45-13.48,3.9-26.96,5.4c-0.71,0.08-1.42,0.16-2.16,0.23   c-0.04-0.09-0.09-0.2-0.13-0.3c-1.34-2.98-3.18-6.78-5.37-10.58c-0.27-0.46-0.6-0.89-0.96-1.29c1.01,0.22,2.01,0.42,3,0.63   C735.31,394.99,735.8,395.09,736.28,395.18z M726.36,389.77c0.38,0.06,0.69,0.11,0.89,0.14c2.57,0.46,4.71,1.87,6.48,3.74   c-1.1-0.23-2.21-0.47-3.34-0.72c-0.2-0.15-0.39-0.31-0.59-0.45c-1.24-1.05-2.68-1.78-4.11-2.29   C725.92,390.04,726.15,389.89,726.36,389.77z M722.22,388.36c0.06-0.07,0.21-0.13,0.4-0.17c0.36-0.08,0.92-0.08,1.57,0.08   c0.3,0.07,0.57,0.17,0.81,0.28c0.29,0.14,0.53,0.29,0.68,0.46c-0.23,0.14-0.52,0.32-0.82,0.53c-0.13,0.09-0.25,0.17-0.38,0.26   c-0.34,0.25-0.67,0.51-0.91,0.75c-0.11,0.11-0.21,0.22-0.28,0.32c-0.38,0.58-0.83,1.4-1.26,2.2c-0.27,0.5-0.61,1.11-0.87,1.55   c-0.13,0.22-0.25,0.39-0.32,0.49c-0.09,0.01-0.2,0.01-0.31,0.02c-0.07-0.15-0.19-0.33-0.44-0.39c-0.06-0.01-0.11-0.02-0.17-0.02   c-0.14,0-0.28,0.04-0.4,0.08c-0.07-0.21-0.14-0.52-0.2-0.81c-0.05-0.26-0.09-0.51-0.09-0.66c0-0.83,0.98-2.36,1.85-3.54   C721.54,389.16,721.98,388.62,722.22,388.36z M710.06,387.1c0.54-0.28,1.29-0.56,1.85-0.56c0.74,0,2.41,0.26,3.75,0.7   c-0.02,0-0.03,0-0.04,0c-0.95,0-1.73,0.36-2.33,0.77c-0.38,0.25-0.69,0.52-0.93,0.73l-0.18,0.15c-0.27,0.22-0.6,0.79-1.16,1.77   c-0.26,0.44-0.57,0.99-0.83,1.38c-0.13,0.19-0.24,0.35-0.32,0.42c-0.09,0.08-0.33,0.02-0.49-0.06c-0.01-0.04-0.01-0.09-0.02-0.14   c-0.04-0.28-0.08-0.49-0.23-0.64l-0.19-0.17l-0.22,0.01c-0.13,0-0.23,0.05-0.32,0.11c-0.09-0.18-0.13-0.31-0.13-0.37   c0-0.04,0.01-0.11,0.02-0.16c0.09-0.84,0.85-3.15,1.07-3.45C709.44,387.47,709.71,387.29,710.06,387.1z M699.5,383.08   c0.85-0.25,1.98-0.47,2.78-0.35c0.13,0.02,0.27,0.04,0.38,0.08c1.35,0.48,2.58,0.97,2.81,1.06c0.05,0.03,0.1,0.06,0.15,0.09   c-0.38-0.09-0.82-0.17-1.35-0.18c-0.03,0-0.05-0.01-0.08-0.01c-0.77,0-1.38,0.2-1.85,0.57c-0.24,0.19-0.46,0.42-0.62,0.71   c-0.39,0.72-2.43,3.72-2.72,3.98c-0.01,0.01-0.05,0.01-0.08,0.02c-0.19,0.05-0.64,0.09-1.01,0.09c-0.05-0.22-0.21-0.35-0.3-0.4   c-0.16-0.1-0.32-0.1-0.46-0.07c-0.12-0.25-0.25-0.6-0.26-0.77c0-0.03,0.01-0.06,0.01-0.09c0.01-1.6,1.35-4.06,1.49-4.28   C698.52,383.42,698.95,383.24,699.5,383.08z M692.08,376.96c0.47-0.01,1.05,0.07,1.75,0.32c0.16,0.06,0.31,0.12,0.46,0.18   c1.24,0.5,2.08,1.09,2.43,1.45c-0.15-0.01-0.36-0.05-0.64-0.11c-0.13-0.03-0.27-0.06-0.43-0.11c-0.43-0.12-0.89-0.09-1.36,0.04   c-0.16,0.04-0.33,0.1-0.49,0.17c-0.35,0.14-0.71,0.33-1.07,0.55c-0.95,0.58-1.86,1.37-2.6,2c-0.38,0.33-0.71,0.61-0.9,0.74   c-0.51,0.34-0.9,0.57-1.19,0.73c-0.43,0.23-0.65,0.3-0.72,0.32c-0.02,0.01-0.05,0-0.09-0.01c0-0.01,0-0.02-0.01-0.03   c-0.03-0.15-0.06-0.36-0.19-0.55c-0.13-0.2-0.33-0.28-0.47-0.35c-0.02-0.01-0.04-0.02-0.05-0.02l-0.01-0.02   c-0.06-0.23-0.13-0.5-0.15-0.75c-0.01-0.15,0-0.29,0.06-0.4c0.53-1.05,2.53-2.6,3.65-3.38c0.27-0.18,0.5-0.34,0.63-0.42   c0.08-0.05,0.2-0.11,0.34-0.16C691.3,377.05,691.64,376.97,692.08,376.96z M697.23,380.82c-0.74-0.39-1.44-0.79-2.15-1.19   c0.11,0,0.22-0.01,0.32,0.02c0.09,0.02,0.16,0.04,0.24,0.06C696.17,380.1,696.7,380.48,697.23,380.82z M691.04,376.1   c-0.39,0.1-0.68,0.24-0.85,0.35c0,0-0.04,0.02-0.08,0.05c-1.09-0.76-2.14-1.52-3.15-2.31c0.39,0.01,0.9,0.06,1.31,0.1   c0.28,0.03,0.56,0.05,0.82,0.07C689.75,374.96,690.4,375.54,691.04,376.1z M686.33,371.6c0.77,0.07,1.26,0.14,1.64,0.26   c0.38,0.12,0.64,0.29,0.95,0.54l0.03,0.03c0.24,0.2,0.8,0.65,1.08,0.96c-0.14,0.01-0.32,0-0.51-0.01   c-0.36-0.02-0.77-0.06-1.14-0.09c-0.16-0.02-0.3-0.03-0.45-0.04c-0.82-0.07-1.4-0.1-1.77,0.02c-0.06,0.02-0.15,0.05-0.23,0.08   c-0.3,0.1-0.69,0.24-1.13,0.41c-0.87,0.33-1.88,0.74-2.54,1.08c-1.02,0.52-1.89,1.03-2.58,1.5c-0.19,0.13-0.37,0.25-0.53,0.38   c-0.05,0.01-0.17-0.01-0.32-0.07c0.02-0.18,0.02-0.42-0.16-0.63c-0.17-0.2-0.42-0.27-0.62-0.32c-0.04-0.01-0.09-0.03-0.13-0.04   c-0.03-0.18,0.01-0.45,0.09-0.69c0.03-0.1,0.07-0.19,0.11-0.26c0.59-1,2.24-1.93,3.58-2.47c0.24-0.1,0.6-0.2,1-0.29   c0.39-0.09,0.83-0.17,1.29-0.23c0.77-0.11,1.59-0.16,2.28-0.1C686.3,371.6,686.31,371.6,686.33,371.6z M685.39,370.58   c-0.8,0.02-1.62,0.12-2.36,0.26c-1.51-1.38-2.92-2.78-4.26-4.2c0.32-0.07,0.6-0.12,0.8-0.15c0.28-0.05,1.15,0.17,1.78,0.33   c0.37,0.09,0.72,0.18,1.05,0.25C683.4,368.31,684.39,369.47,685.39,370.58z M680.14,363.95c0.91,0.23,1.36,0.41,1.73,0.7   c0.14,0.11,0.27,0.24,0.41,0.39l0.03,0.03c0.21,0.23,0.7,0.76,0.92,1.11c-0.07-0.01-0.15-0.02-0.24-0.03   c-0.4-0.06-0.93-0.19-1.38-0.31c-0.05-0.01-0.09-0.02-0.14-0.03c-0.97-0.24-1.62-0.38-2.04-0.31c-0.31,0.05-0.84,0.15-1.44,0.28   c-0.36,0.08-0.74,0.17-1.12,0.26c-0.57,0.14-1.12,0.29-1.53,0.43c-1.19,0.4-2.2,0.81-3,1.22c-0.12,0.06-0.25,0.12-0.35,0.18   c-0.05,0.01-0.17-0.04-0.31-0.11c0.05-0.17,0.08-0.41-0.07-0.64c-0.14-0.22-0.38-0.33-0.57-0.41c-0.04-0.02-0.08-0.04-0.12-0.06   c0-0.16,0.06-0.37,0.15-0.57c0.06-0.13,0.12-0.25,0.19-0.34c0.7-0.86,2.34-1.51,3.71-1.86c0.07-0.02,0.14-0.04,0.2-0.05   c0.24-0.06,0.57-0.1,0.96-0.14c1.07-0.09,2.55-0.07,3.66,0.19C679.91,363.89,680.03,363.92,680.14,363.95z M651.38,351.95   c0-0.03,0.02-3.09,2.13-5.22c3.31-3.36,9.26-5.66,11.07-5.66c0.21,0,0.37,0.03,0.46,0.1c0.88,0.81,4.2,5.98,7.72,11.46   c2.2,3.43,4.47,6.96,6.59,10.14c-1.4-0.21-3.01-0.15-3.99,0c-1.36-1.62-2.65-3.24-3.88-4.84c-3.28-4.44-12.84-4.48-16.47-4.33   c-0.69,0.01-1.37,0.04-2.03,0.06c-0.57,0.02-1.12,0.04-1.66,0.05C651.32,353.03,651.35,352.42,651.38,351.95z M600.66,356.51   c0.03-0.2,0.05-0.36,0.07-0.5c0.32,0.01,0.67,0.02,1.04,0.03c4.01,0.1,11.47,0.28,18.84,0c5.39-0.18,9.99-0.43,14.44-0.67   c5.13-0.28,9.99-0.53,15.24-0.64c0.27-0.01,0.52-0.02,0.79-0.02c0.07,0,0.15-0.01,0.22-0.01c0.55-0.01,1.12-0.03,1.71-0.05   c0.1,0,0.21-0.01,0.32-0.01c0.06,0.12,0.13,0.28,0.22,0.49c2.88,6.41,6.81,12.39,11.6,17.81c1.02,0.64,2.08,1.28,3.16,1.94   c-5.83-6-10.54-12.8-13.85-20.16c-0.02-0.03-0.03-0.07-0.04-0.1c0.25-0.01,0.57-0.03,0.92-0.04c2.1-0.07,5.86-0.04,9.25,0.72   c2.53,0.57,4.85,1.55,6.08,3.22c1.15,1.49,2.34,2.99,3.6,4.5c-1.08,0.32-2.88,0.98-3.78,2.07c-0.29,0.35-0.52,0.93-0.55,1.45   c-0.2,0.24-0.33,0.54-0.33,0.88c0,0.75,0.62,1.37,1.38,1.37c0.14,0,0.28-0.03,0.41-0.07c0.18,0.08,0.39,0.14,0.59,0.14   c0.14,0,0.28-0.03,0.41-0.1c0.84-0.45,1.94-0.91,3.26-1.35c0.51-0.17,1.25-0.36,1.98-0.53c1.32,1.43,2.74,2.84,4.22,4.24   c-0.2,0.06-0.38,0.12-0.52,0.18c-0.73,0.29-3.16,1.36-4.07,2.89c-0.27,0.45-0.42,1.19-0.29,1.74c-0.03,0.12-0.06,0.24-0.06,0.36   c0,0.75,0.62,1.37,1.38,1.37c0.11,0,0.21-0.02,0.31-0.04c0.16,0.05,0.34,0.09,0.51,0.09c0.2,0,0.4-0.05,0.56-0.17   c0.77-0.57,1.79-1.19,3.02-1.82c0.75-0.38,2.07-0.9,2.99-1.24c1.11,0.9,2.29,1.78,3.5,2.64c-1.18,0.84-3.06,2.32-3.67,3.54   c-0.26,0.52-0.18,1.09-0.07,1.55c-0.1,0.19-0.16,0.4-0.16,0.63c0,0.75,0.62,1.37,1.38,1.37c0.08,0,0.16-0.01,0.23-0.02   c0.13,0.04,0.26,0.07,0.39,0.07c0.1,0,0.19-0.01,0.28-0.04c0.59-0.16,1.53-0.73,2.21-1.19c0.25-0.16,0.58-0.45,1-0.82   c0.74-0.64,1.87-1.61,2.92-2.17c1.43,0.85,2.94,1.66,4.52,2.44c-0.31,0.15-0.54,0.3-0.63,0.43c-0.23,0.35-1.77,3.11-1.72,5.01   c0.01,0.3,0.14,0.67,0.28,1c0,0.03-0.01,0.06-0.01,0.08c0,0.75,0.62,1.36,1.38,1.36c0.29,0,0.56-0.09,0.79-0.24   c0.48-0.02,0.99-0.1,1.21-0.26c0.55-0.41,2.74-3.76,3.05-4.33c0.15-0.27,0.39-0.57,0.97-0.69c0.42,0.17,0.83,0.35,1.27,0.51   c0.03,0.01,0.06,0.02,0.09,0.04c0.58,0.22,1.17,0.43,1.77,0.63c0.57,0.2,1.16,0.39,1.75,0.58c0.13,0.04,0.27,0.08,0.4,0.13   c-0.11,0.09-0.21,0.18-0.27,0.27c-0.41,0.55-1.29,3.42-1.29,4.21c0,0.25,0.1,0.53,0.22,0.78c-0.02,0.1-0.04,0.2-0.04,0.31   c0,0.75,0.62,1.37,1.38,1.37c0.25,0,0.48-0.07,0.68-0.18c0.08,0.01,0.16,0.02,0.24,0.02c0.28,0,0.56-0.08,0.8-0.3   c0.32-0.3,0.74-1,1.33-2.04c0.33-0.58,0.79-1.36,0.94-1.5l0.19-0.16c0.41-0.36,1.01-0.87,1.77-1.11c1.38,0.34,2.8,0.66,4.26,0.94   c0.22,0.04,0.56,0.12,0.98,0.21c-0.87,1.21-1.8,2.75-1.8,3.8c0,0.32,0.13,1.13,0.33,1.73c-0.01,0.05-0.02,0.1-0.02,0.15   c0,0.75,0.62,1.37,1.38,1.37c0.42,0,0.79-0.19,1.04-0.48c0.04,0,0.08-0.01,0.11-0.01c0.44-0.05,0.72-0.49,1.84-2.55   c0.42-0.78,0.86-1.58,1.22-2.13c0.08-0.12,0.27-0.29,0.5-0.48c0.99,0.38,2,0.82,2.97,1.34c0.5,0.27,0.98,0.55,1.44,0.86   c0.34,0.23,0.65,0.47,0.96,0.72c0.79,0.65,1.46,1.38,1.94,2.2c0.52,0.89,1.01,1.79,1.49,2.67c1.52,2.82,2.81,5.54,3.82,7.78   c0,0.01,0.01,0.02,0.01,0.02c-0.03,0-0.06,0.01-0.09,0.01c-0.91,0.08-1.84,0.17-2.79,0.24c-0.34,0.03-0.68,0.05-1.02,0.08   c-1.73,0.13-3.54,0.24-5.41,0.33c-0.16,0.01-0.32,0.01-0.49,0.02c-0.3,0.01-0.59,0.03-0.89,0.04c-0.13,0.01-0.27,0.01-0.4,0.01   c-4.18,0.17-8.68,0.25-13.56,0.2c-3.84-0.1-7.76-0.19-11.71-0.27c-0.01-0.13-0.01-0.26-0.02-0.4c-0.06-1.02-0.12-2.16-0.21-3.49   c-0.16-2.39-0.37-4.15-0.81-5.53c-0.11-0.35-0.23-0.67-0.37-0.97c-0.24-0.5-0.52-0.94-0.86-1.34l-0.15-0.16   c-0.79-0.85-1.87-1.53-3.39-2.2c-1.49-0.66-2.28-1.01-2.92-1.31c-0.35-0.16-0.65-0.31-1-0.48c-0.07-0.04-0.14-0.08-0.22-0.11   c-7.33-3.61-13.93-8.15-19.62-13.4c-1.24-0.73-2.46-1.45-3.65-2.17c6.09,6.25,13.4,11.63,21.64,15.85   c-1.32,0.07-2.75-0.2-4.37-0.79l-1.85-0.67c-6.68-2.42-11.96-4.33-18.7-6.88c-10.15-3.84-13.55-3.45-24.93,0.07   c-12.66,3.91-17.87,5.12-31.12,4.4c-2.36-0.13-4.68-0.42-6.93-0.85c-1.31-3.98-2.02-7.67-2.16-11.24   C598.96,368.2,600.24,359.4,600.66,356.51z M607.81,397.28c14.7,0.8,21.14-0.69,34.49-4.82c9.96-3.08,11.18-3.1,18.66-0.26   c6.8,2.57,12.11,4.5,18.83,6.93l1.85,0.67c2.54,0.92,5.04,1.37,7.47,1.37c3.51,0,6.84-0.96,9.87-2.81   c0.35,1.22,0.54,2.82,0.69,5.03c0.09,1.32,0.15,2.46,0.2,3.47c0.01,0.11,0.01,0.21,0.02,0.32c-32.29-0.68-67.13-0.99-88.91-1.17   c-1.97-3.14-3.67-6.09-5.11-8.87C606.51,397.19,607.16,397.24,607.81,397.28z M605.33,396.09c-1.46-2.89-2.64-5.62-3.55-8.21   c2.12,0.38,4.29,0.64,6.5,0.76c13.41,0.73,18.68-0.49,31.47-4.44c11.11-3.44,14.42-3.82,24.28-0.09   c6.75,2.55,12.03,4.46,18.71,6.89l1.85,0.67c2.32,0.84,4.35,1.06,6.21,0.62c0.94,0.46,1.61,0.77,3.87,1.76   c2.1,0.92,3.27,1.76,3.97,3.35c-4.9,3.07-10.68,3.63-16.65,1.46l-1.85-0.67c-6.72-2.43-12.02-4.35-18.82-6.93   c-3.77-1.43-6.04-2.15-8.57-2.15c-2.64,0-5.56,0.79-10.75,2.4c-13.23,4.09-19.6,5.56-34.14,4.77   C607.02,396.23,606.17,396.17,605.33,396.09z M593.38,376.08c0.06-0.23,0.12-0.45,0.14-0.68c0.42-4.17,1.18-6.62,2.14-9.38   c0.06-0.18,0.14-0.41,0.15-0.67c0.02-2.03,0.49-4.71,0.98-6.8c0.24-1.01,0.48-1.89,0.68-2.47c0.1-0.01,0.22-0.01,0.34-0.02   c0.41-0.02,0.86-0.04,1.28-0.05c0,0,0,0,0.01,0c0.07-0.01,0.26-0.01,0.54,0c0.03,0,0.06,0,0.09,0c0,0,0,0,0,0   c-0.02,0.11-0.03,0.23-0.05,0.37c-0.42,2.91-1.71,11.77-1.41,19.22c0.14,3.5,0.8,7.12,2.04,10.99c0.12,0.36,0.23,0.72,0.35,1.09   c0.9,2.62,2.06,5.37,3.51,8.28c0.17,0.35,0.35,0.71,0.53,1.06c1.44,2.82,3.13,5.8,5.11,8.98c-1.14-0.01-2.25-0.02-3.31-0.03   c-5.06-0.04-9.21-0.08-12.25-0.11c-0.36,0-0.68-0.01-1.01-0.01c-0.66-0.01-1.28-0.01-1.81-0.02c-0.03-0.3-0.06-0.6-0.09-0.9   C590.19,393.98,590.8,385.65,593.38,376.08z M590.79,408.57c0.16-0.73,0.35-1.44,0.49-1.73c0.08,0,0.17,0,0.26,0   c0.52,0.01,1.13,0.01,1.78,0.02c0.32,0,0.65,0.01,1,0.01c3.03,0.03,7.15,0.06,12.15,0.1c1.26,0.01,2.58,0.02,3.95,0.03   c0.39,0,0.79,0.01,1.19,0.01c21.84,0.18,56.34,0.49,88.33,1.17c0.33,0.01,0.67,0.01,1,0.02c3.93,0.08,7.82,0.17,11.64,0.27   c5.26,0.06,10.08-0.04,14.52-0.24c0.14-0.01,0.3-0.01,0.44-0.02c0.46-0.02,0.92-0.04,1.37-0.07c0.34-0.02,0.67-0.04,1.01-0.06   c0.82-0.05,1.63-0.1,2.43-0.15c0.33-0.02,0.66-0.04,0.98-0.07c0.35-0.03,0.68-0.05,1.02-0.08c1.05-0.08,2.07-0.17,3.06-0.27   c0.08-0.01,0.17-0.01,0.25-0.02c0.36-0.03,0.69-0.07,1.04-0.11c14.64-1.48,23.72-4.1,28.97-5.62l0.89-0.26   c1.49-0.43,2.33-0.74,2.83-0.95c0.22-0.1,0.38-0.18,0.48-0.24c0,0,0,0,0,0c0.2,0,0.64,0.1,1.05,0.28c0.36,0.15,0.69,0.35,0.85,0.6   l0.08,0.11c0.51,0.66,0.9,1.24,1.21,1.75c-1.48,0.51-3.05,0.98-4.68,1.42c-0.49,0.13-0.98,0.26-1.48,0.39   c-8.95,2.27-19.68,3.66-29.36,4.5c-0.35,0.03-0.7,0.06-1.05,0.09c-1.43,0.12-2.84,0.23-4.21,0.33c-0.34,0.02-0.69,0.05-1.03,0.07   c-1.32,0.09-2.61,0.17-3.85,0.24c-0.35,0.02-0.7,0.04-1.04,0.06c-9.06,0.5-15.5,0.53-15.66,0.53l-99.85-1.71l-1.2-0.02l-14.06-0.24   l-3.1-0.05l-1.01-0.02l-2.47-0.04l-0.26,0C590.78,408.59,590.78,408.58,590.79,408.57z M590.41,410.74c0-0.06,0-0.11,0-0.12   c0.01-0.16,0.08-0.55,0.17-1.01l3.07,0.05l1.01,0.02l2.87,0.05l6.57,0.11l8.24,0.14l1.21,0.02l99.17,1.7   c0.16,0,6.49-0.03,15.43-0.52c0.35-0.02,0.69-0.04,1.04-0.06c1.3-0.07,2.65-0.16,4.03-0.25c0.34-0.02,0.68-0.05,1.03-0.07   c1.51-0.11,3.08-0.23,4.67-0.37c0.35-0.03,0.69-0.06,1.04-0.09c7.15-0.63,14.85-1.55,22-2.91c-4.88,1.29-11.73,2.82-21.57,3.97   c-0.34,0.04-0.68,0.08-1.03,0.12c-1.65,0.18-3.37,0.36-5.19,0.51c-0.34,0.03-0.69,0.06-1.03,0.09c-1.37,0.11-2.79,0.21-4.25,0.31   c-0.34,0.02-0.69,0.04-1.04,0.07c-2.84,0.18-5.84,0.32-9.06,0.42c-1.44,0.04-2.89,0.4-4.29,0.98c-33.3-0.51-73.32-1.15-99.39-1.56   c-0.91-0.01-1.81-0.03-2.69-0.04c-2.33-0.04-4.54-0.07-6.6-0.11c-0.16,0-0.34-0.01-0.5-0.01c-5.09-0.08-8.83-0.15-11.31-0.23   c-1.92-0.06-3.1-0.12-3.58-0.2C590.4,411.38,590.41,410.95,590.41,410.74z M702.65,427.16c0,0.01-0.01,0.02-0.01,0.02   c-14.5-0.24-34.84-0.58-53.94-0.89c-28.34-0.47-52.82-0.88-53.48-0.88c-1.52,0-2.88-0.42-2.97-0.7c-0.03-0.19-0.12-0.72-0.26-1.47   c0.27,0.05,0.51,0.09,0.51,0.09l0.18,0.03l0.12,0.04l0.02-0.02l0.38,0.07l-0.06-0.31l0.27-0.21l-0.06-0.3   c-0.05-0.24-1.14-5.81-1.91-8.47l-0.1-0.33l-0.35-0.03c-0.35-0.03-0.59-0.06-0.77-0.09c-0.01,0-0.01,0-0.02,0   c-0.07-0.35-0.14-0.69-0.2-1.02c0.11,0.03,0.26,0.05,0.43,0.07c1.45,0.19,5.12,0.26,14.83,0.42c0.15,0,0.32,0.01,0.48,0.01   c5.49,0.09,12.01,0.19,19.24,0.31c25.07,0.4,58.64,0.93,87.53,1.38c-1.88,1.08-3.63,2.56-5.14,4.23c-0.28,0.31-0.55,0.62-0.81,0.95   C704.77,422.24,703.38,424.74,702.65,427.16z M776.71,407.48c-0.05,0.25-0.19,0.75-0.37,1.38c-0.63,2.2-1.81,6.3-1.79,10.03   c0,0.49-0.41,0.79-1.75,1.27c-0.12,0.04-7.33,2.5-19.47,4.53c-6.79,1.13-15.12,2.13-24.62,2.51l-11.26,0.13   c-0.17,0-1.5,0.02-3.29,0.04c-0.68,0.01-1.41,0.02-2.18,0.03c-3.21,0.04-6.91,0.09-8.41,0.11c0.03-0.1,0.07-0.21,0.11-0.31   c0-0.01,0.01-0.01,0.01-0.02c0.78-2.42,2.23-4.91,4.09-7.06c0.28-0.32,0.56-0.64,0.86-0.94c1.77-1.83,3.84-3.36,6.02-4.28   c0.93-0.4,1.89-0.7,2.84-0.85c0.44-0.07,0.87-0.12,1.31-0.13c3.12-0.1,6.03-0.24,8.79-0.41c0.35-0.02,0.7-0.04,1.04-0.07   c1.51-0.1,3-0.2,4.41-0.32c0.35-0.03,0.69-0.06,1.03-0.09c0.05,0,0.1-0.01,0.15-0.01c2.31-0.2,4.48-0.43,6.52-0.67   c13.26-1.56,21.08-3.81,25.99-5.23c0.28-0.08,0.54-0.16,0.8-0.23c0.29-0.08,0.56-0.16,0.83-0.24c0.24-0.07,0.45-0.13,0.68-0.2   c3.81-1.1,5.71-1.9,6.6-2.37c0.09-0.05,0.17-0.09,0.24-0.13c0.24,0.56,0.59,1.57,0.75,2.44   C776.72,406.81,776.76,407.2,776.71,407.48z"/>
</g>
<g>
	<path d="M604.54,376.6C604.54,376.6,604.54,376.6,604.54,376.6l-0.51-0.01c-0.28,0-0.5-0.23-0.49-0.51s0.2-0.51,0.51-0.49l0.5,0.01   c0.28,0,0.5,0.23,0.49,0.51C605.04,376.38,604.82,376.6,604.54,376.6z M614.55,376.59c-0.27,0-0.5-0.22-0.5-0.49   c0-0.28,0.21-0.5,0.49-0.51l0.5-0.01c0.28,0,0.5,0.22,0.51,0.49c0,0.28-0.22,0.5-0.49,0.51L614.55,376.59   C614.55,376.59,614.55,376.59,614.55,376.59z M601.05,376.54c0,0-0.01,0-0.01,0l-0.5-0.01c-0.28-0.01-0.49-0.24-0.49-0.51   c0.01-0.28,0.27-0.47,0.51-0.49l0.5,0.01c0.28,0.01,0.49,0.24,0.49,0.51C601.54,376.32,601.32,376.54,601.05,376.54z    M597.55,376.43c-0.01,0-0.01,0-0.02,0l-0.5-0.02c-0.28-0.01-0.49-0.24-0.48-0.52c0.01-0.28,0.25-0.5,0.52-0.48l0.5,0.02   c0.28,0.01,0.49,0.24,0.48,0.52C598.04,376.22,597.81,376.43,597.55,376.43z M594.05,376.25c-0.01,0-0.02,0-0.03,0l-0.5-0.04   c-0.28-0.02-0.48-0.26-0.46-0.54c0.02-0.28,0.26-0.48,0.54-0.46l0.5,0.04c0.28,0.02,0.48,0.26,0.46,0.53   C594.53,376.04,594.31,376.25,594.05,376.25z M632.06,376.09c-0.27,0-0.5-0.21-0.51-0.48c-0.01-0.28,0.19-0.51,0.47-0.52l0.5-0.02   c0.27-0.01,0.51,0.2,0.52,0.48s-0.2,0.51-0.48,0.52l-0.48,0.02C632.07,376.09,632.06,376.09,632.06,376.09z M635.53,375.94   c-0.26,0-0.49-0.21-0.5-0.48c-0.01-0.28,0.2-0.51,0.47-0.52l0.5-0.02c0.27,0,0.51,0.2,0.52,0.48c0.01,0.28-0.2,0.51-0.48,0.52   l-0.5,0.02C635.55,375.94,635.54,375.94,635.53,375.94z M639.03,375.77c-0.26,0-0.48-0.21-0.5-0.47c-0.01-0.28,0.2-0.51,0.47-0.53   l0.5-0.03c0.26-0.03,0.51,0.2,0.53,0.47c0.01,0.28-0.2,0.51-0.47,0.53l-0.5,0.03C639.05,375.77,639.04,375.77,639.03,375.77z    M642.52,375.58c-0.26,0-0.48-0.21-0.5-0.47c-0.02-0.28,0.19-0.51,0.47-0.53l0.5-0.03c0.29-0.02,0.51,0.2,0.53,0.47   c0.02,0.28-0.2,0.51-0.47,0.53l-0.5,0.03C642.54,375.58,642.53,375.58,642.52,375.58z M646.02,375.37c-0.26,0-0.48-0.2-0.5-0.47   c-0.02-0.28,0.19-0.51,0.47-0.53l0.5-0.03c0.28,0,0.51,0.19,0.53,0.47c0.02,0.28-0.19,0.51-0.47,0.53l-0.5,0.03   C646.04,375.37,646.03,375.37,646.02,375.37z M649.51,375.15c-0.26,0-0.48-0.2-0.5-0.47c-0.02-0.28,0.19-0.51,0.47-0.53l0.5-0.03   c0.28-0.01,0.51,0.19,0.53,0.47s-0.19,0.51-0.47,0.53l-0.5,0.03C649.53,375.15,649.52,375.15,649.51,375.15z M653,374.92   c-0.26,0-0.48-0.2-0.5-0.47c-0.02-0.28,0.19-0.51,0.47-0.53l0.5-0.03c0.29-0.02,0.51,0.19,0.53,0.46c0.02,0.28-0.19,0.51-0.46,0.53   l-0.5,0.04C653.03,374.92,653.01,374.92,653,374.92z M656.49,374.67c-0.26,0-0.48-0.2-0.5-0.46c-0.02-0.28,0.19-0.52,0.46-0.54   l0.5-0.04c0.28-0.02,0.52,0.19,0.54,0.46c0.02,0.28-0.19,0.52-0.46,0.54l-0.5,0.04C656.52,374.67,656.51,374.67,656.49,374.67z    M659.98,374.41c-0.26,0-0.48-0.2-0.5-0.46c-0.02-0.28,0.18-0.52,0.46-0.54l0.5-0.04c0.29-0.03,0.52,0.19,0.54,0.46   s-0.19,0.52-0.46,0.54l-0.5,0.04C660.01,374.41,660,374.41,659.98,374.41z M663.47,374.14c-0.26,0-0.48-0.2-0.5-0.46   c-0.02-0.27,0.18-0.52,0.46-0.54l0.5-0.04c0.28-0.02,0.52,0.18,0.54,0.46c0.02,0.28-0.18,0.52-0.46,0.54l-0.5,0.04   C663.5,374.14,663.49,374.14,663.47,374.14z"/>
	<path d="M608.04,376.62C608.04,376.62,608.04,376.62,608.04,376.62l-0.5,0c-0.28,0-0.5-0.23-0.5-0.5c0-0.28,0.22-0.5,0.5-0.5   c0,0,0,0,0,0l0.5,0c0.28,0,0.5,0.23,0.5,0.5C608.54,376.4,608.32,376.62,608.04,376.62z"/>
	<path d="M611.55,376.61C611.55,376.61,611.54,376.61,611.55,376.61l-0.5,0c-0.28,0-0.5-0.23-0.5-0.5c0-0.28,0.22-0.5,0.5-0.5   c0,0,0,0,0,0l0.5,0c0.28,0,0.5,0.23,0.5,0.5C612.04,376.39,611.82,376.61,611.55,376.61z"/>
	<path d="M618.55,376.52C618.55,376.52,618.55,376.52,618.55,376.52l-0.5,0.01c-0.28,0.01-0.51-0.21-0.51-0.49   c-0.01-0.28,0.21-0.5,0.49-0.51c0,0,0,0,0,0l0.5-0.01c0.28-0.01,0.51,0.21,0.51,0.49C619.05,376.28,618.83,376.51,618.55,376.52z"/>
	<path d="M622.04,376.44C622.04,376.44,622.04,376.44,622.04,376.44l-0.5,0.01c-0.28,0.01-0.51-0.21-0.51-0.49   c-0.01-0.28,0.21-0.5,0.49-0.51c0,0,0,0,0,0l0.5-0.01c0.28-0.01,0.51,0.21,0.51,0.49C622.53,376.2,622.32,376.43,622.04,376.44z"/>
	<path d="M625.54,376.34C625.54,376.34,625.54,376.34,625.54,376.34l-0.5,0.01c-0.28,0.01-0.51-0.21-0.51-0.49   c-0.01-0.28,0.21-0.5,0.49-0.51c0,0,0,0,0,0l0.5-0.01c0.28-0.01,0.51,0.21,0.51,0.49C626.03,376.1,625.81,376.33,625.54,376.34z"/>
	<path d="M629.05,376.21C629.05,376.21,629.05,376.21,629.05,376.21l-0.5,0.01c-0.28,0.01-0.51-0.21-0.51-0.49   c-0.01-0.28,0.21-0.5,0.49-0.51c0,0,0,0,0,0l0.5-0.01c0.28-0.01,0.51,0.21,0.51,0.49C629.55,375.98,629.33,376.21,629.05,376.21z"/>
</g>
<g>
	<path d="M607.53,366.55l-0.5,0c-0.28,0-0.5-0.23-0.5-0.5c0-0.28,0.22-0.5,0.5-0.5c0,0,0,0,0,0l0.5,0c0.28,0,0.5,0.22,0.5,0.5   S607.81,366.55,607.53,366.55z M604.03,366.52C604.03,366.52,604.02,366.52,604.03,366.52l-0.51-0.01c-0.28,0-0.5-0.23-0.49-0.51   s0.22-0.52,0.51-0.49l0.5,0.01c0.28,0,0.5,0.23,0.49,0.51C604.53,366.3,604.3,366.52,604.03,366.52z M614.03,366.5   c-0.27,0-0.5-0.22-0.5-0.49c0-0.28,0.22-0.5,0.49-0.51l0.5-0.01c0.24,0,0.5,0.22,0.51,0.49c0,0.28-0.22,0.5-0.49,0.51L614.03,366.5   C614.04,366.5,614.04,366.5,614.03,366.5z M600.53,366.45c-0.01,0-0.01,0-0.02,0l-0.5-0.01c-0.28-0.01-0.49-0.24-0.49-0.51   c0.01-0.28,0.28-0.47,0.51-0.49l0.5,0.01c0.28,0.01,0.49,0.24,0.49,0.51C601.02,366.24,600.8,366.45,600.53,366.45z M617.54,366.43   c-0.27,0-0.49-0.22-0.5-0.49c-0.01-0.28,0.21-0.5,0.49-0.51l0.5-0.01c0.3-0.01,0.5,0.21,0.51,0.49s-0.21,0.5-0.49,0.51l-0.5,0.01   C617.55,366.43,617.54,366.43,617.54,366.43z M621.04,366.35c-0.27,0-0.49-0.21-0.5-0.49c-0.01-0.28,0.21-0.51,0.49-0.51l0.5-0.01   c0.27,0,0.51,0.21,0.51,0.49c0.01,0.28-0.21,0.51-0.49,0.51l-0.5,0.01C621.05,366.35,621.05,366.35,621.04,366.35z M597.03,366.32   c-0.01,0-0.02,0-0.03,0l-0.5-0.03c-0.28-0.02-0.49-0.25-0.47-0.53c0.02-0.28,0.25-0.49,0.53-0.47l0.5,0.03   c0.28,0.01,0.49,0.25,0.47,0.53C597.52,366.11,597.3,366.32,597.03,366.32z M624.54,366.25c-0.27,0-0.49-0.21-0.5-0.49   c-0.01-0.28,0.21-0.51,0.49-0.51l0.5-0.02c0.24-0.04,0.51,0.21,0.52,0.48c0.01,0.28-0.21,0.51-0.48,0.52l-0.5,0.02   C624.55,366.25,624.55,366.25,624.54,366.25z M628.04,366.14c-0.27,0-0.49-0.21-0.5-0.48c-0.01-0.28,0.21-0.51,0.48-0.52l0.5-0.02   c0.25-0.01,0.51,0.21,0.52,0.48c0.01,0.28-0.21,0.51-0.48,0.52l-0.5,0.02C628.06,366.14,628.05,366.14,628.04,366.14z    M631.54,366.01c-0.27,0-0.49-0.21-0.5-0.48c-0.01-0.28,0.2-0.51,0.48-0.52l0.5-0.02c0.27-0.03,0.51,0.2,0.52,0.48   s-0.2,0.51-0.48,0.52l-0.5,0.02C631.56,366.01,631.55,366.01,631.54,366.01z M635.04,365.86c-0.27,0-0.49-0.21-0.5-0.48   c-0.01-0.28,0.2-0.51,0.48-0.52l0.5-0.02c0.27-0.01,0.51,0.2,0.52,0.48s-0.2,0.51-0.48,0.52l-0.5,0.02   C635.06,365.86,635.05,365.86,635.04,365.86z M638.54,365.71c-0.27,0-0.49-0.21-0.5-0.48c-0.01-0.28,0.2-0.51,0.48-0.52l0.5-0.02   c0.28-0.01,0.51,0.2,0.52,0.48s-0.2,0.51-0.48,0.52l-0.5,0.02C638.56,365.71,638.55,365.71,638.54,365.71z M642.04,365.55   c-0.27,0-0.49-0.21-0.5-0.48c-0.01-0.28,0.2-0.51,0.48-0.52l0.5-0.02c0.26-0.02,0.51,0.2,0.52,0.47c0.01,0.28-0.2,0.51-0.47,0.52   l-0.5,0.02C642.06,365.55,642.05,365.55,642.04,365.55z M645.55,365.37c-0.26,0-0.48-0.21-0.5-0.47c-0.01-0.28,0.2-0.51,0.47-0.53   l0.45-0.02c0.28,0.01,0.54,0.2,0.55,0.47c0.01,0.28-0.17,0.51-0.45,0.52l-0.05,0l-0.45,0.02   C645.56,365.37,645.55,365.37,645.55,365.37z M649.04,365.19c-0.26,0-0.48-0.21-0.5-0.47c-0.02-0.28,0.2-0.51,0.47-0.53l0.42-0.02   c0.26-0.02,0.55,0.19,0.57,0.47c0.01,0.28-0.16,0.51-0.43,0.52l-0.08,0l-0.42,0.02C649.06,365.19,649.05,365.19,649.04,365.19z    M652.54,365c-0.26,0-0.48-0.21-0.5-0.47c-0.02-0.28,0.19-0.51,0.47-0.53l0.5-0.03c0.27-0.02,0.51,0.19,0.53,0.47   s-0.2,0.51-0.47,0.53l-0.5,0.03C652.56,365,652.55,365,652.54,365z M656.04,364.8c-0.26,0-0.48-0.2-0.5-0.47   c-0.02-0.28,0.19-0.51,0.47-0.53l0.5-0.03c0.28-0.01,0.51,0.19,0.53,0.47c0.02,0.28-0.19,0.51-0.47,0.53l-0.5,0.03   C656.06,364.8,656.06,364.8,656.04,364.8z"/>
	<path d="M610.52,365.52l0.5,0c0.28,0,0.5,0.22,0.5,0.5s-0.22,0.5-0.5,0.5l-0.5,0c-0.28,0-0.5-0.23-0.5-0.5   C610.01,365.75,610.24,365.52,610.52,365.52C610.51,365.52,610.51,365.52,610.52,365.52"/>
</g>
<path d="M653.23,353.25c-0.03,0-0.06,0-0.1-0.01c-0.27-0.05-0.45-0.32-0.4-0.59c0.03-0.15,0.07-0.32,0.11-0.51  c0.07-0.27,0.34-0.43,0.6-0.37c0.27,0.07,0.43,0.34,0.37,0.6c-0.04,0.18-0.08,0.33-0.1,0.46  C653.68,353.08,653.47,353.25,653.23,353.25z M654.43,349.97c-0.08,0-0.17-0.02-0.25-0.06c-0.24-0.14-0.33-0.44-0.19-0.68  c0.08-0.15,0.18-0.3,0.27-0.45c0.15-0.23,0.46-0.3,0.69-0.15c0.23,0.15,0.3,0.46,0.15,0.69c-0.09,0.14-0.17,0.27-0.24,0.41  C654.78,349.88,654.61,349.97,654.43,349.97z M656.7,347.33c-0.14,0-0.29-0.06-0.38-0.18c-0.18-0.21-0.15-0.53,0.06-0.7  c0.13-0.11,0.27-0.22,0.4-0.33c0.22-0.17,0.53-0.13,0.7,0.09c0.17,0.22,0.13,0.53-0.09,0.7c-0.13,0.1-0.25,0.2-0.38,0.3  C656.92,347.29,656.81,347.33,656.7,347.33z M659.62,345.41c-0.18,0-0.36-0.1-0.44-0.27c-0.13-0.25-0.03-0.55,0.22-0.67  c0.15-0.08,0.31-0.16,0.46-0.23c0.25-0.12,0.55-0.01,0.67,0.23c0.12,0.25,0.01,0.55-0.23,0.67c-0.15,0.07-0.29,0.14-0.44,0.22  C659.77,345.39,659.7,345.41,659.62,345.41z M662.87,344.12c-0.22,0-0.42-0.14-0.48-0.36c-0.08-0.27,0.08-0.54,0.34-0.62  c0.17-0.05,0.34-0.09,0.5-0.13c0.27-0.07,0.54,0.1,0.6,0.37c0.07,0.27-0.1,0.54-0.37,0.6c-0.15,0.04-0.31,0.08-0.47,0.12  C662.96,344.12,662.91,344.12,662.87,344.12z M666.76,343.99c-0.12,0-0.24-0.04-0.34-0.13c-0.02-0.01-0.08-0.06-0.24-0.1  c-0.27-0.07-0.43-0.35-0.35-0.61c0.07-0.27,0.35-0.42,0.61-0.35c0.27,0.07,0.49,0.18,0.65,0.33c0.2,0.19,0.22,0.5,0.03,0.71  C667.03,343.94,666.9,343.99,666.76,343.99z"/>
<path d="M735.65,398.98c-0.25,0-0.47-0.19-0.5-0.45c-0.03-0.27,0.17-0.52,0.45-0.55l0.5-0.05c0.27-0.02,0.52,0.17,0.55,0.45  c0.03,0.27-0.17,0.52-0.45,0.55l-0.5,0.05C735.69,398.98,735.67,398.98,735.65,398.98z M739.13,398.59c-0.25,0-0.46-0.18-0.49-0.43  c-0.04-0.27,0.16-0.53,0.43-0.56l0.49-0.07c0.26-0.04,0.53,0.15,0.56,0.43c0.04,0.27-0.15,0.53-0.43,0.56l-0.5,0.07  C739.18,398.59,739.16,398.59,739.13,398.59z M742.6,398.05c-0.24,0-0.45-0.17-0.49-0.41c-0.05-0.27,0.13-0.53,0.4-0.58l0.49-0.09  c0.27-0.05,0.53,0.13,0.58,0.4c0.05,0.27-0.13,0.53-0.4,0.58l-0.5,0.09C742.66,398.05,742.63,398.05,742.6,398.05z M746.02,397.31  c-0.22,0-0.43-0.15-0.48-0.37c-0.07-0.27,0.09-0.54,0.36-0.61l0.48-0.13c0.27-0.08,0.54,0.09,0.61,0.35  c0.07,0.27-0.08,0.54-0.35,0.61l-0.49,0.13C746.1,397.31,746.06,397.31,746.02,397.31z"/>
<path d="M737.04,403.39c-0.25,0-0.47-0.19-0.5-0.45c-0.03-0.27,0.17-0.52,0.45-0.55l0.5-0.05c0.28-0.03,0.52,0.17,0.55,0.44  c0.03,0.27-0.17,0.52-0.44,0.55l-0.51,0.05C737.07,403.38,737.05,403.39,737.04,403.39z M740.52,402.96c-0.25,0-0.46-0.18-0.49-0.43  c-0.04-0.27,0.15-0.53,0.43-0.56l0.5-0.07c0.27-0.04,0.53,0.15,0.56,0.43c0.04,0.27-0.15,0.53-0.43,0.56l-0.5,0.07  C740.57,402.96,740.55,402.96,740.52,402.96z M743.99,402.44c-0.24,0-0.45-0.17-0.49-0.42c-0.04-0.27,0.14-0.53,0.41-0.57l0.49-0.08  c0.27-0.05,0.53,0.14,0.58,0.41c0.05,0.27-0.14,0.53-0.41,0.58l-0.5,0.08C744.05,402.44,744.02,402.44,743.99,402.44z   M747.44,401.83c-0.23,0-0.44-0.17-0.49-0.4c-0.05-0.27,0.12-0.53,0.4-0.59l0.49-0.1c0.27-0.05,0.53,0.12,0.59,0.39  c0.05,0.27-0.12,0.53-0.39,0.59l-0.49,0.1C747.51,401.83,747.48,401.83,747.44,401.83z M750.87,401.1c-0.23,0-0.43-0.15-0.49-0.38  c-0.06-0.27,0.1-0.54,0.37-0.6l0.48-0.12c0.27-0.07,0.54,0.1,0.6,0.37c0.07,0.27-0.1,0.54-0.37,0.6l-0.49,0.12  C750.95,401.09,750.91,401.1,750.87,401.1z M754.25,400.18c-0.21,0-0.41-0.14-0.48-0.35c-0.08-0.26,0.07-0.54,0.33-0.62l0.47-0.15  c0.27-0.08,0.54,0.06,0.63,0.32c0.08,0.26-0.06,0.54-0.32,0.63l-0.49,0.15C754.35,400.17,754.3,400.18,754.25,400.18z   M757.53,398.95c-0.19,0-0.37-0.11-0.45-0.29c-0.12-0.25-0.01-0.55,0.24-0.66l0.36-0.17c0.25-0.12,0.55-0.02,0.67,0.23  s0.02,0.55-0.23,0.67l-0.37,0.18C757.68,398.93,757.61,398.95,757.53,398.95z"/>
<path d="M645.51,404.63c-0.06,0-0.12-0.01-0.19-0.04c-0.26-0.1-0.38-0.39-0.28-0.65l0.19-0.47c0.1-0.26,0.4-0.38,0.65-0.27  c0.26,0.1,0.38,0.4,0.27,0.65l-0.19,0.46C645.89,404.52,645.71,404.63,645.51,404.63z M646.89,401.42c-0.07,0-0.14-0.01-0.21-0.04  c-0.25-0.11-0.36-0.41-0.25-0.66l0.21-0.46c0.12-0.25,0.41-0.36,0.66-0.24c0.25,0.12,0.36,0.41,0.24,0.66l-0.21,0.45  C647.26,401.31,647.08,401.42,646.89,401.42z M648.4,398.26c-0.08,0-0.15-0.02-0.22-0.05c-0.25-0.12-0.35-0.42-0.22-0.67l0.23-0.45  c0.13-0.25,0.43-0.34,0.67-0.22c0.25,0.13,0.34,0.43,0.22,0.67l-0.23,0.44C648.76,398.16,648.59,398.26,648.4,398.26z   M650.04,395.16c-0.08,0-0.16-0.02-0.24-0.06c-0.24-0.13-0.33-0.44-0.2-0.68l0.24-0.44c0.13-0.24,0.44-0.33,0.68-0.19  c0.24,0.13,0.33,0.44,0.19,0.68l-0.24,0.44C650.39,395.07,650.22,395.16,650.04,395.16z M651.78,392.13c-0.09,0-0.18-0.02-0.26-0.07  c-0.24-0.14-0.31-0.45-0.17-0.69l0.26-0.43c0.14-0.24,0.45-0.31,0.69-0.17c0.24,0.14,0.31,0.45,0.17,0.69l-0.26,0.43  C652.12,392.04,651.95,392.13,651.78,392.13z M653.63,389.15c-0.09,0-0.19-0.03-0.27-0.08c-0.23-0.15-0.3-0.46-0.15-0.69l0.27-0.42  c0.15-0.23,0.46-0.29,0.69-0.15c0.23,0.15,0.3,0.46,0.15,0.69l-0.27,0.42C653.96,389.07,653.79,389.15,653.63,389.15z   M655.58,386.24c-0.1,0-0.2-0.03-0.29-0.09c-0.23-0.16-0.28-0.47-0.12-0.7l0.29-0.41c0.16-0.23,0.47-0.28,0.7-0.12  c0.23,0.16,0.28,0.47,0.12,0.7l-0.29,0.41C655.9,386.17,655.74,386.24,655.58,386.24z M657.64,383.41c-0.11,0-0.21-0.03-0.3-0.1  c-0.22-0.17-0.26-0.48-0.09-0.7l0.31-0.4c0.17-0.22,0.48-0.26,0.7-0.09c0.22,0.17,0.26,0.48,0.09,0.7l-0.3,0.4  C657.94,383.34,657.79,383.41,657.64,383.41z M659.83,380.67c-0.11,0-0.23-0.04-0.32-0.12c-0.21-0.18-0.24-0.49-0.06-0.7l0.32-0.39  c0.18-0.21,0.49-0.24,0.7-0.06c0.21,0.18,0.24,0.49,0.06,0.7l-0.32,0.38C660.11,380.61,659.97,380.67,659.83,380.67z M662.15,378.05  c-0.12,0-0.25-0.04-0.34-0.14c-0.2-0.19-0.21-0.51-0.02-0.71l0.35-0.37c0.19-0.2,0.51-0.21,0.71-0.01c0.2,0.19,0.21,0.51,0.01,0.71  l-0.34,0.36C662.41,378,662.28,378.05,662.15,378.05z M664.63,375.59c-0.14,0-0.27-0.05-0.37-0.16c-0.19-0.2-0.17-0.52,0.03-0.71  l0.38-0.34c0.21-0.18,0.52-0.17,0.71,0.04c0.18,0.21,0.17,0.52-0.04,0.71l-0.37,0.33C664.87,375.54,664.75,375.59,664.63,375.59z"/>
</svg>