<svg xmlns="http://www.w3.org/2000/svg" xmlns:xlink="http://www.w3.org/1999/xlink" version="1.1" id="Layer_1" x="0px" y="0px" style="enable-background:new 0 0 1440 768;" xml:space="preserve" viewBox="624.73 353.59 190.37 61.04"><style type="text/css">	.st0{fill:#FFFFFF;}	.st1{fill:#0F0F10;}</style><g>	<path class="st0" d="M813.4,389.15c0,0-0.06,0.05-0.21,0.15c-0.68-1.24-1.62-2.43-1.66-2.48c-0.49-0.76-2.08-1.21-2.52-1.1   c0,0-0.08,0.07-0.39,0.21c-0.85-0.2-2.01-0.35-3.6-0.43c-9.15-0.44-23.89-2.29-33.34-4.65c-9.54-2.39-15.99-5.07-22.21-7.68   c-6.35-2.66-14.1-6.86-16.61-8.48c-2.51-1.62-15.94-8.85-17.71-9.45c-0.24-0.08-0.47-0.13-0.7-0.17c0.03-0.03,0.05-0.06,0.08-0.09   c0,0-0.98-0.45-1.8-0.64c-0.82-0.2-2.4-0.89-3.61,1.44c-1.38,2.51-1.83,4.83-1.36,7.01c0.63,2.95,2.92,5.43,6.81,7.37   c6.26,3.13,9.73,4.79,13.48,6.59c2.07,0.99,4.43,2.31,4.18,3.8c-0.05,0.28-0.17,0.54-0.4,0.78l0.01-0.07   c-3.69-1.77-15.5-6.2-20.52-8.12c-5.02-1.92-9.15-3.4-18.45-3.54c-13.6-0.22-15.82,0.9-29.67-2.2c-11.22-2.51-19.61-5.39-21.84-6.2   c-5.7-2.07-8.33-2.1-9.49-0.77c-0.06,0.06-0.12,0.1-0.19,0.17c-0.83,0.89-2.85,4.62-3.25,9.38c-0.05-0.01-0.11-0.03-0.16-0.04   c0,0-0.64,1.15-0.94,2.77c-0.56,3.11-0.41,12.41,0.21,19.55c-0.15,0-0.32,0-0.46-0.01c-0.5-0.01-1.2,4.16-1.19,4.3   c0,0.06-0.02,0.95,0.03,1.44c0,0.03,0,0.05,0,0.08c-0.02-0.01-0.03-0.03-0.03-0.04l-0.05-0.19c-0.37,0.29-0.38,0.59-0.36,0.7   c0.94,4.67,2.15,11.5,2.28,12.3c0.13,0.8,2.24,1.13,3.48,1.13c1.12,0,72.89,1.21,108.57,1.79c-0.03,0.11-0.07,0.22-0.1,0.33   c0,0,14.05-0.2,14.63-0.19c30.8,0.49,53.05-6.23,55.93-7.25c1.28-0.46,2.11-0.86,2.1-1.76c-0.03-4.79,1.95-10.2,2.17-11.41   C814.78,392.16,813.54,389.12,813.4,389.15z"></path></g><path class="st1" d="M813.78,388.8l-0.21-0.19l-0.17,0.04c-0.43-0.73-0.95-1.46-1.45-2.11c-0.63-0.95-2.43-1.45-3.05-1.3l-0.09,0.01  l-0.09,0.08c-0.01,0-0.05,0.03-0.15,0.08c-0.88-0.2-2.02-0.34-3.51-0.41c-8.95-0.43-23.83-2.29-33.24-4.64  c-9.57-2.4-15.96-5.07-22.13-7.65c-6.49-2.72-14.21-6.94-16.53-8.44c-2.55-1.65-16.02-8.9-17.82-9.5c-0.03-0.01-0.05-0.01-0.08-0.02  l-0.48-0.22c-0.04-0.02-1.03-0.47-1.89-0.67l-0.22-0.06c-0.86-0.24-2.66-0.73-3.95,1.74c-1.45,2.63-1.91,5.03-1.41,7.36  c0.21,1,0.63,1.94,1.2,2.84l-3.94,4.67c-2.96-0.71-6.57-1.22-11.67-1.3c-3.41-0.05-6.09-0.02-8.46,0  c-6.96,0.08-10.79,0.12-21.11-2.19c-12.07-2.7-20.82-5.83-21.78-6.18c-5.51-2-8.53-2.25-9.96-0.72c-0.01,0.01-0.02,0.02-0.04,0.03  c0,0-0.01,0.01-0.01,0.01c-0.07,0.07-0.14,0.14-0.2,0.2c-0.79,0.85-2.8,4.46-3.32,9.16l-0.16,0.28c-0.03,0.05-0.69,1.24-0.99,2.93  c-0.58,3.21-0.39,12.39,0.16,19.15c-0.12,0.01-0.25,0.05-0.39,0.2c-0.66,0.68-1.23,4.46-1.22,4.69c0,0.2-0.01,0.57,0,0.93  c-0.37,0.36-0.46,0.78-0.4,1.06c0.09,0.44,0.18,0.9,0.27,1.38c-0.06,0.03-0.13,0.07-0.22,0.12l0,0l-0.34,0.14l0.02,0.06l0,0  l0.6,2.17c0.65,2.76,1.18,6.22,1.2,6.32c0.08,0.26,0.26,0.44,0.47,0.51c0.15,0.82,0.24,1.39,0.28,1.59  c0.25,1.53,3.83,1.55,3.98,1.55c0.65,0,26.36,0.43,53.57,0.88c19.2,0.32,39.69,0.66,54.35,0.9l-0.09,0.35l0.65-0.01  c0.14,0,14.06-0.21,14.61-0.19c33.13,0.52,55.88-7.2,56.1-7.28c1.03-0.37,2.44-0.87,2.43-2.23c-0.02-3.62,1.14-7.66,1.77-9.83  c0.2-0.69,0.34-1.18,0.4-1.49l0-0.01C815.28,392.16,814.13,389.15,813.78,388.8z M708.27,362.69c-0.45-2.08-0.02-4.26,1.31-6.68  c0.92-1.77,1.96-1.48,2.8-1.25l0.18,0.05l0.07,0.02c0.26,0.06,0.53,0.15,0.78,0.24l0,0c0.06,0.02,0.15,0.05,0.25,0.09  c0.01,0,0.02,0.01,0.02,0.01c0,0,0,0,0,0c0.46,0.18,1.22,0.5,1.5,0.62c2.32,0.93,15.05,7.79,17.41,9.32  c2.35,1.52,10.14,5.78,16.69,8.52c6.21,2.6,12.63,5.29,22.28,7.7c9.83,2.46,24.56,4.24,33.43,4.67c0.62,0.03,1.16,0.07,1.65,0.12  c-0.31,0.1-0.65,0.2-1.06,0.32l-0.9,0.26c-7.87,2.29-24.27,7.04-55.21,6.71c-9.11-0.23-18.62-0.42-28.13-0.59  c-0.74-0.01-1.47-0.03-2.21-0.04c-3.76-0.06-7.51-0.12-11.24-0.18c0.01,0,0.01,0,0.02-0.01l-2.51-0.03l0,0c-0.14,0-0.28,0-0.42-0.01  c-0.65-0.01-1.3-0.02-1.95-0.03c-0.78-0.01-1.55-0.02-2.33-0.03c3.58-2.25,6.95-3.65,9.57-4.5c4.4-1.44,7.74-2.21,11.29-3.03  c1.48-0.34,3.12-0.72,4.92-1.17c0.52-0.13,1.04-0.26,1.58-0.4c0.54-0.14,1.01-0.28,1.44-0.41c0.23-0.07,0.46-0.14,0.66-0.21  c0,0,0,0,0,0l0,0c0.24-0.08,0.45-0.17,0.65-0.26c0.16-0.07,0.3-0.14,0.43-0.21c0.1-0.05,0.21-0.1,0.3-0.15  c0.33-0.2,0.58-0.41,0.76-0.63c0.22-0.27,0.35-0.56,0.41-0.89c0.31-1.78-1.96-3.13-4.45-4.33c-3.7-1.78-7.2-3.46-13.47-6.59  c-2.26-1.13-3.95-2.44-5.07-3.92c-0.21-0.28-0.41-0.57-0.58-0.87C708.74,364.22,708.43,363.47,708.27,362.69z M711.63,383.14  l12.51-3.14l0.67,3.18c-0.16,0.05-0.31,0.09-0.47,0.13c-1.04,0.25-2.03,0.48-3.01,0.7c-2.9,0.67-5.67,1.31-8.99,2.31L711.63,383.14z   M724.93,378.91c2.4,0.95,4.55,1.83,5.97,2.47c-0.21,0.11-0.46,0.23-0.77,0.35c-0.17,0.06-0.36,0.13-0.56,0.2  c-0.32,0.11-0.68,0.22-1.1,0.33c-0.13,0.04-0.26,0.07-0.4,0.11c-0.08,0.02-0.16,0.04-0.25,0.07c-0.45,0.12-0.88,0.22-1.3,0.33  c-0.25,0.06-0.49,0.12-0.74,0.18L724.93,378.91z M709.08,366.57c1.21,1.53,2.96,2.88,5.28,4.04c6.28,3.14,9.78,4.82,13.48,6.6  c1.13,0.54,4.12,1.98,3.9,3.26c-0.01,0.06-0.03,0.12-0.05,0.17c-3.44-1.59-11.94-4.83-17.64-7l-2.55-0.97  c-1.87-0.72-3.71-1.41-5.88-2L709.08,366.57z M627.83,372.8c0.02-0.12,0.05-0.23,0.08-0.34c0.19-0.86,0.47-1.57,0.64-1.95l0.38-0.51  l0.11-0.85l0,0c0.36-2.78,1.25-5.19,2.04-6.71c0.37-0.71,0.71-1.23,0.96-1.5c0.09-0.1,0.16-0.17,0.23-0.22  c0.29-0.32,0.74-0.57,1.45-0.66c0.2-0.03,0.4-0.04,0.64-0.04c1.37,0,3.48,0.44,6.81,1.65c0.96,0.35,9.77,3.5,21.91,6.22  c10.43,2.33,14.3,2.29,21.34,2.21c2.36-0.03,5.03-0.06,8.43,0c4.77,0.08,8.17,0.51,10.97,1.14c0.37,0.08,5.28,1.59,7.31,2.36  l2.55,0.97c3.08,1.17,7.32,2.78,11.01,4.24l-14.26,3.58l0.93,4.21c-0.46,0.14-0.92,0.29-1.4,0.44c-2.99,0.97-6.92,2.64-11.05,5.43  c-13.83-0.19-27.01-0.32-38.31-0.42c0,0,0,0,0,0l-1.1-0.01c0,0,0,0,0,0c-6.33-0.06-12.05-0.1-16.91-0.14c-0.58,0-1.14-0.01-1.7-0.01  c-0.42,0-0.84-0.01-1.24-0.01c-5.06-0.04-9.05-0.08-11.65-0.11C627.41,384.52,627.31,375.7,627.83,372.8z M627.13,393.15  c0.05-0.16,0.1-0.29,0.15-0.39c0.25,0,0.54,0.01,0.82,0.01c2.74,0.03,25.36,0.22,31.87,0.28c0.37,0,0.72,0.01,1.09,0.01  c10.82,0.1,23.33,0.23,36.47,0.4c0.56,0.01,1.13,0.02,1.69,0.02c0.74,0.01,1.48,0.02,2.23,0.03c0.62,0.01,1.24,0.02,1.87,0.03  c0.18,0,0.36,0.01,0.55,0.01c0.68,0.01,1.36,0.02,2.05,0.03c3.77,0.06,7.58,0.11,11.39,0.18c0.69,0.01,1.38,0.02,2.07,0.03  c10.17,0.17,20.36,0.38,30.1,0.62c31.09,0.33,47.59-4.45,55.51-6.75l0.9-0.26c1.46-0.42,2.31-0.73,2.81-0.95  c0.25-0.11,0.41-0.19,0.52-0.25c0,0,0,0,0,0c0.38,0,1.57,0.35,1.92,0.89l0.07,0.1c0.05,0.06,0.09,0.12,0.14,0.19  c0.32,0.42,0.61,0.83,0.86,1.22c-0.24,0.08-0.49,0.14-0.73,0.22c-0.32,0.1-0.64,0.19-0.96,0.29c-28.99,8.56-63.22,7.51-63.58,7.5  l-31.79-0.47l-1.88-0.03l-11.41-0.17l-1.78-0.03l-0.41-0.01l-1.65-0.02l-1.92-0.03l-1.52-0.02l-67.87-1.01  C626.84,394.19,626.99,393.57,627.13,393.15z M626.4,396.67v-0.09c0.01-0.13,0.06-0.42,0.12-0.79l16.37,0.24l1.29,0.02l49.32,0.74  l1.46,0.02l1.87,0.03l1.52,0.02l0.32,0l1.7,0.03l11.34,0.17l1.81,0.03l33.37,0.5c0.07,0,1.54,0.05,4.09,0.05  c9.56,0,34.26-0.65,56.71-6.71c-0.68,0.21-1.45,0.44-2.31,0.68c-0.51,0.14-1.05,0.3-1.64,0.47c-7.17,2.08-20.52,5.94-48.04,6.8  c-1.45,0.05-2.91,0.4-4.32,0.98c-13.08-0.2-27.19-0.42-41.1-0.64c-0.56-0.01-1.12-0.02-1.68-0.03c-4.05-0.06-8.08-0.13-12.06-0.19  c-0.34-0.01-0.68-0.01-1.02-0.02c-0.29,0-0.57-0.01-0.85-0.01c-0.41-0.01-0.83-0.01-1.24-0.02c-18.07-0.29-34.88-0.55-47.47-0.75  c-0.45-0.01-0.88-0.01-1.31-0.02c-1.11-0.02-2.2-0.04-3.23-0.05c-9.11-0.15-13.89-0.25-15-0.43  C626.39,397.34,626.39,396.88,626.4,396.67z M739.45,413.27c-14.67-0.24-35.29-0.58-54.61-0.91c-28.4-0.47-52.93-0.88-53.59-0.88  c-1.54,0-2.91-0.43-2.99-0.71c-0.03-0.17-0.11-0.62-0.22-1.25c0.25,0.04,0.45,0.08,0.45,0.08l0.19,0.03l0.12,0.04l0.02-0.02  l0.38,0.07l-0.06-0.31l0.27-0.21l-0.06-0.3c-0.05-0.24-1.15-5.84-1.92-8.51l-0.1-0.33l-0.35-0.03c-0.32-0.02-0.55-0.06-0.73-0.08  c-0.04-0.21-0.08-0.42-0.12-0.62c-0.04-0.22-0.09-0.45-0.13-0.66c0.33,0.07,0.86,0.13,1.72,0.18c2.04,0.12,5.97,0.19,13.66,0.31  c1.3,0.02,2.68,0.04,4.1,0.07c0.44,0.01,0.88,0.01,1.33,0.02c12.95,0.21,30.15,0.48,48.54,0.77c0.34,0.01,0.68,0.01,1.01,0.02  c3.6,0.06,7.25,0.11,10.92,0.17c0.54,0.01,1.08,0.02,1.62,0.03c13.66,0.21,27.56,0.43,40.52,0.63c-0.7,0.41-1.39,0.88-2.05,1.38  c-0.17,0.13-0.35,0.25-0.52,0.39c-0.27,0.22-0.53,0.46-0.79,0.69c-0.12,0.11-0.25,0.21-0.38,0.33  C742.76,406.36,740.47,409.89,739.45,413.27z M814.07,393.42c-0.05,0.26-0.19,0.76-0.38,1.39c-0.26,0.92-0.62,2.17-0.95,3.57  c-0.09,0.37-0.17,0.74-0.25,1.12c-0.35,1.72-0.62,3.61-0.61,5.41c0,0.5-0.41,0.8-1.77,1.28c-0.22,0.08-22.79,7.74-55.75,7.22  c-0.24,0-2.68,0.03-5.51,0.06c-3.23,0.04-6.96,0.1-8.47,0.12c0.03-0.1,0.07-0.21,0.11-0.31c1.11-3.49,3.62-7.11,6.74-9.71  c0.15-0.12,0.3-0.23,0.46-0.35c0.3-0.23,0.59-0.47,0.9-0.68c0.21-0.15,0.44-0.28,0.66-0.41c0.75-0.48,1.52-0.92,2.31-1.25  c0.94-0.4,1.9-0.7,2.86-0.86c0.44-0.07,0.88-0.12,1.32-0.13c27.65-0.87,41.08-4.75,48.29-6.84c0.58-0.17,1.12-0.33,1.63-0.47  c2.36-0.66,4.03-1.22,5.22-1.68c0.36-0.14,0.68-0.27,0.96-0.38c0.49-0.21,0.87-0.38,1.14-0.53c0.09-0.05,0.17-0.09,0.24-0.13  c0.21,0.49,0.51,1.35,0.69,2.14C814.05,392.55,814.12,393.06,814.07,393.42z"></path><path d="M706.38,386.41c-0.05,0-0.09-0.01-0.14-0.02l-0.48-0.13c-0.27-0.07-0.42-0.35-0.35-0.62c0.07-0.27,0.35-0.42,0.62-0.35  l0.48,0.14c0.27,0.08,0.42,0.35,0.34,0.62C706.8,386.27,706.6,386.41,706.38,386.41z M703,385.49c-0.04,0-0.08,0-0.13-0.02  l-0.48-0.12c-0.27-0.07-0.43-0.34-0.36-0.61c0.07-0.27,0.34-0.43,0.61-0.36l0.49,0.12c0.27,0.07,0.43,0.34,0.36,0.61  C703.43,385.35,703.22,385.49,703,385.49z M699.6,384.67c-0.04,0-0.07,0-0.11-0.01l-0.49-0.11c-0.27-0.06-0.44-0.33-0.38-0.6  s0.33-0.44,0.6-0.38l0.49,0.11c0.27,0.06,0.44,0.33,0.38,0.6C700.04,384.51,699.83,384.67,699.6,384.67z M696.17,383.95  c-0.03,0-0.06,0-0.09-0.01l-0.49-0.09c-0.27-0.05-0.45-0.31-0.4-0.58c0.05-0.27,0.31-0.46,0.58-0.4l0.49,0.09  c0.27,0.05,0.45,0.31,0.4,0.58C696.62,383.79,696.41,383.95,696.17,383.95z M692.72,383.37c-0.02,0-0.05,0-0.07-0.01l-0.49-0.07  c-0.27-0.04-0.46-0.29-0.42-0.57c0.04-0.27,0.29-0.46,0.57-0.42l0.5,0.07c0.27,0.04,0.46,0.29,0.42,0.57  C693.18,383.19,692.97,383.37,692.72,383.37z M689.25,382.93c-0.02,0-0.03,0-0.05,0l-0.49-0.05c-0.27-0.03-0.48-0.27-0.45-0.54  c0.03-0.27,0.27-0.48,0.54-0.45l0.5,0.05c0.27,0.03,0.47,0.27,0.45,0.55C689.72,382.74,689.5,382.93,689.25,382.93z M685.76,382.66  c-0.01,0-0.02,0-0.03,0l-0.49-0.02c-0.28-0.01-0.49-0.25-0.48-0.52s0.25-0.49,0.52-0.48l0.5,0.02c0.28,0.01,0.49,0.25,0.47,0.52  C686.25,382.45,686.03,382.66,685.76,382.66z M682.27,382.56c0,0-0.01,0-0.01,0l-0.5-0.01c-0.28-0.01-0.49-0.24-0.49-0.51  c0.01-0.28,0.22-0.49,0.51-0.49l0.5,0.01c0.28,0.01,0.49,0.24,0.49,0.51C682.76,382.34,682.54,382.56,682.27,382.56z M678.77,382.45  c-0.01,0-0.01,0-0.02,0l-0.5-0.02c-0.28-0.01-0.49-0.24-0.48-0.52s0.24-0.51,0.52-0.48l0.5,0.02c0.28,0.01,0.49,0.24,0.48,0.52  C679.26,382.24,679.04,382.45,678.77,382.45z M675.27,382.28c-0.01,0-0.02,0-0.03,0l-0.5-0.03c-0.28-0.02-0.49-0.25-0.47-0.53  c0.02-0.28,0.26-0.48,0.53-0.47l0.5,0.03c0.28,0.02,0.49,0.25,0.47,0.53C675.76,382.08,675.54,382.28,675.27,382.28z M671.78,382.04  c-0.01,0-0.03,0-0.04,0l-0.5-0.04c-0.28-0.02-0.48-0.26-0.46-0.54c0.02-0.27,0.26-0.47,0.54-0.46l0.5,0.04  c0.27,0.02,0.48,0.26,0.46,0.54C672.26,381.84,672.04,382.04,671.78,382.04z M668.3,381.72c-0.02,0-0.03,0-0.05,0l-0.5-0.05  c-0.27-0.03-0.47-0.28-0.44-0.55c0.03-0.28,0.27-0.48,0.55-0.44l0.5,0.05c0.27,0.03,0.47,0.27,0.45,0.55  C668.77,381.53,668.55,381.72,668.3,381.72z M664.83,381.32c-0.02,0-0.04,0-0.06,0l-0.5-0.07c-0.27-0.04-0.47-0.29-0.43-0.56  c0.04-0.27,0.29-0.47,0.56-0.43l0.49,0.06c0.27,0.04,0.47,0.29,0.43,0.56C665.29,381.13,665.07,381.32,664.83,381.32z   M661.36,380.82c-0.03,0-0.05,0-0.08-0.01l-0.5-0.08c-0.27-0.04-0.46-0.3-0.41-0.57c0.04-0.27,0.3-0.46,0.57-0.41l0.49,0.08  c0.27,0.04,0.46,0.3,0.42,0.57C661.82,380.64,661.61,380.82,661.36,380.82z M657.92,380.21c-0.03,0-0.06,0-0.1-0.01l-0.49-0.1  c-0.27-0.05-0.45-0.32-0.39-0.59c0.05-0.27,0.32-0.45,0.59-0.39l0.49,0.1c0.27,0.05,0.45,0.31,0.4,0.59  C658.36,380.04,658.15,380.21,657.92,380.21z M654.5,379.48c-0.04,0-0.07,0-0.11-0.01l-0.49-0.11c-0.27-0.06-0.44-0.33-0.37-0.6  c0.06-0.27,0.33-0.43,0.6-0.37l0.48,0.11c0.27,0.06,0.44,0.33,0.38,0.6C654.93,379.33,654.72,379.48,654.5,379.48z M651.1,378.63  c-0.04,0-0.09-0.01-0.13-0.02l-0.49-0.13c-0.27-0.07-0.42-0.35-0.35-0.62c0.07-0.27,0.35-0.42,0.62-0.35l0.48,0.13  c0.27,0.07,0.42,0.35,0.35,0.61C651.53,378.49,651.32,378.63,651.1,378.63z M647.74,377.66c-0.05,0-0.1-0.01-0.15-0.02l-0.48-0.15  c-0.26-0.08-0.41-0.37-0.32-0.63c0.08-0.26,0.36-0.41,0.63-0.32l0.47,0.15c0.26,0.08,0.41,0.36,0.33,0.63  C648.16,377.52,647.96,377.66,647.74,377.66z"></path><path d="M657.12,390c-0.17,0-0.33-0.09-0.43-0.24l-0.26-0.42c-0.15-0.23-0.08-0.54,0.16-0.69c0.23-0.15,0.54-0.08,0.69,0.16  l0.27,0.43c0.14,0.24,0.07,0.54-0.17,0.69C657.3,389.98,657.21,390,657.12,390z M655.15,387.11c-0.15,0-0.3-0.07-0.4-0.2l-0.3-0.39  c-0.17-0.22-0.13-0.53,0.08-0.7c0.22-0.17,0.53-0.13,0.7,0.08l0.31,0.4c0.17,0.22,0.13,0.53-0.09,0.7  C655.36,387.08,655.26,387.11,655.15,387.11z M652.9,384.44c-0.13,0-0.27-0.05-0.37-0.16l-0.34-0.36c-0.19-0.2-0.18-0.52,0.02-0.71  c0.2-0.19,0.52-0.18,0.71,0.02l0.35,0.37c0.19,0.2,0.18,0.52-0.03,0.71C653.14,384.39,653.02,384.44,652.9,384.44z M650.4,381.99  c-0.12,0-0.24-0.04-0.33-0.13l-0.37-0.33c-0.21-0.18-0.23-0.5-0.05-0.71c0.18-0.21,0.5-0.23,0.71-0.05l0.38,0.34  c0.21,0.18,0.22,0.5,0.04,0.71C650.67,381.93,650.54,381.99,650.4,381.99z M647.68,379.78c-0.1,0-0.21-0.03-0.3-0.1l-0.4-0.29  c-0.23-0.16-0.28-0.47-0.12-0.7c0.16-0.23,0.47-0.28,0.7-0.12l0.41,0.3c0.22,0.16,0.27,0.48,0.11,0.7  C647.99,379.71,647.84,379.78,647.68,379.78z M644.76,377.86c-0.08,0-0.17-0.02-0.25-0.07l-0.43-0.24c-0.24-0.13-0.33-0.44-0.2-0.68  c0.13-0.24,0.44-0.33,0.68-0.2l0.44,0.25c0.24,0.14,0.32,0.44,0.19,0.68C645.1,377.77,644.93,377.86,644.76,377.86z M641.62,376.32  c-0.06,0-0.13-0.01-0.19-0.04l-0.46-0.19c-0.26-0.1-0.38-0.4-0.27-0.65c0.1-0.26,0.4-0.38,0.65-0.27l0.47,0.19  c0.25,0.11,0.37,0.4,0.27,0.65C642,376.2,641.81,376.32,641.62,376.32z M638.35,375.06c-0.06,0-0.11-0.01-0.17-0.03l-0.47-0.17  c-0.26-0.09-0.4-0.38-0.3-0.64c0.09-0.26,0.38-0.4,0.64-0.3l0.47,0.17c0.26,0.09,0.4,0.38,0.3,0.64  C638.75,374.93,638.55,375.06,638.35,375.06z M635.03,373.93c-0.05,0-0.1-0.01-0.15-0.02l-0.48-0.15c-0.26-0.08-0.41-0.37-0.32-0.63  c0.08-0.26,0.36-0.41,0.63-0.32l0.48,0.15c0.26,0.08,0.41,0.37,0.32,0.63C635.44,373.79,635.25,373.93,635.03,373.93z M631.69,372.9  c-0.05,0-0.09-0.01-0.14-0.02l-0.48-0.14c-0.27-0.08-0.42-0.35-0.34-0.62c0.08-0.26,0.35-0.42,0.62-0.34l0.48,0.14  c0.27,0.08,0.42,0.35,0.34,0.62C632.1,372.76,631.9,372.9,631.69,372.9z M628.31,371.98c-0.04,0-0.08,0-0.12-0.02l-0.48-0.12  c-0.27-0.07-0.43-0.34-0.36-0.61s0.33-0.43,0.61-0.36l0.49,0.12c0.27,0.07,0.43,0.34,0.36,0.61  C628.74,371.83,628.53,371.98,628.31,371.98z"></path><g>	<path d="M716.12,392.59c-0.21,0-0.41-0.13-0.48-0.35c-0.08-0.26,0.06-0.54,0.32-0.63l0.48-0.15c0.27-0.08,0.54,0.06,0.63,0.33   c0.08,0.26-0.06,0.54-0.33,0.63l-0.47,0.15C716.22,392.59,716.17,392.59,716.12,392.59z M719.47,391.58   c-0.22,0-0.42-0.14-0.48-0.36c-0.08-0.27,0.08-0.54,0.34-0.62l0.48-0.14c0.26-0.07,0.54,0.08,0.62,0.35   c0.07,0.27-0.08,0.54-0.35,0.62l-0.48,0.13C719.56,391.57,719.51,391.58,719.47,391.58z M722.85,390.68   c-0.22,0-0.43-0.15-0.49-0.38c-0.07-0.27,0.1-0.54,0.37-0.61l0.49-0.12c0.27-0.07,0.54,0.1,0.6,0.37c0.07,0.27-0.1,0.54-0.37,0.6   l-0.48,0.12C722.93,390.68,722.89,390.68,722.85,390.68z M726.26,389.88c-0.23,0-0.43-0.16-0.49-0.39   c-0.06-0.27,0.11-0.54,0.38-0.6l0.49-0.11c0.27-0.06,0.54,0.11,0.6,0.38c0.06,0.27-0.11,0.54-0.38,0.6l-0.49,0.11   C726.33,389.87,726.29,389.88,726.26,389.88z M729.66,389.08c-0.23,0-0.43-0.15-0.49-0.38c-0.06-0.27,0.1-0.54,0.37-0.6l0.48-0.12   c0.27-0.06,0.54,0.1,0.6,0.37c0.07,0.27-0.1,0.54-0.37,0.6l-0.49,0.12C729.74,389.08,729.7,389.08,729.66,389.08z M733.06,388.24   c-0.22,0-0.43-0.15-0.48-0.38c-0.07-0.27,0.09-0.54,0.36-0.61l0.48-0.12c0.27-0.07,0.54,0.09,0.61,0.35   c0.07,0.27-0.08,0.54-0.35,0.61l-0.49,0.13C733.14,388.24,733.1,388.24,733.06,388.24z M736.4,387.19c-0.2,0-0.39-0.12-0.46-0.32   c-0.1-0.26,0.02-0.55,0.28-0.65c0.15-0.06,0.3-0.12,0.45-0.19c0.25-0.11,0.55,0.01,0.66,0.26c0.11,0.25-0.01,0.55-0.26,0.66   c-0.16,0.07-0.31,0.13-0.48,0.2C736.52,387.18,736.46,387.19,736.4,387.19z M739.46,385.53c-0.15,0-0.3-0.07-0.4-0.19   c-0.17-0.22-0.13-0.53,0.09-0.7c0.13-0.1,0.24-0.2,0.36-0.3c0.2-0.18,0.52-0.17,0.71,0.04c0.18,0.21,0.17,0.52-0.04,0.71   c-0.13,0.12-0.27,0.23-0.41,0.34C739.68,385.49,739.57,385.53,739.46,385.53z M741.45,382.73c-0.04,0-0.08-0.01-0.13-0.02   c-0.27-0.07-0.43-0.34-0.36-0.61c0.04-0.14,0.07-0.28,0.09-0.43c0.04-0.27,0.28-0.47,0.56-0.43c0.27,0.04,0.46,0.29,0.43,0.56   c-0.02,0.19-0.06,0.37-0.11,0.55C741.87,382.58,741.67,382.73,741.45,382.73z M741.3,379.28c-0.21,0-0.4-0.13-0.47-0.34   c-0.05-0.15-0.1-0.29-0.16-0.42c-0.11-0.25,0-0.55,0.26-0.66c0.25-0.11,0.55,0,0.66,0.26c0.07,0.16,0.14,0.33,0.2,0.51   c0.09,0.26-0.05,0.55-0.32,0.63C741.4,379.27,741.35,379.28,741.3,379.28z M739.28,376.48c-0.11,0-0.22-0.04-0.31-0.11   c-0.12-0.1-0.25-0.19-0.38-0.29c-0.22-0.16-0.28-0.47-0.12-0.7c0.16-0.23,0.47-0.28,0.7-0.11c0.14,0.1,0.28,0.21,0.42,0.32   c0.22,0.17,0.25,0.49,0.08,0.7C739.57,376.42,739.42,376.48,739.28,376.48z M736.25,374.73c-0.07,0-0.14-0.01-0.21-0.05l-0.45-0.21   c-0.25-0.12-0.36-0.41-0.24-0.66c0.12-0.25,0.42-0.36,0.66-0.24l0.46,0.21c0.25,0.12,0.36,0.41,0.24,0.66   C736.62,374.62,736.44,374.73,736.25,374.73z M733.1,373.22c-0.07,0-0.15-0.02-0.22-0.05l-0.45-0.22   c-0.25-0.12-0.35-0.42-0.23-0.67s0.42-0.35,0.67-0.23l0.45,0.22c0.25,0.12,0.35,0.42,0.23,0.67   C733.46,373.12,733.28,373.22,733.1,373.22z M729.95,371.7c-0.07,0-0.15-0.02-0.22-0.05l-0.45-0.22c-0.25-0.12-0.35-0.42-0.23-0.67   c0.12-0.25,0.42-0.35,0.67-0.23l0.45,0.22c0.25,0.12,0.35,0.42,0.23,0.67C730.31,371.59,730.13,371.7,729.95,371.7z M726.81,370.16   c-0.07,0-0.15-0.02-0.22-0.05l-0.45-0.22c-0.25-0.12-0.35-0.42-0.23-0.67c0.12-0.25,0.42-0.35,0.67-0.23l0.45,0.22   c0.25,0.12,0.35,0.42,0.23,0.67C727.17,370.05,726.99,370.16,726.81,370.16z M723.67,368.61c-0.08,0-0.15-0.02-0.22-0.05   l-0.44-0.22l0.44-0.9l0.45,0.22c0.25,0.12,0.35,0.42,0.22,0.67C724.03,368.51,723.85,368.61,723.67,368.61z M720.55,367.02   c-0.08,0-0.17-0.02-0.25-0.06c-0.15-0.09-0.3-0.17-0.45-0.26c-0.24-0.14-0.31-0.45-0.17-0.69c0.15-0.24,0.45-0.31,0.69-0.17   c0.13,0.08,0.27,0.16,0.42,0.24c0.24,0.14,0.33,0.44,0.19,0.68C720.89,366.93,720.72,367.02,720.55,367.02z M717.83,364.86   c-0.15,0-0.29-0.06-0.39-0.19c-0.12-0.15-0.23-0.3-0.32-0.45c-0.15-0.23-0.08-0.54,0.15-0.69c0.23-0.15,0.54-0.08,0.69,0.15   c0.08,0.12,0.16,0.24,0.26,0.36c0.17,0.22,0.14,0.53-0.08,0.7C718.05,364.82,717.94,364.86,717.83,364.86z M717.15,361.57   c-0.04,0-0.07,0-0.11-0.01c-0.27-0.06-0.44-0.33-0.38-0.6c0.04-0.17,0.08-0.34,0.13-0.51c0.08-0.27,0.35-0.42,0.62-0.35   c0.27,0.07,0.42,0.35,0.35,0.62c-0.04,0.16-0.08,0.31-0.12,0.46C717.58,361.42,717.38,361.57,717.15,361.57z M718.4,358.31   c-0.08,0-0.16-0.02-0.23-0.06c-0.24-0.13-0.34-0.43-0.21-0.68c0.08-0.15,0.16-0.31,0.25-0.45c0.14-0.24,0.44-0.32,0.68-0.19   c0.24,0.14,0.32,0.44,0.19,0.68c-0.08,0.14-0.16,0.28-0.23,0.42C718.75,358.21,718.58,358.31,718.4,358.31z"></path>	<g>		<path d="M710.8,391.87c-0.2,0-0.38-0.12-0.46-0.31c-0.11-0.25,0.01-0.55,0.27-0.65l0.47-0.19c0.25-0.1,0.55,0.02,0.65,0.27    c0.1,0.26-0.02,0.55-0.27,0.65l-0.46,0.19C710.93,391.85,710.87,391.87,710.8,391.87z M714.08,390.64c-0.21,0-0.41-0.13-0.48-0.34    c-0.09-0.26,0.06-0.54,0.32-0.63l0.48-0.16c0.26-0.08,0.54,0.06,0.63,0.32c0.08,0.26-0.06,0.54-0.32,0.63l-0.47,0.15    C714.19,390.63,714.13,390.64,714.08,390.64z M717.42,389.6c-0.22,0-0.42-0.14-0.48-0.36c-0.08-0.27,0.08-0.54,0.34-0.62    l0.48-0.14c0.26-0.08,0.54,0.08,0.62,0.34c0.08,0.27-0.08,0.54-0.34,0.62l-0.48,0.14C717.52,389.6,717.47,389.6,717.42,389.6z     M720.8,388.69c-0.22,0-0.43-0.15-0.48-0.38c-0.07-0.27,0.09-0.54,0.36-0.61l0.49-0.12c0.27-0.07,0.54,0.1,0.61,0.36    c0.07,0.27-0.1,0.54-0.37,0.61l-0.48,0.12C720.88,388.68,720.84,388.69,720.8,388.69z M724.2,387.87c-0.23,0-0.43-0.16-0.49-0.39    c-0.06-0.27,0.1-0.54,0.37-0.6l0.49-0.11c0.27-0.06,0.54,0.11,0.6,0.38c0.06,0.27-0.11,0.54-0.38,0.6l-0.49,0.11    C724.27,387.86,724.24,387.87,724.2,387.87z M727.61,387.08c-0.23,0-0.43-0.15-0.49-0.38c-0.06-0.27,0.1-0.54,0.37-0.6l0.49-0.11    c0.27-0.07,0.54,0.1,0.6,0.37c0.06,0.27-0.1,0.54-0.37,0.6l-0.49,0.11C727.68,387.07,727.64,387.08,727.61,387.08z M731.01,386.25    c-0.22,0-0.43-0.15-0.49-0.38c-0.07-0.27,0.09-0.54,0.36-0.61l0.48-0.12c0.27-0.07,0.54,0.09,0.61,0.36    c0.07,0.27-0.09,0.54-0.36,0.61l-0.48,0.12C731.1,386.24,731.05,386.25,731.01,386.25z M734.35,385.22c-0.2,0-0.38-0.12-0.46-0.31    c-0.11-0.25,0.01-0.55,0.27-0.65c0.15-0.06,0.3-0.13,0.44-0.19c0.25-0.12,0.55-0.01,0.66,0.24c0.12,0.25,0.01,0.55-0.24,0.66    c-0.15,0.07-0.31,0.14-0.48,0.21C734.48,385.21,734.41,385.22,734.35,385.22z M737.2,383.27c-0.11,0-0.21-0.03-0.3-0.1    c-0.22-0.17-0.26-0.48-0.09-0.7c0.09-0.12,0.17-0.23,0.23-0.35c0.13-0.24,0.44-0.33,0.68-0.2c0.24,0.13,0.33,0.44,0.2,0.68    c-0.09,0.16-0.19,0.32-0.32,0.48C737.5,383.2,737.35,383.27,737.2,383.27z M737.44,379.98c-0.18,0-0.36-0.1-0.45-0.28    c-0.07-0.13-0.14-0.27-0.22-0.4c-0.14-0.24-0.07-0.54,0.17-0.69c0.23-0.14,0.54-0.07,0.69,0.17c0.1,0.16,0.18,0.32,0.26,0.48    c0.12,0.25,0.02,0.55-0.23,0.67C737.59,379.96,737.52,379.98,737.44,379.98z M735.16,377.36c-0.11,0-0.21-0.03-0.3-0.1    c-0.13-0.1-0.26-0.19-0.39-0.28c-0.23-0.16-0.28-0.47-0.12-0.7c0.16-0.23,0.47-0.28,0.7-0.12c0.14,0.1,0.28,0.2,0.42,0.31    c0.22,0.17,0.26,0.48,0.09,0.7C735.46,377.3,735.31,377.36,735.16,377.36z M732.11,375.66c-0.07,0-0.14-0.01-0.21-0.05l-0.45-0.21    c-0.25-0.12-0.36-0.41-0.25-0.66c0.12-0.25,0.41-0.36,0.66-0.25l0.45,0.21c0.25,0.11,0.36,0.41,0.25,0.66    C732.48,375.55,732.3,375.66,732.11,375.66z M728.92,374.22c-0.07,0-0.14-0.01-0.2-0.04l-0.46-0.2c-0.25-0.11-0.37-0.41-0.25-0.66    s0.41-0.37,0.66-0.25l0.46,0.2c0.25,0.11,0.37,0.41,0.25,0.66C729.3,374.11,729.11,374.22,728.92,374.22z M725.73,372.79    c-0.07,0-0.14-0.01-0.21-0.04l-0.46-0.21c-0.25-0.11-0.36-0.41-0.25-0.66c0.12-0.25,0.41-0.36,0.66-0.25l0.46,0.21    c0.25,0.11,0.36,0.41,0.25,0.66C726.1,372.68,725.92,372.79,725.73,372.79z M722.55,371.32c-0.07,0-0.14-0.02-0.21-0.05    l-0.45-0.22c-0.25-0.12-0.35-0.42-0.24-0.67c0.12-0.25,0.42-0.35,0.67-0.24l0.45,0.21c0.25,0.12,0.36,0.42,0.24,0.67    C722.92,371.21,722.74,371.32,722.55,371.32z M719.41,369.79c-0.08,0-0.15-0.02-0.22-0.05l-0.37-0.18l0.14-0.49l0.22-0.45    l0.45,0.22c0.25,0.12,0.35,0.42,0.22,0.67C719.77,369.69,719.59,369.79,719.41,369.79z M716.39,368.03c-0.1,0-0.2-0.03-0.29-0.09    c-0.14-0.1-0.28-0.21-0.41-0.31c-0.22-0.17-0.26-0.48-0.09-0.7c0.17-0.22,0.48-0.26,0.7-0.09c0.12,0.1,0.25,0.19,0.39,0.29    c0.22,0.16,0.27,0.47,0.11,0.7C716.69,367.96,716.54,368.03,716.39,368.03z M713.91,365.59c-0.16,0-0.32-0.08-0.42-0.22    c-0.1-0.15-0.2-0.3-0.28-0.46c-0.14-0.24-0.05-0.54,0.19-0.68c0.24-0.14,0.54-0.05,0.68,0.19c0.07,0.13,0.16,0.26,0.24,0.39    c0.15,0.23,0.09,0.54-0.13,0.69C714.11,365.56,714.01,365.59,713.91,365.59z M712.9,362.3C712.9,362.3,712.89,362.3,712.9,362.3    c-0.28,0-0.5-0.23-0.5-0.51c0-0.18,0.01-0.36,0.03-0.54c0.03-0.27,0.27-0.47,0.55-0.45c0.27,0.03,0.48,0.27,0.45,0.55    c-0.02,0.15-0.02,0.31-0.03,0.46C713.39,362.08,713.17,362.3,712.9,362.3z M713.82,358.95c-0.08,0-0.15-0.02-0.22-0.05    c-0.25-0.12-0.35-0.42-0.22-0.67c0.08-0.15,0.16-0.31,0.25-0.46c0.13-0.24,0.44-0.33,0.68-0.19c0.24,0.13,0.33,0.44,0.19,0.68    c-0.08,0.14-0.15,0.28-0.22,0.42C714.18,358.85,714.01,358.95,713.82,358.95z"></path>	</g></g></svg>
