<svg xmlns="http://www.w3.org/2000/svg" xmlns:xlink="http://www.w3.org/1999/xlink" version="1.1" id="Layer_1" x="0px" y="0px" style="enable-background:new 0 0 1440 768;" xml:space="preserve" viewBox="632.39 343.24 175.28 81.71"><style type="text/css">	.st0{fill:#FFFFFF;}	.st1{fill:#191B22;}	.st2{fill:#221F1F;}	.st3{fill:#231F20;}</style><g>	<path class="st0" d="M805.63,399.94c0,0-0.2-0.01-0.36-0.04s-0.21-0.12-0.27-0.2c-0.54-0.72-0.66-0.87-1.51-0.87   c-0.06,0-0.25,0.06-0.52,0.16c-0.98-1-2.17-1.97-4.47-2.14c-3.1-0.23-8.54-0.61-9.31-0.67c-1.81-0.19-3.13-0.33-3.13-0.33   c-16.8-1.21-26.72-5.55-26.72-5.55s-0.01,0.05-0.01,0.12l-18.9-10.96l-7.54-5.06c-0.13-0.12-0.25-0.24-0.38-0.35   c-0.97-0.84-2.06-1.56-3.14-2.27c-1.15-1.11-2.93-1.93-4.28-2.81c-1.49-0.98-2.99-1.96-4.48-2.94c-1.18-0.78-2.35-1.56-3.53-2.34   c0.26-0.11,0.58-0.08,0.47-0.44c-0.13-0.41-1.16-0.34-1.43-0.73c-0.12-0.17-0.14-0.39-0.18-0.59c-0.26-1.38-1.57-2.31-2.77-3.09   c-2.02-1.32-4.05-2.64-6.07-3.96c-0.4-0.26-0.86-0.54-1.34-0.46c-0.14,0.02-0.29,0.07-0.43,0.04c-0.5-0.13-0.29-0.93-0.82-1.03   c-0.32-0.06-1.05,0.78-1.27,0.97c-0.02,0.02-0.05,0.04-0.08,0.06l-0.47-0.32c-1.96-1.34-3.35-2.3-3.36-2.29l-1.87-1.49   c-1.4,2-8.95,11.94-9.14,15.64c-0.13,2.58,1.3,5.13,3.12,7.28c-1.19,0.93-2.41,1.87-3.65,2.76c-9.1,6.48-15.54,5.54-18.33,5.31   c-6.16-0.49-11.63-5.53-14.81-8.95c-3.66-3.93-3.36-6.81-6.61-5.03c-1.41,0.77-5.06,4.7-7.41,11.48   c-1.45,4.36-3.11,13.36-1.86,22.78c-1.15-0.01-1.97,0-2.21,0.06c-1.2,0.3-0.98,2.37-0.98,2.37l-0.07,1.25l-0.07,0.27   c0,0-1.32,0.62-1.7,1.26c-0.38,0.64-0.84,4.49-0.74,6.36s2.27,8.43,3.96,8.9s9.31,0.86,15.65,0.95c6.19,0.08,12.31,0.18,19.45,0.25   c3.53,0.03,10.16-0.07,11.04,0.06c31.41,0.27,67.86-0.05,70.44-0.1c5.98-0.13,9.05-0.24,11.54-0.64c0.38-0.03,0.92-0.09,1.7-0.18   l0.7-0.06c0,0,0.56-0.08,1.54-0.24c2.66-0.39,6.72-1.05,12.82-2.21c11.4-2.16,22.51-6.57,22.51-6.57s0.12-0.69,0.51-1.75   c0.62-2.32,2.15-3.66,2.3-8.29C807.24,401.16,805.63,399.94,805.63,399.94z"></path>	<g>		<g>			<g>				<g>											<ellipse transform="matrix(0.0143 -0.9999 0.9999 0.0143 328.3146 1070.3193)" class="st1" cx="707.02" cy="368.64" rx="0.72" ry="0.93"></ellipse>											<ellipse transform="matrix(0.0143 -0.9999 0.9999 0.0143 328.2126 1070.5208)" class="st1" cx="707.07" cy="368.79" rx="0.56" ry="0.73"></ellipse>				</g>				<g>											<ellipse transform="matrix(0.0143 -0.9999 0.9999 0.0143 318.3792 1065.8549)" class="st1" cx="699.78" cy="371.45" rx="0.72" ry="0.93"></ellipse>											<ellipse transform="matrix(0.0143 -0.9999 0.9999 0.0143 318.2773 1066.0563)" class="st1" cx="699.84" cy="371.6" rx="0.56" ry="0.73"></ellipse>				</g>			</g>			<ellipse transform="matrix(0.0798 -0.9968 0.9968 0.0798 285.7559 1066.2244)" cx="720.37" cy="378.34" rx="0.7" ry="1.09"></ellipse>			<ellipse transform="matrix(0.0143 -0.9999 0.9999 0.0143 342.9369 1119.064)" cx="739.06" cy="385.59" rx="0.78" ry="1.02"></ellipse>			<ellipse transform="matrix(0.0146 -0.9999 0.9999 0.0146 345.3474 1133.178)" cx="747.58" cy="391.38" rx="0.78" ry="1.1"></ellipse>			<ellipse transform="matrix(0.0145 -0.9999 0.9999 0.0145 330.6124 1081.2732)" cx="713.84" cy="372.92" rx="0.83" ry="1.14"></ellipse>			<ellipse transform="matrix(0.0143 -0.9999 0.9999 0.0143 339.563 1107.7133)" cx="731.62" cy="381.63" rx="0.83" ry="1.08"></ellipse>			<ellipse transform="matrix(0.0915 -0.9958 0.9958 0.0915 295.5945 1109.9457)" cx="756.12" cy="392.97" rx="0.78" ry="1.1"></ellipse>		</g>	</g></g><path class="st2" d="M805.93,399.55l-0.12-0.09l-0.15-0.01c-0.01,0-0.17-0.01-0.27-0.05c-0.6-0.79-0.86-1.07-1.9-1.07  c-0.09,0-0.2,0.02-0.39,0.08c-1-0.98-2.26-1.9-4.57-2.07c-3.07-0.22-8.45-0.61-9.29-0.67c-1.71-0.18-2.99-0.31-3.15-0.33  c-16.5-1.19-27.16-5.74-27.16-5.74l-18.23-10.57l-7.52-5.04l-15.23-10.22c0.01-0.02,0.03-0.03,0.04-0.06  c0.1-0.18,0.11-0.39,0.03-0.62c-0.15-0.48-0.65-0.61-1.06-0.72c-0.15-0.04-0.39-0.1-0.44-0.15c-0.03-0.05-0.05-0.17-0.07-0.28  l-0.02-0.12c-0.29-1.54-1.64-2.54-2.99-3.42l-6.07-3.96c-0.37-0.24-1-0.65-1.69-0.54l-0.13,0.03c-0.03,0.01-0.06,0.01-0.07,0.03  c-0.02-0.04-0.05-0.13-0.07-0.19c-0.09-0.26-0.25-0.74-0.81-0.85c-0.31-0.06-0.6,0.1-0.92,0.36c-1.18-1.74-1.53-3.63-2.01-5.72  c-0.28-1.24-1.05-2.34-2.05-3.12c-1.06-0.82-2.6-1.43-3.95-1.11c-0.76,0.18-1.35,0.73-1.62,1.46c-0.18,0.5-0.15,1.07,0.03,1.57  c0.2,0.55,0.55,1.04,0.89,1.51c0.6,0.83,1.27,1.59,2.01,2.29c-0.17,0.24-0.4,0.56-0.7,0.97c-2.48,3.43-8.29,11.45-8.46,14.85  c-0.13,2.58,1.18,5.08,2.9,7.22c-1.06,0.82-2.13,1.65-3.22,2.43c-8.49,6.05-14.61,5.52-17.55,5.26l-0.45-0.04  c-4.51-0.36-9.39-3.32-14.49-8.79c-0.77-0.83-1.36-1.6-1.84-2.31c-0.23-0.33-0.44-0.64-0.63-0.93c-0.03-0.04-0.06-0.09-0.09-0.13  c-0.17-0.26-0.33-0.5-0.49-0.73c-0.21-0.3-0.41-0.57-0.62-0.8c-0.53-0.58-1.1-0.9-1.91-0.82c0.01-4.92-0.89-6.74-1.94-8.08  c-0.02-0.02-0.04-0.04-0.05-0.06c-1.04-1.16-2.96-1.55-4.41-1.09c-2.01,0.64-2.83,2.38-2.92,4.38c-0.05,1.11,0.15,2.23,0.48,3.26  c0.31,0.98,0.81,1.67,1.31,2.55c0.29,0.52,0.56,1.08,0.91,1.55c0.31,0.43,0.76,1.46,1,2.4c-0.25,0.38-0.5,0.77-0.76,1.19  c-1.02,1.7-2.03,3.77-2.89,6.24l0,0.01c-0.35,1.05-0.7,2.37-1.03,3.88c-0.12,0.56-0.24,1.16-0.35,1.77  c-0.75,4.1-1.21,9.31-0.77,14.79c-0.04,0.01-0.07,0.01-0.08,0.02c-0.37,0.18-0.44,1.07-0.42,1.99c-0.52,0.01-0.89,0.03-1.05,0.07  c-1.27,0.32-1.45,1.98-1.35,2.83l-0.06,1.16l-0.01,0.05c-0.43,0.22-1.35,0.75-1.7,1.35c-0.24,0.4-0.47,1.6-0.62,2.93l-0.06,0  l-0.01,0.06c0,0.02-0.37,2.12-0.23,4.05c0.09,1.2,1.2,4.62,1.25,4.77l0.02,0.06l0.28-0.07c0.8,2.03,1.84,3.91,2.89,4.2  c0.33,0.09,0.86,0.18,1.55,0.26l0.64,0.62c0.08,0.07,0.17,0.12,0.28,0.14l2.15,0.3c0.17,0.02,0.33-0.04,0.44-0.16l0.27-0.3l2.9,0.21  l0.51,0.46c0.09,0.08,0.2,0.12,0.32,0.13l4.03,0.1c0.16,0.01,0.3-0.06,0.39-0.18l0.27-0.32l1.26,0.02l1.25,0.53  c0.06,0.02,0.12,0.04,0.18,0.04l4.27,0.16c0.14,0.02,0.27-0.05,0.37-0.14l0.42-0.41l1.93,0.15l0.92,0.52  c0.07,0.04,0.16,0.06,0.24,0.06l4.14,0.02c0.08-0.04,0.18-0.02,0.26-0.07l0.87-0.52l2.04,0.03l0.79,0.43  c0.07,0.04,0.15,0.06,0.24,0.06l3.76,0.02c0.11-0.02,0.19-0.03,0.27-0.08l0.99-0.62l1.49,0.09l1.12,0.58  c0.07,0.04,0.15,0.06,0.23,0.06h4.64c0.11,0,0.22-0.04,0.31-0.1l0.86-0.66c0.25-0.01,0.54-0.04,0.87-0.1l0.69,0.66  c0.09,0.09,0.22,0.14,0.34,0.14l4.49,0.02c0.09,0,0.22-0.04,0.31-0.11l0.79-0.63c1.47,0.03,2.19,0.09,2.45,0.11l0.83,0.58  c0.08,0.06,0.18,0.09,0.28,0.09h2.64c0.1,0,0.2-0.03,0.28-0.08l0.82-0.55l2.69,0.05l0.77,0.56c0.08,0.06,0.19,0.09,0.29,0.09h1.77  c0.1,0,0.2-0.03,0.28-0.08l0.75-0.51l2.78,0.04l0.63,0.44c0.08,0.06,0.19,0.09,0.29,0.09h1.8c0.1,0,0.2-0.03,0.29-0.09l0.56-0.4  l3.24,0.03l0.7,0.48c0.08,0.06,0.18,0.09,0.29,0.09c0,0,0.01,0,0.01,0l3.87-0.09c0.09,0,0.17-0.03,0.25-0.07l0.62-0.37  c1.13,0,2.26,0.01,3.38,0.01l0.59,0.36c0.08,0.05,0.17,0.07,0.26,0.07h5.9c0.1,0,0.2-0.03,0.29-0.09l0.54-0.38l2.57-0.02l0.74,0.48  c0.08,0.05,0.17,0.08,0.27,0.08h4.88c0.12,0,0.24-0.05,0.34-0.13l0.59-0.54c0.89-0.02,1.76-0.04,2.63-0.06l0.63,0.57  c0.09,0.08,0.21,0.13,0.33,0.13l4.6,0.02c0.13,0.04,0.26-0.05,0.35-0.14l0.81-0.8c0.61-0.02,1.21-0.05,1.8-0.08l0.91,0.79  c0.1,0.08,0.22,0.14,0.35,0.12l5.19-0.18c0.18-0.01,0.34-0.1,0.42-0.26l0.41-0.75c0.38-0.01,0.75-0.03,1.1-0.05l0.99,0.65  c0.09,0.06,0.2,0.09,0.31,0.08l5.21-0.36c0.13-0.01,0.25-0.07,0.34-0.17l0.84-0.93c0.15-0.02,0.44-0.07,0.85-0.13l0.93,0.7  c0.11,0.08,0.24,0.11,0.37,0.09l5.1-0.75c0.12-0.02,0.23-0.08,0.31-0.17l0.72-0.84c0.3-0.05,0.6-0.1,0.9-0.15l0.78,0.59  c0.11,0.09,0.26,0.12,0.39,0.09l5.1-0.93c0.11-0.02,0.21-0.07,0.28-0.16l0.95-1.05c0.29-0.07,0.59-0.13,0.87-0.2l0.62,0.42  c0.12,0.08,0.26,0.1,0.39,0.07l3.88-0.89c0.12-0.03,0.22-0.1,0.29-0.2l0.62-0.88c0.25-0.07,0.49-0.14,0.73-0.2l0.37,0.34  c0.12,0.11,0.3,0.16,0.46,0.11l2.23-0.57c0.13-0.03,0.24-0.12,0.31-0.23l0.46-0.78l0.18-0.05l0.34,0.29c0.13,0.11,0.3,0.15,0.46,0.1  l2.39-0.68c0.18-0.05,0.32-0.2,0.35-0.39l0.04-0.24l0.17,0.16c0.13,0.12,0.32,0.16,0.49,0.11l1.83-0.59  c0.15-0.05,0.27-0.16,0.32-0.31l0.1-0.29c0.05,0.06,0.12,0.11,0.2,0.14c0.13,0.05,0.27,0.04,0.39-0.01l1.03-0.48  c0.1-0.05,0.18-0.12,0.23-0.22l0.45-0.86l0.14-0.26c0-0.01,0.01-0.02,0.01-0.03l0.13-0.16c0.02-0.09,0.06-0.26,0.12-0.49  c0.08-0.29,0.19-0.67,0.36-1.13c0.19-0.7,0.47-1.33,0.77-1.99c0.67-1.49,1.44-3.17,1.55-6.41C807.75,400.95,806,399.6,805.93,399.55  z M789.21,396.69c0.99,0.07,6.24,0.44,9.25,0.66c1.72,0.13,2.76,0.73,3.59,1.46c-0.05,0.02-0.09,0.03-0.14,0.05  c-2.27,0.88-7.59,2.94-15.69,4.96c-6.36,1.59-9.26,2.49-11.47,3.21c-1.72,0.56-3.93,1.67-5.76,3.29c-1.73,0.13-4.51,0.3-7.98,0.45  c-0.35,0.01-0.71,0.03-1.07,0.04c-4.19,0.16-9.26,0.27-14.65,0.19c-10.87-0.16-18.84-1.33-26.55-2.46l-2.82-0.41  c-1.62-0.23-4.73-0.86-8.38-1.59c6.79-2.3,16.8-4.3,29.09-3.28c4.59,0.39,7.92,3.46,9.9,5.3c1.18,1.09,1.8,1.69,2.46,1.62  c0.22-0.02,0.43-0.09,0.62-0.18c0.7-0.32,1.32-1.01,2.04-1.84c0.67-0.77,1.44-1.64,2.45-2.41c1.22-0.92,2.23-1.58,3.21-2.05  c1.6-0.76,3.16-1.03,5.52-1.11c0.21-0.01,0.39-0.01,0.58-0.01c0.41-0.01,0.78-0.02,1.12-0.02c0.77-0.01,1.42-0.01,1.96,0  c2.42,0.02,3.51,0.02,9.49-1.05C783.23,400.24,788.28,397.26,789.21,396.69C789.21,396.69,789.21,396.69,789.21,396.69z   M749.85,397.41c-4.27,4.84-7.95,4.85-9.92,4.86l-0.14,0c-0.01,0-0.01,0-0.02,0c-2.17,0-5.42-1.21-6.37-1.58  c-4.25-1.67-15.69-6.46-28.28-12.24c-1.49-0.68-2.66-1.11-3.88-1.11c-0.01,0-0.02,0-0.03,0c-1.88,0.01-3.94,1.03-7.88,3.2  c-2.84,1.57-9.04,4.09-13.38,5.2c-3.93,1.01-7.75,1.25-10.43,1.26c-0.08-0.08-0.17-0.17-0.25-0.25c-1.71-1.69-3.19-3.15-4.21-4.24  c-0.09-0.1-0.67-0.6-1.54-1.34c4.53,0.26,7.53,0.43,12.62-0.82c8.46-2.08,12.15-4.24,15.4-6.14c3.95-2.31,6.75-3.82,9.53-3.84  c1.76-0.01,4.64,0.8,7.2,2.03c1.71,0.82,2.91,1.41,4.05,1.98c0.94,0.47,1.85,0.92,2.96,1.45c8.44,4.06,14.76,6.84,20.34,9.23  c1.28,0.55,2.34,0.81,3.27,0.81c1.24-0.01,3.12-0.99,4.51-2.11c0.81,0.4,1.56,0.72,2.17,0.91c1.64,0.53,3.62,0.92,5.62,1.2  L749.85,397.41z M752.34,396.04c3.22,0.4,6.3,0.55,7.84,0.6c0.59,1.18,1.19,2.39,1.09,2.98c-0.14,0.81-1.09,1.33-2.53,2.12  c-0.57,0.31-1.22,0.67-1.9,1.09c-1.03,0.5-2.08,1.19-3.33,2.14c-1.09,0.83-1.89,1.74-2.6,2.55c-0.79,0.9-1.42,1.62-2,1.68  c-0.25-0.03-1.05-0.77-1.69-1.36c-1.47-1.36-3.65-3.37-6.55-4.58c2.24-0.06,5.84-0.55,9.93-5.19L752.34,396.04z M680.19,396.72  c4.42-1.13,10.72-3.7,13.62-5.29c3.79-2.08,5.75-3.07,7.4-3.08c0.01,0,0.02,0,0.03,0c1.04,0,2.1,0.39,3.47,1.01  c12.61,5.78,24.07,10.59,28.33,12.26c0.28,0.11,0.78,0.3,1.37,0.5c-12.04-0.65-22.09,1.59-28.76,4.05c-6.84-1.38-14.98-3-19.75-3.45  c-3.22-0.3-7.04-0.55-11.43-0.74c-1.28-1.32-2.64-2.68-3.96-3.98C673.16,397.93,676.64,397.63,680.19,396.72z M759.72,391.48  c0.01-0.16,0.03-0.32,0.04-0.47c0.13,0.05,0.28,0.11,0.45,0.17c0.09,0.03,0.19,0.07,0.3,0.11c3.27,1.2,12.32,4.11,25.51,5.06  c0.03,0,0.6,0.06,1.49,0.15c-2.02,1.08-6.25,3.06-11.66,4.03c-5.89,1.05-6.96,1.04-9.31,1.03c-0.42,0-0.9,0-1.45,0  c-0.35,0-0.72,0.01-1.14,0.01c-0.34,0.01-0.71,0.02-1.12,0.03c-0.78,0.02-1.46,0.08-2.11,0.16c0.84-0.55,1.41-1.12,1.55-1.97  c0.14-0.81-0.33-1.88-0.95-3.12c-0.08-0.16-0.16-0.33-0.25-0.5c-0.13-0.26-0.25-0.51-0.38-0.77c-0.19-0.4-0.38-0.8-0.54-1.2  c-0.1-0.25-0.19-0.49-0.26-0.73c-0.07-0.21-0.13-0.42-0.17-0.62C759.66,392.55,759.68,392,759.72,391.48z M758.74,393.05  c0.05,0.28,0.14,0.58,0.24,0.87c0.13,0.38,0.28,0.76,0.45,1.14c0.08,0.19,0.17,0.37,0.26,0.56c-1.51-0.06-3.96-0.2-6.55-0.5  c-1.25-0.14-2.53-0.32-3.76-0.55c-1.27-0.23-2.47-0.51-3.52-0.85c-0.48-0.15-1.05-0.4-1.67-0.68c-0.3-0.14-0.62-0.3-0.95-0.47  c-2.07-1.08-4.47-2.66-6.19-4.26c-2.46-2.29-8.48-5.71-12.69-6.1l-0.43-0.04c-3.08-0.28-4.62-0.42-7.17-1.83  c-2.24-1.25-3.16-2.4-4.06-3.52c-0.41-0.51-0.83-1.04-1.37-1.56c-0.71-0.69-2.62-2.54-4.97-2.54c-0.51,0-1.04,0.09-1.58,0.29  c-1.83,0.69-5.47,1.57-6.84,1.9c-0.63,0.15-1.36,0.14-2.08,0.05l-0.05,0.02l-0.04-0.03c-1.16-0.16-2.3-0.55-2.94-0.87  c-0.26-0.13-0.45-0.26-0.51-0.35c-0.04-0.08-0.1-0.22-0.11-0.25c0-0.01,0.02-0.03,0.02-0.05c0.04-0.08,0.14-0.2,0.29-0.35  c0.17-0.17,0.39-0.38,0.66-0.64c0.19-0.17,0.4-0.37,0.62-0.57l0.13-0.12l0.36-0.33c0.47-0.44,3.34-2.76,5.99-4.64  c1.38-0.98,2.7-1.84,3.59-2.25c5.14-2.36,11.85,1.89,16.04,6.25l0.35,0.37c1.11,1.16,2.78,2.91,4.05,3.88  c0.58,0.44,1.55,0.58,2.88,0.76c1.76,0.24,4.16,0.57,6.68,1.81c3.06,1.51,7.25,4.38,12.46,8.52c0.07,0.05,0.11,0.09,0.17,0.13  c0.15,0.12,0.27,0.21,0.32,0.25c0.35,0.26,0.76,0.51,1.2,0.76c2.69,1.53,6.82,2.95,9.35,3.75c0.54,0.17,1,0.31,1.36,0.42  C758.68,392.01,758.66,392.64,758.74,393.05z M734.29,387.43c-0.4,0.61-0.96,1.59-1.41,2.95c-1.04-0.44-3.67-1.71-5.52-2.6  c-1.48-0.71-2.68-1.29-3.14-1.49c0-0.41,0.52-1.64,1.22-2.89c0.53,0.11,1.08,0.26,1.65,0.44l2.49,0.97  C731.28,385.58,732.94,386.52,734.29,387.43z M701,356.57c0.87,0.54,1.79,1.05,2.68,1.53c1.18,0.65,2.41,1.31,3.53,2.09  c1.79,1.23,3.51,2.58,5.19,3.9c-3.01-1.34-6.15-1.75-8.95-0.46c-2.84,1.31-9.25,6.52-9.84,7.06l-0.27,0.25  c-1.84-2.94-0.7-5.2-0.01-6.57c1.33-2.61,6.39-8.34,6.44-8.4l1.76-1.98l0.79,0.53c-0.49,0.4-1,0.82-1.43,1.29l-0.41,0.44L701,356.57  z M717.01,364.38l0.01-0.01l15.53,10.42l7.61,5.11l5.8,3.36l11.83,6.86c-2.87-0.9-8.03-2.68-10.4-4.41  c-0.02-0.01-0.06-0.05-0.09-0.07c-0.08-0.06-0.19-0.15-0.36-0.28c-0.55-0.43-1.07-0.85-1.6-1.25c-1.96-1.52-3.77-2.86-5.42-3.99  c-1.75-1.2-3.3-2.16-4.68-2.91c-0.32-0.17-0.64-0.35-0.94-0.49c-2.66-1.31-5.16-1.66-6.98-1.91c-1.1-0.15-2.04-0.28-2.41-0.56  c-1.21-0.92-2.91-2.71-3.93-3.77l-0.35-0.37c-1.62-1.69-3.52-3.29-5.55-4.57c0.19-0.03,0.4-0.09,0.63-0.19  C716.17,365.13,716.62,364.73,717.01,364.38z M703.57,354.78c0.02-0.02,0.07-0.06,0.1-0.09c0.04-0.04,0.07-0.07,0.12-0.12  c0.01-0.01,0.01-0.01,0.02-0.02c0.01-0.01,0.04-0.04,0.05-0.05c0.03-0.03,0.05-0.05,0.09-0.09c0.1-0.1,0.22-0.21,0.33-0.31  c0.05-0.04,0.1-0.08,0.14-0.11c0.02,0.04,0.03,0.08,0.04,0.12c0.04,0.12,0.1,0.27,0.19,0.42c0.08,0.09,0.17,0.19,0.25,0.27  c0.09,0.06,0.19,0.11,0.32,0.14c0.21,0.05,0.4,0.02,0.62-0.03c0.3-0.04,0.65,0.17,0.99,0.39l6.07,3.96  c1.17,0.77,2.34,1.61,2.56,2.77l0.02,0.09l0,0.01c0.03,0.2,0.08,0.46,0.24,0.69c0.23,0.32,0.62,0.43,0.97,0.52  c-0.03,0.02-0.05,0.04-0.07,0.06l-0.26,0.23c-0.06,0.05-0.12,0.1-0.18,0.16c-0.29,0.25-0.61,0.52-0.87,0.64  c-0.24,0.11-0.41,0.15-0.54,0.14c-0.17-0.02-0.36-0.16-0.69-0.44c-0.1-0.09-0.22-0.18-0.34-0.28c-1.91-1.51-3.88-3.06-5.94-4.49  c-1.16-0.8-2.41-1.48-3.62-2.14c-0.69-0.38-1.41-0.77-2.09-1.17c0.29-0.27,0.6-0.52,0.9-0.77c0.07-0.06,0.15-0.12,0.22-0.18  C703.32,354.99,703.45,354.89,703.57,354.78z M696.15,348.1c-0.44-0.51-0.88-1.05-1.12-1.69c-0.27-0.73-0.14-1.47,0.51-1.94  c0.61-0.44,1.45-0.38,2.13-0.15c1.24,0.42,2.34,1.4,2.94,2.57c0.62,1.2,0.84,2.53,1.02,3.85c0.15,1.14,0.85,2.14,1.53,3.05  c-0.02,0.02-0.03,0.03-0.05,0.05c-0.06-0.04-0.12-0.08-0.18-0.12c-0.42-0.29-0.81-0.56-1.17-0.81c-0.7-0.48-2.18-1.58-3.23-2.37  c-0.17-0.15-0.35-0.3-0.52-0.45C697.33,349.47,696.75,348.79,696.15,348.1z M688.83,366.05c0.16-3.1,6.05-11.25,8.28-14.31  c0.17-0.24,0.33-0.45,0.46-0.64c0,0,2.63,1.95,3.16,2.31l-1.69,1.9c-0.21,0.24-5.2,5.89-6.59,8.61c-1.11,2.19-1.84,4.75,0.13,7.73  c-0.28,0.26-0.49,0.47-0.68,0.66c-0.12,0.13-0.24,0.25-0.33,0.36c-0.02-0.02-0.03-0.04-0.05-0.06  C689.92,370.62,688.71,368.34,688.83,366.05z M652.51,370.56c0.48,0.67,1.04,1.41,1.78,2.2c5.27,5.66,10.37,8.73,15.14,9.11  l0.44,0.04c3.06,0.27,9.43,0.82,18.22-5.44c1.11-0.79,2.19-1.63,3.26-2.46c0.02,0.05,0.04,0.1,0.07,0.17  c0.1,0.21,0.36,0.43,0.71,0.64c0.59,0.36,1.47,0.7,2.44,0.93c1.22,0.29,2.56,0.4,3.61,0.14c1.39-0.34,5.07-1.23,6.96-1.94  c2.2-0.83,4.2,0.76,5.51,2.03c0.49,0.47,0.87,0.96,1.28,1.47c0.91,1.14,1.94,2.43,4.35,3.77c2.73,1.52,4.45,1.67,7.57,1.95  l0.43,0.04c0.04,0,0.08,0.01,0.12,0.02c-0.62,1.14-1.36,2.72-1.11,3.46c0.08,0.23,0.24,0.4,0.46,0.49c0.31,0.12,1.71,0.8,3.19,1.51  c4.69,2.26,5.91,2.82,6.24,2.84l0.4,0.03l0.11-0.39c0.43-1.46,1.02-2.53,1.42-3.15c0.49,0.36,0.92,0.71,1.27,1.03  c1.71,1.59,3.99,3.12,6.03,4.22c-1.18,0.87-2.63,1.61-3.53,1.61c-0.77,0.03-1.72-0.23-2.87-0.72c-5.57-2.39-11.88-5.17-20.3-9.22  c-1.11-0.53-2.01-0.98-2.95-1.45c-1.15-0.57-2.35-1.17-4.06-1.99c-2.72-1.3-5.68-2.12-7.63-2.12c-3.02,0.02-5.93,1.59-10.02,3.98  c-3.2,1.87-6.82,3.98-15.14,6.03c-4.94,1.22-7.73,1.06-12.34,0.79c-0.42-0.02-0.85-0.05-1.3-0.07c-3.22-2.7-8.48-7-12.07-9.6  c-0.27-0.19-0.53-0.38-0.79-0.56c-1.58-1.12-2.95-2.09-3.12-3.18c-0.08-0.54,0.14-1.15,0.67-1.84  C649.05,372.15,651.3,371.01,652.51,370.56z M641.82,365.73c-0.35-0.82-0.56-1.69-0.72-2.57c-0.17-0.89-0.29-1.87,0.02-2.75  c0.41-1.14,1.46-2.03,2.61-2.37c1.36-0.41,2.52,0.34,3.27,1.45c1.32,1.95,1.68,5.69,1.77,7.03c-0.3,0.1-0.61,0.23-0.97,0.42  c-0.71,0.39-1.98,1.55-3.38,3.46c-0.26-0.73-0.75-1.4-1.21-2.22C642.74,367.36,642.18,366.6,641.82,365.73z M641.1,379.03  c1.09-3.15,2.45-5.65,3.72-7.49c0.38-0.55,0.75-1.05,1.11-1.48c0.99-1.21,1.84-1.96,2.34-2.23c1.08-0.59,1.63-0.62,2.17-0.13  c0.2,0.18,0.41,0.45,0.64,0.78c0.16,0.23,0.33,0.48,0.53,0.78c0.09,0.14,0.2,0.3,0.3,0.46c-1.36,0.54-3.65,1.8-5.79,4.6  c-0.7,0.92-0.98,1.77-0.86,2.6c0.23,1.51,1.76,2.59,3.53,3.85l0.78,0.56c3.22,2.33,7.79,6.04,11,8.71c0.45,0.38,0.88,0.74,1.27,1.06  c1.39,1.17,2.33,1.98,2.47,2.12c0.93,0.99,2.24,2.3,3.76,3.79c0.16,0.16,0.32,0.31,0.48,0.48c0.18,0.18,0.36,0.36,0.54,0.54  c1.28,1.27,2.62,2.6,3.91,3.9c-2.14-0.09-4.39-0.16-6.78-0.23c-0.84-0.42-1.57-0.73-2-0.8c-0.26-0.04-2.2-0.21-4.91-0.43  c-1.17-1.19-2.94-2.86-5.61-5.14c-6.1-5.2-12.56-10.07-13.69-10.83c-0.06-0.04-0.14-0.14-0.21-0.25  C640.2,382.16,640.66,380.37,641.1,379.03z M639.6,385.41c1.41,0.99,7.59,5.67,13.46,10.67c2.09,1.78,3.6,3.17,4.72,4.25  c-6.39-0.5-15.63-1.17-18.78-1.21C638.58,394.1,638.95,389.31,639.6,385.41z M636.68,402.19c0.11-0.03,0.43-0.04,0.87-0.05  c0.22,0,0.49,0,0.77,0c0.31,0,0.65,0.01,1.01,0.01c1.56,0.03,3.56,0.08,5.34,0.14c2.39,0.07,4.85,0.14,6.61,0.16l0.66,0  c2.77,0.02,5.42,0.05,7.95,0.1c0.44,0.01,0.87,0.02,1.3,0.02c2.44,0.05,4.78,0.1,6.99,0.17c2.04,0.06,3.98,0.13,5.82,0.21  c0.49,0.02,0.97,0.04,1.44,0.06c3.94,0.19,7.4,0.42,10.34,0.69c4.38,0.41,11.66,1.82,18.13,3.13c0.61,0.12,1.21,0.24,1.81,0.36  c0.28,0.06,0.56,0.11,0.83,0.17c4,0.81,7.45,1.51,9.22,1.76l2.81,0.41c7.74,1.13,15.75,2.3,26.68,2.47  c5.3,0.08,10.28-0.02,14.43-0.18c0.35-0.01,0.7-0.03,1.04-0.04c2.94-0.12,5.41-0.27,7.19-0.39c-0.03,0.03-0.05,0.06-0.08,0.09  c-0.16,0.18-0.32,0.35-0.46,0.54c-0.14,0.18-0.27,0.37-0.41,0.56c-0.09,0.12-0.18,0.24-0.27,0.36c-2.02,0.18-4.13,0.3-6.29,0.38  c-0.34,0.01-0.68,0.02-1.03,0.04c-1.34,0.04-2.69,0.08-4.05,0.09c-11.53,0.12-23.85-0.75-32.49-1.63c-2.53-0.26-4.74-0.51-6.53-0.75  c-1.87-0.24-4.61-0.75-7.78-1.33c-1.9-0.35-4-0.73-6.22-1.12c-0.56-0.1-1.12-0.19-1.69-0.29c-5.49-0.93-11.65-1.84-17.66-2.28  c-1.38-0.1-3.09-0.2-5.03-0.3c-0.45-0.02-0.91-0.04-1.39-0.07c-4.13-0.19-9.12-0.37-14.24-0.52c-0.36-0.01-0.72-0.02-1.08-0.03  c-7.85-0.22-15.87-0.35-21.44-0.34c-0.35,0-0.69,0-1.01,0c-1.02,0.01-1.95,0.02-2.75,0.03l0.04-0.81  C636.04,403.68,636.04,402.36,636.68,402.19z M762.57,421.03c-0.22,0.67-0.37,1.12-1,1.41l-0.19,0.09c-1.95,0.12-4.4,0.19-7.85,0.26  c-2.65,0.06-39.36,0.37-70.36,0.1c-0.39-0.06-1.62-0.07-3.59-0.07c-0.82,0-1.77,0-2.84,0.01c-1.69,0.01-3.39,0.01-4.68,0  c-5.03-0.04-9.55-0.11-13.94-0.17l-5.51-0.08c-6.16-0.08-13.82-0.47-15.49-0.92c-0.01,0-0.02,0-0.03-0.01  c-1.3-0.36-3.49-6.53-3.59-8.45c-0.1-1.9,0.39-5.61,0.67-6.08c0.22-0.37,1.03-0.85,1.49-1.06l0.21-0.1l0.03-0.11  c0.89-0.02,1.93-0.03,3.1-0.04c0.33,0,0.67,0,1.02,0c5.65-0.01,13.73,0.13,21.6,0.35c0.36,0.01,0.72,0.02,1.08,0.03  c5.37,0.16,10.57,0.35,14.75,0.55c0.46,0.02,0.9,0.05,1.34,0.07c1.56,0.08,2.96,0.17,4.12,0.25c5.52,0.4,11.19,1.21,16.33,2.06  c0.54,0.09,1.06,0.18,1.59,0.27c2.72,0.46,5.27,0.93,7.54,1.35c1.54,0.28,2.97,0.55,4.26,0.77c1.38,0.24,2.59,0.44,3.57,0.57  c1.83,0.24,4.11,0.5,6.71,0.77c8.12,0.82,19.43,1.63,30.3,1.63c2.01,0,4-0.03,5.96-0.1c0.35-0.01,0.69-0.02,1.04-0.04  c1.99-0.08,3.94-0.18,5.82-0.33c-1.35,2.12-2.6,4.59-3.33,6.68L762.57,421.03z M805.22,409.36c-0.32,0.7-0.62,1.37-0.81,2.1  c-0.19,0.5-0.31,0.92-0.4,1.24c-0.03,0.12-0.06,0.23-0.08,0.32c-1.7,0.66-11.89,4.5-22.18,6.44c-3.64,0.69-6.82,1.25-9.54,1.7  c0,0,0,0-0.01,0c0,0,0,0,0.01,0c-1.18,0.19-2.27,0.36-3.27,0.51c-0.95,0.15-1.5,0.24-1.5,0.24l-0.72,0.06  c-0.78,0.1-1.33,0.15-1.7,0.18c-0.02,0-0.05,0-0.08,0.01l-1.81,0.12c0.17-0.31,0.27-0.63,0.37-0.94l0.11-0.33  c0.95-2.7,2.78-6.06,4.56-8.38c0.05-0.07,0.11-0.13,0.17-0.2c0.33-0.4,0.69-0.78,1.07-1.14c0.01-0.01,0.02-0.02,0.03-0.03  c0.41-0.38,0.84-0.75,1.3-1.07c1.45-1.05,3.02-1.8,4.31-2.22c2.2-0.71,5.08-1.61,11.4-3.19c8.16-2.04,13.52-4.11,15.81-5  c0.21-0.08,0.39-0.15,0.56-0.22c0.34-0.13,0.6-0.23,0.65-0.24c0.24,0,0.38,0,0.5,0.04c0.18,0.06,0.31,0.23,0.62,0.64  c0.08,0.1,0.23,0.31,0.57,0.37c0.08,0.02,0.17,0.03,0.25,0.04c0.32,0.29,1.3,1.29,1.24,2.9  C806.57,406.37,805.85,407.96,805.22,409.36z"></path><g>	<path class="st0" d="M730.98,372.47c-1.54-0.36-1.6-1-2.77-0.82c-2.39,0.37-7.29,2.82-8.1,4.53c-1.2,2.52,0.3,2.96,1.05,2.52   c3.47-1.99,10.77-4.4,10.77-4.4S731.87,372.67,730.98,372.47z"></path>	<path class="st3" d="M720.61,379.34c-0.36,0-0.71-0.13-0.98-0.37c-0.44-0.41-0.8-1.27,0.03-3.02c0.91-1.9,6.02-4.42,8.47-4.8   c0.83-0.13,1.25,0.1,1.71,0.34c0.31,0.16,0.65,0.35,1.25,0.49l0,0c1.22,0.28,1.33,2.08,1.34,2.29l0.02,0.38l-0.36,0.12   c-0.07,0.02-7.29,2.42-10.68,4.36C721.16,379.27,720.88,379.34,720.61,379.34z M728.59,372.11c-0.09,0-0.19,0.01-0.3,0.03   c-2.34,0.36-7.03,2.8-7.72,4.25c-0.51,1.07-0.47,1.66-0.26,1.85c0.15,0.14,0.43,0.12,0.61,0.02c3.05-1.75,8.9-3.78,10.48-4.32   c-0.08-0.43-0.25-0.93-0.53-0.99l0,0c-0.73-0.17-1.15-0.4-1.5-0.58C729.06,372.21,728.89,372.11,728.59,372.11z"></path></g><g>	<path class="st0" d="M724.29,366.96c-1.54-0.36-1.6-1-2.77-0.82c-2.39,0.37-7.29,2.82-8.1,4.53c-1.2,2.52,0.3,2.96,1.05,2.52   c3.47-1.99,10.77-4.4,10.77-4.4S725.18,367.17,724.29,366.96z"></path>	<path class="st3" d="M713.92,373.84c-0.36,0-0.71-0.13-0.98-0.37c-0.44-0.41-0.8-1.27,0.03-3.02c0.91-1.9,6.02-4.42,8.47-4.81   c0.83-0.13,1.25,0.1,1.71,0.34c0.31,0.16,0.65,0.35,1.25,0.49l0,0c1.22,0.28,1.33,2.08,1.34,2.29l0.02,0.38l-0.36,0.12   c-0.07,0.02-7.3,2.42-10.68,4.36C714.47,373.77,714.19,373.84,713.92,373.84z M721.9,366.61c-0.09,0-0.19,0.01-0.3,0.03   c-2.34,0.36-7.03,2.8-7.72,4.25c-0.51,1.07-0.47,1.66-0.26,1.85c0.15,0.14,0.43,0.12,0.61,0.02c3.05-1.75,8.9-3.78,10.48-4.32   c-0.08-0.43-0.25-0.93-0.53-0.99h0c-0.73-0.17-1.15-0.4-1.5-0.58C722.37,366.71,722.2,366.61,721.9,366.61z"></path></g><g>	<path class="st0" d="M746.37,382.29c-0.91-0.26-1.04-1.41-2.63-0.94c-1.17,0.35-3.19,0.28-4.26,1.64   c-1.05,1.33-1.39,3.38,0.75,2.97c0.88-0.17,5.36-2.44,6.96-1.98C748.15,384.26,747.52,382.62,746.37,382.29z"></path>	<path class="st3" d="M739.72,386.52c-0.76,0-1.14-0.34-1.34-0.66c-0.54-0.88,0-2.26,0.71-3.17c0.91-1.15,2.35-1.4,3.51-1.6   c0.37-0.06,0.71-0.12,1-0.21c1.29-0.38,1.9,0.16,2.33,0.55c0.2,0.18,0.36,0.33,0.57,0.39l0,0c0.85,0.24,1.46,1.02,1.61,1.63   c0.12,0.48-0.07,0.75-0.19,0.87c-0.12,0.12-0.4,0.29-0.88,0.15c-0.97-0.28-3.67,0.81-5.12,1.4c-0.83,0.34-1.32,0.53-1.61,0.59   C740.1,386.5,739.9,386.52,739.72,386.52z M744.43,381.74c-0.15,0-0.32,0.03-0.54,0.09c-0.32,0.1-0.7,0.16-1.11,0.23   c-1.04,0.18-2.22,0.38-2.89,1.24c-0.64,0.81-0.85,1.7-0.65,2.03c0.15,0.24,0.63,0.19,0.91,0.13c0.21-0.04,0.8-0.28,1.42-0.53   c2.18-0.89,4.24-1.66,5.49-1.49c-0.15-0.25-0.44-0.56-0.82-0.67l0,0c-0.43-0.12-0.71-0.38-0.96-0.6   C744.99,381.92,744.79,381.74,744.43,381.74z"></path></g><g>	<path class="st0" d="M738.67,377.77c-0.93-0.16-1.19-1.34-2.72-0.66c-1.13,0.5-5.01,1.83-4.87,3.66c0.1,1.22-0.07,1.96,2.01,1.27   c0.86-0.28,4.95-2.9,6.59-2.61C740.65,379.6,739.84,377.98,738.67,377.77z"></path>	<path class="st3" d="M731.85,382.8c-0.29,0-0.52-0.06-0.71-0.19c-0.47-0.32-0.51-0.89-0.54-1.49l-0.02-0.31   c-0.15-1.96,2.97-3.25,4.65-3.94c0.21-0.08,0.38-0.16,0.52-0.22c1.26-0.56,1.92-0.07,2.4,0.29c0.21,0.16,0.39,0.29,0.61,0.33   c0.86,0.15,1.56,0.87,1.78,1.47c0.18,0.48,0.01,0.78-0.1,0.92c-0.11,0.13-0.37,0.33-0.85,0.25c-1.03-0.19-3.56,1.17-4.93,1.9   c-0.66,0.35-1.14,0.6-1.41,0.7C732.65,382.7,732.21,382.8,731.85,382.8z M736.79,377.4c-0.17,0-0.37,0.05-0.63,0.17   c-0.14,0.06-0.33,0.14-0.54,0.23c-1.13,0.46-4.13,1.7-4.03,2.93l0.02,0.33c0.02,0.26,0.04,0.65,0.11,0.72   c0.01,0,0.2,0.12,1.22-0.22c0.2-0.07,0.71-0.34,1.26-0.63c2.07-1.1,4.05-2.09,5.31-2.03c-0.17-0.25-0.5-0.57-0.91-0.64l0,0   c-0.45-0.08-0.76-0.31-1.03-0.51C737.28,377.55,737.08,377.4,736.79,377.4z"></path></g><g>	<path class="st0" d="M750.75,385.22c0.46,0.19,2.07,1.44,2.42,1.57c0.35,0.13,0.92,0.18,0.19,0.93c-0.73,0.76-2.86,2.35-3.46,2.85   c-0.6,0.49-1.89,1.25-2.29,1.03c-0.4-0.22-0.88-0.72-0.77-1.78c0.15-1.33,0.28-1.64,0.75-2.37   C748.07,386.71,750.04,384.93,750.75,385.22z"></path>	<path class="st3" d="M747.79,392.13c-0.16,0-0.3-0.03-0.42-0.1c-0.36-0.2-1.18-0.82-1.02-2.27c0.16-1.39,0.31-1.77,0.83-2.59   c0.38-0.6,2.59-2.9,3.76-2.42l0,0c0.27,0.11,0.7,0.41,1.39,0.89c0.37,0.26,0.89,0.62,1.02,0.67l0.11,0.04   c0.24,0.08,0.63,0.2,0.74,0.62c0.11,0.43-0.2,0.81-0.48,1.1c-0.57,0.59-1.92,1.65-2.82,2.34c-0.29,0.23-0.54,0.42-0.69,0.54   C750.2,390.96,748.76,392.13,747.79,392.13z M750.55,385.68c-0.46,0-2.05,1.27-2.54,2.03c-0.42,0.65-0.53,0.87-0.67,2.16   c-0.07,0.63,0.1,1.06,0.51,1.29c0.18,0,1.11-0.47,1.73-0.98c0.15-0.13,0.4-0.32,0.7-0.55c0.87-0.68,2.19-1.71,2.71-2.25   c0.03-0.03,0.06-0.06,0.08-0.09l-0.08-0.03c-0.22-0.08-0.6-0.34-1.24-0.79c-0.42-0.29-0.99-0.69-1.19-0.78   C750.57,385.69,750.56,385.68,750.55,385.68z M750.56,385.68L750.56,385.68C750.56,385.68,750.56,385.68,750.56,385.68   C750.56,385.68,750.56,385.68,750.56,385.68z"></path></g><g>	<path class="st0" d="M756.45,388.07c0.15,0.08,0.29,0.2,0.43,0.3c0.37,0.29,0.77,0.14,1.23,0.25c0.25,0.06,0.55,0.5,0.74,0.67   c0.49,0.42-0.74,1.91-0.99,2.36c-0.37,0.68-1.27,1.86-1.72,1.81c-0.45-0.06-1.49-0.51-1.49-1.57c0-1.06,0.39-1.7,0.54-2.56   c0.08-0.44,0.31-1.46,0.93-1.37C756.24,387.98,756.35,388.02,756.45,388.07z"></path>	<path class="st3" d="M756.17,393.97c-0.03,0-0.06,0-0.08-0.01c-0.63-0.08-1.93-0.69-1.93-2.07c0-0.75,0.18-1.31,0.33-1.81   c0.08-0.27,0.17-0.54,0.22-0.83c0.3-1.69,1.06-1.84,1.49-1.78c0.17,0.02,0.33,0.08,0.5,0.17l0,0c0.15,0.08,0.3,0.19,0.44,0.3   c0.15,0.12,0.26,0.13,0.51,0.14c0.17,0.01,0.37,0.01,0.6,0.07c0.32,0.08,0.56,0.35,0.78,0.59c0.06,0.07,0.12,0.14,0.17,0.18   c0.72,0.62-0.06,1.76-0.62,2.6c-0.11,0.16-0.2,0.29-0.25,0.38C758.29,391.92,757.15,393.97,756.17,393.97z M756.05,388.46   c-0.04,0.02-0.24,0.25-0.37,0.96c-0.06,0.34-0.15,0.64-0.25,0.95c-0.15,0.48-0.29,0.92-0.29,1.52c0,0.78,0.84,1.05,1.05,1.08   c0.16-0.07,0.84-0.85,1.22-1.55c0.06-0.11,0.17-0.27,0.3-0.47c0.2-0.29,0.7-1.04,0.74-1.33c-0.06-0.06-0.13-0.14-0.2-0.22   c-0.08-0.09-0.23-0.26-0.3-0.3c-0.09-0.02-0.22-0.02-0.36-0.03c-0.3-0.01-0.67-0.02-1.03-0.3c-0.16-0.12-0.25-0.2-0.36-0.26l0,0   C756.15,388.48,756.1,388.46,756.05,388.46z"></path></g></svg>
