<svg width="24" height="24" viewBox="0 0 24 24" fill="none" xmlns="http://www.w3.org/2000/svg">
<path d="M2 12.5001C2 11.3956 2.89543 10.5001 4 10.5001C5.65685 10.5001 7 11.8433 7 13.5001V17.5001C7 19.157 5.65685 20.5001 4 20.5001C2.89543 20.5001 2 19.6047 2 18.5001V12.5001Z" stroke="#2A353D" stroke-width="1.5" stroke-linecap="round" stroke-linejoin="round"/>
<path d="M15.4787 7.80638L15.2124 8.66646C14.9942 9.37123 14.8851 9.72361 14.969 10.0019C15.0369 10.2271 15.1859 10.4211 15.389 10.5488C15.64 10.7067 16.0197 10.7067 16.7791 10.7067H17.1831C19.7532 10.7067 21.0382 10.7067 21.6452 11.4674C21.7145 11.5544 21.7762 11.6468 21.8296 11.7438C22.2965 12.5923 21.7657 13.7353 20.704 16.0212C19.7297 18.119 19.2425 19.1679 18.338 19.7853C18.2505 19.845 18.1605 19.9014 18.0683 19.9543C17.116 20.5001 15.9362 20.5001 13.5764 20.5001H13.0646C10.2057 20.5001 8.77628 20.5001 7.88814 19.6396C7 18.7791 7 17.3941 7 14.624V13.6505C7 12.1948 7 11.4669 7.25834 10.8007C7.51668 10.1345 8.01135 9.58677 9.00069 8.49124L13.0921 3.96068C13.1947 3.84706 13.246 3.79024 13.2913 3.75087C13.7135 3.3834 14.3652 3.42477 14.7344 3.84247C14.774 3.88722 14.8172 3.95003 14.9036 4.07566C15.0388 4.27217 15.1064 4.37043 15.1654 4.46778C15.6928 5.33925 15.8524 6.37449 15.6108 7.35727C15.5838 7.46704 15.5488 7.58022 15.4787 7.80638Z" stroke="#2A353D" stroke-width="1.5" stroke-linecap="round" stroke-linejoin="round"/>
</svg>
